<svg width="268" height="83" viewBox="0 0 268 83" fill="none" xmlns="http://www.w3.org/2000/svg">
<path d="M1.008 2.808V3.048H3.384V20.76H1.008V21H9.36C13.992 21 16.968 19.344 16.848 15.696C16.752 12.696 13.632 11.544 10.536 11.4V11.376C13.104 10.896 15.528 9.624 15.528 6.936C15.528 4.224 13.08 2.808 8.832 2.808H1.008ZM12.96 7.176C12.96 9.696 11.568 11.328 8.952 11.328H5.88V3.048H8.952C11.568 3.048 12.96 4.656 12.96 7.176ZM14.088 16.152C14.088 18.984 12.576 20.76 9.36 20.76H5.88V11.568H9.36C12.576 11.568 14.088 13.32 14.088 16.152ZM38.9816 3.048H40.9736V2.808H36.4616V3.048H38.6696L33.2456 14.184H33.1256L27.3656 3.048H29.5976V2.808H22.6376V3.048H24.6296L31.9016 16.92L32.7656 15.168L31.1336 18.528C27.7736 18.312 26.8616 19.128 26.8616 20.088C26.8616 20.808 27.5336 21.312 28.4216 21.312C29.5256 21.312 30.2696 20.928 31.0856 19.248L38.9816 3.048ZM48.3407 20.76H45.9647V12.264H55.4207V20.76H53.0447V21H60.2927V20.76H57.9167V3.048H60.2927V2.808H53.0447V3.048H55.4207V10.992H45.9647V3.048H48.3407V2.808H41.0927V3.048H43.4687V20.76H41.0927V21H48.3407V20.76ZM69.3116 20.76H66.9356V19.392L76.0316 4.632V20.76H73.6556V21H80.9036V20.76H78.5276V3.048H80.9036V2.808H73.6556V3.048H76.0316V4.032L66.9356 18.792V3.048H69.3116V2.808H62.0636V3.048H64.4396V20.76H62.0636V21H69.3116V20.76Z" fill="#404040"/>
<path d="M10.968 48.312C16.152 48.312 20.736 44.496 20.736 38.808C20.736 33.144 16.152 29.304 10.968 29.304C5.784 29.304 1.2 33.12 1.2 38.808C1.2 44.472 5.784 48.312 10.968 48.312ZM11.736 48C6.816 48 3.84 42.288 3.84 37.104C3.84 32.136 6.912 29.616 10.2 29.616C15.12 29.616 18.096 35.328 18.096 40.512C18.096 45.48 15.024 48 11.736 48ZM27.0283 48H34.7563V47.76H32.1403V30.048H36.6283C37.1323 30.048 37.1563 30.048 37.3483 30.504L39.5323 35.856H39.6763L38.9563 28.68H38.8123L37.0123 29.808H24.7723L22.9723 28.68H22.8283L22.1083 35.856H22.2523L24.4363 30.504C24.6283 30.048 24.6523 30.048 25.1563 30.048H29.6443V47.76H27.0283V48ZM48.2291 47.76H45.8531V38.808L56.0051 48H59.7731L49.2131 38.448H45.8531L56.1491 30.048H58.9331V29.808H53.0531V30.048H55.6931L45.8531 38.088V30.048H48.2291V29.808H40.9811V30.048H43.3571V47.76H40.9811V48H48.2291V47.76ZM60.288 48H68.016V47.76H65.16V30.048H69.096C71.472 30.048 73.2 31.92 73.2 34.632C73.2 37.344 71.472 39.192 69.096 39.192H65.952V39.432H69.144C72.792 39.432 75.912 37.584 75.912 34.44C75.912 30.528 72.072 29.808 68.832 29.808H60.288V30.048H62.664V47.76H60.288V48ZM81.9133 30.048H84.2893V29.808H77.0413V30.048H79.4173V47.76H77.0413V48H85.1533C89.7853 48 92.6413 46.2 92.6413 42.456C92.6413 39.36 89.7613 37.848 85.1533 37.848H81.9133V30.048ZM100.249 47.76H97.8733V30.048H100.249V29.808H93.0013V30.048H95.3773V47.76H93.0013V48H100.249V47.76ZM89.8813 42.912C89.8813 45.816 88.3693 47.76 85.1533 47.76H81.9133V38.088H85.1533C88.3693 38.088 89.8813 40.008 89.8813 42.912ZM106.459 48H114.187V47.76H111.571V30.048H116.059C116.563 30.048 116.587 30.048 116.779 30.504L118.963 35.856H119.107L118.387 28.68H118.243L116.443 29.808H104.203L102.403 28.68H102.259L101.539 35.856H101.683L103.867 30.504C104.059 30.048 104.083 30.048 104.587 30.048H109.075V47.76H106.459V48ZM128.849 48H135.665V47.76H133.673L126.809 29.808H124.241L125.225 32.4L119.201 47.76H117.209V48H121.721V47.76H119.513L122.105 41.16H128.561L131.081 47.76H128.849V48ZM122.609 39.888L125.369 32.808L128.081 39.888H122.609Z" fill="#404040"/>
<path d="M1.008 58.808V59.048H3.384V76.76H1.008V77H9.36C13.992 77 16.968 75.344 16.848 71.696C16.752 68.696 13.632 67.544 10.536 67.4V67.376C13.104 66.896 15.528 65.624 15.528 62.936C15.528 60.224 13.08 58.808 8.832 58.808H1.008ZM12.96 63.176C12.96 65.696 11.568 67.328 8.952 67.328H5.88V59.048H8.952C11.568 59.048 12.96 60.656 12.96 63.176ZM14.088 72.152C14.088 74.984 12.576 76.76 9.36 76.76H5.88V67.568H9.36C12.576 67.568 14.088 69.32 14.088 72.152ZM28.7046 77.312C33.8886 77.312 38.4726 73.496 38.4726 67.808C38.4726 62.144 33.8886 58.304 28.7046 58.304C23.5206 58.304 18.9366 62.12 18.9366 67.808C18.9366 73.472 23.5206 77.312 28.7046 77.312ZM29.4726 77C24.5526 77 21.5766 71.288 21.5766 66.104C21.5766 61.136 24.6486 58.616 27.9366 58.616C32.8566 58.616 35.8326 64.328 35.8326 69.512C35.8326 74.48 32.7606 77 29.4726 77ZM40.278 77H54.942L56.646 71.144H56.478L52.71 76.328C52.47 76.64 52.254 76.76 51.75 76.76H45.15V67.808H48.678C48.918 67.808 49.014 67.832 49.158 68.168L50.526 71.12H50.67V64.256H50.526L49.158 67.208C49.014 67.544 48.918 67.568 48.678 67.568H45.15V59.048H50.478C51.006 59.048 51.174 59.12 51.414 59.48L54.534 64.424H54.678L53.694 58.808H40.278V59.048H42.654V76.76H40.278V77ZM65.286 76.76H62.91V68.264H72.366V76.76H69.99V77H77.238V76.76H74.862V59.048H77.238V58.808H69.99V59.048H72.366V66.992H62.91V59.048H65.286V58.808H58.038V59.048H60.414V76.76H58.038V77H65.286V76.76ZM86.2569 76.76H83.8809V68.264H93.3369V76.76H90.9609V77H98.2089V76.76H95.8329V59.048H98.2089V58.808H90.9609V59.048H93.3369V66.992H83.8809V59.048H86.2569V58.808H79.0089V59.048H81.3849V76.76H79.0089V77H86.2569V76.76ZM109.988 77H116.804V76.76H114.812L107.948 58.808H105.38L106.364 61.4L100.34 76.76H98.3479V77H102.86V76.76H100.652L103.244 70.16H109.7L112.22 76.76H109.988V77ZM103.748 68.888L106.508 61.808L109.22 68.888H103.748ZM133.285 77V76.76H130.909V59.048H133.285V58.808H126.301C121.837 58.808 119.053 60.128 119.053 63.608C119.053 66.104 120.949 67.736 124.549 68.096V68.168C123.757 68.48 122.581 69.656 121.357 71L115.885 77H119.245L127.213 68.264H128.413V76.76H125.557V77H133.285ZM128.413 68.024H126.301C123.181 68.024 121.765 66.104 121.765 63.536C121.765 60.968 123.181 59.048 126.301 59.048H128.413V68.024ZM148.649 76.76H146.273V67.808L156.425 77H160.193L149.633 67.448H146.273L156.569 59.048H159.353V58.808H153.473V59.048H156.113L146.273 67.088V59.048H148.649V58.808H141.401V59.048H143.777V76.76H141.401V77H148.649V76.76ZM170.715 77H177.531V76.76H175.539L168.675 58.808H166.107L167.091 61.4L161.067 76.76H159.075V77H163.587V76.76H161.379L163.971 70.16H170.427L172.947 76.76H170.715V77ZM164.475 68.888L167.235 61.808L169.947 68.888H164.475ZM191.42 77.24H189.044V74.912C194.54 74.768 198.884 71.936 198.884 67.808C198.884 63.68 194.54 60.848 189.044 60.704V58.568H191.42V58.328H184.172V58.568H186.548V60.704C181.052 60.848 176.732 63.68 176.732 67.808C176.732 71.936 181.052 74.768 186.548 74.912V77.24H184.172V77.48H191.42V77.24ZM186.548 60.968V74.624C182.492 74.312 179.468 71.576 179.468 66.944C179.468 63.128 182.42 60.968 186.548 60.968ZM196.124 68.648C196.124 72.464 193.196 74.624 189.044 74.648V60.992C193.076 61.328 196.124 64.04 196.124 68.648ZM200.282 77H214.946L216.65 71.144H216.482L212.714 76.328C212.474 76.64 212.258 76.76 211.754 76.76H205.154V67.808H208.682C208.922 67.808 209.018 67.832 209.162 68.168L210.53 71.12H210.674V64.256H210.53L209.162 67.208C209.018 67.544 208.922 67.568 208.682 67.568H205.154V59.048H210.482C211.01 59.048 211.178 59.12 211.418 59.48L214.538 64.424H214.682L213.698 58.808H200.282V59.048H202.658V76.76H200.282V77ZM216.487 82.376H216.631L219.031 77.432C219.223 77.024 219.439 77 219.967 77H230.887C231.415 77 231.631 77.024 231.823 77.432L234.223 82.376H234.367L234.103 76.76H231.751V59.048H234.127V58.808H219.511V59.048H221.887C221.815 66.08 221.335 72.704 219.127 76.76H216.751L216.487 82.376ZM222.199 59.048H229.255V76.76H219.439C221.599 72.752 222.055 66.128 222.199 59.048ZM235.919 77H243.647V76.76H240.791V59.048H244.727C247.103 59.048 248.831 60.92 248.831 63.632C248.831 66.344 247.103 68.192 244.727 68.192H241.583V68.432H244.775C248.423 68.432 251.543 66.584 251.543 63.44C251.543 59.528 247.703 58.808 244.463 58.808H235.919V59.048H238.295V76.76H235.919V77ZM261.179 77H267.995V76.76H266.003L259.139 58.808H256.571L257.555 61.4L251.531 76.76H249.539V77H254.051V76.76H251.843L254.435 70.16H260.891L263.411 76.76H261.179V77ZM254.939 68.888L257.699 61.808L260.411 68.888H254.939Z" fill="#404040"/>
</svg>
