<svg width="1658" height="164" viewBox="0 0 1658 164" fill="none" xmlns="http://www.w3.org/2000/svg">
<path d="M93.5659 126.417H77.8949V128H125.699V126.417H110.028V9.59735H125.699V8.01442H0.648278V9.59735H16.3192V126.417H0.648278V128H48.4526V126.417H32.7816V9.59735H93.5659V126.417ZM128.71 128H225.427L236.666 89.3767H235.558L210.706 123.568C209.123 125.626 207.698 126.417 204.374 126.417H160.844V67.374H184.113C185.696 67.374 186.329 67.5323 187.279 69.7484L196.301 89.2184H197.251V43.9468H196.301L187.279 63.4167C186.329 65.6328 185.696 65.7911 184.113 65.7911H160.844V9.59735H195.985C199.467 9.59735 200.575 10.0722 202.158 12.4466L222.736 45.0548H223.686L217.196 8.01442H128.71V9.59735H144.381V126.417H128.71V128ZM237.141 128H288.111V126.417H269.274V9.59735H295.234C310.905 9.59735 322.302 21.9441 322.302 39.8312C322.302 57.7182 310.905 69.9067 295.234 69.9067H274.498V71.4896H295.551C319.611 71.4896 340.189 59.3011 340.189 38.5648C340.189 12.7632 314.862 8.01442 293.493 8.01442H237.141V9.59735H252.812V126.417H237.141V128ZM338.615 8.01442V9.59735H354.286V126.417H338.615V128H393.7C424.251 128 443.879 117.078 443.088 93.0174C442.454 73.2309 421.876 65.6328 401.457 64.6831V64.5248C418.394 61.3589 434.382 52.9694 434.382 35.2407C434.382 17.3537 418.236 8.01442 390.218 8.01442H338.615ZM417.444 36.8236C417.444 53.4443 408.263 64.2082 391.009 64.2082H370.748V9.59735H391.009C408.263 9.59735 417.444 20.2029 417.444 36.8236ZM424.884 96.025C424.884 114.703 414.912 126.417 393.7 126.417H370.748V65.7911H393.7C414.912 65.7911 424.884 77.3465 424.884 96.025ZM479.34 9.59735H495.011V8.01442H447.207V9.59735H462.878V126.417H447.207V128H500.71C531.26 128 550.097 116.128 550.097 91.4345C550.097 71.0148 531.102 61.0424 500.71 61.0424H479.34V9.59735ZM600.276 126.417H584.605V9.59735H600.276V8.01442H552.471V9.59735H568.142V126.417H552.471V128H600.276V126.417ZM531.893 94.442C531.893 113.595 521.921 126.417 500.71 126.417H479.34V62.6253H500.71C521.921 62.6253 531.893 75.2887 531.893 94.442ZM603.241 128H699.958L711.197 89.3767H710.088L685.237 123.568C683.654 125.626 682.229 126.417 678.905 126.417H635.375V67.374H658.643C660.226 67.374 660.86 67.5323 661.809 69.7484L670.832 89.2184H671.782V43.9468H670.832L661.809 63.4167C660.86 65.6328 660.226 65.7911 658.643 65.7911H635.375V9.59735H670.515C673.998 9.59735 675.106 10.0722 676.689 12.4466L697.267 45.0548H698.217L691.727 8.01442H603.241V9.59735H618.912V126.417H603.241V128ZM780.37 128.633C752.353 128.633 732.249 99.3491 732.249 62.7836C732.249 23.0522 758.684 6.11491 779.579 6.11491C800.157 6.11491 817.411 17.9868 828.491 53.9192H829.441L820.735 5.16516H819.785L812.345 13.7129C804.114 7.69783 792.084 4.69028 779.579 4.69028C739.689 4.69028 712.938 33.0246 712.938 67.374C712.938 105.997 743.488 130.058 780.37 130.058C792.875 130.058 804.906 127.05 813.137 121.035L820.577 129.583H821.526L830.232 80.8289H829.283C818.202 116.761 800.948 128.633 780.37 128.633ZM864.535 128H915.505V126.417H898.251V9.59735H927.852C931.176 9.59735 931.334 9.59735 932.6 12.6049L947.005 47.9041H947.955L943.206 0.574678H942.256L930.384 8.01442H849.655L837.783 0.574678H836.834L832.085 47.9041H833.035L847.439 12.6049C848.706 9.59735 848.864 9.59735 852.188 9.59735H881.789V126.417H864.535V128ZM1044.73 9.59735H1057.87V8.01442H1028.11V9.59735H1042.67L1006.9 83.045H1006.11L968.116 9.59735H982.837V8.01442H936.932V9.59735H950.071L998.033 101.09L1003.73 89.535L992.968 111.696C970.807 110.271 964.792 115.653 964.792 121.985C964.792 126.734 969.224 130.058 975.081 130.058C982.362 130.058 987.269 127.525 992.651 116.445L1044.73 9.59735ZM1034.12 163.457H1035.07L1050.9 130.849C1052.17 128.158 1053.59 128 1057.08 128H1129.1C1132.58 128 1134.01 128.158 1135.27 130.849L1151.1 163.457H1152.05L1150.31 126.417H1134.8V9.59735H1150.47V8.01442H1054.07V9.59735H1069.74C1069.26 55.977 1066.1 99.6657 1051.53 126.417H1035.86L1034.12 163.457ZM1071.8 9.59735H1118.33V126.417H1053.59C1067.84 99.9823 1070.85 56.2936 1071.8 9.59735ZM1153.59 128H1250.3L1261.54 89.3767H1260.43L1235.58 123.568C1234 125.626 1232.57 126.417 1229.25 126.417H1185.72V67.374H1208.99C1210.57 67.374 1211.2 67.5323 1212.15 69.7484L1221.18 89.2184H1222.13V43.9468H1221.18L1212.15 63.4167C1211.2 65.6328 1210.57 65.7911 1208.99 65.7911H1185.72V9.59735H1220.86C1224.34 9.59735 1225.45 10.0722 1227.03 12.4466L1247.61 45.0548H1248.56L1242.07 8.01442H1153.59V9.59735H1169.26V126.417H1153.59V128ZM1309.82 126.417H1294.15V70.3816H1356.52V126.417H1340.85V128H1388.65V126.417H1372.98V9.59735H1388.65V8.01442H1340.85V9.59735H1356.52V61.9921H1294.15V9.59735H1309.82V8.01442H1262.02V9.59735H1277.69V126.417H1262.02V128H1309.82V126.417ZM1420.91 128H1471.88V126.417H1454.62V9.59735H1484.22C1487.55 9.59735 1487.71 9.59735 1488.97 12.6049L1503.38 47.9041H1504.33L1499.58 0.574678H1498.63L1486.76 8.01442H1406.03L1394.16 0.574678H1393.21L1388.46 47.9041H1389.41L1403.81 12.6049C1405.08 9.59735 1405.24 9.59735 1408.56 9.59735H1438.16V126.417H1420.91V128ZM1536.68 9.59735H1552.35V8.01442H1504.54V9.59735H1520.21V126.417H1504.54V128H1558.05C1588.6 128 1607.43 116.128 1607.43 91.4345C1607.43 71.0148 1588.44 61.0424 1558.05 61.0424H1536.68V9.59735ZM1657.61 126.417H1641.94V9.59735H1657.61V8.01442H1609.81V9.59735H1625.48V126.417H1609.81V128H1657.61V126.417ZM1589.23 94.442C1589.23 113.595 1579.26 126.417 1558.05 126.417H1536.68V62.6253H1558.05C1579.26 62.6253 1589.23 75.2887 1589.23 94.442Z" fill="white"/>
</svg>
