<svg width="1121" height="174" viewBox="0 0 1121 174" fill="none" xmlns="http://www.w3.org/2000/svg">
<path d="M87.0325 173.76C132.895 173.76 173.449 140.001 173.449 89.6796C173.449 39.5709 132.895 5.59889 87.0325 5.59889C41.1703 5.59889 0.616245 39.3586 0.616245 89.6796C0.616245 139.788 41.1703 173.76 87.0325 173.76ZM93.8269 171C50.3003 171 23.972 120.467 23.972 74.6045C23.972 30.6532 51.1496 8.35912 80.2381 8.35912C123.765 8.35912 150.093 58.8925 150.093 104.755C150.093 148.706 122.915 171 93.8269 171ZM217.438 171H285.807V168.877H262.663V12.181H302.368C306.827 12.181 307.039 12.181 308.738 16.2151L328.059 63.5636H329.333L322.964 0.078437H321.69L305.765 10.0577H197.48L181.555 0.078437H180.281L173.912 63.5636H175.185L194.507 16.2151C196.206 12.181 196.418 12.181 200.877 12.181H240.582V168.877H217.438V171ZM393.321 168.877H372.301V89.6796L462.114 171H495.449L402.026 86.4947H372.301L463.388 12.181H488.018V10.0577H435.998V12.181H459.354L372.301 83.3098V12.181H393.321V10.0577H329.199V12.181H350.219V168.877H329.199V171H393.321V168.877ZM488.327 171H556.695V168.877H531.429V12.181H566.25C587.27 12.181 602.557 28.7423 602.557 52.735C602.557 76.7277 587.27 93.0768 566.25 93.0768H538.435V95.2H566.674C598.948 95.2 626.55 78.851 626.55 51.0364C626.55 16.4275 592.578 10.0577 563.914 10.0577H488.327V12.181H509.347V168.877H488.327V171ZM667.965 12.181H688.985V10.0577H624.863V12.181H645.883V168.877H624.863V171H696.629C737.608 171 762.874 155.076 762.874 121.953C762.874 94.563 737.395 81.1866 696.629 81.1866H667.965V12.181ZM830.181 168.877H809.161V12.181H830.181V10.0577H766.059V12.181H787.079V168.877H766.059V171H830.181V168.877ZM738.457 125.987C738.457 151.678 725.08 168.877 696.629 168.877H667.965V83.3098H696.629C725.08 83.3098 738.457 100.296 738.457 125.987ZM873.439 171H941.808V168.877H918.664V12.181H958.369C962.828 12.181 963.04 12.181 964.739 16.2151L984.06 63.5636H985.334L978.965 0.078437H977.691L961.766 10.0577H853.481L837.556 0.078437H836.282L829.913 63.5636H831.186L850.508 16.2151C852.207 12.181 852.419 12.181 856.878 12.181H896.583V168.877H873.439V171ZM1059.85 171H1120.15V168.877H1102.52L1041.8 10.0577H1019.08L1027.79 32.9888L974.493 168.877H956.87V171H996.787V168.877H977.253L1000.18 110.487H1057.3L1079.59 168.877H1059.85V171ZM1004.64 99.2342L1029.06 36.5983L1053.05 99.2342H1004.64Z" fill="#404040"/>
</svg>
