<svg width="1451" height="676" viewBox="0 0 1451 676" fill="none" xmlns="http://www.w3.org/2000/svg">
<path d="M73.0398 410.877H52.0196V398.774L132.491 268.194V410.877H111.471V413H175.593V410.877H154.573V254.181H175.593V252.058H111.471V254.181H132.491V262.886L52.0196 393.466V254.181H73.0398V252.058H8.91765V254.181H29.9378V410.877H8.91765V413H73.0398V410.877ZM167.554 460.561H168.828L190.061 416.822C191.759 413.212 193.67 413 198.341 413H294.949C299.62 413 301.531 413.212 303.23 416.822L324.462 460.561H325.736L323.401 410.877H302.593V254.181H323.613V252.058H194.307V254.181H215.327C214.69 316.392 210.444 374.994 190.91 410.877H169.89L167.554 460.561ZM218.088 254.181H280.511V410.877H193.67C212.779 375.418 216.814 316.817 218.088 254.181ZM327.795 413H396.163V410.877H370.897V254.181H405.718C426.738 254.181 442.026 270.742 442.026 294.735C442.026 318.728 426.738 335.077 405.718 335.077H377.903V337.2H406.143C438.416 337.2 466.018 320.851 466.018 293.036C466.018 258.427 432.046 252.058 403.382 252.058H327.795V254.181H348.815V410.877H327.795V413ZM528.029 410.877H507.009V398.774L587.48 268.194V410.877H566.46V413H630.582V410.877H609.562V254.181H630.582V252.058H566.46V254.181H587.48V262.886L507.009 393.466V254.181H528.029V252.058H463.907V254.181H484.927V410.877H463.907V413H528.029V410.877ZM725.343 413.849C687.762 413.849 660.797 374.569 660.797 325.522C660.797 272.229 696.255 249.51 724.282 249.51C751.884 249.51 775.027 265.434 789.89 313.632H791.164L779.486 248.236H778.212L768.233 259.701C757.192 251.633 741.055 247.599 724.282 247.599C670.776 247.599 634.893 285.605 634.893 331.68C634.893 383.487 675.872 415.76 725.343 415.76C742.117 415.76 758.254 411.726 769.295 403.658L779.274 415.123H780.548L792.226 349.727H790.952C776.089 397.925 752.946 413.849 725.343 413.849ZM887.072 415.76C932.934 415.76 973.488 382.001 973.488 331.68C973.488 281.571 932.934 247.599 887.072 247.599C841.21 247.599 800.656 281.359 800.656 331.68C800.656 381.788 841.21 415.76 887.072 415.76ZM893.866 413C850.34 413 824.011 362.467 824.011 316.604C824.011 272.653 851.189 250.359 880.278 250.359C923.804 250.359 950.132 300.892 950.132 346.755C950.132 390.706 922.955 413 893.866 413ZM977.783 252.058V254.181H998.803V410.877H977.783V413H1051.67C1092.65 413 1118.98 398.35 1117.92 366.076C1117.07 339.536 1089.47 329.344 1062.08 328.07V327.858C1084.79 323.611 1106.24 312.358 1106.24 288.578C1106.24 264.585 1084.58 252.058 1047 252.058H977.783ZM1083.52 290.701C1083.52 312.995 1071.21 327.433 1048.06 327.433H1020.88V254.181H1048.06C1071.21 254.181 1083.52 268.407 1083.52 290.701ZM1093.5 370.11C1093.5 395.165 1080.12 410.877 1051.67 410.877H1020.88V329.556H1051.67C1080.12 329.556 1093.5 345.056 1093.5 370.11ZM1187.14 410.877H1166.12V398.774L1246.59 268.194V410.877H1225.57V413H1289.69V410.877H1268.67V254.181H1289.69V252.058H1225.57V254.181H1246.59V262.886L1166.12 393.466V254.181H1187.14V252.058H1123.02V254.181H1144.04V410.877H1123.02V413H1187.14V410.877ZM1310.11 295.372C1310.11 329.981 1330.91 343.357 1368.28 343.357C1381.02 343.357 1393.97 341.659 1407.35 335.714V410.877H1386.33V413H1450.45V410.877H1429.43V254.181H1450.45V252.058H1386.33V254.181H1407.35V333.59C1393.55 339.96 1381.02 341.234 1374.44 341.234C1349.81 341.234 1332.19 333.378 1332.19 295.372V254.181H1353.21V252.058H1289.09V254.181H1310.11V295.372Z" fill="#404040"/>
<path d="M5.52045 192H49.0471V189.877H28.6639L36.3076 63.7558L98.5188 167.158H99.5804L153.299 44.8588L162.004 189.877H140.984V192H205.106V189.877H184.086L174.743 33.181H195.764V31.0577H156.696L108.71 140.405L42.2527 31.0577H16.5613L33.972 59.9339L26.116 189.877H5.52045V192ZM293.493 192H353.793V189.877H336.17L275.445 31.0577H252.726L261.432 53.9888L208.138 189.877H190.515V192H230.432V189.877H210.898L233.829 131.487H290.945L313.239 189.877H293.493V192ZM238.288 120.234L262.706 57.5983L286.698 120.234H238.288ZM403.207 194.76C441.85 194.76 465.418 180.11 465.418 147.199C465.418 119.597 439.939 108.344 415.521 107.282V107.07C435.905 103.248 455.014 90.721 455.014 65.4544C455.014 39.9754 435.905 26.5989 403.844 26.5989C391.953 26.5989 379.851 30.2084 373.269 35.7289L365.625 27.2359H364.351L353.31 84.5636H354.584C369.659 46.5574 380.913 28.5098 403.844 28.5098C422.528 28.5098 432.295 43.7972 432.295 67.5776C432.295 91.1457 421.679 106.433 401.933 106.433H383.248V108.556H401.933C429.747 108.556 441 125.118 441 150.172C441 176.925 428.898 192.637 403.207 192.637C378.789 192.637 363.29 174.165 348.002 134.035H346.728L357.769 194.123H359.043L366.687 185.63C374.33 189.664 389.193 194.76 403.207 194.76ZM532.59 189.877H511.57V177.774L592.041 47.1944V189.877H571.021V192H635.143V189.877H614.123V33.181H635.143V31.0577H571.021V33.181H592.041V41.8863L511.57 172.466V33.181H532.59V31.0577H468.468V33.181H489.489V189.877H468.468V192H532.59V189.877ZM678.488 192H746.856V189.877H723.713V33.181H763.418C767.876 33.181 768.089 33.181 769.787 37.2151L789.109 84.5636H790.383L784.013 21.0784H782.739L766.815 31.0577H658.529L642.605 21.0784H641.331L634.961 84.5636H636.235L655.556 37.2151C657.255 33.181 657.467 33.181 661.926 33.181H701.631V189.877H678.488V192Z" fill="#404040"/>
<path d="M101.067 635.849C63.4852 635.849 36.5199 596.569 36.5199 547.522C36.5199 494.229 71.9781 471.51 100.005 471.51C127.607 471.51 150.751 487.434 165.613 535.632H166.887L155.21 470.236H153.936L143.956 481.701C132.915 473.633 116.779 469.599 100.005 469.599C46.4992 469.599 10.6162 507.605 10.6162 553.68C10.6162 605.487 51.595 637.76 101.067 637.76C117.84 637.76 133.977 633.726 145.018 625.658L154.997 637.123H156.271L167.949 571.727H166.675C151.812 619.925 128.669 635.849 101.067 635.849ZM261.976 635H322.276V632.877H304.653L243.928 474.058H221.209L229.915 496.989L176.621 632.877H158.998V635H198.915V632.877H179.381L202.312 574.487H259.428L281.722 632.877H261.976V635ZM206.771 563.234L231.189 500.598L255.181 563.234H206.771ZM397.806 458.77C419.25 458.77 433.264 445.606 433.264 424.798H415.004C415.004 444.969 412.881 456.647 397.806 456.647C383.155 456.647 379.333 444.969 379.333 424.798H361.073C361.073 443.271 372.751 458.77 397.806 458.77ZM376.998 632.877H355.978V620.774L436.449 490.194V632.877H415.429V635H479.551V632.877H458.531V476.181H479.551V474.058H415.429V476.181H436.449V484.886L355.978 615.466V476.181H376.998V474.058H312.876V476.181H333.896V632.877H312.876V635H376.998V632.877ZM610.22 637.123H589.2V616.528C637.822 615.254 676.253 590.199 676.253 553.68C676.253 517.16 637.822 492.105 589.2 490.831V471.934H610.22V469.811H546.098V471.934H567.118V490.831C518.496 492.105 480.277 517.16 480.277 553.68C480.277 590.199 518.496 615.254 567.118 616.528V637.123H546.098V639.246H610.22V637.123ZM567.118 493.167V613.98C531.235 611.22 504.482 587.015 504.482 546.036C504.482 512.276 530.598 493.167 567.118 493.167ZM651.836 561.111C651.836 594.871 625.932 613.98 589.2 614.192V493.379C624.871 496.352 651.836 520.345 651.836 561.111ZM801.082 476.181H818.705V474.058H778.788V476.181H798.322L750.336 574.7H749.275L698.317 476.181H718.063V474.058H656.489V476.181H674.112L738.446 598.905L746.09 583.405L731.652 613.131C701.926 611.22 693.858 618.439 693.858 626.932C693.858 633.301 699.803 637.76 707.659 637.76C717.426 637.76 724.008 634.363 731.227 619.5L801.082 476.181ZM824.776 624.596C836.242 599.754 840.488 544.125 841.762 476.181H903.973V632.877H882.953V635H947.075V632.877H926.055V476.181H947.075V474.058H817.769V476.181H838.79C838.365 527.139 835.817 580.22 826.05 612.918C821.804 611.857 817.769 611.432 812.886 611.432C797.599 611.432 792.503 618.651 792.503 625.445C792.503 633.301 798.872 637.76 806.304 637.76C813.948 637.76 820.105 635 824.776 624.596ZM973.329 624.596C984.794 599.754 989.041 544.125 990.315 476.181H1052.53V632.877H1031.51V635H1095.63V632.877H1074.61V476.181H1095.63V474.058H966.322V476.181H987.342C986.918 527.139 984.37 580.22 974.603 612.918C970.356 611.857 966.322 611.432 961.439 611.432C946.151 611.432 941.056 618.651 941.056 625.445C941.056 633.301 947.425 637.76 954.857 637.76C962.5 637.76 968.658 635 973.329 624.596ZM1163.71 632.877H1142.69V620.774L1223.16 490.194V632.877H1202.14V635H1266.26V632.877H1245.24V476.181H1266.26V474.058H1202.14V476.181H1223.16V484.886L1142.69 615.466V476.181H1163.71V474.058H1099.59V476.181H1120.61V632.877H1099.59V635H1163.71V632.877ZM1334.45 632.877H1313.43V557.714H1397.08V632.877H1376.06V635H1440.19V632.877H1419.17V476.181H1440.19V474.058H1376.06V476.181H1397.08V546.461H1313.43V476.181H1334.45V474.058H1270.33V476.181H1291.35V632.877H1270.33V635H1334.45V632.877Z" fill="#404040"/>
</svg>
