<svg width="662" height="164" viewBox="0 0 662 164" fill="none" xmlns="http://www.w3.org/2000/svg">
<path d="M0.917647 0.0577183V2.18097H21.9378V158.877H0.917647V161H74.8067C115.785 161 142.114 146.35 141.052 114.076C140.203 87.5356 112.601 77.344 85.2106 76.07V75.8577C107.929 71.6112 129.374 60.358 129.374 36.5776C129.374 12.5849 107.717 0.0577183 70.1356 0.0577183H0.917647ZM106.655 38.7008C106.655 60.995 94.3406 75.4331 71.1972 75.4331H44.0196V2.18097H71.1972C94.3406 2.18097 106.655 16.4067 106.655 38.7008ZM116.635 118.11C116.635 143.165 103.258 158.877 74.8067 158.877H44.0196V77.5563H74.8067C103.258 77.5563 116.635 93.056 116.635 118.11ZM313.51 2.18097H331.133V0.0577183H291.216V2.18097H310.749L262.764 100.7H261.702L210.744 2.18097H230.491V0.0577183H168.916V2.18097H186.539L250.874 124.905L258.518 109.405L244.079 139.131C214.354 137.22 206.286 144.439 206.286 152.932C206.286 159.301 212.231 163.76 220.087 163.76C229.854 163.76 236.436 160.363 243.655 145.5L313.51 2.18097ZM384.63 158.877H363.61V83.7137H447.266V158.877H426.246V161H490.368V158.877H469.348V2.18097H490.368V0.0577183H426.246V2.18097H447.266V72.4605H363.61V2.18097H384.63V0.0577183H320.508V2.18097H341.528V158.877H320.508V161H384.63V158.877ZM558.48 158.877H537.459V146.774L617.931 16.1944V158.877H596.91V161H661.032V158.877H640.012V2.18097H661.032V0.0577183H596.91V2.18097H617.931V10.8863L537.459 141.466V2.18097H558.48V0.0577183H494.357V2.18097H515.378V158.877H494.357V161H558.48V158.877Z" fill="#404040"/>
</svg>
