<svg width="1443" height="214" viewBox="0 0 1443 214" fill="none" xmlns="http://www.w3.org/2000/svg">
<path d="M65.0398 163.877H44.0196V151.774L124.491 21.1944V163.877H103.471V166H167.593V163.877H146.573V7.18097H167.593V5.05772H103.471V7.18097H124.491V15.8863L44.0196 146.466V7.18097H65.0398V5.05772H0.917647V7.18097H21.9378V163.877H0.917647V166H65.0398V163.877ZM159.554 213.561H160.828L182.061 169.822C183.759 166.212 185.67 166 190.341 166H286.949C291.62 166 293.531 166.212 295.23 169.822L316.462 213.561H317.736L315.401 163.877H294.593V7.18097H315.613V5.05772H186.307V7.18097H207.327C206.69 69.3922 202.444 127.994 182.91 163.877H161.89L159.554 213.561ZM210.088 7.18097H272.511V163.877H185.67C204.779 128.418 208.814 69.8168 210.088 7.18097ZM319.795 166H388.163V163.877H362.897V7.18097H397.718C418.738 7.18097 434.026 23.7423 434.026 47.735C434.026 71.7277 418.738 88.0768 397.718 88.0768H369.903V90.2H398.143C430.416 90.2 458.018 73.851 458.018 46.0364C458.018 11.4275 424.046 5.05772 395.382 5.05772H319.795V7.18097H340.815V163.877H319.795V166ZM520.029 163.877H499.009V151.774L579.48 21.1944V163.877H558.46V166H622.582V163.877H601.562V7.18097H622.582V5.05772H558.46V7.18097H579.48V15.8863L499.009 146.466V7.18097H520.029V5.05772H455.907V7.18097H476.927V163.877H455.907V166H520.029V163.877ZM717.343 166.849C679.762 166.849 652.797 127.569 652.797 78.5221C652.797 25.2286 688.255 2.50981 716.282 2.50981C743.884 2.50981 767.027 18.4342 781.89 66.6319H783.164L771.486 1.23587H770.212L760.233 12.7014C749.192 4.63306 733.055 0.598889 716.282 0.598889C662.776 0.598889 626.893 38.6051 626.893 84.6796C626.893 136.487 667.872 168.76 717.343 168.76C734.117 168.76 750.254 164.726 761.295 156.658L771.274 168.123H772.548L784.226 102.727H782.952C768.089 150.925 744.946 166.849 717.343 166.849ZM879.072 168.76C924.934 168.76 965.488 135.001 965.488 84.6796C965.488 34.5709 924.934 0.598889 879.072 0.598889C833.21 0.598889 792.656 34.3586 792.656 84.6796C792.656 134.788 833.21 168.76 879.072 168.76ZM885.866 166C842.34 166 816.011 115.467 816.011 69.6045C816.011 25.6532 843.189 3.35912 872.278 3.35912C915.804 3.35912 942.132 53.8925 942.132 99.7546C942.132 143.706 914.955 166 885.866 166ZM969.783 5.05772V7.18097H990.803V163.877H969.783V166H1043.67C1084.65 166 1110.98 151.35 1109.92 119.076C1109.07 92.5356 1081.47 82.344 1054.08 81.07V80.8577C1076.79 76.6112 1098.24 65.358 1098.24 41.5776C1098.24 17.5849 1076.58 5.05772 1039 5.05772H969.783ZM1075.52 43.7008C1075.52 65.995 1063.21 80.4331 1040.06 80.4331H1012.88V7.18097H1040.06C1063.21 7.18097 1075.52 21.4067 1075.52 43.7008ZM1085.5 123.11C1085.5 148.165 1072.12 163.877 1043.67 163.877H1012.88V82.5563H1043.67C1072.12 82.5563 1085.5 98.056 1085.5 123.11ZM1179.14 163.877H1158.12V151.774L1238.59 21.1944V163.877H1217.57V166H1281.69V163.877H1260.67V7.18097H1281.69V5.05772H1217.57V7.18097H1238.59V15.8863L1158.12 146.466V7.18097H1179.14V5.05772H1115.02V7.18097H1136.04V163.877H1115.02V166H1179.14V163.877ZM1302.11 48.372C1302.11 82.981 1322.91 96.3574 1360.28 96.3574C1373.02 96.3574 1385.97 94.6588 1399.35 88.7137V163.877H1378.33V166H1442.45V163.877H1421.43V7.18097H1442.45V5.05772H1378.33V7.18097H1399.35V86.5905C1385.55 92.9602 1373.02 94.2342 1366.44 94.2342C1341.81 94.2342 1324.19 86.3782 1324.19 48.372V7.18097H1345.21V5.05772H1281.09V7.18097H1302.11V48.372Z" fill="#404040"/>
</svg>
