<svg width="4224" height="408" viewBox="0 0 4224 408" fill="none" xmlns="http://www.w3.org/2000/svg">
<path d="M232.763 315.045H193.609V319H313.047V315.045H273.894V23.174H313.047V19.2191H0.610553V23.174H39.764V315.045H0.610553V319H120.048V315.045H80.8949V23.174H232.763V315.045ZM320.571 319H562.215L590.294 222.501H587.526L525.434 307.926C521.479 313.068 517.92 315.045 509.615 315.045H400.855V167.528H458.992C462.947 167.528 464.529 167.923 466.902 173.46L489.445 222.105H491.818V108.995H489.445L466.902 157.64C464.529 163.177 462.947 163.573 458.992 163.573H400.855V23.174H488.654C497.354 23.174 500.123 24.3604 504.078 30.2928L555.491 111.764H557.864L541.649 19.2191H320.571V23.174H359.724V315.045H320.571V319ZM591.481 319H718.828V315.045H671.765V23.174H736.625C775.779 23.174 804.254 54.0221 804.254 98.7124C804.254 143.403 775.779 173.855 736.625 173.855H684.816V177.81H737.416C797.531 177.81 848.944 147.358 848.944 95.5485C848.944 31.0838 785.666 19.2191 732.275 19.2191H591.481V23.174H630.634V315.045H591.481V319ZM845.011 19.2191V23.174H884.165V315.045H845.011V319H982.641C1058.97 319 1108.01 291.711 1106.03 231.597C1104.45 182.161 1053.04 163.177 1002.02 160.804V160.409C1044.34 152.499 1084.28 131.538 1084.28 87.2432C1084.28 42.5529 1043.94 19.2191 973.941 19.2191H845.011ZM1041.96 91.1981C1041.96 132.725 1019.03 159.618 975.918 159.618H925.296V23.174H975.918C1019.03 23.174 1041.96 49.6718 1041.96 91.1981ZM1060.55 239.111C1060.55 285.779 1035.64 315.045 982.641 315.045H925.296V163.573H982.641C1035.64 163.573 1060.55 192.443 1060.55 239.111ZM1196.61 23.174H1235.76V19.2191H1116.33V23.174H1155.48V315.045H1116.33V319H1250C1326.33 319 1373.39 289.338 1373.39 227.642C1373.39 176.624 1325.94 151.708 1250 151.708H1196.61V23.174ZM1498.76 315.045H1459.61V23.174H1498.76V19.2191H1379.33V23.174H1418.48V315.045H1379.33V319H1498.76V315.045ZM1327.91 235.156C1327.91 283.01 1303 315.045 1250 315.045H1196.61V155.663H1250C1303 155.663 1327.91 187.302 1327.91 235.156ZM1506.17 319H1747.82L1775.9 222.501H1773.13L1711.04 307.926C1707.08 313.068 1703.52 315.045 1695.22 315.045H1586.46V167.528H1644.59C1648.55 167.528 1650.13 167.923 1652.5 173.46L1675.05 222.105H1677.42V108.995H1675.05L1652.5 157.64C1650.13 163.177 1648.55 163.573 1644.59 163.573H1586.46V23.174H1674.26C1682.96 23.174 1685.73 24.3604 1689.68 30.2928L1741.09 111.764H1743.47L1727.25 19.2191H1506.17V23.174H1545.33V315.045H1506.17V319ZM2031.55 320.582C1961.55 320.582 1911.32 247.416 1911.32 156.058C1911.32 56.7906 1977.37 14.4732 2029.57 14.4732C2080.98 14.4732 2124.09 44.1349 2151.78 133.911H2154.15L2132.4 12.1003H2130.02L2111.44 33.4567C2090.87 18.4281 2060.81 10.9138 2029.57 10.9138C1929.91 10.9138 1863.07 81.7064 1863.07 167.528C1863.07 264.027 1939.4 324.141 2031.55 324.141C2062.79 324.141 2092.85 316.627 2113.41 301.598L2132 322.955H2134.37L2156.13 201.144H2153.75C2126.07 290.92 2082.96 320.582 2031.55 320.582ZM2241.83 319H2369.18V315.045H2326.07V23.174H2400.03C2408.33 23.174 2408.73 23.174 2411.89 30.6883L2447.88 118.882H2450.25L2438.39 0.631072H2436.02L2406.35 19.2191H2204.65L2174.99 0.631072H2172.62L2160.75 118.882H2163.13L2199.12 30.6883C2202.28 23.174 2202.68 23.174 2210.98 23.174H2284.94V315.045H2241.83V319ZM2692.04 23.174H2724.87V19.2191H2650.52V23.174H2686.9L2597.52 206.681H2595.54L2500.63 23.174H2537.41V19.2191H2422.71V23.174H2455.54L2575.37 251.767L2589.61 222.896L2562.72 278.265C2507.35 274.705 2492.32 288.152 2492.32 303.971C2492.32 315.836 2503.39 324.141 2518.03 324.141C2536.22 324.141 2548.48 317.814 2561.93 290.129L2692.04 23.174ZM2665.54 407.59H2667.91L2707.46 326.119C2710.63 319.395 2714.19 319 2722.89 319H2902.83C2911.54 319 2915.1 319.395 2918.26 326.119L2957.81 407.59H2960.18L2955.83 315.045H2917.07V23.174H2956.23V19.2191H2715.37V23.174H2754.53C2753.34 139.052 2745.43 248.207 2709.05 315.045H2669.89L2665.54 407.59ZM2759.67 23.174H2875.94V315.045H2714.19C2749.78 248.998 2757.29 139.843 2759.67 23.174ZM2964.02 319H3205.66L3233.74 222.501H3230.97L3168.88 307.926C3164.92 313.068 3161.36 315.045 3153.06 315.045H3044.3V167.528H3102.44C3106.39 167.528 3107.97 167.923 3110.35 173.46L3132.89 222.105H3135.26V108.995H3132.89L3110.35 157.64C3107.97 163.177 3106.39 163.573 3102.44 163.573H3044.3V23.174H3132.1C3140.8 23.174 3143.57 24.3604 3147.52 30.2928L3198.94 111.764H3201.31L3185.09 19.2191H2964.02V23.174H3003.17V315.045H2964.02V319ZM3354.36 315.045H3315.21V175.042H3471.03V315.045H3431.88V319H3551.32V315.045H3512.16V23.174H3551.32V19.2191H3431.88V23.174H3471.03V154.081H3315.21V23.174H3354.36V19.2191H3234.93V23.174H3274.08V315.045H3234.93V319H3354.36V315.045ZM3631.91 319H3759.26V315.045H3716.15V23.174H3790.11C3798.41 23.174 3798.81 23.174 3801.97 30.6883L3837.96 118.882H3840.34L3828.47 0.631072H3826.1L3796.44 19.2191H3594.74L3565.08 0.631072H3562.7L3550.84 118.882H3553.21L3589.2 30.6883C3592.36 23.174 3592.76 23.174 3601.07 23.174H3675.02V315.045H3631.91V319ZM3921.16 23.174H3960.31V19.2191H3840.88V23.174H3880.03V315.045H3840.88V319H3974.55C4050.88 319 4097.94 289.338 4097.94 227.642C4097.94 176.624 4050.49 151.708 3974.55 151.708H3921.16V23.174ZM4223.32 315.045H4184.16V23.174H4223.32V19.2191H4103.88V23.174H4143.03V315.045H4103.88V319H4223.32V315.045ZM4052.46 235.156C4052.46 283.01 4027.55 315.045 3974.55 315.045H3921.16V155.663H3974.55C4027.55 155.663 4052.46 187.302 4052.46 235.156Z" fill="white"/>
</svg>
