<svg width="1920" height="441" viewBox="0 0 1920 441" fill="none" xmlns="http://www.w3.org/2000/svg">
<path d="M1929.5 278L1957 274V40H0.00012207V255.5L85.0001 282L82.0001 285.5L148.5 298L200 313L216 322H228.5L251 326L266.5 329H276.5L279.5 326H287.5H310L330 324L334 329L338.5 334.5L349.5 351L364 356.5H371.5L381 353.5H390.5L400.5 356.5H409C406.167 358.5 407.3 366.1 434.5 380.5C444.9 360.1 462.5 346.667 470 342.5H505L571.5 338.5L587.5 340.5H606.5L614.5 336L638 331.5L667.5 329V326C670.5 325 678.9 322.5 688.5 320.5C761.7 315.7 813.667 285.833 830.5 271.5L852.5 268C856.667 268 866.6 268.3 873 269.5C880 281.5 886 280.5 889.5 279.5C917.1 269.5 935.334 271.333 941 273.5L938.5 276L973 277.5L976 280.5L971 294H1008.5V297.5C1017 295 1035.7 289.3 1042.5 286.5C1049.3 283.7 1044 280.667 1040.5 279.5H1045L1053 277.5H1064.5L1072.5 275C1082 275.833 1105.4 277 1123 275C1140.6 273 1147.67 280.833 1149 285C1151.5 288.5 1159.8 299 1173 313C1189 328.6 1205 314.833 1211 306C1216.17 301.333 1229.3 293 1240.5 297C1256.5 324.6 1268.17 319.167 1272 313L1274.5 316.5L1278 320L1282.5 315L1289.5 306L1294.5 300H1303L1310.5 295.5L1316 287.5L1323 281L1339 273L1351 267.5L1356 265.5L1362.5 264.5H1368L1374 267.5V264.5L1375.5 259.5L1378.5 257.5L1384.5 256.5H1392L1424.5 247L1441 242.5H1446L1450.5 247H1470H1484L1488.5 250C1491.33 250.667 1497.2 252 1498 252C1498.8 252 1509.33 253.333 1514.5 254L1525 256.5L1528.5 259.5C1531.83 261.5 1538.7 265.5 1539.5 265.5C1540.3 265.5 1547.17 266.833 1550.5 267.5L1583 270.5L1641 272L1646.5 276.5L1654.5 282.5L1669 290.5L1693.5 299L1721.5 310.5L1725 315H1729.5H1734.5L1737.5 310.5L1745.5 297.5C1750.83 291 1765.1 275.9 1779.5 267.5C1771.9 276.7 1781 274.333 1786.5 272L1804.5 261C1809.5 259.167 1823.7 258.8 1840.5 272C1857.3 285.2 1873.5 286.833 1879.5 286L1914 281V282.5L1929.5 278Z" fill="#003F78"/>
<g filter="url(#filter0_d_804_1059)">
<path d="M27.5001 248L0.00012207 244V10H1957V225.5L1872 252L1875 255.5L1808.5 268L1757 283L1741 292H1728.5L1706 296L1690.5 299H1680.5L1677.5 296H1669.5H1647L1627 294L1623 299L1618.5 304.5L1607.5 321L1593 326.5H1585.5L1576 323.5H1566.5L1556.5 326.5H1548C1550.83 328.5 1549.7 336.1 1522.5 350.5C1512.1 330.1 1494.5 316.667 1487 312.5H1452L1385.5 308.5L1369.5 310.5H1350.5L1342.5 306L1319 301.5L1289.5 299V296C1286.5 295 1278.1 292.5 1268.5 290.5C1195.3 285.7 1143.33 255.833 1126.5 241.5L1104.5 238C1100.33 238 1090.4 238.3 1084 239.5C1077 251.5 1071 250.5 1067.5 249.5C1039.9 239.5 1021.67 241.333 1016 243.5L1018.5 246L984 247.5L981 250.5L986 264H948.5V267.5C940 265 921.3 259.3 914.5 256.5C907.7 253.7 913 250.667 916.5 249.5H912L904 247.5H892.5L884.5 245C875 245.833 851.6 247 834 245C816.4 243 809.334 250.833 808 255C805.5 258.5 797.2 269 784 283C768 298.6 752 284.833 746 276C740.834 271.333 727.7 263 716.5 267C700.5 294.6 688.834 289.167 685 283L682.5 286.5L679 290L674.5 285L667.5 276L662.5 270H654L646.5 265.5L641 257.5L634 251L618 243L606 237.5L601 235.5L594.5 234.5H589L583 237.5V234.5L581.5 229.5L578.5 227.5L572.5 226.5H565L532.5 217L516 212.5H511L506.5 217H487H473L468.5 220C465.667 220.667 459.8 222 459 222C458.2 222 447.667 223.333 442.5 224L432 226.5L428.5 229.5C425.167 231.5 418.3 235.5 417.5 235.5C416.7 235.5 409.834 236.833 406.5 237.5L374 240.5L316 242L310.5 246.5L302.5 252.5L288 260.5L263.5 269L235.5 280.5L232 285H227.5H222.5L219.5 280.5L211.5 267.5C206.167 261 191.9 245.9 177.5 237.5C185.1 246.7 176 244.333 170.5 242L152.5 231C147.5 229.167 133.3 228.8 116.5 242C99.7001 255.2 83.5001 256.833 77.5001 256L43.0001 251V252.5L27.5001 248Z" fill="#003F78"/>
</g>
<defs>
<filter id="filter0_d_804_1059" x="-49.9999" y="0" width="2057" height="440.5" filterUnits="userSpaceOnUse" color-interpolation-filters="sRGB">
<feFlood flood-opacity="0" result="BackgroundImageFix"/>
<feColorMatrix in="SourceAlpha" type="matrix" values="0 0 0 0 0 0 0 0 0 0 0 0 0 0 0 0 0 0 127 0" result="hardAlpha"/>
<feOffset dy="40"/>
<feGaussianBlur stdDeviation="25"/>
<feComposite in2="hardAlpha" operator="out"/>
<feColorMatrix type="matrix" values="0 0 0 0 0 0 0 0 0 0 0 0 0 0 0 0 0 0 0.11 0"/>
<feBlend mode="normal" in2="BackgroundImageFix" result="effect1_dropShadow_804_1059"/>
<feBlend mode="normal" in="SourceGraphic" in2="effect1_dropShadow_804_1059" result="shape"/>
</filter>
</defs>
</svg>
