<svg width="1920" height="441" viewBox="0 0 1920 441" fill="none" xmlns="http://www.w3.org/2000/svg">
<g filter="url(#filter0_d_582_1709)">
<path d="M1892.5 248L1920 244V10H-37V225.5L48 252L45 255.5L111.5 268L163 283L179 292H191.5L214 296L229.5 299H239.5L242.5 296H250.5H273L293 294L297 299L301.5 304.5L312.5 321L327 326.5H334.5L344 323.5H353.5L363.5 326.5H372C369.167 328.5 370.3 336.1 397.5 350.5C407.9 330.1 425.5 316.667 433 312.5H468L534.5 308.5L550.5 310.5H569.5L577.5 306L601 301.5L630.5 299V296C633.5 295 641.9 292.5 651.5 290.5C724.7 285.7 776.667 255.833 793.5 241.5L815.5 238C819.667 238 829.6 238.3 836 239.5C843 251.5 849 250.5 852.5 249.5C880.1 239.5 898.333 241.333 904 243.5L901.5 246L936 247.5L939 250.5L934 264H971.5V267.5C980 265 998.7 259.3 1005.5 256.5C1012.3 253.7 1007 250.667 1003.5 249.5H1008L1016 247.5H1027.5L1035.5 245C1045 245.833 1068.4 247 1086 245C1103.6 243 1110.67 250.833 1112 255C1114.5 258.5 1122.8 269 1136 283C1152 298.6 1168 284.833 1174 276C1179.17 271.333 1192.3 263 1203.5 267C1219.5 294.6 1231.17 289.167 1235 283L1237.5 286.5L1241 290L1245.5 285L1252.5 276L1257.5 270H1266L1273.5 265.5L1279 257.5L1286 251L1302 243L1314 237.5L1319 235.5L1325.5 234.5H1331L1337 237.5V234.5L1338.5 229.5L1341.5 227.5L1347.5 226.5H1355L1387.5 217L1404 212.5H1409L1413.5 217H1433H1447L1451.5 220C1454.33 220.667 1460.2 222 1461 222C1461.8 222 1472.33 223.333 1477.5 224L1488 226.5L1491.5 229.5C1494.83 231.5 1501.7 235.5 1502.5 235.5C1503.3 235.5 1510.17 236.833 1513.5 237.5L1546 240.5L1604 242L1609.5 246.5L1617.5 252.5L1632 260.5L1656.5 269L1684.5 280.5L1688 285H1692.5H1697.5L1700.5 280.5L1708.5 267.5C1713.83 261 1728.1 245.9 1742.5 237.5C1734.9 246.7 1744 244.333 1749.5 242L1767.5 231C1772.5 229.167 1786.7 228.8 1803.5 242C1820.3 255.2 1836.5 256.833 1842.5 256L1877 251V252.5L1892.5 248Z" fill="#11151A"/>
</g>
<defs>
<filter id="filter0_d_582_1709" x="-87" y="0" width="2057" height="440.5" filterUnits="userSpaceOnUse" color-interpolation-filters="sRGB">
<feFlood flood-opacity="0" result="BackgroundImageFix"/>
<feColorMatrix in="SourceAlpha" type="matrix" values="0 0 0 0 0 0 0 0 0 0 0 0 0 0 0 0 0 0 127 0" result="hardAlpha"/>
<feOffset dy="40"/>
<feGaussianBlur stdDeviation="25"/>
<feComposite in2="hardAlpha" operator="out"/>
<feColorMatrix type="matrix" values="0 0 0 0 0 0 0 0 0 0 0 0 0 0 0 0 0 0 0.11 0"/>
<feBlend mode="normal" in2="BackgroundImageFix" result="effect1_dropShadow_582_1709"/>
<feBlend mode="normal" in="SourceGraphic" in2="effect1_dropShadow_582_1709" result="shape"/>
</filter>
</defs>
</svg>
