<svg width="15" height="16" viewBox="0 0 15 16" fill="none" xmlns="http://www.w3.org/2000/svg">
<path d="M3.69597 7.00343C3.97053 6.72888 3.97053 6.28372 3.69597 6.00914C3.42142 5.73457 2.97612 5.73459 2.70155 6.00914L1.43201 7.27868C-0.425276 9.16107 -0.42374 12.2051 1.43536 14.064L1.43871 14.0674C2.37928 14.9955 3.60989 15.4594 4.83771 15.4594C6.06706 15.4594 7.29388 14.9942 8.22399 14.0641L9.49017 12.7979C9.76472 12.5233 9.76472 12.0782 9.49017 11.8036C9.21562 11.529 8.77031 11.529 8.49574 11.8036L7.22956 13.0698C5.91567 14.3837 3.76206 14.3827 2.42778 13.0681C1.11542 11.7539 1.11696 9.60161 2.43127 8.2681L3.69597 7.00343Z" fill="black"/>
<path d="M11.3029 8.99694C11.0284 9.2715 11.0284 9.71666 11.3029 9.99123C11.4402 10.1285 11.6202 10.1971 11.8001 10.1971C11.9801 10.1971 12.1601 10.1285 12.2973 9.99123L13.5669 8.72169C15.4242 6.8393 15.4226 3.79526 13.5635 1.93633L13.5602 1.93299C11.6778 0.0757003 8.63376 0.0772362 6.77483 1.93633L5.50865 3.20251C5.2341 3.47707 5.2341 3.92223 5.50865 4.1968C5.7832 4.47137 6.22851 4.47135 6.50308 4.1968L7.76926 2.93062C9.08315 1.61673 11.2368 1.61769 12.571 2.93229C13.8834 4.24647 13.8819 6.39879 12.5676 7.73229L11.3029 8.99694Z" fill="black"/>
<path d="M5.14342 10.3558C5.28069 10.4931 5.46066 10.5617 5.64063 10.5617C5.8206 10.5617 6.00056 10.4931 6.13784 10.3558L9.85499 6.63868C10.1295 6.36413 10.1295 5.91897 9.85499 5.6444C9.58043 5.36983 9.13513 5.36984 8.86056 5.6444L5.14342 9.36154C4.86886 9.63596 4.86886 10.0811 5.14342 10.3558Z" fill="black"/>
</svg>
