<svg width="318" height="315" viewBox="0 0 318 315" fill="none" xmlns="http://www.w3.org/2000/svg">
<g opacity="0.2">
<path d="M126.465 308.101L119.31 306.366C123.052 304.301 126.27 301.073 127.629 296.493L125.184 295.901C123.722 300.666 121.156 303.42 117.028 305.813L116.567 307.715L126.003 310.003L126.465 308.101Z" fill="white"/>
<path d="M113.023 293.87C114.722 294.433 115.154 295.735 114.857 297.285L116.891 297.959C117.482 295.701 116.57 293.239 113.598 292.255C111.05 291.411 108.352 292.205 107.403 295.072C106.448 297.955 107.984 300.133 110.178 300.86C111.328 301.241 112.312 301.233 113.095 300.943L111.622 304.028L105.677 302.059L105.062 303.916L112.74 306.46L115.951 299.611L114.005 298.849C113.488 299.522 112.445 299.824 111.242 299.426C109.968 299.004 108.958 297.668 109.591 295.757C110.159 294.041 111.608 293.402 113.023 293.87Z" fill="white"/>
<path d="M91.4228 282.888L86.9667 291.871L93.4446 295.084L95.2102 291.945C97.0835 288.63 98.1573 288.185 98.8919 288.549L99.0922 288.649L99.8708 287.079L99.5035 286.897C97.4332 285.87 95.5784 287.093 93.4643 290.725L92.37 292.596L89.732 291.287L93.4096 283.874L91.4228 282.888Z" fill="white"/>
<path d="M78.0975 279.954C76.1736 282.71 76.5159 285.868 79.1401 287.471C81.5735 288.957 84.4562 288.207 86.0303 285.631C87.5363 283.165 87.2347 280.12 84.4832 278.439C82.2885 277.098 80.1293 277.701 78.912 278.836L80.7727 279.972C81.6023 279.365 82.5989 279.45 83.6008 280.062C84.6823 280.723 85.3195 282.182 84.4751 283.851L78.0975 279.954ZM80.0437 285.992C78.9305 285.312 78.4081 283.879 79.1766 282.514L83.6298 285.234C82.4735 286.734 80.9344 286.536 80.0437 285.992Z" fill="white"/>
<path d="M66.2542 276.11L65.2172 277.522L72.518 282.884L73.5549 281.472L70.7909 279.442L75.6887 272.772L73.9011 271.459L69.0032 278.129L66.2542 276.11Z" fill="white"/>
<path d="M64.6866 259.418C63.0647 257.851 62.1165 257.894 59.6329 259.097L50.1456 263.847L51.7808 265.427L58.4146 261.833L55.0513 268.587L56.7937 270.27L61.1082 260.574L61.3569 260.477C62.5851 259.85 62.9318 260.081 63.6288 260.755L64.2319 261.337L65.4103 260.118L64.6866 259.418Z" fill="white"/>
<path d="M40.1587 257.802L41.6074 259.481L44.2464 257.205C46.1089 259.364 48.8808 260.124 51.5057 257.859C54.2152 255.522 53.786 252.742 51.9234 250.583L54.3084 248.525L52.8597 246.846L50.4747 248.903C48.6244 246.758 45.925 245.912 43.2154 248.249C40.5906 250.513 40.9351 253.366 42.7977 255.526L40.1587 257.802ZM50.5827 251.739C51.7149 253.051 51.8653 254.595 50.1013 256.117C48.309 257.663 46.7211 257.335 45.6011 256.036L50.5827 251.739ZM44.1525 254.357C43.0203 253.045 42.9526 251.454 44.7449 249.908C46.5089 248.386 48.0019 248.747 49.1341 250.06L44.1525 254.357Z" fill="white"/>
<path d="M32.3128 241.435L33.5926 243.246L42.0538 243.11L36.3457 247.143L37.6254 248.954L45.8147 243.168L44.5349 241.357L36.1042 241.471L41.7818 237.46L40.502 235.649L32.3128 241.435Z" fill="white"/>
<path d="M23.8484 226.844L25.5021 229.763L32.9875 228.457L28.0561 234.271L29.7097 237.19L38.4338 232.247L37.3773 230.382L30.5018 234.277L35.9257 227.82L35.0805 226.328L26.7211 227.68L33.629 223.766L32.5725 221.901L23.8484 226.844Z" fill="white"/>
<path d="M20.3544 219.47C21.5746 222.212 24.4324 223.041 27.1568 221.828C29.8811 220.616 31.1607 217.945 29.9785 215.289C29.1069 213.331 27.0568 211.979 24.7295 212.525L25.6086 214.5C26.9558 214.227 27.8305 215 28.2776 216.005C28.8081 217.197 28.387 218.771 26.2076 219.742C24.0451 220.704 22.6085 219.997 22.0401 218.72C21.5475 217.613 21.8572 216.476 22.7444 215.857L21.8652 213.881C19.9982 215.141 19.4601 217.461 20.3544 219.47Z" fill="white"/>
<path d="M24.4852 201.427L23.6558 199.012L20.087 204.514L14.2575 202.516L15.0809 204.914L19.7033 206.38L20.0968 207.526L16.4129 208.791L17.1394 210.907L26.6225 207.649L25.8959 205.534L21.7537 206.957L21.4146 205.97L24.4852 201.427Z" fill="white"/>
<path d="M17.6498 195.56C15.4066 196.116 14.0072 195.195 13.6665 193.82C13.3257 192.445 14.1333 190.978 16.3764 190.422C18.6196 189.866 20.0009 190.791 20.3417 192.166C20.6824 193.541 19.8929 195.004 17.6498 195.56ZM11.9117 194.255C12.4991 196.625 14.6918 198.654 18.2013 197.785C21.7288 196.91 22.6838 194.101 22.0964 191.731C21.509 189.361 19.3525 187.323 15.8249 188.197C12.3155 189.067 11.3244 191.885 11.9117 194.255Z" fill="white"/>
<path d="M8.48383 173.508L8.97276 176.827L16.4252 178.31L9.72788 181.953L10.2168 185.272L20.1366 183.811L19.8243 181.69L12.0064 182.842L19.3951 178.777L19.1452 177.081L10.8613 175.325L18.716 174.168L18.4037 172.047L8.48383 173.508Z" fill="white"/>
<path d="M21.561 168.19C21.4426 165.938 20.7198 165.323 18.0828 164.51L7.90353 161.517L8.02285 163.788L15.3263 165.681L8.26148 168.329L8.38862 170.749L18.1552 166.596L18.403 166.695C19.7293 167.073 19.8252 167.479 19.8761 168.447L19.9201 169.284L21.6138 169.195L21.561 168.19Z" fill="white"/>
<path d="M10.5744 142.529L8.82802 142.391L8.28876 149.172L18.2841 149.967L18.4599 147.756L10.211 147.1L10.5744 142.529Z" fill="white"/>
<path d="M14.6775 137.009C12.3965 136.637 11.4721 135.24 11.6997 133.842C11.9273 132.444 13.2471 131.413 15.5281 131.784C17.8091 132.156 18.7151 133.55 18.4875 134.948C18.2599 136.346 16.9585 137.38 14.6775 137.009ZM9.91539 133.552C9.52304 135.962 10.7405 138.69 14.3091 139.271C17.8962 139.855 19.8795 137.648 20.2719 135.238C20.6642 132.828 19.4836 130.106 15.8965 129.522C12.3278 128.941 10.3077 131.142 9.91539 133.552Z" fill="white"/>
<path d="M12.7185 120.6C11.9781 123.507 13.708 125.929 16.5978 126.664C19.4876 127.4 22.1466 126.096 22.8639 123.279C23.3928 121.202 22.6208 118.87 20.4555 117.858L19.9221 119.953C21.1489 120.573 21.3564 121.722 21.0851 122.787C20.7632 124.052 19.4571 125.027 17.1453 124.438C14.8515 123.854 14.1617 122.409 14.5065 121.055C14.8054 119.881 15.7532 119.18 16.8333 119.243L17.3667 117.148C15.1208 116.98 13.2611 118.468 12.7185 120.6Z" fill="white"/>
<path d="M28.2587 115.677C28.9986 113.547 28.5612 112.704 26.4258 110.956L18.1272 104.345L17.3812 106.493L23.431 111.001L15.8892 110.789L15.0943 113.078L25.7058 112.916L25.8979 113.101C26.9836 113.952 26.9195 114.363 26.6015 115.279L26.3264 116.071L27.9285 116.628L28.2587 115.677Z" fill="white"/>
<path d="M31.5849 94.3708L30.9739 95.7308L23.4085 92.3325L20.4149 98.9969L23.261 100.439C26.5244 102.089 27.6138 103.211 27.1556 104.231L26.9341 104.724L30.6743 106.404L31.4991 104.568L29.34 103.598L32.3412 96.9171L34.5003 97.8869L35.3251 96.0508L31.5849 94.3708ZM30.0652 97.7539L28.2094 101.885C27.8408 100.841 26.6938 99.9376 24.3238 98.7096L22.8149 97.9296L24.0978 95.0735L30.0652 97.7539Z" fill="white"/>
<path d="M34.2521 85.1715C35.746 86.0131 35.9848 87.26 35.1798 88.6889C34.631 89.6632 33.8196 90.0404 33.0564 89.6104C32.0658 89.0524 32.2911 87.7033 33.5863 84.7965L34.2521 85.1715ZM36.3872 89.9252C37.119 88.6262 37.2477 87.3724 36.6098 86.2644C37.238 86.5541 37.4766 86.6243 37.8866 86.7698L38.8837 84.9998C38.0524 84.7668 36.8537 84.1985 35.7495 83.5765C34.9539 83.1283 33.9329 82.5104 33.5107 82.2726C30.7452 80.6505 28.8633 81.7508 27.6833 83.8456C26.4941 85.9565 26.8958 88.1294 28.5926 89.2564L29.6628 87.3565C28.6348 86.7132 28.5268 85.6898 29.0756 84.7155C29.6245 83.7412 30.5548 83.1529 32.0487 83.9945L32.2111 84.086C30.7592 87.4607 29.7604 90.449 31.9525 91.6839C33.5439 92.5803 35.3169 91.8251 36.3872 89.9252Z" fill="white"/>
<path d="M38.0341 77.2721C36.1279 75.9655 35.8484 74.3955 36.6703 73.1965C37.5555 71.9052 39.1632 71.9001 40.9003 73.0909C42.6681 74.3027 43.2279 75.7936 42.3427 77.0848C41.5208 78.2839 39.9403 78.5788 38.0341 77.2721ZM32.6976 76.19L43.6581 83.7033L44.9121 81.874L41.1305 79.2817C42.2825 79.3483 43.3491 78.8141 44.1078 77.7073C45.4988 75.6781 44.8664 73.0077 42.207 71.1847C39.5629 69.3722 36.8441 69.7455 35.4532 71.7746C34.6945 72.8814 34.5809 74.069 35.0584 75.1194L33.9516 74.3607L32.6976 76.19Z" fill="white"/>
<path d="M42.9747 62.0151C41.0674 64.3315 41.6025 67.2588 43.9046 69.1542C46.2067 71.0496 49.1678 71.0011 51.0158 68.7566C52.3782 67.102 52.6716 64.6638 51.143 62.8258L49.7688 64.4948C50.6152 65.578 50.3141 66.7061 49.6151 67.555C48.7859 68.5622 47.189 68.889 45.3473 67.3726C43.5201 65.8681 43.5106 64.267 44.3991 63.1879C45.1691 62.2527 46.3251 62.0215 47.2755 62.5385L48.6497 60.8695C46.6888 59.7619 44.3726 60.3173 42.9747 62.0151Z" fill="white"/>
<path d="M56.0385 50.8307L54.7854 49.6063L48.4553 56.085L49.7084 57.3093L52.105 54.8565L58.0238 60.6395L59.5737 59.0532L53.655 53.2702L56.0385 50.8307Z" fill="white"/>
<path d="M58.0687 46.6641L64.62 54.2549L68.373 51.0158C70.0803 49.5424 70.7899 47.7974 69.3896 46.1748C68.525 45.1731 67.5101 45.1381 66.5675 45.5578C66.9749 44.6891 66.8508 43.8607 66.1811 43.0847C64.8294 41.5186 63.2186 42.2195 61.6384 43.5833L58.0687 46.6641ZM62.4267 48.3191L60.8802 46.5272L62.6297 45.0172C63.4622 44.2988 64.1387 44.0842 64.711 44.7474C65.2955 45.4246 65.0228 46.0785 64.1903 46.7969L62.4267 48.3191ZM63.4739 49.5325L65.3363 47.9251C66.3522 47.0484 67.0409 46.8479 67.6619 47.5675C68.2464 48.2447 68.0448 49.0095 67.043 49.8741L65.1665 51.4937L63.4739 49.5325Z" fill="white"/>
<path d="M78.8981 37.5823C77.104 34.7402 74.0608 33.8312 71.5654 35.6283C69.2514 37.2947 68.8252 40.2429 70.5896 42.6929C72.2777 45.0371 75.2018 45.9401 77.8182 44.0559C79.9053 42.5529 80.187 40.3289 79.6133 38.7668L77.8438 40.0411C78.0817 41.0412 77.6171 41.9269 76.6643 42.6131C75.6359 43.3537 74.0436 43.375 72.8334 41.9498L78.8981 37.5823ZM72.5783 37.0348C73.6369 36.2724 75.1603 36.3467 76.1206 37.5844L71.8859 40.634C70.9522 38.9867 71.7313 37.6447 72.5783 37.0348Z" fill="white"/>
<path d="M92.0593 34.814L86.9367 26.1943L85.0302 27.3274L87.0773 30.7721L83.2321 33.0572L81.185 29.6126L79.2784 30.7457L84.401 39.3653L86.3076 38.2322L84.1271 34.5633L87.9723 32.2781L90.1528 35.947L92.0593 34.814Z" fill="white"/>
<path d="M103.223 29.4179L98.8768 20.3818L96.8782 21.3431L98.615 24.9542L94.584 26.893L92.8472 23.2819L90.8485 24.2432L95.1946 33.2793L97.1933 32.318L95.3434 28.4718L99.3743 26.533L101.224 30.3792L103.223 29.4179Z" fill="white"/>
<path d="M106.15 22.9514C105.335 20.7889 106.085 19.2912 107.41 18.7917C108.736 18.2922 110.288 18.9223 111.103 21.0848C111.918 23.2474 111.161 24.7276 109.836 25.2271C108.51 25.7266 106.965 25.114 106.15 22.9514ZM106.773 17.1C104.488 17.961 102.73 20.3765 104.005 23.7598C105.286 27.1606 108.189 27.7798 110.473 26.9187C112.758 26.0577 114.53 23.6772 113.248 20.2764C111.973 16.893 109.057 16.239 106.773 17.1Z" fill="white"/>
<path d="M126.975 11.2653L123.736 12.1397L123.137 19.7146L118.734 13.4903L115.496 14.3648L118.109 24.045L120.179 23.4863L118.119 15.8573L123.021 22.7188L124.677 22.2718L125.45 13.8392L127.52 21.5042L129.589 20.9455L126.975 11.2653Z" fill="white"/>
<path d="M133.789 23.6291C136.012 23.2477 136.538 22.4578 137.037 19.7437L138.816 9.28389L136.575 9.66845L135.55 17.1434L132.093 10.4376L129.705 10.8474L134.973 20.06L134.904 20.3177C134.684 21.6792 134.292 21.822 133.337 21.9859L132.51 22.1278L132.797 23.7994L133.789 23.6291Z" fill="white"/>
<path d="M160.369 17.9391L160.045 7.91743L157.829 7.9889L157.958 11.9939L153.487 12.138L153.358 8.13305L151.141 8.20452L151.464 18.2262L153.681 18.1547L153.544 13.889L158.014 13.7449L158.152 18.0106L160.369 17.9391Z" fill="white"/>
<path d="M173.049 14.2351C173.441 10.897 171.646 8.27699 168.575 8.10587C165.728 7.94721 163.543 9.97207 163.375 12.9866C163.214 15.871 164.921 18.4113 168.14 18.5908C170.708 18.7339 172.325 17.1814 172.861 15.6059L170.684 15.4846C170.24 16.4118 169.322 16.8087 168.15 16.7433C166.884 16.6728 165.633 15.6884 165.587 13.8192L173.049 14.2351ZM168.479 9.83646C169.781 9.90906 170.919 10.9245 170.888 12.4907L165.678 12.2003C165.987 10.3323 167.437 9.77839 168.479 9.83646Z" fill="white"/>
<path d="M184.783 6.68719L182.59 6.357L182.071 9.80334C179.251 9.3788 176.654 10.6086 176.137 14.0365C175.605 17.575 177.742 19.4045 180.561 19.8291L180.093 22.9437L182.286 23.2739L182.755 20.1593C185.556 20.581 188.155 19.4646 188.688 15.9261C189.204 12.4982 187.084 10.5581 184.264 10.1335L184.783 6.68719ZM180.825 18.0783C179.111 17.8202 177.991 16.7469 178.338 14.4432C178.69 12.1026 180.109 11.3173 181.805 11.5726L180.825 18.0783ZM183.998 11.9028C185.712 12.1608 186.799 13.3235 186.447 15.6641C186.1 17.9678 184.732 18.6665 183.018 18.4085L183.998 11.9028Z" fill="white"/>
<path d="M199.794 15.3654L200.211 13.6638L191.414 11.5083L190.997 13.2099L194.327 14.026L192.358 22.0633L194.512 22.591L196.482 14.5537L199.794 15.3654Z" fill="white"/>
<path d="M211.849 17.5018L207.805 16.1381C205.421 15.3341 203.798 16.0062 203.149 17.9311C202.69 19.291 203.134 20.4241 204.004 21.1698L200.327 24.1981L202.711 25.002L205.762 22.3723L207.651 23.0096L206.544 26.2944L208.645 27.0031L211.849 17.5018ZM209.188 18.4532L208.211 21.3495L206.48 20.7659C205.421 20.4085 204.892 19.8173 205.232 18.8107C205.565 17.8217 206.433 17.5242 207.545 17.8994L209.188 18.4532Z" fill="white"/>
<path d="M221.018 32.2988L225.043 23.1156L223.012 22.2251L221.403 25.895L217.307 24.0991L218.916 20.4292L216.884 19.5388L212.859 28.722L214.89 29.6125L216.603 25.7036L220.7 27.4995L218.986 31.4083L221.018 32.2988Z" fill="white"/>
<path d="M227.83 30.3077C228.94 28.2807 230.565 27.8745 231.808 28.5549C233.05 29.2352 233.583 30.8232 232.473 32.8502C231.363 34.8771 229.747 35.2671 228.504 34.5867C227.262 33.9063 226.72 32.3346 227.83 30.3077ZM232.676 26.9693C230.535 25.7965 227.557 26.0353 225.82 29.2065C224.074 32.3941 225.495 34.9995 227.636 36.1723C229.777 37.345 232.738 37.1389 234.483 33.9513C236.22 30.7801 234.818 28.142 232.676 26.9693Z" fill="white"/>
<path d="M250.262 38.4986L247.489 36.6106L241.351 41.0894L243.207 33.6947L240.434 31.8067L234.791 40.095L236.562 41.3012L241.01 34.7692L238.996 42.9585L240.414 43.9234L247.316 39.0178L242.848 45.5807L244.62 46.7869L250.262 38.4986Z" fill="white"/>
<path d="M245.319 51.722C247.056 53.1601 247.998 53.0449 250.382 51.6556L259.478 46.1927L257.727 44.7427L251.388 48.8341L254.224 41.8427L252.357 40.2976L248.798 50.2957L248.558 50.411C247.381 51.1307 247.018 50.9267 246.271 50.3086L245.625 49.7738L244.544 51.0802L245.319 51.722Z" fill="white"/>
<path d="M272.441 61.9068L273.73 60.7197L267.592 54.0584L266.304 55.2455L268.627 57.7675L262.542 63.3746L264.045 65.0057L270.13 59.3985L272.441 61.9068Z" fill="white"/>
<path d="M277.526 74.6977C280.303 72.8042 281.104 69.7307 279.219 67.3004C277.472 65.0469 274.511 64.7253 272.125 66.5753C269.842 68.3454 269.043 71.2996 271.018 73.8476C272.594 75.8802 274.827 76.083 276.368 75.4544L275.032 73.7312C274.041 74.0043 273.139 73.5714 272.42 72.6434C271.643 71.6419 271.565 70.0513 272.947 68.7915L277.526 74.6977ZM277.85 68.3625C278.649 69.3935 278.629 70.9186 277.426 71.922L274.228 67.7979C275.841 66.8066 277.21 67.5377 277.85 68.3625Z" fill="white"/>
<path d="M288.968 81.95L287.652 79.9161L283.849 79.7357L285.282 76.2552L283.864 74.0649L281.591 79.6433L275.335 79.342L276.662 81.3915L280.8 81.5764L279.255 85.3966L280.673 87.5869L283.068 81.6845L288.968 81.95Z" fill="white"/>
<path d="M286.191 97.9714L295.04 93.2563L293.997 91.2989L290.46 93.1832L288.357 89.2357L291.893 87.3514L290.85 85.3941L282.001 90.1092L283.044 92.0666L286.811 90.0595L288.914 94.0071L285.148 96.0141L286.191 97.9714Z" fill="white"/>
<path d="M300.394 105.746L299.532 103.702L291.239 102.019L297.68 99.3053L296.819 97.2614L287.579 101.154L288.44 103.198L296.699 104.896L290.292 107.595L291.153 109.639L300.394 105.746Z" fill="white"/>
<path d="M294.796 120.911L304.352 117.872L303.68 115.759L299.435 117.109C299.008 116.443 298.756 115.897 298.581 115.346C298.169 114.05 298.45 113.335 299.657 112.95L302.499 112.047L301.827 109.933L298.612 110.956C296.534 111.616 295.954 113.052 296.593 115.059C296.869 115.93 297.23 116.695 297.818 117.623L294.124 118.798L294.796 120.911Z" fill="white"/>
<path d="M302.145 133.153C305.464 132.621 307.496 130.18 306.825 127.179C306.203 124.396 303.66 122.845 300.713 123.504C297.894 124.135 295.914 126.468 296.618 129.615C297.179 132.125 299.113 133.258 300.775 133.345L300.299 131.217C299.286 131.042 298.654 130.267 298.398 129.121C298.122 127.884 298.728 126.412 300.514 125.86L302.145 133.153ZM305.134 127.558C305.418 128.831 304.751 130.202 303.235 130.598L302.097 125.506C303.978 125.295 304.906 126.539 305.134 127.558Z" fill="white"/>
<path d="M309.049 140.263C308.653 137.288 306.147 135.685 303.191 136.078C300.235 136.471 298.252 138.671 298.635 141.553C298.917 143.677 300.501 145.554 302.888 145.688L302.603 143.545C301.234 143.426 300.614 142.437 300.469 141.347C300.297 140.053 301.146 138.662 303.511 138.348C305.857 138.036 307.035 139.12 307.22 140.506C307.379 141.707 306.76 142.71 305.734 143.053L306.019 145.197C308.166 144.516 309.338 142.443 309.049 140.263Z" fill="white"/>
<path d="M299.984 156.401L300.097 158.952L305.076 154.684L310.103 158.248L309.991 155.716L305.972 153.002L305.918 151.792L309.809 151.62L309.711 149.386L299.694 149.829L299.792 152.063L304.168 151.869L304.214 152.912L299.984 156.401Z" fill="white"/>
<path d="M304.882 163.962C307.191 164.063 308.273 165.342 308.211 166.757C308.149 168.172 306.959 169.351 304.651 169.25C302.342 169.149 301.278 167.871 301.34 166.456C301.402 165.041 302.573 163.861 304.882 163.962ZM310.017 166.836C310.124 164.397 308.594 161.83 304.982 161.672C301.351 161.513 299.641 163.938 299.534 166.377C299.427 168.817 300.92 171.382 304.55 171.54C308.163 171.698 309.91 169.275 310.017 166.836Z" fill="white"/>
<path d="M307.438 187.706L307.908 184.384L301.179 180.854L308.633 179.254L309.102 175.932L299.174 174.529L298.874 176.651L306.698 177.757L298.462 179.567L298.222 181.265L305.671 185.291L297.81 184.18L297.51 186.303L307.438 187.706Z" fill="white"/>
<path d="M293.391 189.109C292.868 191.303 293.387 192.097 295.687 193.623L304.605 199.371L305.132 197.16L298.662 193.279L306.187 192.736L306.749 190.38L296.207 191.601L295.998 191.436C294.832 190.698 294.855 190.282 295.08 189.339L295.275 188.524L293.625 188.13L293.391 189.109Z" fill="white"/>
<path d="M288.131 206.897C287.317 209.001 287.725 209.858 289.799 211.679L297.863 218.574L298.683 216.453L292.793 211.738L300.323 212.211L301.197 209.951L290.586 209.745L290.401 209.554C289.345 208.666 289.423 208.257 289.773 207.353L290.075 206.57L288.493 205.959L288.131 206.897Z" fill="white"/>
<path d="M283.086 226.181L292.098 230.578L293.07 228.585L289.469 226.828L291.43 222.808L295.032 224.565L296.004 222.571L286.993 218.175L286.02 220.168L289.856 222.039L287.895 226.059L284.059 224.188L283.086 226.181Z" fill="white"/>
<path d="M285.129 242.243L286.278 240.346L282.773 232.644L288.751 236.265L289.9 234.369L281.324 229.173L280.175 231.069L283.648 238.752L277.703 235.15L276.553 237.047L285.129 242.243Z" fill="white"/>
<path d="M282.27 246.281L274.201 240.329L271.258 244.318C269.92 246.133 269.614 247.992 271.338 249.264C272.403 250.05 273.401 249.859 274.227 249.241C274.022 250.179 274.326 250.959 275.151 251.567C276.816 252.796 278.232 251.756 279.471 250.076L282.27 246.281ZM277.654 245.632L279.559 247.037L278.187 248.897C277.534 249.782 276.922 250.141 276.217 249.621C275.497 249.09 275.618 248.392 276.271 247.507L277.654 245.632ZM276.364 244.68L274.904 246.66C274.107 247.74 273.48 248.088 272.715 247.524C271.995 246.993 272.022 246.202 272.808 245.137L274.28 243.143L276.364 244.68Z" fill="white"/>
<path d="M263.968 259.748C266.346 262.122 269.515 262.335 271.551 260.031C273.439 257.893 273.202 254.924 270.939 252.925C268.774 251.013 265.722 250.779 263.588 253.196C261.885 255.124 262.103 257.355 263.008 258.751L264.451 257.117C263.998 256.194 264.255 255.228 265.032 254.348C265.871 253.398 267.42 253.024 268.915 254.147L263.968 259.748ZM270.252 258.883C269.388 259.861 267.886 260.126 266.676 259.131L270.13 255.22C271.405 256.62 270.943 258.101 270.252 258.883Z" fill="white"/>
<path d="M260.185 264.262C261.776 265.938 261.721 267.532 260.667 268.533C259.531 269.61 257.958 269.279 256.508 267.752C255.033 266.198 254.797 264.623 255.932 263.545C256.986 262.544 258.594 262.586 260.185 264.262ZM265.177 266.435L256.028 256.798L254.42 258.325L257.577 261.65C256.464 261.344 255.309 261.643 254.336 262.567C252.552 264.261 252.612 267.005 254.832 269.343C257.039 271.668 259.776 271.871 261.56 270.177C262.533 269.253 262.892 268.116 262.645 266.989L263.569 267.962L265.177 266.435Z" fill="white"/>
<path d="M252.166 278.15C254.515 276.283 254.603 273.309 252.748 270.974C250.893 268.64 247.987 268.069 245.711 269.878C244.033 271.211 243.236 273.534 244.347 275.651L246.04 274.306C245.438 273.07 245.968 272.029 246.829 271.345C247.851 270.534 249.481 270.548 250.965 272.415C252.437 274.268 252.112 275.836 251.018 276.706C250.069 277.459 248.891 277.444 248.069 276.74L246.377 278.085C248.063 279.578 250.444 279.519 252.166 278.15Z" fill="white"/>
<path d="M236.977 288.468L238.831 287.251L238.986 278.791L242.82 284.634L244.674 283.417L239.174 275.034L237.32 276.251L237.144 284.68L233.33 278.868L231.476 280.084L236.977 288.468Z" fill="white"/>
<path d="M224.789 293.108L225.618 294.651L233.598 290.367L232.769 288.823L229.748 290.445L225.834 283.155L223.88 284.204L227.794 291.495L224.789 293.108Z" fill="white"/>
<path d="M211.135 294.846C212.277 298.007 215.055 299.548 217.878 298.329C220.495 297.198 221.545 294.41 220.347 291.638C219.202 288.986 216.54 287.477 213.58 288.755C211.219 289.775 210.466 291.887 210.691 293.536L212.693 292.671C212.675 291.643 213.319 290.878 214.397 290.412C215.56 289.909 217.12 290.23 217.996 291.882L211.135 294.846ZM217.19 296.737C215.993 297.255 214.521 296.855 213.849 295.44L218.639 293.371C219.197 295.18 218.148 296.323 217.19 296.737Z" fill="white"/>
<path d="M201.165 302.306L201.721 303.967L210.311 301.094L209.755 299.432L206.503 300.52L203.878 292.673L201.775 293.376L204.4 301.224L201.165 302.306Z" fill="white"/>
<path d="M193.699 292.317C191.509 292.855 191.04 293.68 190.734 296.423L189.7 306.982L191.908 306.44L192.401 298.911L196.324 305.356L198.677 304.778L192.77 295.961L192.821 295.699C192.944 294.325 193.325 294.155 194.266 293.924L195.08 293.724L194.676 292.077L193.699 292.317Z" fill="white"/>
</g>
</svg>
