<svg width="1101" height="169" viewBox="0 0 1101 169" fill="none" xmlns="http://www.w3.org/2000/svg">
<path d="M0.381468 5.05772V7.18097H21.4016V163.877H0.381468V166H74.2705C115.249 166 141.578 151.35 140.516 119.076C139.667 92.5356 112.064 82.344 84.6745 81.07V80.8577C107.393 76.6112 128.838 65.358 128.838 41.5776C128.838 17.5849 107.181 5.05772 69.5994 5.05772H0.381468ZM106.119 43.7008C106.119 65.995 93.8044 80.4331 70.661 80.4331H43.4834V7.18097H70.661C93.8044 7.18097 106.119 21.4067 106.119 43.7008ZM116.099 123.11C116.099 148.165 102.722 163.877 74.2705 163.877H43.4834V82.5563H74.2705C102.722 82.5563 116.099 98.056 116.099 123.11ZM233.732 168.76C279.594 168.76 320.148 135.001 320.148 84.6796C320.148 34.5709 279.594 0.598889 233.732 0.598889C187.869 0.598889 147.315 34.3586 147.315 84.6796C147.315 134.788 187.869 168.76 233.732 168.76ZM240.526 166C196.999 166 170.671 115.467 170.671 69.6045C170.671 25.6532 197.849 3.35912 226.937 3.35912C270.464 3.35912 296.792 53.8925 296.792 99.7546C296.792 143.706 269.614 166 240.526 166ZM324.442 166H454.173L469.248 114.193H467.762L434.427 160.055C432.303 162.815 430.392 163.877 425.934 163.877H367.544V84.6796H398.756C400.879 84.6796 401.729 84.8919 403.003 87.8644L415.105 113.98H416.379V53.2555H415.105L403.003 79.3714C401.729 82.344 400.879 82.5563 398.756 82.5563H367.544V7.18097H414.68C419.352 7.18097 420.838 7.81793 422.961 11.0028L450.563 54.7417H451.837L443.132 5.05772H324.442V7.18097H345.463V163.877H324.442V166ZM534.007 163.877H512.987V88.7137H596.643V163.877H575.623V166H639.745V163.877H618.725V7.18097H639.745V5.05772H575.623V7.18097H596.643V77.4605H512.987V7.18097H534.007V5.05772H469.885V7.18097H490.905V163.877H469.885V166H534.007V163.877ZM707.856 163.877H686.836V88.7137H770.492V163.877H749.472V166H813.594V163.877H792.574V7.18097H813.594V5.05772H749.472V7.18097H770.492V77.4605H686.836V7.18097H707.856V5.05772H643.734V7.18097H664.754V163.877H643.734V166H707.856V163.877ZM906.123 166H966.423V163.877H948.8L888.075 5.05772H865.357L874.062 27.9888L820.768 163.877H803.145V166H843.063V163.877H823.529L846.46 105.487H903.575L925.869 163.877H906.123V166ZM850.919 94.2342L875.336 31.5983L899.329 94.2342H850.919ZM1100.55 166V163.877H1079.53V7.18097H1100.55V5.05772H1038.77C999.276 5.05772 974.646 16.7356 974.646 47.5227C974.646 69.6045 991.42 84.0426 1023.27 87.2275V87.8644C1016.26 90.6247 1005.86 101.029 995.029 112.919L946.619 166H976.345L1046.84 88.7137H1057.45V163.877H1032.19V166H1100.55ZM1057.45 86.5905H1038.77C1011.17 86.5905 998.639 69.6045 998.639 46.8857C998.639 24.167 1011.17 7.18097 1038.77 7.18097H1057.45V86.5905Z" fill="#404040"/>
</svg>
