<svg width="355" height="357" viewBox="0 0 355 357" fill="none" xmlns="http://www.w3.org/2000/svg">
<g opacity="0.2">
<path d="M314.759 185.861L314.953 178.879C317.61 181.943 321.242 184.29 325.761 184.646L325.828 182.26C321.116 181.846 318.053 180.009 315.016 176.651L313.159 176.6L312.903 185.81L314.759 185.861Z" fill="white"/>
<path d="M324.196 169.686C324.288 171.381 323.289 172.214 321.816 172.489L321.926 174.52C324.126 174.259 325.984 172.599 325.823 169.633C325.685 167.09 324.047 164.983 321.187 165.138C318.309 165.294 316.918 167.406 317.037 169.596C317.099 170.744 317.447 171.61 317.975 172.201L314.739 171.97L314.417 166.036L312.563 166.137L312.979 173.801L320.141 174.262L320.14 172.279C319.366 172.055 318.737 171.239 318.672 170.038C318.603 168.767 319.433 167.411 321.34 167.308C323.053 167.215 324.12 168.273 324.196 169.686Z" fill="white"/>
<path d="M322.085 145.159L312.751 147.001L314.08 153.732L317.462 153.245C321.039 152.737 321.995 153.288 322.146 154.051L322.187 154.259L323.818 153.938L323.743 153.556C323.318 151.405 321.325 150.716 317.37 151.226L315.331 151.485L314.79 148.744L322.493 147.223L322.085 145.159Z" fill="white"/>
<path d="M314.462 133.408C311.351 134.109 309.571 136.541 310.386 139.343C311.14 141.941 313.641 143.259 316.392 142.46C319.024 141.695 320.761 139.367 319.907 136.43C319.226 134.086 317.327 133.128 315.748 133.144L316.325 135.131C317.295 135.236 317.94 135.933 318.25 137.003C318.586 138.158 318.099 139.588 316.44 140.217L314.462 133.408ZM311.965 138.884C311.62 137.696 312.17 136.357 313.582 135.892L314.963 140.647C313.194 140.958 312.241 139.835 311.965 138.884Z" fill="white"/>
<path d="M306.861 123.854L305.309 124.451L308.399 132.471L309.95 131.874L308.781 128.837L316.107 126.014L315.351 124.051L308.024 126.873L306.861 123.854Z" fill="white"/>
<path d="M302.234 108.64L297.094 115.203L298.259 117.307L304.728 108.472L305.331 108.502C306.006 108.553 306.358 108.823 306.692 109.427L307.308 110.541L308.933 109.642L308.239 108.388C307.323 106.733 305.984 106.322 304.289 106.472L292.882 107.59L294.063 109.725L302.234 108.64Z" fill="white"/>
<path d="M288.162 100.793L289.349 102.531L292.08 100.666C293.606 102.9 296.139 103.911 298.855 102.056C301.659 100.141 301.55 97.4742 300.024 95.2399L302.492 93.5544L301.305 91.8166L298.837 93.5021C297.321 91.2824 294.867 90.1965 292.063 92.1114C289.347 93.9665 289.367 96.6935 290.893 98.9278L288.162 100.793ZM298.637 96.1874C299.565 97.5455 299.542 99.0173 297.716 100.264C295.862 101.531 294.4 101.052 293.482 99.7081L298.637 96.1874ZM292.295 97.9703C291.368 96.6122 291.473 95.1052 293.328 93.8385C295.153 92.5918 296.523 93.0915 297.45 94.4496L292.295 97.9703Z" fill="white"/>
<path d="M280.86 86.3111L282.209 87.9262L290.201 87.1493L285.111 91.4007L286.46 93.0158L293.762 86.9165L292.413 85.3014L284.449 86.0556L289.511 81.8269L288.162 80.2118L280.86 86.3111Z" fill="white"/>
<path d="M269.935 75.4103L272.209 77.6383L278.692 74.4838L275.72 81.0792L277.994 83.3071L284.653 76.5118L283.2 75.0884L277.952 80.4438L281.204 73.1328L280.042 71.9941L272.774 75.4191L278.047 70.0385L276.594 68.6151L269.935 75.4103Z" fill="white"/>
<path d="M264.165 71.0943C266.381 72.8814 269.153 72.3452 270.929 70.1425C272.705 67.9399 272.63 65.1308 270.483 63.3992C268.9 62.1227 266.584 61.868 264.855 63.3362L266.451 64.6238C267.471 63.8102 268.544 64.085 269.356 64.7399C270.32 65.5169 270.646 67.0288 269.225 68.791C267.815 70.5393 266.296 70.5639 265.264 69.7314C264.369 69.0099 264.138 67.9153 264.619 67.0085L263.023 65.7209C261.991 67.5922 262.54 69.7844 264.165 71.0943Z" fill="white"/>
<path d="M257.879 54.645L255.867 53.2957L256.326 59.5014L250.774 61.3357L252.772 62.6751L257.107 61.1319L258.061 61.7721L256.003 64.8418L257.766 66.0237L263.064 58.1216L261.302 56.9397L258.987 60.3914L258.165 59.8399L257.879 54.645Z" fill="white"/>
<path d="M248.598 54.6395C247.541 56.561 245.999 56.9439 244.821 56.2962C243.643 55.6486 243.14 54.141 244.197 52.2195C245.254 50.298 246.788 49.9307 247.965 50.5783C249.143 51.2259 249.654 52.718 248.598 54.6395ZM243.994 57.7993C246.024 58.9156 248.851 58.6938 250.504 55.6876C252.165 52.6659 250.822 50.1915 248.792 49.0752C246.762 47.9589 243.953 48.1497 242.291 51.1714C240.638 54.1776 241.965 56.6831 243.994 57.7993Z" fill="white"/>
<path d="M226.514 49.4697L229.438 50.727L234.346 45.4455L233.954 52.669L236.879 53.9263L240.637 45.1859L238.768 44.3826L235.807 51.2709L236.201 43.2789L234.707 42.6363L229.164 48.4534L232.14 41.5326L230.272 40.7293L226.514 49.4697Z" fill="white"/>
<path d="M226.685 36.3456C224.649 35.6881 223.859 36.1206 222.245 38.1827L216.147 46.1928L218.2 46.8557L222.35 41.0227L222.306 48.1815L224.494 48.8879L224.119 38.8249L224.291 38.6388C225.075 37.5911 225.467 37.6434 226.342 37.9259L227.099 38.1704L227.594 36.639L226.685 36.3456Z" fill="white"/>
<path d="M199.404 40.923L199.106 42.5584L205.455 43.7168L207.163 34.3572L205.093 33.9795L203.684 41.7038L199.404 40.923Z" fill="white"/>
<path d="M194.152 37.1697C193.936 39.3519 192.669 40.3107 191.331 40.1787C189.994 40.0467 188.938 38.8585 189.154 36.6762C189.369 34.494 190.635 33.5527 191.972 33.6848C193.31 33.8168 194.367 34.9874 194.152 37.1697ZM191.163 41.8858C193.468 42.1134 195.979 40.7975 196.316 37.3834C196.655 33.9516 194.446 32.2053 192.141 31.9777C189.835 31.7501 187.328 33.0308 186.989 36.4625C186.652 39.8767 188.857 41.6582 191.163 41.8858Z" fill="white"/>
<path d="M179.138 41.3242C181.985 41.3541 183.829 39.2159 183.859 36.3866C183.889 33.5573 182.09 31.3985 179.331 31.3695C177.298 31.3481 175.322 32.583 174.874 34.8066L176.925 34.8282C177.221 33.558 178.234 33.1088 179.278 33.1197C180.515 33.1327 181.708 34.118 181.684 36.3814C181.66 38.6272 180.483 39.5875 179.157 39.5736C178.007 39.5615 177.148 38.8451 176.964 37.8351L174.913 37.8135C175.262 39.9217 177.052 41.3023 179.138 41.3242Z" fill="white"/>
<path d="M169.443 28.7855C167.309 28.9447 166.741 29.6433 166.024 32.1617L163.398 41.8804L165.549 41.7199L167.193 34.7522L169.852 41.3989L172.145 41.2278L168.002 32.0496L168.091 31.8124C168.422 30.5464 168.804 30.4469 169.721 30.3785L170.515 30.3193L170.395 28.7145L169.443 28.7855Z" fill="white"/>
<path d="M148.929 36.1953L150.325 35.9666L151.597 43.7326L158.438 42.6119L158.089 39.6048C157.686 36.1586 158.004 34.7087 159.051 34.5372L159.557 34.4543L158.928 30.615L157.043 30.9237L157.406 33.1401L150.548 34.2636L150.185 32.0472L148.3 32.356L148.929 36.1953ZM152.402 35.6264L156.643 34.9317C156.009 35.7702 155.895 37.1508 156.164 39.6693L156.337 41.2717L153.405 41.7519L152.402 35.6264Z" fill="white"/>
<path d="M140.001 40.6592C139.593 39.0841 140.289 38.1005 141.795 37.7106C142.822 37.4448 143.614 37.7514 143.822 38.5561C144.093 39.6004 143.022 40.3341 140.182 41.3611L140.001 40.6592ZM141.846 36.0717C140.476 36.4261 139.535 37.163 139.197 38.3282C138.981 37.708 138.872 37.4988 138.702 37.1227L136.836 37.6056C137.224 38.3273 137.624 39.5207 137.925 40.6849C138.142 41.5237 138.391 42.6283 138.507 43.0734C139.217 46.0314 141.208 46.5941 143.416 46.0226C145.642 45.4467 146.863 43.7424 146.517 41.8408L144.514 42.3592C144.751 43.4853 144.122 44.2325 143.095 44.4983C142.068 44.7641 141.053 44.5151 140.646 42.94L140.602 42.7688C143.864 41.541 146.564 40.2577 145.966 37.9465C145.532 36.2687 143.849 35.5534 141.846 36.0717Z" fill="white"/>
<path d="M132.018 44.2482C132.751 46.3147 132.089 47.6755 130.79 48.137C129.39 48.6339 128.153 47.7405 127.485 45.8574C126.804 43.9409 127.207 42.4844 128.607 41.9875C129.906 41.526 131.284 42.1817 132.018 44.2482ZM135.509 48.0568L131.291 36.1744L129.307 36.8784L130.763 40.9781C129.916 40.2841 128.799 40.0988 127.599 40.5247C125.4 41.3057 124.395 43.7079 125.418 46.591C126.436 49.4574 128.73 50.6882 130.93 49.9073C132.13 49.4814 132.88 48.6334 133.1 47.5609L133.526 48.7608L135.509 48.0568Z" fill="white"/>
<path d="M120.643 54.2222C123.232 53.0378 123.991 50.3182 122.814 47.7451C121.637 45.1721 119.091 43.9839 116.582 45.1315C114.733 45.9774 113.47 47.9358 114.011 50.1386L115.876 49.2853C115.604 48.0097 116.329 47.1723 117.278 46.7382C118.404 46.2233 119.902 46.6076 120.843 48.666C121.778 50.7084 121.121 52.0784 119.915 52.6301C118.869 53.1082 117.787 52.8254 117.191 51.9897L115.326 52.843C116.539 54.6023 118.745 55.0902 120.643 54.2222Z" fill="white"/>
<path d="M105.818 59.9733L106.635 61.4208L114.119 57.1953L113.302 55.7477L110.469 57.3475L106.608 50.5103L104.776 51.5449L108.636 58.3822L105.818 59.9733Z" fill="white"/>
<path d="M103.548 63.4566L98.1841 55.5987L94.2989 58.2508C92.5316 59.4572 91.6758 61.0263 92.8223 62.706C93.5302 63.743 94.4833 63.8846 95.417 63.5899C94.9399 64.3652 94.9682 65.1595 95.5165 65.9628C96.6232 67.5841 98.2169 67.0957 99.8527 65.9791L103.548 63.4566ZM99.6165 61.4298L100.883 63.2847L99.0716 64.521C98.2098 65.1093 97.5491 65.2391 97.0805 64.5527C96.6019 63.8516 96.929 63.2643 97.7908 62.6761L99.6165 61.4298ZM98.7591 60.1737L96.8311 61.4898C95.7795 62.2076 95.1088 62.3229 94.6003 61.578C94.1217 60.8769 94.3936 60.1774 95.4306 59.4695L97.3732 58.1435L98.7591 60.1737Z" fill="white"/>
<path d="M83.7447 71.7548C85.6127 74.3395 88.5487 75.0192 90.8049 73.1689C92.8971 71.4532 93.1253 68.636 91.3086 66.4208C89.5705 64.3013 86.7477 63.6201 84.3821 65.5602C82.4951 67.1077 82.3607 69.2305 82.9969 70.6756L84.5967 69.3636C84.312 68.4307 84.6992 67.5643 85.5607 66.8578C86.4905 66.0953 87.9972 65.9803 89.228 67.258L83.7447 71.7548ZM89.7621 71.8972C88.8049 72.6822 87.3578 72.7025 86.3748 71.5876L90.2036 68.4477C91.1858 69.9521 90.5278 71.2693 89.7621 71.8972Z" fill="white"/>
<path d="M71.8532 77.5002L78.5088 84.2988L80.0126 82.8266L77.3528 80.1097L80.3856 77.1407L83.0454 79.8576L84.5492 78.3854L77.8935 71.5869L76.3898 73.059L79.2227 75.9528L76.1899 78.9219L73.3569 76.0281L71.8532 77.5002Z" fill="white"/>
<path d="M63.3799 87.2791L70.6067 93.4671L71.9754 91.8686L69.0874 89.3957L71.8478 86.1719L74.7358 88.6448L76.1046 87.0463L68.8778 80.8582L67.5091 82.4567L70.5851 85.0907L67.8247 88.3145L64.7486 85.6806L63.3799 87.2791Z" fill="white"/>
<path d="M63.7249 94.818C65.5094 96.0926 65.7088 97.6693 64.9277 98.763C64.1465 99.8567 62.5903 100.179 60.8059 98.905C59.0215 97.6305 58.8364 96.064 59.6176 94.9703C60.3987 93.8766 61.9405 93.5435 63.7249 94.818ZM66.3236 99.76C67.67 97.8748 67.7809 95.042 64.9892 93.048C62.183 91.0437 59.5681 92.0882 58.2217 93.9733C56.8752 95.8585 56.7355 98.6708 59.5417 100.675C62.3335 102.669 64.9771 101.645 66.3236 99.76Z" fill="white"/>
<path d="M56.0026 116.143L57.594 113.386L52.924 107.893L60.0518 109.129L61.6431 106.372L53.4033 101.615L52.3866 103.377L58.8804 107.125L50.9897 105.797L50.1764 107.206L55.304 113.392L48.7795 109.625L47.7628 111.387L56.0026 116.143Z" fill="white"/>
<path d="M42.9901 114.435C42.0986 116.381 42.4355 117.216 44.2943 119.06L51.5346 126.055L52.4336 124.094L47.1271 119.288L54.2314 120.171L55.1892 118.081L45.1517 117.274L44.9869 117.082C44.0384 116.18 44.1362 115.797 44.5194 114.961L44.8509 114.238L43.388 113.567L42.9901 114.435Z" fill="white"/>
<path d="M36.2684 141.714L45.3797 144.453L45.9856 142.438L42.3444 141.343L43.5664 137.279L47.2075 138.373L47.8134 136.358L38.7021 133.619L38.0962 135.634L41.9744 136.8L40.7525 140.865L36.8743 139.699L36.2684 141.714Z" fill="white"/>
<path d="M37.6292 155.261C40.7068 156.097 43.4175 154.78 44.009 151.922C44.5575 149.273 42.964 146.938 40.1586 146.358C37.4745 145.802 34.851 147.047 34.2308 150.043C33.7361 152.432 34.966 154.168 36.3693 154.892L36.7887 152.866C35.9808 152.319 35.7373 151.402 35.9631 150.311C36.2069 149.133 37.3064 148.097 39.0668 148.317L37.6292 155.261ZM42.3985 151.589C42.1476 152.801 41.035 153.727 39.5696 153.478L40.5734 148.629C42.2829 149.181 42.5993 150.619 42.3985 151.589Z" fill="white"/>
<path d="M44.9964 166.548L45.2282 164.456L41.9414 164.092C42.2394 161.403 40.9772 158.986 37.7079 158.623C34.3332 158.249 32.6778 160.343 32.3797 163.033L29.4093 162.703L29.1775 164.795L32.1479 165.124C31.8519 167.796 33.0067 170.219 36.3814 170.593C39.6507 170.955 41.4116 168.873 41.7096 166.184L44.9964 166.548ZM34.0495 163.218C34.2307 161.583 35.2068 160.481 37.4039 160.725C39.6361 160.972 40.4333 162.288 40.2541 163.905L34.0495 163.218ZM40.0223 165.997C39.8411 167.631 38.779 168.706 36.5468 168.458C34.3497 168.215 33.6366 166.944 33.8177 165.309L40.0223 165.997Z" fill="white"/>
<path d="M39.4275 181.129L41.0895 181.162L41.2574 172.569L39.5954 172.537L39.5319 175.79L31.6816 175.636L31.6405 177.74L39.4907 177.894L39.4275 181.129Z" fill="white"/>
<path d="M41.7579 192.284L41.4931 188.243C41.337 185.86 40.1608 184.679 38.2374 184.805C36.8786 184.894 36.0449 185.693 35.7049 186.726L31.7195 184.594L31.8756 186.977L35.2851 188.703L35.4088 190.591L32.1266 190.806L32.2642 192.906L41.7579 192.284ZM39.9616 190.293L37.0676 190.482L36.9542 188.753C36.8849 187.694 37.2126 187.017 38.2185 186.951C39.2067 186.886 39.7812 187.54 39.854 188.651L39.9616 190.293Z" fill="white"/>
<path d="M34.2302 206.706L43.6327 205.253L43.3113 203.174L39.5538 203.754L38.9055 199.56L42.663 198.979L42.3416 196.899L32.9391 198.353L33.2605 200.432L37.2627 199.814L37.911 204.008L33.9088 204.627L34.2302 206.706Z" fill="white"/>
<path d="M40.175 211.354C42.3043 210.831 43.6307 211.706 43.9518 213.011C44.2729 214.316 43.5042 215.707 41.3749 216.231C39.2455 216.755 37.9364 215.875 37.6153 214.57C37.2942 213.265 38.0457 211.878 40.175 211.354ZM45.6175 212.601C45.064 210.352 42.9867 208.423 39.6553 209.242C36.3068 210.066 35.3961 212.731 35.9496 214.98C36.5031 217.23 38.546 219.167 41.8946 218.344C45.2259 217.524 46.1709 214.851 45.6175 212.601Z" fill="white"/>
<path d="M51.3274 231.104L50.272 228.101L43.0621 228.067L48.6421 223.463L47.5867 220.46L38.6107 223.614L39.285 225.533L46.359 223.047L40.2113 228.169L40.7507 229.704L48.7845 229.842L41.6771 232.34L42.3514 234.259L51.3274 231.104Z" fill="white"/>
<path d="M41.5558 239.866C42.4512 241.809 43.3044 242.098 45.9144 241.888L55.938 240.951L55.0353 238.991L47.9327 239.888L53.2299 235.072L52.2679 232.984L45.1178 240.075L44.8646 240.075C43.5627 240.207 43.3356 239.883 42.9509 239.048L42.6179 238.325L41.1563 238.999L41.5558 239.866Z" fill="white"/>
<path d="M64.0127 257.784L65.4153 256.892L60.8029 249.64L59.4002 250.532L61.1465 253.278L54.5213 257.492L55.6507 259.267L62.2759 255.053L64.0127 257.784Z" fill="white"/>
<path d="M68.5056 269.881C71.1548 268.105 71.938 265.195 70.1688 262.875C68.5282 260.724 65.7208 260.396 63.4427 262.133C61.263 263.795 60.4824 266.592 62.3374 269.025C63.8172 270.965 65.9339 271.175 67.4007 270.59L66.1461 268.945C65.2037 269.196 64.3515 268.779 63.676 267.893C62.9468 266.936 62.8853 265.427 64.2057 264.242L68.5056 269.881ZM68.861 263.872C69.6116 264.857 69.5807 266.304 68.4316 267.246L65.4292 263.309C66.9674 262.381 68.2605 263.085 68.861 263.872Z" fill="white"/>
<path d="M80.5797 275.277L79.0356 273.573L75.4473 273.986L76.2562 270.508L74.5934 268.673L73.3188 274.245L67.414 274.919L68.97 276.636L72.8736 276.176L72.0107 279.99L73.6736 281.824L75.014 275.93L80.5797 275.277Z" fill="white"/>
<path d="M82.6438 290.221L89.1247 283.255L87.584 281.822L84.9941 284.605L81.8869 281.714L84.4768 278.931L82.9361 277.497L76.4552 284.463L77.9959 285.896L80.7545 282.931L83.8617 285.822L81.1031 288.787L82.6438 290.221Z" fill="white"/>
<path d="M98.8745 290.875L97.2102 289.587L89.5714 292.061L93.6297 286.816L91.9654 285.529L86.143 293.053L87.8074 294.341L95.4245 291.895L91.3878 297.111L93.0522 298.399L98.8745 290.875Z" fill="white"/>
<path d="M103.493 305.19L108.608 297.168L106.834 296.037L104.561 299.6C103.846 299.374 103.33 299.13 102.868 298.835C101.78 298.141 101.55 297.449 102.196 296.435L103.718 294.049L101.944 292.918L100.222 295.617C99.1099 297.361 99.5602 298.76 101.245 299.834C101.976 300.3 102.704 300.639 103.696 300.957L101.718 304.058L103.493 305.19Z" fill="white"/>
<path d="M117.778 308.13C119.419 305.396 118.89 302.429 116.302 301.082C113.901 299.833 111.221 300.731 109.899 303.272C108.634 305.704 109.117 308.567 111.831 309.979C113.996 311.106 116.001 310.395 117.079 309.242L115.244 308.286C114.498 308.915 113.549 308.9 112.561 308.385C111.494 307.83 110.796 306.49 111.487 304.856L117.778 308.13ZM115.542 302.541C116.641 303.112 117.228 304.435 116.59 305.777L112.197 303.491C113.194 301.997 114.664 302.084 115.542 302.541Z" fill="white"/>
<path d="M127.27 306.085C124.638 304.998 122.131 306.296 121.05 308.911C119.97 311.526 120.836 314.199 123.385 315.253C125.265 316.03 127.558 315.619 128.802 313.722L126.906 312.938C126.158 314.007 125.051 314.047 124.087 313.648C122.943 313.176 122.203 311.817 123.067 309.725C123.925 307.65 125.375 307.197 126.601 307.703C127.663 308.142 128.194 309.127 127.989 310.133L129.885 310.916C130.345 308.83 129.198 306.882 127.27 306.085Z" fill="white"/>
<path d="M137.949 320.089L140.261 320.814L138.066 314.991L142.873 311.662L140.578 310.942L136.856 313.648L135.759 313.304L136.866 309.777L134.841 309.142L131.993 318.22L134.018 318.855L135.262 314.89L136.207 315.186L137.949 320.089Z" fill="white"/>
<path d="M146.854 317.468C147.324 315.326 148.696 314.522 150.008 314.811C151.321 315.099 152.23 316.403 151.76 318.545C151.289 320.686 149.922 321.472 148.609 321.184C147.296 320.896 146.384 319.609 146.854 317.468ZM150.376 313.135C148.113 312.638 145.465 313.65 144.73 317.001C143.99 320.369 145.979 322.363 148.241 322.86C150.504 323.356 153.145 322.379 153.884 319.011C154.62 315.66 152.639 313.632 150.376 313.135Z" fill="white"/>
<path d="M169.498 316.185L166.338 315.806L163.123 322.259L161.457 315.22L158.296 314.841L157.163 324.287L159.182 324.529L160.075 317.085L161.956 324.862L163.571 325.056L167.243 317.909L166.346 325.389L168.365 325.631L169.498 316.185Z" fill="white"/>
<path d="M173.045 328.82C175.184 328.875 175.82 328.237 176.784 325.803L180.369 316.395L178.212 316.34L175.88 323.108L173.899 316.229L171.6 316.17L174.805 325.717L174.693 325.944C174.237 327.17 173.846 327.231 172.927 327.207L172.132 327.187L172.09 328.796L173.045 328.82Z" fill="white"/>
<path d="M193.268 328.227C195.395 327.994 195.939 327.276 196.567 324.734L198.855 314.93L196.711 315.165L195.31 322.186L192.422 315.636L190.136 315.886L194.595 324.915L194.514 325.155C194.227 326.432 193.848 326.545 192.934 326.645L192.143 326.731L192.318 328.331L193.268 328.227Z" fill="white"/>
<path d="M212.624 321.98L210.789 312.644L208.724 313.05L209.457 316.781L205.293 317.6L204.56 313.869L202.495 314.275L204.33 323.61L206.395 323.204L205.614 319.231L209.778 318.412L210.559 322.386L212.624 321.98Z" fill="white"/>
<path d="M222.681 309.223L220.661 309.815L218.181 317.451L216.317 311.087L214.297 311.679L216.972 320.809L218.991 320.218L221.481 312.615L223.336 318.945L225.355 318.353L222.681 309.223Z" fill="white"/>
<path d="M226.596 307.756L230.088 316.606L234.464 314.879C236.454 314.094 237.636 312.753 236.89 310.862C236.429 309.694 235.531 309.344 234.555 309.425C235.192 308.775 235.34 307.994 234.983 307.089C234.263 305.263 232.601 305.387 230.758 306.114L226.596 307.756ZM229.982 310.602L229.157 308.513L231.197 307.708C232.168 307.325 232.841 307.345 233.146 308.118C233.458 308.908 233.009 309.408 232.038 309.791L229.982 310.602ZM230.54 312.017L232.711 311.16C233.896 310.693 234.575 310.729 234.906 311.568C235.218 312.358 234.798 312.98 233.63 313.44L231.442 314.304L230.54 312.017Z" fill="white"/>
<path d="M247.745 304.047C246.495 301.113 243.782 299.801 241.172 301.106C238.752 302.316 237.906 305.013 239.188 307.575C240.414 310.027 243.016 311.316 245.752 309.947C247.935 308.856 248.536 306.815 248.235 305.265L246.384 306.191C246.456 307.163 245.886 307.923 244.89 308.421C243.814 308.959 242.319 308.737 241.402 307.219L247.745 304.047ZM241.908 302.577C243.015 302.023 244.431 302.323 245.143 303.628L240.714 305.843C240.089 304.158 241.022 303.02 241.908 302.577Z" fill="white"/>
<path d="M252.564 300.442C251.415 298.574 251.777 297.105 252.952 296.382C254.217 295.604 255.613 296.219 256.661 297.921C257.726 299.653 257.637 301.161 256.372 301.94C255.197 302.663 253.713 302.309 252.564 300.442ZM248.354 297.447L254.962 308.185L256.754 307.083L254.474 303.377C255.447 303.879 256.578 303.827 257.662 303.16C259.651 301.936 260.131 299.377 258.528 296.772C256.934 294.181 254.433 293.457 252.445 294.68C251.36 295.347 250.804 296.333 250.814 297.428L250.146 296.344L248.354 297.447Z" fill="white"/>
<path d="M261.604 288.312C259.319 290.011 259.145 292.829 260.834 295.099C262.522 297.37 265.261 298 267.475 296.353C269.106 295.14 269.932 292.961 268.943 290.919L267.297 292.144C267.83 293.334 267.295 294.305 266.458 294.927C265.465 295.666 263.92 295.603 262.569 293.787C261.228 291.985 261.584 290.508 262.649 289.716C263.571 289.03 264.688 289.081 265.446 289.774L267.092 288.549C265.538 287.082 263.278 287.066 261.604 288.312Z" fill="white"/>
<path d="M274.621 277.57L273.053 278.974L274.105 286.934L269.681 281.994L268.113 283.398L274.46 290.485L276.028 289.082L275 281.147L279.4 286.061L280.968 284.657L274.621 277.57Z" fill="white"/>
<path d="M283.922 270.145L282.709 269.008L276.835 275.282L278.048 276.418L280.272 274.043L286.003 279.41L287.442 277.874L281.71 272.507L283.922 270.145Z" fill="white"/>
<path d="M294.519 262.781C292.139 260.658 289.126 260.624 287.319 262.916C285.644 265.041 286.026 267.841 288.276 269.615C290.429 271.312 293.332 271.371 295.226 268.968C296.737 267.052 296.412 264.95 295.481 263.675L294.2 265.3C294.678 266.15 294.486 267.079 293.796 267.954C293.052 268.898 291.605 269.334 290.128 268.35L294.519 262.781ZM288.611 263.934C289.377 262.962 290.786 262.631 291.986 263.509L288.92 267.398C287.638 266.139 287.998 264.712 288.611 263.934Z" fill="white"/>
<path d="M297.872 251.04L296.484 250.126L291.755 257.302L293.143 258.217L294.933 255.5L301.49 259.82L302.648 258.063L296.091 253.743L297.872 251.04Z" fill="white"/>
<path d="M309.641 252.434C310.668 250.557 310.391 249.7 308.667 247.729L301.94 240.239L300.904 242.132L305.858 247.301L298.834 245.917L297.73 247.934L307.686 249.45L307.836 249.653C308.719 250.619 308.594 250.995 308.153 251.801L307.771 252.5L309.183 253.272L309.641 252.434Z" fill="white"/>
</g>
</svg>
