<svg width="1844" height="405" viewBox="0 0 1844 405" fill="none" xmlns="http://www.w3.org/2000/svg">
<path d="M336.726 28.8878L377.684 28.8878V23.9531L284.913 23.9531V28.8878L330.311 28.8878L218.788 257.856H216.321L97.8891 28.8878L143.781 28.8878V23.9531L0.67643 23.9531L0.67643 28.8878L41.6341 28.8878L191.154 314.111L208.919 278.088L175.363 347.173C106.278 342.732 87.5264 359.51 87.5264 379.248C87.5264 394.052 101.343 404.415 119.602 404.415C142.301 404.415 157.598 396.52 174.376 361.977L336.726 28.8878ZM376.678 398H538.535V393.065H476.851L476.851 28.8878L586.401 28.8878C597.257 28.8878 600.711 30.3681 605.646 37.7701L669.796 139.424H672.757L652.525 23.9531L376.678 23.9531V28.8878L425.531 28.8878L425.531 393.065H376.678V398ZM845.054 393.065H796.201V218.379L990.626 218.379V393.065H941.773V398H1090.8V393.065H1041.95V28.8878L1090.8 28.8878V23.9531L941.773 23.9531V28.8878L990.626 28.8878V192.225L796.201 192.225V28.8878L845.054 28.8878V23.9531L696.027 23.9531V28.8878L744.88 28.8878V393.065H696.027V398H845.054V393.065ZM1216.04 398L1374.93 398V393.065H1321.14V28.8878L1413.42 28.8878C1423.78 28.8878 1424.28 28.8878 1428.23 38.2636L1473.13 148.306H1476.09L1461.29 0.760203H1458.33L1421.32 23.9531L1169.65 23.9531L1132.64 0.760203H1129.68L1114.88 148.306H1117.84L1162.74 38.2636C1166.69 28.8878 1167.18 28.8878 1177.55 28.8878L1269.82 28.8878V393.065L1216.04 393.065V398ZM1802.45 28.8878L1843.41 28.8878V23.9531L1750.64 23.9531V28.8878L1796.04 28.8878L1684.52 257.856H1682.05L1563.62 28.8878L1609.51 28.8878V23.9531L1466.4 23.9531V28.8878L1507.36 28.8878L1656.88 314.111L1674.65 278.088L1641.09 347.173C1572.01 342.732 1553.25 359.51 1553.25 379.248C1553.25 394.052 1567.07 404.415 1585.33 404.415C1608.03 404.415 1623.33 396.52 1640.1 361.977L1802.45 28.8878Z" fill="#404040"/>
</svg>
