<svg width="1431" height="216" viewBox="0 0 1431 216" fill="none" xmlns="http://www.w3.org/2000/svg">
<path d="M91.0667 211.849C53.4852 211.849 26.5199 172.569 26.5199 123.522C26.5199 70.2286 61.9781 47.5098 90.005 47.5098C117.607 47.5098 140.751 63.4342 155.613 111.632H156.887L145.21 46.2359H143.936L133.956 57.7014C122.915 49.6331 106.779 45.5989 90.005 45.5989C36.4992 45.5989 0.616245 83.6051 0.616245 129.68C0.616245 181.487 41.595 213.76 91.0667 213.76C107.84 213.76 123.977 209.726 135.018 201.658L144.997 213.123H146.271L157.949 147.727H156.675C141.812 195.925 118.669 211.849 91.0667 211.849ZM251.976 211H312.276V208.877H294.653L233.928 50.0577H211.209L219.915 72.9888L166.621 208.877H148.998V211H188.915V208.877H169.381L192.312 150.487H249.428L271.722 208.877H251.976V211ZM196.771 139.234L221.189 76.5983L245.181 139.234H196.771ZM387.806 34.7703C409.25 34.7703 423.264 21.6062 423.264 0.798329H405.004C405.004 20.9692 402.881 32.6471 387.806 32.6471C373.155 32.6471 369.333 20.9692 369.333 0.798329H351.073C351.073 19.2706 362.751 34.7703 387.806 34.7703ZM366.998 208.877H345.978V196.774L426.449 66.1944V208.877H405.429V211H469.551V208.877H448.531V52.181H469.551V50.0577H405.429V52.181H426.449V60.8863L345.978 191.466V52.181H366.998V50.0577H302.876V52.181H323.896V208.877H302.876V211H366.998V208.877ZM600.22 213.123H579.2V192.528C627.822 191.254 666.253 166.199 666.253 129.68C666.253 93.1597 627.822 68.1053 579.2 66.8314V47.9345H600.22V45.8112H536.098V47.9345H557.118V66.8314C508.496 68.1053 470.277 93.1597 470.277 129.68C470.277 166.199 508.496 191.254 557.118 192.528V213.123H536.098V215.246H600.22V213.123ZM557.118 69.167V189.98C521.235 187.22 494.482 163.015 494.482 122.036C494.482 88.2762 520.598 69.167 557.118 69.167ZM641.836 137.111C641.836 170.871 615.932 189.98 579.2 190.192V69.3793C614.871 72.3518 641.836 96.3445 641.836 137.111ZM791.082 52.181H808.705V50.0577H768.788V52.181H788.322L740.336 150.7H739.275L688.317 52.181H708.063V50.0577H646.489V52.181H664.112L728.446 174.905L736.09 159.405L721.652 189.131C691.926 187.22 683.858 194.439 683.858 202.932C683.858 209.301 689.803 213.76 697.659 213.76C707.426 213.76 714.008 210.363 721.227 195.5L791.082 52.181ZM814.776 200.596C826.242 175.754 830.488 120.125 831.762 52.181H893.973V208.877H872.953V211H937.075V208.877H916.055V52.181H937.075V50.0577H807.769V52.181H828.79C828.365 103.139 825.817 156.22 816.05 188.918C811.804 187.857 807.769 187.432 802.886 187.432C787.599 187.432 782.503 194.651 782.503 201.445C782.503 209.301 788.872 213.76 796.304 213.76C803.948 213.76 810.105 211 814.776 200.596ZM963.329 200.596C974.794 175.754 979.041 120.125 980.315 52.181H1042.53V208.877H1021.51V211H1085.63V208.877H1064.61V52.181H1085.63V50.0577H956.322V52.181H977.342C976.918 103.139 974.37 156.22 964.603 188.918C960.356 187.857 956.322 187.432 951.439 187.432C936.151 187.432 931.056 194.651 931.056 201.445C931.056 209.301 937.425 213.76 944.857 213.76C952.5 213.76 958.658 211 963.329 200.596ZM1153.71 208.877H1132.69V196.774L1213.16 66.1944V208.877H1192.14V211H1256.26V208.877H1235.24V52.181H1256.26V50.0577H1192.14V52.181H1213.16V60.8863L1132.69 191.466V52.181H1153.71V50.0577H1089.59V52.181H1110.61V208.877H1089.59V211H1153.71V208.877ZM1324.45 208.877H1303.43V133.714H1387.08V208.877H1366.06V211H1430.19V208.877H1409.17V52.181H1430.19V50.0577H1366.06V52.181H1387.08V122.461H1303.43V52.181H1324.45V50.0577H1260.33V52.181H1281.35V208.877H1260.33V211H1324.45V208.877Z" fill="#404040"/>
</svg>
