<svg width="786" height="174" viewBox="0 0 786 174" fill="none" xmlns="http://www.w3.org/2000/svg">
<path d="M0.520448 171H44.0471V168.877H23.6639L31.3076 42.7558L93.5188 146.158H94.5804L148.299 23.8588L157.004 168.877H135.984V171H200.106V168.877H179.086L169.743 12.181H190.764V10.0577H151.696L103.71 119.405L37.2527 10.0577H11.5613L28.972 38.9339L21.116 168.877H0.520448V171ZM288.493 171H348.793V168.877H331.17L270.445 10.0577H247.726L256.432 32.9888L203.138 168.877H185.515V171H225.432V168.877H205.898L228.829 110.487H285.945L308.239 168.877H288.493V171ZM233.288 99.2342L257.706 36.5983L281.698 99.2342H233.288ZM398.207 173.76C436.85 173.76 460.418 159.11 460.418 126.199C460.418 98.5972 434.939 87.344 410.521 86.2824V86.07C430.905 82.2482 450.014 69.721 450.014 44.4544C450.014 18.9754 430.905 5.59889 398.844 5.59889C386.953 5.59889 374.851 9.20842 368.269 14.7289L360.625 6.23587H359.351L348.31 63.5636H349.584C364.659 25.5574 375.913 7.50981 398.844 7.50981C417.528 7.50981 427.295 22.7972 427.295 46.5776C427.295 70.1457 416.679 85.4331 396.933 85.4331H378.248V87.5563H396.933C424.747 87.5563 436 104.118 436 129.172C436 155.925 423.898 171.637 398.207 171.637C373.789 171.637 358.29 153.165 343.002 113.035H341.728L352.769 173.123H354.043L361.687 164.63C369.33 168.664 384.193 173.76 398.207 173.76ZM527.59 168.877H506.57V156.774L587.041 26.1944V168.877H566.021V171H630.143V168.877H609.123V12.181H630.143V10.0577H566.021V12.181H587.041V20.8863L506.57 151.466V12.181H527.59V10.0577H463.468V12.181H484.489V168.877H463.468V171H527.59V168.877ZM673.488 171H741.856V168.877H718.713V12.181H758.418C762.876 12.181 763.089 12.181 764.787 16.2151L784.109 63.5636H785.383L779.013 0.078437H777.739L761.815 10.0577H653.529L637.605 0.078437H636.331L629.961 63.5636H631.235L650.556 16.2151C652.255 12.181 652.467 12.181 656.926 12.181H696.631V168.877H673.488V171Z" fill="#404040"/>
</svg>
