<svg width="1051" height="214" viewBox="0 0 1051 214" fill="none" xmlns="http://www.w3.org/2000/svg">
<path d="M65.0398 163.877H44.0196V84.6796L133.833 166H167.168L73.7451 81.4947H44.0196L135.107 7.18097H159.737V5.05772H107.717V7.18097H131.073L44.0196 78.3098V7.18097H65.0398V5.05772H0.917647V7.18097H21.9378V163.877H0.917647V166H65.0398V163.877ZM248.585 166H308.885V163.877H291.262L230.537 5.05772H207.818L216.524 27.9888L163.23 163.877H145.607V166H185.524V163.877H165.99L188.921 105.487H246.037L268.331 163.877H248.585V166ZM193.38 94.2342L217.798 31.5983L241.79 94.2342H193.38ZM420.077 168.123H399.057V147.528C447.679 146.254 486.11 121.199 486.11 84.6796C486.11 48.1597 447.679 23.1053 399.057 21.8314V2.93447H420.077V0.811212H355.955V2.93447H376.975V21.8314C328.353 23.1053 290.134 48.1597 290.134 84.6796C290.134 121.199 328.353 146.254 376.975 147.528V168.123H355.955V170.246H420.077V168.123ZM376.975 24.167V144.98C341.092 142.22 314.339 118.015 314.339 77.0359C314.339 43.2762 340.455 24.167 376.975 24.167ZM461.693 92.1109C461.693 125.871 435.789 144.98 399.057 145.192V24.3793C434.727 27.3518 461.693 51.3445 461.693 92.1109ZM486.802 166H616.532L631.607 114.193H630.121L596.786 160.055C594.663 162.815 592.752 163.877 588.293 163.877H529.904V84.6796H561.115C563.239 84.6796 564.088 84.8919 565.362 87.8644L577.464 113.98H578.738V53.2555H577.464L565.362 79.3714C564.088 82.344 563.239 82.5563 561.115 82.5563H529.904V7.18097H577.04C581.711 7.18097 583.197 7.81793 585.32 11.0028L612.923 54.7417H614.197L605.491 5.05772H486.802V7.18097H507.822V163.877H486.802V166ZM618.483 213.561H619.757L640.989 169.822C642.688 166.212 644.599 166 649.27 166H745.878C750.549 166 752.46 166.212 754.158 169.822L775.391 213.561H776.665L774.329 163.877H753.522V7.18097H774.542V5.05772H645.236V7.18097H666.256C665.619 69.3922 661.372 127.994 641.839 163.877H620.818L618.483 213.561ZM669.016 7.18097H731.44V163.877H644.599C663.708 128.418 667.742 69.8168 669.016 7.18097ZM778.723 166H847.092V163.877H821.825V7.18097H856.647C877.667 7.18097 892.954 23.7423 892.954 47.735C892.954 71.7277 877.667 88.0768 856.647 88.0768H828.832V90.2H857.071C889.345 90.2 916.947 73.851 916.947 46.0364C916.947 11.4275 882.975 5.05772 854.311 5.05772H778.723V7.18097H799.744V163.877H778.723V166ZM990.519 166H1050.82V163.877H1033.2L972.472 5.05772H949.753L958.458 27.9888L905.165 163.877H887.542V166H927.459V163.877H907.925L930.856 105.487H987.971L1010.27 163.877H990.519V166ZM935.315 94.2342L959.732 31.5983L983.725 94.2342H935.315Z" fill="#404040"/>
</svg>
