<svg width="43" height="43" viewBox="0 0 43 43" fill="none" xmlns="http://www.w3.org/2000/svg">
<path d="M43 21.5C43 33.3741 33.3741 43 21.5 43C9.62588 43 0 33.3741 0 21.5C0 9.62588 9.62588 0 21.5 0C33.3741 0 43 9.62588 43 21.5Z" fill="#404040"/>
<path fill-rule="evenodd" clip-rule="evenodd" d="M18.1292 3.54579C17.5407 3.65879 17.5274 3.74106 17.5274 7.24929V10.8369H18.3298H19.1321V14.5767V18.3165H18.196H17.2599V20.9878V23.6591H18.196H19.1321V30.1037V36.5482L18.3897 36.3999C17.9813 36.3182 16.9601 35.9947 16.1202 35.6808C15.2801 35.367 13.8605 34.6217 12.965 34.0244C12.0693 33.427 10.7237 32.2031 9.97395 31.3042C9.22452 30.405 8.26834 28.9379 7.84896 28.0433C7.42958 27.1489 6.91044 25.5862 6.69486 24.5706C6.47955 23.5552 6.30329 22.1832 6.30329 21.5221C6.30329 20.8609 6.47741 19.4983 6.69058 18.4942C6.90348 17.49 7.36592 16.0475 7.71817 15.2886C8.07042 14.5297 8.90116 13.1788 9.56447 12.2863C10.2278 11.3938 11.5017 10.1316 12.3953 9.48144L14.0201 8.29911L14.0351 6.62955C14.0437 5.71142 13.9402 4.95998 13.8054 4.95998C13.6706 4.95998 12.6697 5.55488 11.5814 6.28201C10.4928 7.00914 9.04078 8.20348 8.35447 8.93649C7.66816 9.66923 6.64271 10.9854 6.07595 11.8613C5.5092 12.737 4.70975 14.4575 4.2992 15.6847C3.79102 17.2034 3.50965 18.6921 3.41791 20.3472C3.34248 21.7083 3.42433 23.5897 3.60379 24.6213C3.78032 25.6348 4.23313 27.2454 4.60999 28.2004C4.98684 29.1554 5.82721 30.7437 6.47741 31.7302C7.12762 32.7165 8.36436 34.159 9.22613 34.9358C10.0876 35.7123 11.4552 36.7469 12.265 37.235C13.0749 37.7228 14.6163 38.4272 15.6899 38.8001C16.8039 39.1869 18.5368 39.5395 19.7246 39.6207L21.8068 39.7634L21.8121 36.3193L21.8175 32.8752L24.9971 29.536C27.27 27.1492 28.2224 26.3112 28.3369 26.5976C28.4249 26.818 29.1323 29.2641 29.9088 32.0334L31.3207 37.0683L32.6484 36.019C33.3788 35.4417 34.6059 34.2805 35.3754 33.4388C36.154 32.5869 37.2503 30.9377 37.8468 29.7203C38.4365 28.5169 39.1097 26.8113 39.3427 25.9298C39.6024 24.9472 39.765 23.2413 39.7626 21.5221C39.7602 19.845 39.5898 18.0726 39.339 17.1144C39.1079 16.2329 38.4184 14.4899 37.8061 13.241C36.9123 11.4173 36.2417 10.5219 34.3987 8.69233C32.8075 7.11225 31.5138 6.10704 30.1784 5.4125C29.1195 4.86141 27.3248 4.17381 26.1908 3.88398C24.7296 3.51079 23.3415 3.36788 21.4296 3.39352C19.9455 3.41356 18.46 3.48194 18.1292 3.54579ZM24.9481 6.69686C25.8666 6.91324 27.4312 7.4825 28.4249 7.96173C29.6346 8.54541 30.8569 9.45125 32.1242 10.7033C33.1648 11.7317 34.4003 13.252 34.8697 14.0817C35.3388 14.9114 35.9617 16.5235 36.2538 17.6639C36.5458 18.8046 36.7828 20.5297 36.7807 21.4981C36.7785 22.4661 36.594 24.0334 36.3704 24.9806C36.1468 25.9279 35.6022 27.4305 35.1604 28.3198C34.7183 29.209 34.0229 30.3406 33.6147 30.834L32.8728 31.7313L31.8516 28.0291C31.2899 25.9931 30.7732 24.1768 30.7031 23.9931C30.6261 23.7914 30.7989 23.6591 31.1394 23.6591C31.6748 23.6591 31.7029 23.5264 31.7029 20.9878V18.3165H30.4116H29.1203L27.9977 14.2428C27.3802 12.0021 26.7522 9.71838 26.6018 9.16729L26.3285 8.16555H23.399H20.4695V7.23059V6.29563L21.8736 6.29964C22.6461 6.30178 24.0294 6.48049 24.9481 6.69686ZM24.3233 12.1268C24.5651 13.2768 24.5587 13.291 23.1866 14.6614L21.8068 16.0395V13.423V10.8061L22.9435 10.8884C24.0495 10.9683 24.0869 11.0017 24.3233 12.1268ZM26.0659 18.1162C26.0771 18.2262 25.46 18.3165 24.6946 18.3165H23.303L24.356 17.2394L25.409 16.1624L25.7272 17.0391C25.9022 17.5213 26.0546 18.0061 26.0659 18.1162ZM24.7818 26.0273C23.5913 27.3298 22.4348 28.5466 22.212 28.7314C21.8546 29.0277 21.8068 28.7482 21.8068 26.363V23.6591H24.3766H26.9463L24.7818 26.0273Z" fill="white"/>
</svg>
