<svg width="173" height="149" viewBox="0 0 173 149" fill="none" xmlns="http://www.w3.org/2000/svg">
<path d="M121.213 36.2811C110.505 36.2811 100.548 39.6003 92.1959 45.1681L98.192 14.7594L144.233 14.7594L162.757 0.947021L86.8423 0.947021L72.6016 72.5788H86.7352H87.0564C92.8383 59.6229 105.901 50.5218 121.106 50.5218C141.664 50.5218 158.367 67.2251 158.367 87.7831C158.367 108.341 141.771 125.044 121.213 125.044V139.285C149.587 139.178 172.608 116.157 172.608 87.7831C172.715 59.3017 149.587 36.2811 121.213 36.2811Z" fill="white"/>
<path d="M121.533 75.6841V82.1085L124.96 78.468L124.21 75.6841H121.533Z" fill="white"/>
<path d="M125.817 81.4659L122.926 84.3569H126.673L125.817 81.4659Z" fill="white"/>
<path d="M121.533 97.0985L127.958 90.2458H121.533V97.0985Z" fill="white"/>
<path d="M121.32 64.0135C108.043 64.0135 97.2283 74.8279 97.2283 88.1049C97.2283 101.382 108.043 112.196 121.32 112.196C134.597 112.196 145.411 101.382 145.411 88.1049C145.411 74.8279 134.597 64.0135 121.32 64.0135ZM132.562 105.665L132.134 104.059L129.029 93.0303L121.427 100.847V107.806V108.877C121.32 108.877 121.32 108.877 121.213 108.877C109.649 108.877 100.333 99.4547 100.333 87.9979C100.333 79.6462 105.259 72.4723 112.326 69.046V72.6864C107.079 75.7915 103.546 81.4664 103.546 87.9979C103.546 96.8849 110.184 104.273 118.75 105.451V90.2464H116.287V84.3574H118.75V75.5774H116.823V67.4399C118.215 67.1186 119.714 67.0116 121.213 67.0116C132.776 67.0116 142.092 76.434 142.092 87.8908C142.199 95.3859 138.344 101.917 132.562 105.665Z" fill="white"/>
<path d="M121.322 70.3302C120.787 70.3302 120.251 70.3302 119.716 70.4373V72.7929H126.461H126.676L129.888 84.3567H132.779V90.2458H131.494L134.171 99.9894C137.169 96.8842 138.882 92.6014 138.882 87.9972C138.989 78.2536 131.066 70.3302 121.322 70.3302Z" fill="white"/>
<path d="M79.1319 0.839844L18.957 0.839844L0.43335 14.7593L62.3215 14.7593L41.4423 119.905H55.5759L79.1319 0.839844Z" fill="white"/>
<path d="M31.4847 135.217L32.1272 138.108H32.3413L32.8767 135.11L36.303 125.259H40.9071L34.6969 140.892C34.2686 142.069 33.7333 143.14 33.305 144.104C32.8767 144.96 32.3413 145.71 31.913 146.352C31.3777 146.995 30.8423 147.423 30.1999 147.637C29.5574 147.958 28.8079 148.065 27.9513 148.065C27.2018 148.065 26.6665 148.065 26.2382 147.958C25.8099 147.851 25.2745 147.637 24.8462 147.316L26.024 143.783C26.3452 143.997 26.7735 144.104 26.9877 144.104C27.3089 144.104 27.6301 144.211 27.9513 144.211C28.915 144.211 29.6645 143.461 30.0928 141.855L21.634 125.366H26.8806L31.4847 135.217Z" fill="white"/>
<path d="M106.593 135.217L107.236 138.108H107.45L107.985 135.11L111.411 125.259H116.016L109.805 140.892C109.377 142.069 108.842 143.14 108.413 144.104C107.985 144.96 107.45 145.71 107.021 146.352C106.486 146.995 105.951 147.423 105.308 147.637C104.666 147.958 103.916 148.065 103.06 148.065C102.31 148.065 101.775 148.065 101.347 147.958C100.918 147.851 100.383 147.637 99.9546 147.316L101.132 143.783C101.454 143.997 101.882 144.104 102.096 144.104C102.417 144.104 102.739 144.211 103.06 144.211C104.023 144.211 104.773 143.461 105.201 141.855L96.7424 125.366H101.989L106.593 135.217Z" fill="white"/>
<path d="M55.3594 129.113H46.6865V147.744H42.1895V125.151H55.3594V129.113Z" fill="white"/>
<path d="M70.1358 138.321H61.8912V147.744H57.5012V125.151H61.8912V134.36H70.1358V125.151H74.5258V147.744H70.1358V138.321Z" fill="white"/>
<path d="M94.5513 129.113H87.9128V147.744H83.5228V129.113H76.8843V125.151H94.5513V129.113Z" fill="white"/>
</svg>
