<svg width="10" height="14" viewBox="0 0 10 14" fill="none" xmlns="http://www.w3.org/2000/svg">
<g>
<circle opacity="0.2" cx="2.5" cy="7.5" r="26" stroke="#1C1C1C"/>
<path d="M-12.3995 16C-12.4138 16.0001 -12.428 15.9996 -12.4421 15.9985C-12.6512 15.9835 -12.8186 15.8592 -12.8453 15.6994C-13.4473 12.1137 -12.275 8.77833 -9.62958 6.54651C-8.41942 5.52975 -6.91569 4.74444 -5.23891 4.25341C-3.37799 3.72266 -1.40189 3.46971 0.582887 3.50833V1.34482C0.582887 1.20843 0.687582 1.08486 0.850114 1.02954C1.01248 0.974355 1.20221 0.997736 1.33377 1.08925L9.85254 7.00882C9.94642 7.07419 10 7.16697 10 7.26427C10 7.36157 9.94642 7.45434 9.85254 7.51971L1.33377 13.4393C1.2022 13.5308 1.01264 13.5543 0.850114 13.499C0.687745 13.4438 0.582887 13.3204 0.582887 13.184V10.7125C-4.33208 10.5873 -9.77009 10.5941 -11.9721 15.7625C-12.0326 15.9042 -12.205 16 -12.3993 16L-12.3995 16ZM0.385788 4.19689C-3.55348 4.19689 -6.77736 5.16448 -8.96515 7.01018C-11.0769 8.79188 -12.1794 11.3448 -12.0977 14.1649C-9.25943 9.76336 -3.58897 9.91268 1.04707 10.035C1.28907 10.0414 1.48094 10.1937 1.48094 10.3794V12.4069L8.88065 7.2642L1.48094 2.1215V3.8602C1.48094 3.95373 1.43146 4.04324 1.3438 4.10823C1.25615 4.1731 1.13785 4.20792 1.01595 4.20465C0.804106 4.19924 0.593917 4.1966 0.385498 4.1966L0.385788 4.19689Z" fill="black"/>
<path d="M1 3V12" stroke="black"/>
<path d="M-15 -2H0.616124V20H-15L-15 -2Z" fill="white"/>
</g>
<defs>
</defs>
</svg>
