<svg width="1920" height="1712" viewBox="0 0 1920 1712" fill="none" xmlns="http://www.w3.org/2000/svg">
<g filter="url(#filter0_d_15_1482)">
<path d="M1913.54 1510.5L1957 1506.5V1279H-1136V1488L-1001.66 1514.5L-1006.4 1518L-901.299 1530.5L-819.904 1545.5L-794.616 1554.5H-774.86L-739.3 1558.5L-714.802 1561.5H-698.997L-694.256 1558.5H-681.612H-646.051L-614.442 1556.5L-608.12 1561.5L-601.008 1567L-583.622 1583.5L-560.705 1589H-548.852L-533.837 1586H-518.823L-503.018 1589H-489.583C-494.061 1591 -492.27 1598.6 -449.281 1613C-432.844 1592.6 -405.028 1579.17 -393.174 1575H-337.857L-232.755 1571L-207.468 1573H-177.439L-164.795 1568.5L-127.654 1564L-81.0294 1561.5V1558.5C-76.288 1557.5 -63.012 1555 -47.8394 1553C67.8518 1548.2 149.984 1518.33 176.589 1504L211.359 1500.5C217.945 1500.5 233.644 1500.8 243.759 1502C254.823 1514 264.305 1513 269.837 1512C313.458 1502 342.276 1503.83 351.232 1506L347.281 1508.5L401.807 1510L406.549 1513L398.646 1526.5H457.914V1530C471.348 1527.5 500.903 1521.8 511.651 1519C522.398 1516.2 514.021 1513.17 508.49 1512H515.602L528.246 1510H546.421L559.065 1507.5C574.08 1508.33 611.063 1509.5 638.879 1507.5C666.696 1505.5 677.865 1513.33 679.972 1517.5C683.923 1521 697.041 1531.5 717.903 1545.5C743.191 1561.1 768.479 1547.33 777.962 1538.5C786.127 1533.83 806.884 1525.5 824.586 1529.5C849.874 1557.1 868.312 1551.67 874.371 1545.5L878.322 1549L883.854 1552.5L890.966 1547.5L902.029 1538.5L909.932 1532.5H923.366L935.219 1528L943.912 1520L954.975 1513.5L980.263 1505.5L999.229 1500L1007.13 1498L1017.4 1497H1026.1L1035.58 1500V1497L1037.95 1492L1042.69 1490L1052.17 1489H1064.03L1115.39 1479.5L1141.47 1475H1149.37L1156.49 1479.5H1187.31H1209.43L1216.54 1482.5C1221.02 1483.17 1230.29 1484.5 1231.56 1484.5C1232.82 1484.5 1249.47 1485.83 1257.64 1486.5L1274.23 1489L1279.76 1492C1285.03 1494 1295.88 1498 1297.15 1498C1298.41 1498 1309.27 1499.33 1314.53 1500L1365.9 1503L1457.57 1504.5L1466.26 1509L1478.9 1515L1501.82 1523L1540.54 1531.5L1584.8 1543L1590.33 1547.5H1597.44H1605.34L1610.08 1543L1622.73 1530C1631.16 1523.5 1653.71 1508.4 1676.46 1500C1664.45 1509.2 1678.84 1506.83 1687.53 1504.5L1715.98 1493.5C1723.88 1491.67 1746.32 1491.3 1772.87 1504.5C1799.43 1517.7 1825.03 1519.33 1834.51 1518.5L1889.04 1513.5V1515L1913.54 1510.5Z" fill="#3E171D"/>
</g>
<rect width="1920" height="1279" fill="#3E171D"/>
<defs>
<filter id="filter0_d_15_1482" x="-1195" y="1260" width="3211" height="452" filterUnits="userSpaceOnUse" color-interpolation-filters="sRGB">
<feFlood flood-opacity="0" result="BackgroundImageFix"/>
<feColorMatrix in="SourceAlpha" type="matrix" values="0 0 0 0 0 0 0 0 0 0 0 0 0 0 0 0 0 0 127 0" result="hardAlpha"/>
<feOffset dy="40"/>
<feGaussianBlur stdDeviation="29.5"/>
<feComposite in2="hardAlpha" operator="out"/>
<feColorMatrix type="matrix" values="0 0 0 0 0 0 0 0 0 0 0 0 0 0 0 0 0 0 0.11 0"/>
<feBlend mode="normal" in2="BackgroundImageFix" result="effect1_dropShadow_15_1482"/>
<feBlend mode="normal" in="SourceGraphic" in2="effect1_dropShadow_15_1482" result="shape"/>
</filter>
</defs>
</svg>
