<?xml version="1.0" encoding="utf-8"?><svg width="15" height="16" fill="none" xmlns="http://www.w3.org/2000/svg" viewBox="0 0 15 16"><path d="M3.696 7.003a.703.703 0 10-.994-.994l-1.27 1.27c-1.857 1.882-1.856 4.926.003 6.785l.004.003a4.827 4.827 0 003.399 1.392c1.23 0 2.456-.465 3.386-1.395l1.266-1.266a.703.703 0 10-.994-.994L7.23 13.07c-1.314 1.314-3.468 1.313-4.802-.002-1.313-1.314-1.311-3.466.003-4.8l1.265-1.265zM11.303 8.997a.703.703 0 00.994.994l1.27-1.27c1.857-1.882 1.856-4.926-.004-6.785l-.003-.003C11.678.076 8.634.077 6.775 1.936L5.509 3.203a.703.703 0 10.994.994L7.77 2.93c1.314-1.314 3.468-1.313 4.802.001 1.312 1.314 1.31 3.467-.003 4.8l-1.265 1.265z" fill="#000"/><path d="M5.143 10.356a.7.7 0 00.995 0l3.717-3.717a.703.703 0 00-.994-.995L5.143 9.362a.703.703 0 000 .994z" fill="#000"/></svg>