<?xml version="1.0" encoding="utf-8"?><svg width="23" height="19" fill="none" xmlns="http://www.w3.org/2000/svg" viewBox="0 0 23 19"><path d="M.6 19c-.014 0-.028 0-.042-.002a.443.443 0 01-.403-.379c-.602-4.542.57-8.766 3.215-11.593A11.518 11.518 0 017.761 4.12a15.983 15.983 0 015.822-.944V.437c0-.173.105-.33.267-.4a.46.46 0 01.484.076l8.518 7.498a.432.432 0 010 .647l-8.518 7.498a.46.46 0 01-.484.076.436.436 0 01-.267-.399v-3.13c-4.915-.16-10.353-.15-12.555 6.396-.06.18-.233.3-.427.3V19zM13.386 4.05c-3.94 0-7.163 1.225-9.351 3.563C1.923 9.87.82 13.103.902 16.676c2.839-5.576 8.509-5.387 13.145-5.232a.443.443 0 01.434.437v2.568l7.4-6.514-7.4-6.514v2.202a.43.43 0 01-.137.314.457.457 0 01-.328.122c-.212-.007-.422-.01-.63-.01z" fill="#000"/></svg>