<?xml version="1.0" encoding="utf-8"?><svg width="1451" height="676" fill="none" xmlns="http://www.w3.org/2000/svg" viewBox="0 0 1451 676"><path d="M73.04 410.877H52.02v-12.103l80.471-130.58v142.683h-21.02V413h64.122v-2.123h-21.02V254.181h21.02v-2.123h-64.122v2.123h21.02v8.705L52.02 393.466V254.181h21.02v-2.123H8.918v2.123h21.02v156.696H8.918V413H73.04v-2.123zm94.514 49.684h1.274l21.233-43.739c1.698-3.61 3.609-3.822 8.28-3.822h96.608c4.671 0 6.582.212 8.281 3.822l21.232 43.739h1.274l-2.335-49.684h-20.808V254.181h21.02v-2.123H194.307v2.123h21.02c-.637 62.211-4.883 120.813-24.417 156.696h-21.02l-2.336 49.684zm50.534-206.38h62.423v156.696H193.67c19.109-35.459 23.144-94.06 24.418-156.696zM327.795 413h68.368v-2.123h-25.266V254.181h34.821c21.02 0 36.308 16.561 36.308 40.554 0 23.993-15.288 40.342-36.308 40.342h-27.815v2.123h28.24c32.273 0 59.875-16.349 59.875-44.164 0-34.609-33.972-40.978-62.636-40.978h-75.587v2.123h21.02v156.696h-21.02V413zm200.234-2.123h-21.02v-12.103l80.471-130.58v142.683h-21.02V413h64.122v-2.123h-21.02V254.181h21.02v-2.123H566.46v2.123h21.02v8.705l-80.471 130.58V254.181h21.02v-2.123h-64.122v2.123h21.02v156.696h-21.02V413h64.122v-2.123zm197.314 2.972c-37.581 0-64.546-39.28-64.546-88.327 0-53.293 35.458-76.012 63.485-76.012 27.602 0 50.745 15.924 65.608 64.122h1.274l-11.678-65.396h-1.274l-9.979 11.465c-11.041-8.068-27.178-12.102-43.951-12.102-53.506 0-89.389 38.006-89.389 84.081 0 51.807 40.979 84.08 90.45 84.08 16.774 0 32.911-4.034 43.952-12.102l9.979 11.465h1.274l11.678-65.396h-1.274c-14.863 48.198-38.006 64.122-65.609 64.122zm161.729 1.911c45.862 0 86.416-33.759 86.416-84.08 0-50.109-40.554-84.081-86.416-84.081-45.862 0-86.416 33.76-86.416 84.081 0 50.108 40.554 84.08 86.416 84.08zm6.794-2.76c-43.526 0-69.855-50.533-69.855-96.396 0-43.951 27.178-66.245 56.267-66.245 43.526 0 69.854 50.533 69.854 96.396 0 43.951-27.177 66.245-56.266 66.245zm83.917-160.942v2.123h21.02v156.696h-21.02V413h73.887c40.98 0 67.31-14.65 66.25-46.924-.85-26.54-28.45-36.732-55.84-38.006v-.212c22.71-4.247 44.16-15.5 44.16-39.28 0-23.993-21.66-36.52-59.24-36.52h-69.217zm105.737 38.643c0 22.294-12.31 36.732-35.46 36.732h-27.18v-73.252h27.18c23.15 0 35.46 14.226 35.46 36.52zm9.98 79.409c0 25.055-13.38 40.767-41.83 40.767h-30.79v-81.321h30.79c28.45 0 41.83 15.5 41.83 40.554zm93.64 40.767h-21.02v-12.103l80.47-130.58v142.683h-21.02V413h64.12v-2.123h-21.02V254.181h21.02v-2.123h-64.12v2.123h21.02v8.705l-80.47 130.58V254.181h21.02v-2.123h-64.12v2.123h21.02v156.696h-21.02V413h64.12v-2.123zm122.97-115.505c0 34.609 20.8 47.985 58.17 47.985 12.74 0 25.69-1.698 39.07-7.643v75.163h-21.02V413h64.12v-2.123h-21.02V254.181h21.02v-2.123h-64.12v2.123h21.02v79.409c-13.8 6.37-26.33 7.644-32.91 7.644-24.63 0-42.25-7.856-42.25-45.862v-41.191h21.02v-2.123h-64.12v2.123h21.02v41.191zM5.52 192h43.527v-2.123H28.664l7.644-126.121 62.21 103.402h1.062l53.719-122.3 8.705 145.019h-21.02V192h64.122v-2.123h-21.02l-9.343-156.696h21.021v-2.123h-39.068L108.71 140.405 42.253 31.058H16.56l17.411 28.876-7.856 129.943H5.52V192zm287.973 0h60.3v-2.123H336.17l-60.725-158.82h-22.719l8.706 22.932-53.294 135.888h-17.623V192h39.917v-2.123h-19.534l22.931-58.39h57.116l22.294 58.39h-19.746V192zm-55.205-71.766l24.418-62.636 23.992 62.636h-48.41zm164.919 74.526c38.643 0 62.211-14.65 62.211-47.561 0-27.602-25.479-38.855-49.897-39.917v-.212c20.384-3.822 39.493-16.349 39.493-41.616 0-25.479-19.109-38.855-51.17-38.855-11.891 0-23.993 3.61-30.575 9.13l-7.644-8.493h-1.274L353.31 84.564h1.274c15.075-38.007 26.329-56.054 49.26-56.054 18.684 0 28.451 15.287 28.451 39.068 0 23.568-10.616 38.855-30.362 38.855h-18.685v2.123h18.685c27.814 0 39.067 16.562 39.067 41.616 0 26.753-12.102 42.465-37.793 42.465-24.418 0-39.917-18.472-55.205-58.602h-1.274l11.041 60.088h1.274l7.644-8.493c7.643 4.034 22.506 9.13 36.52 9.13zm129.383-4.883h-21.02v-12.103l80.471-130.58v142.683h-21.02V192h64.122v-2.123h-21.02V33.181h21.02v-2.123h-64.122v2.123h21.02v8.705l-80.471 130.58V33.181h21.02v-2.123h-64.122v2.123h21.021v156.696h-21.021V192h64.122v-2.123zM678.488 192h68.368v-2.123h-23.143V33.181h39.705c4.458 0 4.671 0 6.369 4.034l19.322 47.349h1.274l-6.37-63.486h-1.274l-15.924 9.98H658.529l-15.924-9.98h-1.274l-6.37 63.486h1.274l19.321-47.349c1.699-4.034 1.911-4.034 6.37-4.034h39.705v156.696h-23.143V192zM101.067 635.849c-37.582 0-64.547-39.28-64.547-88.327 0-53.293 35.458-76.012 63.485-76.012 27.602 0 50.746 15.924 65.608 64.122h1.274l-11.677-65.396h-1.274l-9.98 11.465c-11.041-8.068-27.177-12.102-43.951-12.102-53.506 0-89.389 38.006-89.389 84.081 0 51.807 40.979 84.08 90.451 84.08 16.773 0 32.91-4.034 43.951-12.102l9.979 11.465h1.274l11.678-65.396h-1.274c-14.863 48.198-38.006 64.122-65.608 64.122zM261.976 635h60.3v-2.123h-17.623l-60.725-158.819h-22.719l8.706 22.931-53.294 135.888h-17.623V635h39.917v-2.123h-19.534l22.931-58.39h57.116l22.294 58.39h-19.746V635zm-55.205-71.766l24.418-62.636 23.992 62.636h-48.41zM397.806 458.77c21.444 0 35.458-13.164 35.458-33.972h-18.26c0 20.171-2.123 31.849-17.198 31.849-14.651 0-18.473-11.678-18.473-31.849h-18.26c0 18.473 11.678 33.972 36.733 33.972zm-20.808 174.107h-21.02v-12.103l80.471-130.58v142.683h-21.02V635h64.122v-2.123h-21.02V476.181h21.02v-2.123h-64.122v2.123h21.02v8.705l-80.471 130.58V476.181h21.02v-2.123h-64.122v2.123h21.02v156.696h-21.02V635h64.122v-2.123zm233.222 4.246H589.2v-20.595c48.622-1.274 87.053-26.329 87.053-62.848 0-36.52-38.431-61.575-87.053-62.849v-18.897h21.02v-2.123h-64.122v2.123h21.02v18.897c-48.622 1.274-86.841 26.329-86.841 62.849 0 36.519 38.219 61.574 86.841 62.848v20.595h-21.02v2.123h64.122v-2.123zm-43.102-143.956V613.98c-35.883-2.76-62.636-26.965-62.636-67.944 0-33.76 26.116-52.869 62.636-52.869zm84.718 67.944c0 33.76-25.904 52.869-62.636 53.081V493.379c35.671 2.973 62.636 26.966 62.636 67.732zm149.246-84.93h17.623v-2.123h-39.917v2.123h19.534L750.336 574.7h-1.061l-50.958-98.519h19.746v-2.123h-61.574v2.123h17.623l64.334 122.724 7.644-15.5-14.438 29.726c-29.726-1.911-37.794 5.308-37.794 13.801 0 6.369 5.945 10.828 13.801 10.828 9.767 0 16.349-3.397 23.568-18.26l69.855-143.319zm23.694 148.415c11.466-24.842 15.712-80.471 16.986-148.415h62.211v156.696h-21.02V635h64.122v-2.123h-21.02V476.181h21.02v-2.123H817.769v2.123h21.021c-.425 50.958-2.973 104.039-12.74 136.737-4.246-1.061-8.281-1.486-13.164-1.486-15.287 0-20.383 7.219-20.383 14.013 0 7.856 6.369 12.315 13.801 12.315 7.644 0 13.801-2.76 18.472-13.164zm148.553 0c11.465-24.842 15.712-80.471 16.986-148.415h62.215v156.696h-21.02V635h64.12v-2.123h-21.02V476.181h21.02v-2.123H966.322v2.123h21.02c-.424 50.958-2.972 104.039-12.739 136.737-4.247-1.061-8.281-1.486-13.164-1.486-15.288 0-20.383 7.219-20.383 14.013 0 7.856 6.369 12.315 13.801 12.315 7.643 0 13.801-2.76 18.472-13.164zm190.381 8.281h-21.02v-12.103l80.47-130.58v142.683h-21.02V635h64.12v-2.123h-21.02V476.181h21.02v-2.123h-64.12v2.123h21.02v8.705l-80.47 130.58V476.181h21.02v-2.123h-64.12v2.123h21.02v156.696h-21.02V635h64.12v-2.123zm170.74 0h-21.02v-75.163h83.65v75.163h-21.02V635h64.13v-2.123h-21.02V476.181h21.02v-2.123h-64.13v2.123h21.02v70.28h-83.65v-70.28h21.02v-2.123h-64.12v2.123h21.02v156.696h-21.02V635h64.12v-2.123z" fill="#404040"/></svg>