<?xml version="1.0" encoding="utf-8"?><svg width="2000" height="193.18" fill="none" xmlns="http://www.w3.org/2000/svg" viewBox="0 0 4224 408"><path d="M232.763 315.045h-39.154V319h119.438v-3.955h-39.153V23.174h39.153v-3.955H.611v3.955h39.153v291.871H.611V319h119.437v-3.955H80.895V23.174h151.868v291.871zM320.571 319h241.644l28.079-96.499h-2.768l-62.092 85.425c-3.955 5.142-7.514 7.119-15.819 7.119h-108.76V167.528h58.137c3.955 0 5.537.395 7.91 5.932l22.543 48.645h2.373v-113.11h-2.373l-22.543 48.645c-2.373 5.537-3.955 5.933-7.91 5.933h-58.137V23.174h87.799c8.7 0 11.469 1.186 15.424 7.119l51.413 81.471h2.373l-16.215-92.545H320.571v3.955h39.153v291.871h-39.153V319zm270.91 0h127.347v-3.955h-47.063V23.174h64.86c39.154 0 67.629 30.848 67.629 75.538 0 44.691-28.475 75.143-67.629 75.143h-51.809v3.955h52.6c60.115 0 111.528-30.452 111.528-82.261 0-64.465-63.278-76.33-116.669-76.33H591.481v3.955h39.153v291.871h-39.153V319zm253.53-299.78v3.954h39.154v291.871h-39.154V319h137.63c76.329 0 125.369-27.289 123.389-87.403-1.58-49.436-52.99-68.42-104.01-70.793v-.395c42.32-7.91 82.26-28.871 82.26-73.166 0-44.69-40.34-68.024-110.339-68.024h-128.93zm196.949 71.978c0 41.527-22.93 68.42-66.042 68.42h-50.622V23.174h50.622c43.112 0 66.042 26.498 66.042 68.024zm18.59 147.913c0 46.668-24.91 75.934-77.909 75.934h-57.345V163.573h57.345c52.999 0 77.909 28.87 77.909 75.538zm136.06-215.937h39.15v-3.955h-119.43v3.955h39.15v291.871h-39.15V319H1250c76.33 0 123.39-29.662 123.39-91.358 0-51.018-47.45-75.934-123.39-75.934h-53.39V23.174zm302.15 291.871h-39.15V23.174h39.15v-3.955h-119.43v3.955h39.15v291.871h-39.15V319h119.43v-3.955zm-170.85-79.889c0 47.854-24.91 79.889-77.91 79.889h-53.39V155.663H1250c53 0 77.91 31.639 77.91 79.493zM1506.17 319h241.65l28.08-96.499h-2.77l-62.09 85.425c-3.96 5.142-7.52 7.119-15.82 7.119h-108.76V167.528h58.13c3.96 0 5.54.395 7.91 5.932l22.55 48.645h2.37v-113.11h-2.37l-22.55 48.645c-2.37 5.537-3.95 5.933-7.91 5.933h-58.13V23.174h87.8c8.7 0 11.47 1.186 15.42 7.119l51.41 81.471h2.38l-16.22-92.545h-221.08v3.955h39.16v291.871h-39.16V319zm525.38 1.582c-70 0-120.23-73.166-120.23-164.524 0-99.267 66.05-141.585 118.25-141.585 51.41 0 94.52 29.662 122.21 119.438h2.37l-21.75-121.81h-2.38l-18.58 21.356c-20.57-15.029-50.63-22.543-81.87-22.543-99.66 0-166.5 70.792-166.5 156.614 0 96.499 76.33 156.613 168.48 156.613 31.24 0 61.3-7.514 81.86-22.543l18.59 21.357h2.37l21.76-121.811h-2.38c-27.68 89.776-70.79 119.438-122.2 119.438zM2241.83 319h127.35v-3.955h-43.11V23.174h73.96c8.3 0 8.7 0 11.86 7.514l35.99 88.194h2.37L2438.39.632h-2.37l-29.67 18.587h-201.7L2174.99.631h-2.37l-11.87 118.251h2.38l35.99-88.194c3.16-7.514 3.56-7.514 11.86-7.514h73.96v291.871h-43.11V319zm450.21-295.826h32.83v-3.955h-74.35v3.955h36.38l-89.38 183.507h-1.98l-94.91-183.507h36.78v-3.955h-114.7v3.955h32.83l119.83 228.593 14.24-28.871-26.89 55.369c-55.37-3.56-70.4 9.887-70.4 25.706 0 11.865 11.07 20.17 25.71 20.17 18.19 0 30.45-6.327 43.9-34.012l130.11-266.955zm-26.5 384.416h2.37l39.55-81.471c3.17-6.724 6.73-7.119 15.43-7.119h179.94c8.71 0 12.27.395 15.43 7.119l39.55 81.471h2.37l-4.35-92.545h-38.76V23.174h39.16v-3.955h-240.86v3.955h39.16c-1.19 115.878-9.1 225.033-45.48 291.871h-39.16l-4.35 92.545zm94.13-384.416h116.27v291.871h-161.75c35.59-66.047 43.1-175.202 45.48-291.871zM2964.02 319h241.64l28.08-96.499h-2.77l-62.09 85.425c-3.96 5.142-7.52 7.119-15.82 7.119H3044.3V167.528h58.14c3.95 0 5.53.395 7.91 5.932l22.54 48.645h2.37v-113.11h-2.37l-22.54 48.645c-2.38 5.537-3.96 5.933-7.91 5.933h-58.14V23.174h87.8c8.7 0 11.47 1.186 15.42 7.119l51.42 81.471h2.37l-16.22-92.545h-221.07v3.955h39.15v291.871h-39.15V319zm390.34-3.955h-39.15V175.042h155.82v140.003h-39.15V319h119.44v-3.955h-39.16V23.174h39.16v-3.955h-119.44v3.955h39.15v130.907h-155.82V23.174h39.15v-3.955h-119.43v3.955h39.15v291.871h-39.15V319h119.43v-3.955zM3631.91 319h127.35v-3.955h-43.11V23.174h73.96c8.3 0 8.7 0 11.86 7.514l35.99 88.194h2.38L3828.47.632h-2.37l-29.66 18.587h-201.7L3565.08.631h-2.38l-11.86 118.251h2.37l35.99-88.194c3.16-7.514 3.56-7.514 11.87-7.514h73.95v291.871h-43.11V319zm289.25-295.826h39.15v-3.955h-119.43v3.955h39.15v291.871h-39.15V319h133.67c76.33 0 123.39-29.662 123.39-91.358 0-51.018-47.45-75.934-123.39-75.934h-53.39V23.174zm302.16 291.871h-39.16V23.174h39.16v-3.955h-119.44v3.955h39.15v291.871h-39.15V319h119.44v-3.955zm-170.86-79.889c0 47.854-24.91 79.889-77.91 79.889h-53.39V155.663h53.39c53 0 77.91 31.639 77.91 79.493z" fill="#fff"/></svg>