<?xml version="1.0" encoding="utf-8"?><svg width="662" height="164" fill="none" xmlns="http://www.w3.org/2000/svg" viewBox="0 0 662 164"><path d="M.918.058V2.18h21.02v156.696H.918V161h73.889c40.978 0 67.307-14.65 66.245-46.924-.849-26.54-28.451-36.732-55.841-38.006v-.212c22.718-4.247 44.163-15.5 44.163-39.28 0-23.993-21.657-36.52-59.238-36.52H.918zM106.655 38.7c0 22.294-12.314 36.732-35.458 36.732H44.02V2.181h27.177c23.144 0 35.458 14.226 35.458 36.52zm9.98 79.409c0 25.055-13.377 40.767-41.828 40.767H44.02v-81.32h30.787c28.451 0 41.828 15.499 41.828 40.553zM313.51 2.181h17.623V.058h-39.917V2.18h19.533L262.764 100.7h-1.062L210.744 2.181h19.747V.058h-61.575V2.18h17.623l64.335 122.724 7.644-15.5-14.439 29.726c-29.725-1.911-37.793 5.308-37.793 13.801 0 6.369 5.945 10.828 13.801 10.828 9.767 0 16.349-3.397 23.568-18.26L313.51 2.181zm71.12 156.696h-21.02V83.714h83.656v75.163h-21.02V161h64.122v-2.123h-21.02V2.181h21.02V.058h-64.122V2.18h21.02v70.28H363.61V2.18h21.02V.058h-64.122V2.18h21.02v156.696h-21.02V161h64.122v-2.123zm173.85 0h-21.021v-12.103l80.472-130.58v142.683H596.91V161h64.122v-2.123h-21.02V2.181h21.02V.058H596.91V2.18h21.021v8.705l-80.472 130.58V2.181h21.021V.058h-64.123V2.18h21.021v156.696h-21.021V161h64.123v-2.123z" fill="#404040"/></svg>