<?xml version="1.0" encoding="utf-8"?><svg width="786" height="174" fill="none" xmlns="http://www.w3.org/2000/svg" viewBox="0 0 786 174"><path d="M.52 171h43.527v-2.123H23.664l7.644-126.121 62.21 103.402h1.062l53.719-122.3 8.705 145.019h-21.02V171h64.122v-2.123h-21.02l-9.343-156.696h21.021v-2.123h-39.068L103.71 119.405 37.253 10.058H11.56l17.411 28.876-7.856 129.943H.52V171zm287.973 0h60.3v-2.123H331.17l-60.725-158.82h-22.719l8.706 22.932-53.294 135.888h-17.623V171h39.917v-2.123h-19.534l22.931-58.39h57.116l22.294 58.39h-19.746V171zm-55.205-71.766l24.418-62.636 23.992 62.636h-48.41zm164.919 74.526c38.643 0 62.211-14.65 62.211-47.561 0-27.602-25.479-38.855-49.897-39.917v-.212c20.384-3.822 39.493-16.349 39.493-41.616 0-25.479-19.109-38.855-51.17-38.855-11.891 0-23.993 3.61-30.575 9.13l-7.644-8.493h-1.274L348.31 63.564h1.274c15.075-38.007 26.329-56.054 49.26-56.054 18.684 0 28.451 15.287 28.451 39.068 0 23.568-10.616 38.855-30.362 38.855h-18.685v2.123h18.685c27.814 0 39.067 16.562 39.067 41.616 0 26.753-12.102 42.465-37.793 42.465-24.418 0-39.917-18.472-55.205-58.602h-1.274l11.041 60.088h1.274l7.644-8.493c7.643 4.034 22.506 9.13 36.52 9.13zm129.383-4.883h-21.02v-12.103l80.471-130.58v142.683h-21.02V171h64.122v-2.123h-21.02V12.181h21.02v-2.123h-64.122v2.123h21.02v8.705l-80.471 130.58V12.181h21.02v-2.123h-64.122v2.123h21.021v156.696h-21.021V171h64.122v-2.123zM673.488 171h68.368v-2.123h-23.143V12.181h39.705c4.458 0 4.671 0 6.369 4.034l19.322 47.349h1.274L779.013.078h-1.274l-15.924 9.98H653.529L637.605.078h-1.274l-6.37 63.486h1.274l19.321-47.349c1.699-4.034 1.911-4.034 6.37-4.034h39.705v156.696h-23.143V171z" fill="#404040"/></svg>