<?xml version="1.0" encoding="utf-8"?><svg width="1101" height="169" fill="none" xmlns="http://www.w3.org/2000/svg" viewBox="0 0 1101 169"><path d="M.381 5.058V7.18h21.02v156.696H.382V166h73.89c40.978 0 67.307-14.65 66.245-46.924-.849-26.54-28.452-36.732-55.841-38.006v-.212c22.718-4.247 44.163-15.5 44.163-39.28 0-23.993-21.657-36.52-59.239-36.52H.381zM106.12 43.7c0 22.294-12.315 36.732-35.458 36.732H43.483V7.181h27.178c23.143 0 35.458 14.226 35.458 36.52zm9.98 79.409c0 25.055-13.377 40.767-41.829 40.767H43.483v-81.32h30.788c28.451 0 41.828 15.499 41.828 40.553zm117.633 45.65c45.862 0 86.416-33.759 86.416-84.08 0-50.11-40.554-84.081-86.416-84.081-45.863 0-86.417 33.76-86.417 84.08 0 50.109 40.554 84.081 86.417 84.081zm6.794-2.76c-43.527 0-69.855-50.533-69.855-96.395 0-43.952 27.178-66.246 56.266-66.246 43.527 0 69.855 50.533 69.855 96.396 0 43.951-27.178 66.245-56.266 66.245zm83.916 0h129.731l15.075-51.807h-1.486l-33.335 45.862c-2.124 2.76-4.035 3.822-8.493 3.822h-58.39V84.68h31.212c2.123 0 2.973.212 4.247 3.184l12.102 26.116h1.274V53.255h-1.274l-12.102 26.116c-1.274 2.973-2.124 3.185-4.247 3.185h-31.212V7.181h47.136c4.672 0 6.158.637 8.281 3.822l27.602 43.739h1.274l-8.705-49.684h-118.69V7.18h21.021v156.696h-21.021V166zm209.565-2.123h-21.02V88.714h83.656v75.163h-21.02V166h64.122v-2.123h-21.02V7.181h21.02V5.058h-64.122V7.18h21.02v70.28h-83.656V7.18h21.02V5.058h-64.122V7.18h21.02v156.696h-21.02V166h64.122v-2.123zm173.849 0h-21.02V88.714h83.656v75.163h-21.02V166h64.122v-2.123h-21.02V7.181h21.02V5.058h-64.122V7.18h21.02v70.28h-83.656V7.18h21.02V5.058h-64.122V7.18h21.02v156.696h-21.02V166h64.122v-2.123zM906.123 166h60.3v-2.123H948.8L888.075 5.057h-22.718l8.705 22.932-53.294 135.888h-17.623V166h39.918v-2.123h-19.534l22.931-58.39h57.115l22.294 58.39h-19.746V166zm-55.204-71.766l24.417-62.636 23.993 62.636h-48.41zM1100.55 166v-2.123h-21.02V7.181h21.02V5.058h-61.78c-39.494 0-64.124 11.678-64.124 42.465 0 22.081 16.774 36.52 48.624 39.705v.636c-7.01 2.76-17.41 13.165-28.241 25.055L946.619 166h29.726l70.495-77.286h10.61v75.163h-25.26V166h68.36zm-43.1-79.41h-18.68c-27.6 0-40.131-16.986-40.131-39.704 0-22.719 12.531-39.705 40.131-39.705h18.68v79.41z" fill="#404040"/></svg>