<?xml version="1.0" encoding="utf-8"?><svg width="1051" height="214" fill="none" xmlns="http://www.w3.org/2000/svg" viewBox="0 0 1051 214"><path d="M65.04 163.877H44.02V84.68L133.833 166h33.335L73.745 81.495H44.02L135.107 7.18h24.63V5.058h-52.02V7.18h23.356L44.02 78.31V7.18h21.02V5.058H.918V7.18h21.02v156.696H.918V166H65.04v-2.123zM248.585 166h60.3v-2.123h-17.623L230.537 5.057h-22.719l8.706 22.932-53.294 135.888h-17.623V166h39.917v-2.123H165.99l22.931-58.39h57.116l22.294 58.39h-19.746V166zM193.38 94.234l24.418-62.636 23.992 62.636h-48.41zm226.697 73.889h-21.02v-20.595c48.622-1.274 87.053-26.329 87.053-62.848 0-36.52-38.431-61.575-87.053-62.849V2.934h21.02V.811h-64.122v2.123h21.02v18.897c-48.622 1.274-86.841 26.329-86.841 62.849 0 36.519 38.219 61.574 86.841 62.848v20.595h-21.02v2.123h64.122v-2.123zM376.975 24.167V144.98c-35.883-2.76-62.636-26.965-62.636-67.944 0-33.76 26.116-52.869 62.636-52.869zm84.718 67.944c0 33.76-25.904 52.869-62.636 53.081V24.379c35.67 2.973 62.636 26.965 62.636 67.732zM486.802 166h129.73l15.075-51.807h-1.486l-33.335 45.862c-2.123 2.76-4.034 3.822-8.493 3.822h-58.389V84.68h31.211c2.124 0 2.973.212 4.247 3.184l12.102 26.116h1.274V53.255h-1.274l-12.102 26.116c-1.274 2.973-2.123 3.185-4.247 3.185h-31.211V7.181h47.136c4.671 0 6.157.637 8.28 3.822l27.603 43.739h1.274l-8.706-49.684H486.802V7.18h21.02v156.696h-21.02V166zm131.681 47.561h1.274l21.232-43.739c1.699-3.61 3.61-3.822 8.281-3.822h96.608c4.671 0 6.582.212 8.28 3.822l21.233 43.739h1.274l-2.336-49.684h-20.807V7.181h21.02V5.058H645.236V7.18h21.02c-.637 62.211-4.884 120.813-24.417 156.696h-21.021l-2.335 49.684zm50.533-206.38h62.424v156.696h-86.841c19.109-35.459 23.143-94.06 24.417-156.696zM778.723 166h68.369v-2.123h-25.267V7.181h34.822c21.02 0 36.307 16.561 36.307 40.554 0 23.993-15.287 40.342-36.307 40.342h-27.815V90.2h28.239c32.274 0 59.876-16.349 59.876-44.164 0-34.608-33.972-40.978-62.636-40.978h-75.588V7.18h21.021v156.696h-21.021V166zm211.796 0h60.301v-2.123h-17.62L972.472 5.057h-22.719l8.705 22.932-53.293 135.888h-17.623V166h39.917v-2.123h-19.534l22.931-58.39h57.115l22.299 58.39h-19.751V166zm-55.204-71.766l24.417-62.636 23.993 62.636h-48.41z" fill="#404040"/></svg>