<?xml version="1.0" encoding="utf-8"?><svg width="1658" height="164" fill="none" xmlns="http://www.w3.org/2000/svg" viewBox="0 0 1658 164"><path d="M93.566 126.417H77.895V128h47.804v-1.583h-15.671V9.597h15.671V8.014H.649v1.583h15.67v116.82H.65V128h47.804v-1.583H32.782V9.597h60.784v116.82zM128.71 128h96.717l11.239-38.623h-1.108l-24.852 34.191c-1.583 2.058-3.008 2.849-6.332 2.849h-43.53V67.374h23.269c1.583 0 2.216.158 3.166 2.374l9.022 19.47h.95V43.947h-.95l-9.022 19.47c-.95 2.216-1.583 2.374-3.166 2.374h-23.269V9.597h35.141c3.482 0 4.59.475 6.173 2.85l20.578 32.608h.95l-6.49-37.04H128.71v1.582h15.671v116.82H128.71V128zm108.431 0h50.97v-1.583h-18.837V9.597h25.96c15.671 0 27.068 12.347 27.068 30.234s-11.397 30.076-27.068 30.076h-20.736v1.583h21.053c24.06 0 44.638-12.189 44.638-32.925 0-25.802-25.327-30.55-46.696-30.55h-56.352v1.582h15.671v116.82h-15.671V128zM338.615 8.014v1.583h15.671v116.82h-15.671V128H393.7c30.551 0 50.179-10.922 49.388-34.983-.634-19.786-21.212-27.384-41.631-28.334v-.158c16.937-3.166 32.925-11.556 32.925-29.284 0-17.887-16.146-27.227-44.164-27.227h-51.603zm78.829 28.81c0 16.62-9.181 27.384-26.435 27.384h-20.261V9.598h20.261c17.254 0 26.435 10.605 26.435 27.226zm7.44 59.201c0 18.678-9.972 30.392-31.184 30.392h-22.952V65.791H393.7c21.212 0 31.184 11.556 31.184 30.234zM479.34 9.597h15.671V8.014h-47.804v1.583h15.671v116.82h-15.671V128h53.503c30.55 0 49.387-11.872 49.387-36.566 0-20.42-18.995-30.392-49.387-30.392h-21.37V9.597zm120.936 116.82h-15.671V9.597h15.671V8.014h-47.805v1.583h15.671v116.82h-15.671V128h47.805v-1.583zm-68.383-31.975c0 19.153-9.972 31.975-31.183 31.975h-21.37V62.625h21.37c21.211 0 31.183 12.664 31.183 31.817zM603.241 128h96.717l11.239-38.623h-1.109l-24.851 34.191c-1.583 2.058-3.008 2.849-6.332 2.849h-43.53V67.374h23.268c1.583 0 2.217.158 3.166 2.374l9.023 19.47h.95V43.947h-.95l-9.023 19.47c-.949 2.216-1.583 2.374-3.166 2.374h-23.268V9.597h35.14c3.483 0 4.591.475 6.174 2.85l20.578 32.608h.95l-6.49-37.04h-88.486v1.582h15.671v116.82h-15.671V128zm177.129.633c-28.017 0-48.121-29.284-48.121-65.85 0-39.73 26.435-56.668 47.33-56.668 20.578 0 37.832 11.872 48.912 47.804h.95l-8.706-48.754h-.95l-7.44 8.548c-8.231-6.015-20.261-9.023-32.766-9.023-39.89 0-66.641 28.335-66.641 62.684 0 38.623 30.55 62.684 67.432 62.684 12.505 0 24.536-3.008 32.767-9.023l7.44 8.548h.949l8.706-48.754h-.949c-11.081 35.932-28.335 47.804-48.913 47.804zm84.165-.633h50.97v-1.583h-17.254V9.597h29.601c3.324 0 3.482 0 4.748 3.008l14.405 35.3h.95L943.206.574h-.95l-11.872 7.44h-80.729L837.783.574h-.949l-4.749 47.33h.95l14.404-35.3c1.267-3.008 1.425-3.008 4.749-3.008h29.601v116.82h-17.254V128zM1044.73 9.597h13.14V8.014h-29.76v1.583h14.56l-35.77 73.448h-.79L968.116 9.597h14.721V8.014h-45.905v1.583h13.139l47.962 91.493 5.697-11.555-10.762 22.161c-22.161-1.425-28.176 3.957-28.176 10.289 0 4.749 4.432 8.073 10.289 8.073 7.281 0 12.188-2.533 17.57-13.613L1044.73 9.597zm-10.61 153.86h.95l15.83-32.608c1.27-2.691 2.69-2.849 6.18-2.849h72.02c3.48 0 4.91.158 6.17 2.849l15.83 32.608h.95l-1.74-37.04h-15.51V9.597h15.67V8.014h-96.4v1.583h15.67c-.48 46.38-3.64 90.069-18.21 116.82h-15.67l-1.74 37.04zm37.68-153.86h46.53v116.82h-64.74c14.25-26.435 17.26-70.123 18.21-116.82zM1153.59 128h96.71l11.24-38.623h-1.11l-24.85 34.191c-1.58 2.058-3.01 2.849-6.33 2.849h-43.53V67.374h23.27c1.58 0 2.21.158 3.16 2.374l9.03 19.47h.95V43.947h-.95l-9.03 19.47c-.95 2.216-1.58 2.374-3.16 2.374h-23.27V9.597h35.14c3.48 0 4.59.475 6.17 2.85l20.58 32.608h.95l-6.49-37.04h-88.48v1.582h15.67v116.82h-15.67V128zm156.23-1.583h-15.67V70.382h62.37v56.035h-15.67V128h47.8v-1.583h-15.67V9.597h15.67V8.014h-47.8v1.583h15.67v52.395h-62.37V9.597h15.67V8.014h-47.8v1.583h15.67v116.82h-15.67V128h47.8v-1.583zM1420.91 128h50.97v-1.583h-17.26V9.597h29.6c3.33 0 3.49 0 4.75 3.008l14.41 35.3h.95l-4.75-47.33h-.95l-11.87 7.44h-80.73l-11.87-7.44h-.95l-4.75 47.33h.95l14.4-35.3c1.27-3.008 1.43-3.008 4.75-3.008h29.6v116.82h-17.25V128zM1536.68 9.597h15.67V8.014h-47.81v1.583h15.67v116.82h-15.67V128h53.51c30.55 0 49.38-11.872 49.38-36.566 0-20.42-18.99-30.392-49.38-30.392h-21.37V9.597zm120.93 116.82h-15.67V9.597h15.67V8.014h-47.8v1.583h15.67v116.82h-15.67V128h47.8v-1.583zm-68.38-31.975c0 19.153-9.97 31.975-31.18 31.975h-21.37V62.625h21.37c21.21 0 31.18 12.664 31.18 31.817z" fill="#fff"/></svg>