<?xml version="1.0" encoding="utf-8"?><svg width="1431" height="216" fill="none" xmlns="http://www.w3.org/2000/svg" viewBox="0 0 1431 216"><path d="M91.067 211.849c-37.582 0-64.547-39.28-64.547-88.327 0-53.293 35.458-76.012 63.485-76.012 27.602 0 50.746 15.924 65.608 64.122h1.274L145.21 46.236h-1.274l-9.98 11.465C122.915 49.633 106.779 45.6 90.005 45.6 36.499 45.599.616 83.605.616 129.68c0 51.807 40.979 84.08 90.45 84.08 16.774 0 32.911-4.034 43.952-12.102l9.979 11.465h1.274l11.678-65.396h-1.274c-14.863 48.198-38.006 64.122-65.608 64.122zM251.976 211h60.3v-2.123h-17.623l-60.725-158.82h-22.719l8.706 22.932-53.294 135.888h-17.623V211h39.917v-2.123h-19.534l22.931-58.39h57.116l22.294 58.39h-19.746V211zm-55.205-71.766l24.418-62.636 23.992 62.636h-48.41zM387.806 34.77c21.444 0 35.458-13.164 35.458-33.972h-18.26c0 20.171-2.123 31.85-17.198 31.85-14.651 0-18.473-11.679-18.473-31.85h-18.26c0 18.473 11.678 33.972 36.733 33.972zm-20.808 174.107h-21.02v-12.103l80.471-130.58v142.683h-21.02V211h64.122v-2.123h-21.02V52.181h21.02v-2.123h-64.122v2.123h21.02v8.705l-80.471 130.58V52.181h21.02v-2.123h-64.122v2.123h21.02v156.696h-21.02V211h64.122v-2.123zm233.222 4.246H579.2v-20.595c48.622-1.274 87.053-26.329 87.053-62.848 0-36.52-38.431-61.575-87.053-62.849V47.934h21.02v-2.123h-64.122v2.123h21.02v18.897c-48.622 1.274-86.841 26.329-86.841 62.849 0 36.519 38.219 61.574 86.841 62.848v20.595h-21.02v2.123h64.122v-2.123zM557.118 69.167V189.98c-35.883-2.76-62.636-26.965-62.636-67.944 0-33.76 26.116-52.869 62.636-52.869zm84.718 67.944c0 33.76-25.904 52.869-62.636 53.081V69.379c35.671 2.973 62.636 26.965 62.636 67.732zm149.246-84.93h17.623v-2.123h-39.917v2.123h19.534L740.336 150.7h-1.061l-50.958-98.519h19.746v-2.123h-61.574v2.123h17.623l64.334 122.724 7.644-15.5-14.438 29.726c-29.726-1.911-37.794 5.308-37.794 13.801 0 6.369 5.945 10.828 13.801 10.828 9.767 0 16.349-3.397 23.568-18.26l69.855-143.319zm23.694 148.415c11.466-24.842 15.712-80.471 16.986-148.415h62.211v156.696h-21.02V211h64.122v-2.123h-21.02V52.181h21.02v-2.123H807.769v2.123h21.021c-.425 50.958-2.973 104.039-12.74 136.737-4.246-1.061-8.281-1.486-13.164-1.486-15.287 0-20.383 7.219-20.383 14.013 0 7.856 6.369 12.315 13.801 12.315 7.644 0 13.801-2.76 18.472-13.164zm148.553 0c11.465-24.842 15.712-80.471 16.986-148.415h62.215v156.696h-21.02V211h64.12v-2.123h-21.02V52.181h21.02v-2.123H956.322v2.123h21.02c-.424 50.958-2.972 104.039-12.739 136.737-4.247-1.061-8.281-1.486-13.164-1.486-15.288 0-20.383 7.219-20.383 14.013 0 7.856 6.369 12.315 13.801 12.315 7.643 0 13.801-2.76 18.472-13.164zm190.381 8.281h-21.02v-12.103l80.47-130.58v142.683h-21.02V211h64.12v-2.123h-21.02V52.181h21.02v-2.123h-64.12v2.123h21.02v8.705l-80.47 130.58V52.181h21.02v-2.123h-64.12v2.123h21.02v156.696h-21.02V211h64.12v-2.123zm170.74 0h-21.02v-75.163h83.65v75.163h-21.02V211h64.13v-2.123h-21.02V52.181h21.02v-2.123h-64.13v2.123h21.02v70.28h-83.65v-70.28h21.02v-2.123h-64.12v2.123h21.02v156.696h-21.02V211h64.12v-2.123z" fill="#404040"/></svg>