<?xml version="1.0" encoding="utf-8"?><svg width="1844" height="405" fill="none" xmlns="http://www.w3.org/2000/svg" viewBox="0 0 1844 405"><path d="M336.726 28.888h40.958v-4.935h-92.771v4.935h45.398L218.788 257.856h-2.467L97.889 28.888h45.892v-4.935H.676v4.935h40.958l149.52 285.223 17.765-36.023-33.556 69.085c-69.085-4.441-87.837 12.337-87.837 32.075 0 14.804 13.817 25.167 32.076 25.167 22.699 0 37.996-7.895 54.774-42.438l162.35-333.09zM376.678 398h161.857v-4.935h-61.684V28.888h109.55c10.856 0 14.31 1.48 19.245 8.882l64.15 101.654h2.961l-20.232-115.47H376.678v4.934h48.853v364.177h-48.853V398zm468.376-4.935h-48.853V218.379h194.425v174.686h-48.853V398H1090.8v-4.935h-48.85V28.888h48.85v-4.935H941.773v4.935h48.853v163.337H796.201V28.888h48.853v-4.935H696.027v4.935h48.853v364.177h-48.853V398h149.027v-4.935zM1216.04 398h158.89v-4.935h-53.79V28.888h92.28c10.36 0 10.86 0 14.81 9.376l44.9 110.042h2.96L1461.29.76h-2.96l-37.01 23.193h-251.67L1132.64.76h-2.96l-14.8 147.546h2.96l44.9-110.042c3.95-9.376 4.44-9.376 14.81-9.376h92.27v364.177h-53.78V398zm586.41-369.112h40.96v-4.935h-92.77v4.935h45.4l-111.52 228.968h-2.47L1563.62 28.888h45.89v-4.935H1466.4v4.935h40.96l149.52 285.223 17.77-36.023-33.56 69.085c-69.08-4.441-87.84 12.337-87.84 32.075 0 14.804 13.82 25.167 32.08 25.167 22.7 0 38-7.895 54.77-42.438l162.35-333.09z" fill="#404040"/></svg>