<?xml version="1.0" encoding="utf-8"?><svg width="1121" height="174" fill="none" xmlns="http://www.w3.org/2000/svg" viewBox="0 0 1121 174"><path d="M87.032 173.76c45.863 0 86.417-33.759 86.417-84.08 0-50.11-40.554-84.081-86.417-84.081C41.17 5.599.617 39.359.617 89.679c0 50.109 40.554 84.081 86.416 84.081zm6.795-2.76c-43.527 0-69.855-50.533-69.855-96.395 0-43.952 27.178-66.246 56.266-66.246 43.527 0 69.855 50.533 69.855 96.396 0 43.951-27.178 66.245-56.266 66.245zm123.611 0h68.369v-2.123h-23.144V12.181h39.705c4.459 0 4.671 0 6.37 4.034l19.321 47.349h1.274L322.964.078h-1.274l-15.925 9.98H197.48L181.555.078h-1.274l-6.369 63.486h1.273l19.322-47.349c1.699-4.034 1.911-4.034 6.37-4.034h39.705v156.696h-23.144V171zm175.883-2.123h-21.02V89.68L462.114 171h33.335l-93.423-84.505h-29.725l91.087-74.314h24.63v-2.123h-52.02v2.123h23.356L372.301 83.31V12.18h21.02v-2.123h-64.122v2.123h21.02v156.696h-21.02V171h64.122v-2.123zM488.327 171h68.368v-2.123h-25.266V12.181h34.821c21.02 0 36.307 16.561 36.307 40.554 0 23.993-15.287 40.342-36.307 40.342h-27.815V95.2h28.239c32.274 0 59.876-16.349 59.876-44.164 0-34.609-33.972-40.978-62.636-40.978h-75.587v2.123h21.02v156.696h-21.02V171zM667.965 12.181h21.02v-2.123h-64.122v2.123h21.02v156.696h-21.02V171h71.766c40.979 0 66.245-15.924 66.245-49.047 0-27.39-25.479-40.766-66.245-40.766h-28.664V12.18zm162.216 156.696h-21.02V12.181h21.02v-2.123h-64.122v2.123h21.02v156.696h-21.02V171h64.122v-2.123zm-91.724-42.89c0 25.691-13.377 42.89-41.828 42.89h-28.664V83.31h28.664c28.451 0 41.828 16.986 41.828 42.677zM873.439 171h68.369v-2.123h-23.144V12.181h39.705c4.459 0 4.671 0 6.37 4.034l19.321 47.349h1.274L978.965.078h-1.274l-15.925 9.98H853.481L837.556.078h-1.274l-6.369 63.486h1.273l19.322-47.349c1.699-4.034 1.911-4.034 6.37-4.034h39.705v156.696h-23.144V171zm186.411 0h60.3v-2.123h-17.63l-60.72-158.82h-22.72l8.71 22.932-53.297 135.888H956.87V171h39.917v-2.123h-19.534l22.927-58.39h57.12l22.29 58.39h-19.74V171zm-55.21-71.766l24.42-62.636 23.99 62.636h-48.41z" fill="#404040"/></svg>