<?xml version="1.0" encoding="utf-8"?><svg width="268" height="83" fill="none" xmlns="http://www.w3.org/2000/svg" viewBox="0 0 268 83"><path d="M1.008 2.808v.24h2.376V20.76H1.008V21H9.36c4.632 0 7.608-1.656 7.488-5.304-.096-3-3.216-4.152-6.312-4.296v-.024c2.568-.48 4.992-1.752 4.992-4.44 0-2.712-2.448-4.128-6.696-4.128H1.008zM12.96 7.176c0 2.52-1.392 4.152-4.008 4.152H5.88v-8.28h3.072c2.616 0 4.008 1.608 4.008 4.128zm1.128 8.976c0 2.832-1.512 4.608-4.728 4.608H5.88v-9.192h3.48c3.216 0 4.728 1.752 4.728 4.584zM38.982 3.048h1.992v-.24h-4.512v.24h2.208l-5.424 11.136h-.12l-5.76-11.136h2.232v-.24h-6.96v.24h1.992l7.272 13.872.864-1.752-1.632 3.36c-3.36-.216-4.272.6-4.272 1.56 0 .72.672 1.224 1.56 1.224 1.104 0 1.848-.384 2.664-2.064l7.896-16.2zM48.34 20.76h-2.376v-8.496h9.456v8.496h-2.376V21h7.248v-.24h-2.376V3.048h2.376v-.24h-7.248v.24h2.376v7.944h-9.456V3.048h2.376v-.24h-7.248v.24h2.376V20.76h-2.376V21h7.248v-.24zm20.97 0h-2.375v-1.368l9.096-14.76V20.76h-2.376V21h7.248v-.24h-2.376V3.048h2.376v-.24h-7.248v.24h2.376v.984l-9.096 14.76V3.048h2.376v-.24h-7.248v.24h2.376V20.76h-2.376V21h7.248v-.24zM10.968 48.312c5.184 0 9.768-3.816 9.768-9.504 0-5.664-4.584-9.504-9.768-9.504-5.184 0-9.768 3.816-9.768 9.504 0 5.664 4.584 9.504 9.768 9.504zm.768-.312c-4.92 0-7.896-5.712-7.896-10.896 0-4.968 3.072-7.488 6.36-7.488 4.92 0 7.896 5.712 7.896 10.896 0 4.968-3.072 7.488-6.36 7.488zm15.292 0h7.728v-.24H32.14V30.048h4.488c.504 0 .528 0 .72.456l2.184 5.352h.144l-.72-7.176h-.144l-1.8 1.128h-12.24l-1.8-1.128h-.144l-.72 7.176h.144l2.184-5.352c.192-.456.216-.456.72-.456h4.488V47.76h-2.616V48zm21.201-.24h-2.376v-8.952L56.005 48h3.768l-10.56-9.552h-3.36l10.296-8.4h2.784v-.24h-5.88v.24h2.64l-9.84 8.04v-8.04h2.376v-.24h-7.248v.24h2.376V47.76h-2.376V48h7.248v-.24zm12.059.24h7.728v-.24H65.16V30.048h3.936c2.376 0 4.104 1.872 4.104 4.584 0 2.712-1.728 4.56-4.104 4.56h-3.144v.24h3.192c3.648 0 6.768-1.848 6.768-4.992 0-3.912-3.84-4.632-7.08-4.632h-8.544v.24h2.376V47.76h-2.376V48zm21.625-17.952h2.376v-.24h-7.248v.24h2.376V47.76h-2.376V48h8.112c4.632 0 7.488-1.8 7.488-5.544 0-3.096-2.88-4.608-7.488-4.608h-3.24v-7.8zM100.25 47.76h-2.376V30.048h2.376v-.24h-7.248v.24h2.376V47.76h-2.376V48h7.248v-.24zm-10.368-4.848c0 2.904-1.512 4.848-4.728 4.848h-3.24v-9.672h3.24c3.216 0 4.728 1.92 4.728 4.824zM106.46 48h7.728v-.24h-2.616V30.048h4.488c.504 0 .528 0 .72.456l2.184 5.352h.144l-.72-7.176h-.144l-1.8 1.128h-12.24l-1.8-1.128h-.144l-.72 7.176h.144l2.184-5.352c.192-.456.216-.456.72-.456h4.488V47.76h-2.616V48zm22.39 0h6.816v-.24h-1.992l-6.864-17.952h-2.568l.984 2.592-6.024 15.36h-1.992V48h4.512v-.24h-2.208l2.592-6.6h6.456l2.52 6.6h-2.232V48zm-6.24-8.112l2.76-7.08 2.712 7.08h-5.472zM1.008 58.808v.24h2.376V76.76H1.008V77H9.36c4.632 0 7.608-1.656 7.488-5.304-.096-3-3.216-4.152-6.312-4.296v-.024c2.568-.48 4.992-1.752 4.992-4.44 0-2.712-2.448-4.128-6.696-4.128H1.008zm11.952 4.368c0 2.52-1.392 4.152-4.008 4.152H5.88v-8.28h3.072c2.616 0 4.008 1.608 4.008 4.128zm1.128 8.976c0 2.832-1.512 4.608-4.728 4.608H5.88v-9.192h3.48c3.216 0 4.728 1.752 4.728 4.584zm14.617 5.16c5.184 0 9.768-3.816 9.768-9.504 0-5.664-4.584-9.504-9.768-9.504-5.184 0-9.768 3.816-9.768 9.504 0 5.664 4.584 9.504 9.768 9.504zm.768-.312c-4.92 0-7.896-5.712-7.896-10.896 0-4.968 3.072-7.488 6.36-7.488 4.92 0 7.896 5.712 7.896 10.896 0 4.968-3.072 7.488-6.36 7.488zm10.805 0h14.664l1.704-5.856h-.168l-3.768 5.184c-.24.312-.456.432-.96.432h-6.6v-8.952h3.528c.24 0 .336.024.48.36l1.368 2.952h.144v-6.864h-.144l-1.368 2.952c-.144.336-.24.36-.48.36H45.15v-8.52h5.328c.528 0 .696.072.936.432l3.12 4.944h.144l-.984-5.616H40.278v.24h2.376V76.76h-2.376V77zm25.008-.24H62.91v-8.496h9.456v8.496H69.99V77h7.248v-.24h-2.376V59.048h2.376v-.24H69.99v.24h2.376v7.944H62.91v-7.944h2.376v-.24h-7.248v.24h2.376V76.76h-2.376V77h7.248v-.24zm20.97 0h-2.375v-8.496h9.456v8.496H90.96V77h7.248v-.24h-2.376V59.048h2.376v-.24H90.96v.24h2.376v7.944H83.88v-7.944h2.376v-.24h-7.248v.24h2.376V76.76h-2.376V77h7.248v-.24zm23.732.24h6.816v-.24h-1.992l-6.864-17.952h-2.568l.984 2.592-6.024 15.36h-1.992V77h4.512v-.24h-2.208l2.592-6.6h6.456l2.52 6.6h-2.232V77zm-6.24-8.112l2.76-7.08 2.712 7.08h-5.472zM133.285 77v-.24h-2.376V59.048h2.376v-.24h-6.984c-4.464 0-7.248 1.32-7.248 4.8 0 2.496 1.896 4.128 5.496 4.488v.072c-.792.312-1.968 1.488-3.192 2.832l-5.472 6h3.36l7.968-8.736h1.2v8.496h-2.856V77h7.728zm-4.872-8.976h-2.112c-3.12 0-4.536-1.92-4.536-4.488 0-2.568 1.416-4.488 4.536-4.488h2.112v8.976zm20.236 8.736h-2.376v-8.952L156.425 77h3.768l-10.56-9.552h-3.36l10.296-8.4h2.784v-.24h-5.88v.24h2.64l-9.84 8.04v-8.04h2.376v-.24h-7.248v.24h2.376V76.76h-2.376V77h7.248v-.24zm22.066.24h6.816v-.24h-1.992l-6.864-17.952h-2.568l.984 2.592-6.024 15.36h-1.992V77h4.512v-.24h-2.208l2.592-6.6h6.456l2.52 6.6h-2.232V77zm-6.24-8.112l2.76-7.08 2.712 7.08h-5.472zm26.945 8.352h-2.376v-2.328c5.496-.144 9.84-2.976 9.84-7.104s-4.344-6.96-9.84-7.104v-2.136h2.376v-.24h-7.248v.24h2.376v2.136c-5.496.144-9.816 2.976-9.816 7.104s4.32 6.96 9.816 7.104v2.328h-2.376v.24h7.248v-.24zm-4.872-16.272v13.656c-4.056-.312-7.08-3.048-7.08-7.68 0-3.816 2.952-5.976 7.08-5.976zm9.576 7.68c0 3.816-2.928 5.976-7.08 6V60.992c4.032.336 7.08 3.048 7.08 7.656zM200.282 77h14.664l1.704-5.856h-.168l-3.768 5.184c-.24.312-.456.432-.96.432h-6.6v-8.952h3.528c.24 0 .336.024.48.36l1.368 2.952h.144v-6.864h-.144l-1.368 2.952c-.144.336-.24.36-.48.36h-3.528v-8.52h5.328c.528 0 .696.072.936.432l3.12 4.944h.144l-.984-5.616h-13.416v.24h2.376V76.76h-2.376V77zm16.205 5.376h.144l2.4-4.944c.192-.408.408-.432.936-.432h10.92c.528 0 .744.024.936.432l2.4 4.944h.144l-.264-5.616h-2.352V59.048h2.376v-.24h-14.616v.24h2.376c-.072 7.032-.552 13.656-2.76 17.712h-2.376l-.264 5.616zm5.712-23.328h7.056V76.76h-9.816c2.16-4.008 2.616-10.632 2.76-17.712zM235.919 77h7.728v-.24h-2.856V59.048h3.936c2.376 0 4.104 1.872 4.104 4.584 0 2.712-1.728 4.56-4.104 4.56h-3.144v.24h3.192c3.648 0 6.768-1.848 6.768-4.992 0-3.912-3.84-4.632-7.08-4.632h-8.544v.24h2.376V76.76h-2.376V77zm25.26 0h6.816v-.24h-1.992l-6.864-17.952h-2.568l.984 2.592-6.024 15.36h-1.992V77h4.512v-.24h-2.208l2.592-6.6h6.456l2.52 6.6h-2.232V77zm-6.24-8.112l2.76-7.08 2.712 7.08h-5.472z" fill="#404040"/></svg>