<?xml version="1.0" encoding="utf-8"?><svg width="43" height="43" fill="none" xmlns="http://www.w3.org/2000/svg" viewBox="0 0 43 43"><path d="M43 21.5C43 33.374 33.374 43 21.5 43S0 33.374 0 21.5 9.626 0 21.5 0 43 9.626 43 21.5z" fill="#404040"/><path fill-rule="evenodd" clip-rule="evenodd" d="M18.13 3.546c-.59.113-.603.195-.603 3.703v3.588h1.605v7.48H17.26V23.659h1.872v12.889l-.742-.148c-.409-.082-1.43-.405-2.27-.72-.84-.313-2.26-1.058-3.155-1.656-.896-.597-2.241-1.82-2.991-2.72-.75-.899-1.706-2.366-2.125-3.26-.42-.895-.939-2.458-1.154-3.473-.215-1.016-.392-2.388-.392-3.049s.174-2.024.388-3.028c.212-1.004.675-2.447 1.027-3.205.352-.76 1.183-2.11 1.846-3.003.664-.892 1.938-2.154 2.831-2.805L14.02 8.3l.015-1.67c.009-.918-.095-1.669-.23-1.669-.134 0-1.135.595-2.224 1.322-1.088.727-2.54 1.921-3.227 2.654-.686.733-1.711 2.05-2.278 2.925-.567.876-1.366 2.596-1.777 3.824a17.352 17.352 0 00-.881 4.662c-.076 1.361.006 3.243.186 4.274.176 1.014.63 2.624 1.006 3.58.377.954 1.217 2.543 1.867 3.53.65.986 1.887 2.428 2.75 3.205.86.776 2.228 1.81 3.038 2.299.81.488 2.351 1.192 3.425 1.565 1.114.387 2.847.74 4.035.82l2.082.143.005-3.444.005-3.444 3.18-3.339c2.273-2.387 3.225-3.225 3.34-2.938.088.22.795 2.666 1.572 5.435l1.412 5.035 1.327-1.049c.73-.577 1.958-1.738 2.727-2.58.779-.852 1.875-2.501 2.472-3.719.59-1.203 1.263-2.909 1.496-3.79.26-.983.422-2.689.42-4.408-.003-1.677-.173-3.45-.424-4.408-.231-.881-.92-2.624-1.533-3.873-.894-1.824-1.564-2.72-3.407-4.549-1.592-1.58-2.885-2.585-4.22-3.28-1.06-.55-2.854-1.238-3.988-1.528-1.461-.373-2.85-.516-4.761-.49-1.485.02-2.97.088-3.3.152zm6.818 3.15c.919.217 2.483.787 3.477 1.266 1.21.583 2.432 1.49 3.7 2.741 1.04 1.029 2.275 2.549 2.745 3.379.469.83 1.092 2.441 1.384 3.582.292 1.14.529 2.866.527 3.834-.002.968-.187 2.535-.41 3.483-.224.947-.769 2.45-1.21 3.339-.443.889-1.138 2.02-1.546 2.514l-.742.897-1.021-3.702c-.562-2.036-1.079-3.852-1.149-4.036-.077-.202.096-.334.436-.334.536 0 .564-.133.564-2.671v-2.671H29.12l-1.122-4.074c-.618-2.24-1.246-4.525-1.396-5.076l-.274-1.001H20.47v-1.87l1.405.004c.772.002 2.155.18 3.074.397zm-.625 5.43c.242 1.15.236 1.165-1.136 2.535l-1.38 1.379v-5.234l1.137.082c1.105.08 1.143.114 1.38 1.239zm1.743 5.99c.011.11-.606.2-1.371.2h-1.392l1.053-1.077 1.053-1.077.318.877c.175.482.328.967.339 1.077zm-1.284 7.911c-1.19 1.303-2.347 2.52-2.57 2.704-.357.297-.405.017-.405-2.368v-2.704h5.14l-2.165 2.368z" fill="#fff"/></svg>