<?xml version="1.0" encoding="utf-8"?><svg width="1920" height="441" fill="none" xmlns="http://www.w3.org/2000/svg" viewBox="0 0 1920 441"><path d="M1929.5 278l27.5-4V40H0v215.5L85 282l-3 3.5 66.5 12.5 51.5 15 16 9h12.5l22.5 4 15.5 3h10l3-3H310l20-2 4 5 4.5 5.5 11 16.5 14.5 5.5h7.5l9.5-3h9.5l10 3h8.5c-2.833 2-1.7 9.6 25.5 24 10.4-20.4 28-33.833 35.5-38h35l66.5-4 16 2h19l8-4.5 23.5-4.5 29.5-2.5v-3c3-1 11.4-3.5 21-5.5 73.2-4.8 125.167-34.667 142-49l22-3.5c4.167 0 14.1.3 20.5 1.5 7 12 13 11 16.5 10 27.6-10 45.834-8.167 51.5-6l-2.5 2.5 34.5 1.5 3 3-5 13.5h37.5v3.5c8.5-2.5 27.2-8.2 34-11 6.8-2.8 1.5-5.833-2-7h4.5l8-2h11.5l8-2.5c9.5.833 32.9 2 50.5 0s24.67 5.833 26 10c2.5 3.5 10.8 14 24 28 16 15.6 32 1.833 38-7 5.17-4.667 18.3-13 29.5-9 16 27.6 27.67 22.167 31.5 16l2.5 3.5 3.5 3.5 4.5-5 7-9 5-6h8.5l7.5-4.5 5.5-8 7-6.5 16-8 12-5.5 5-2 6.5-1h5.5l6 3v-3l1.5-5 3-2 6-1h7.5l32.5-9.5 16.5-4.5h5l4.5 4.5h33.5l4.5 3c2.83.667 8.7 2 9.5 2 .8 0 11.33 1.333 16.5 2l10.5 2.5 3.5 3c3.33 2 10.2 6 11 6 .8 0 7.67 1.333 11 2l32.5 3 58 1.5 5.5 4.5 8 6 14.5 8 24.5 8.5 28 11.5 3.5 4.5h9.5l3-4.5 8-13c5.33-6.5 19.6-21.6 34-30-7.6 9.2 1.5 6.833 7 4.5l18-11c5-1.833 19.2-2.2 36 11s33 14.833 39 14l34.5-5v1.5l15.5-4.5z" fill="#003F78"/><g filter="url(#awfilter0_d_804_1059)"><path d="M27.5 248L0 244V10h1957v215.5l-85 26.5 3 3.5-66.5 12.5-51.5 15-16 9h-12.5l-22.5 4-15.5 3h-10l-3-3H1647l-20-2-4 5-4.5 5.5-11 16.5-14.5 5.5h-7.5l-9.5-3h-9.5l-10 3h-8.5c2.83 2 1.7 9.6-25.5 24-10.4-20.4-28-33.833-35.5-38h-35l-66.5-4-16 2h-19l-8-4.5-23.5-4.5-29.5-2.5v-3c-3-1-11.4-3.5-21-5.5-73.2-4.8-125.17-34.667-142-49l-22-3.5c-4.17 0-14.1.3-20.5 1.5-7 12-13 11-16.5 10-27.6-10-45.83-8.167-51.5-6l2.5 2.5-34.5 1.5-3 3 5 13.5h-37.5v3.5c-8.5-2.5-27.2-8.2-34-11-6.8-2.8-1.5-5.833 2-7H912l-8-2h-11.5l-8-2.5c-9.5.833-32.9 2-50.5 0s-24.666 5.833-26 10c-2.5 3.5-10.8 14-24 28-16 15.6-32 1.833-38-7-5.166-4.667-18.3-13-29.5-9-16 27.6-27.666 22.167-31.5 16l-2.5 3.5-3.5 3.5-4.5-5-7-9-5-6H654l-7.5-4.5-5.5-8-7-6.5-16-8-12-5.5-5-2-6.5-1H589l-6 3v-3l-1.5-5-3-2-6-1H565l-32.5-9.5-16.5-4.5h-5l-4.5 4.5H473l-4.5 3c-2.833.667-8.7 2-9.5 2-.8 0-11.333 1.333-16.5 2l-10.5 2.5-3.5 3c-3.333 2-10.2 6-11 6-.8 0-7.666 1.333-11 2l-32.5 3-58 1.5-5.5 4.5-8 6-14.5 8-24.5 8.5-28 11.5-3.5 4.5h-9.5l-3-4.5-8-13c-5.333-6.5-19.6-21.6-34-30 7.6 9.2-1.5 6.833-7 4.5l-18-11c-5-1.833-19.2-2.2-36 11s-33 14.833-39 14L43 251v1.5L27.5 248z" fill="#003F78"/></g><defs><filter id="awfilter0_d_804_1059" x="-50" y="0" width="2057" height="440.5" filterUnits="userSpaceOnUse" color-interpolation-filters="sRGB"><feFlood flood-opacity="0" result="BackgroundImageFix"/><feColorMatrix in="SourceAlpha" values="0 0 0 0 0 0 0 0 0 0 0 0 0 0 0 0 0 0 127 0" result="hardAlpha"/><feOffset dy="40"/><feGaussianBlur stdDeviation="25"/><feComposite in2="hardAlpha" operator="out"/><feColorMatrix values="0 0 0 0 0 0 0 0 0 0 0 0 0 0 0 0 0 0 0.11 0"/><feBlend in2="BackgroundImageFix" result="effect1_dropShadow_804_1059"/><feBlend in="SourceGraphic" in2="effect1_dropShadow_804_1059" result="shape"/></filter></defs></svg>