<?xml version="1.0" encoding="utf-8"?><svg width="10" height="14" fill="none" xmlns="http://www.w3.org/2000/svg" viewBox="0 0 10 14"><circle opacity=".2" cx="2.5" cy="7.5" r="26" stroke="#1C1C1C"/><path d="M-12.4 16c-.014 0-.028 0-.042-.002-.21-.014-.377-.139-.403-.299-.602-3.585.57-6.92 3.215-9.152 1.21-1.017 2.714-1.803 4.391-2.294a19.89 19.89 0 015.822-.745V1.345c0-.137.105-.26.267-.315a.558.558 0 01.484.06l8.519 5.919a.316.316 0 01.147.255c0 .098-.054.19-.147.256l-8.52 5.92a.557.557 0 01-.483.059c-.162-.055-.267-.179-.267-.315v-2.471c-4.915-.126-10.353-.119-12.555 5.05-.06.141-.233.237-.427.237zM.386 4.197c-3.94 0-7.163.967-9.351 2.813-2.112 1.782-3.214 4.335-3.133 7.155 2.839-4.402 8.509-4.252 13.145-4.13.242.006.434.159.434.344v2.028l7.4-5.143-7.4-5.143v1.74c0 .093-.05.182-.137.247a.532.532 0 01-.328.097 24.696 24.696 0 00-.63-.008z" fill="#000"/><path d="M1 3v9" stroke="#000"/><path d="M-15-2H.616v22H-15V-2z" fill="#fff"/></svg>