<?xml version="1.0" encoding="utf-8"?><svg width="1920" height="1712" fill="none" xmlns="http://www.w3.org/2000/svg" viewBox="0 0 1920 1712"><g filter="url(#bffilter0_d_15_1482)"><path d="M1913.54 1510.5l43.46-4V1279h-3093v209l134.34 26.5-4.74 3.5 105.101 12.5 81.395 15 25.288 9h19.756l35.56 4 24.498 3h15.805l4.741-3h48.205l31.609-2 6.322 5 7.112 5.5 17.386 16.5 22.917 5.5h11.853l15.015-3h15.014l15.805 3h13.435c-4.478 2-2.687 9.6 40.302 24 16.437-20.4 44.253-33.83 56.107-38h55.317l105.102-4 25.287 2h30.029l12.644-4.5 37.141-4.5 46.625-2.5v-3c4.741-1 18.017-3.5 33.19-5.5 115.69-4.8 197.823-34.67 224.428-49l34.77-3.5c6.586 0 22.285.3 32.4 1.5 11.064 12 20.546 11 26.078 10 43.621-10 72.439-8.17 81.395-6l-3.951 2.5 54.526 1.5 4.742 3-7.903 13.5h59.268v3.5c13.434-2.5 42.989-8.2 53.737-11 10.747-2.8 2.37-5.83-3.161-7h7.112l12.644-2h18.175l12.644-2.5c15.015.83 51.998 2 79.814 0 27.817-2 38.986 5.83 41.093 10 3.951 3.5 17.069 14 37.931 28 25.288 15.6 50.576 1.83 60.059-7 8.165-4.67 28.922-13 46.624-9 25.288 27.6 43.726 22.17 49.785 16l3.951 3.5 5.532 3.5 7.112-5 11.063-9 7.903-6h13.434l11.853-4.5 8.693-8 11.063-6.5 25.288-8 18.966-5.5 7.901-2 10.27-1h8.7l9.48 3v-3l2.37-5 4.74-2 9.48-1h11.86l51.36-9.5 26.08-4.5h7.9l7.12 4.5h52.94l7.11 3c4.48.67 13.75 2 15.02 2 1.26 0 17.91 1.33 26.08 2l16.59 2.5 5.53 3c5.27 2 16.12 6 17.39 6 1.26 0 12.12 1.33 17.38 2l51.37 3 91.67 1.5 8.69 4.5 12.64 6 22.92 8 38.72 8.5 44.26 11.5 5.53 4.5H1605.34l4.74-4.5 12.65-13c8.43-6.5 30.98-21.6 53.73-30-12.01 9.2 2.38 6.83 11.07 4.5l28.45-11c7.9-1.83 30.34-2.2 56.89 11 26.56 13.2 52.16 14.83 61.64 14l54.53-5v1.5l24.5-4.5z" fill="#3E171D"/></g><path fill="#3E171D" d="M0 0h1920v1279H0z"/><defs><filter id="bffilter0_d_15_1482" x="-1195" y="1260" width="3211" height="452" filterUnits="userSpaceOnUse" color-interpolation-filters="sRGB"><feFlood flood-opacity="0" result="BackgroundImageFix"/><feColorMatrix in="SourceAlpha" values="0 0 0 0 0 0 0 0 0 0 0 0 0 0 0 0 0 0 127 0" result="hardAlpha"/><feOffset dy="40"/><feGaussianBlur stdDeviation="29.5"/><feComposite in2="hardAlpha" operator="out"/><feColorMatrix values="0 0 0 0 0 0 0 0 0 0 0 0 0 0 0 0 0 0 0.11 0"/><feBlend in2="BackgroundImageFix" result="effect1_dropShadow_15_1482"/><feBlend in="SourceGraphic" in2="effect1_dropShadow_15_1482" result="shape"/></filter></defs></svg>