<?xml version="1.0" encoding="utf-8"?><svg viewBox="0 0 1920 441" xmlns="http://www.w3.org/2000/svg" xmlns:xlink="http://www.w3.org/1999/xlink"><style>:root>svg{display:none}:root>svg:target{display:block}</style><svg fill="none" viewBox="0 0 355 357" id="label-circle" xmlns="http://www.w3.org/2000/svg"><g opacity=".2" fill="#fff"><path d="M314.759 185.861l.194-6.982c2.657 3.064 6.289 5.411 10.808 5.767l.067-2.386c-4.712-.414-7.775-2.251-10.812-5.609l-1.857-.051-.256 9.21 1.856.051zM324.196 169.686c.092 1.695-.907 2.528-2.38 2.803l.11 2.031c2.2-.261 4.058-1.921 3.897-4.887-.138-2.543-1.776-4.65-4.636-4.495-2.878.156-4.269 2.268-4.15 4.458.062 1.148.41 2.014.938 2.605l-3.236-.231-.322-5.934-1.854.101.416 7.664 7.162.461-.001-1.983c-.774-.224-1.403-1.04-1.468-2.241-.069-1.271.761-2.627 2.668-2.73 1.713-.093 2.78.965 2.856 2.378zM322.085 145.159l-9.334 1.842 1.329 6.731 3.382-.487c3.577-.508 4.533.043 4.684.806l.041.208 1.631-.321-.075-.382c-.425-2.151-2.418-2.84-6.373-2.33l-2.039.259-.541-2.741 7.703-1.521-.408-2.064zM314.462 133.408c-3.111.701-4.891 3.133-4.076 5.935.754 2.598 3.255 3.916 6.006 3.117 2.632-.765 4.369-3.093 3.515-6.03-.681-2.344-2.58-3.302-4.159-3.286l.577 1.987c.97.105 1.615.802 1.925 1.872.336 1.155-.151 2.585-1.81 3.214l-1.978-6.809zm-2.497 5.476c-.345-1.188.205-2.527 1.617-2.992l1.381 4.755c-1.769.311-2.722-.812-2.998-1.763zM306.861 123.854l-1.552.597 3.09 8.02 1.551-.597-1.169-3.037 7.326-2.823-.756-1.963-7.327 2.822-1.163-3.019zM302.234 108.64l-5.14 6.563 1.165 2.104 6.469-8.835.603.03c.675.051 1.027.321 1.361.925l.616 1.114 1.625-.899-.694-1.254c-.916-1.655-2.255-2.066-3.95-1.916l-11.407 1.118 1.181 2.135 8.171-1.085zM288.162 100.793l1.187 1.738 2.731-1.865c1.526 2.234 4.059 3.245 6.775 1.39 2.804-1.915 2.695-4.582 1.169-6.816l2.468-1.686-1.187-1.737-2.468 1.685c-1.516-2.22-3.97-3.305-6.774-1.39-2.716 1.855-2.696 4.582-1.17 6.816l-2.731 1.865zm10.475-4.606c.928 1.359.905 2.83-.921 4.077-1.854 1.267-3.316.788-4.234-.556l5.155-3.52zm-6.342 1.783c-.927-1.358-.822-2.865 1.033-4.132 1.825-1.246 3.195-.746 4.122.612l-5.155 3.52zM280.86 86.311l1.349 1.615 7.992-.777-5.09 4.252 1.349 1.615 7.302-6.1-1.349-1.615-7.964.755 5.062-4.23-1.349-1.614-7.302 6.1zM269.935 75.41l2.274 2.228 6.483-3.154-2.972 6.595 2.274 2.228 6.659-6.795-1.453-1.424-5.248 5.356 3.252-7.311-1.162-1.139-7.268 3.425 5.273-5.38-1.453-1.424-6.659 6.795zM264.165 71.094c2.216 1.787 4.988 1.251 6.764-.951 1.776-2.203 1.701-5.012-.446-6.744-1.583-1.276-3.899-1.531-5.628-.063l1.596 1.288c1.02-.814 2.093-.539 2.905.116.964.777 1.29 2.289-.131 4.051-1.41 1.748-2.929 1.773-3.961.94-.895-.721-1.126-1.816-.645-2.722l-1.596-1.288c-1.032 1.871-.483 4.063 1.142 5.373zM257.879 54.645l-2.012-1.35.459 6.206-5.552 1.835 1.998 1.34 4.335-1.544.954.64-2.058 3.07 1.763 1.182 5.298-7.902-1.762-1.182-2.315 3.451-.822-.551-.286-5.195zM248.598 54.64c-1.057 1.921-2.599 2.304-3.777 1.656-1.178-.647-1.681-2.155-.624-4.077 1.057-1.921 2.591-2.288 3.768-1.64 1.178.647 1.689 2.139.633 4.06zm-4.604 3.16c2.03 1.116 4.857.894 6.51-2.112 1.661-3.022.318-5.497-1.712-6.613-2.03-1.116-4.839-.925-6.501 2.096-1.653 3.007-.326 5.512 1.703 6.628zM226.514 49.47l2.924 1.257 4.908-5.281-.392 7.223 2.925 1.257 3.758-8.74-1.869-.803-2.961 6.888.394-7.992-1.494-.643-5.543 5.817 2.976-6.92-1.868-.804-3.758 8.74zM226.685 36.346c-2.036-.658-2.826-.225-4.44 1.837l-6.098 8.01 2.053.663 4.15-5.833-.044 7.158 2.188.707-.375-10.063.172-.186c.784-1.048 1.176-.996 2.051-.713l.757.244.495-1.531-.909-.293zM199.404 40.923l-.298 1.635 6.349 1.159 1.708-9.36-2.07-.377-1.409 7.724-4.28-.781zM194.152 37.17c-.216 2.182-1.483 3.14-2.821 3.009-1.337-.132-2.393-1.32-2.177-3.503.215-2.182 1.481-3.123 2.818-2.991 1.338.132 2.395 1.302 2.18 3.485zm-2.989 4.716c2.305.227 4.816-1.089 5.153-4.503.339-3.431-1.87-5.178-4.175-5.405-2.306-.228-4.813 1.053-5.152 4.484-.337 3.415 1.868 5.196 4.174 5.424zM179.138 41.324c2.847.03 4.691-2.108 4.721-4.937.03-2.83-1.769-4.989-4.528-5.018-2.033-.02-4.009 1.214-4.457 3.438l2.051.021c.296-1.27 1.309-1.72 2.353-1.708 1.237.013 2.43.998 2.406 3.261-.024 2.246-1.201 3.206-2.527 3.193-1.15-.012-2.009-.729-2.193-1.739l-2.051-.022c.349 2.109 2.139 3.49 4.225 3.511zM169.443 28.785c-2.134.16-2.702.858-3.419 3.377l-2.626 9.718 2.151-.16 1.644-6.968 2.659 6.647 2.293-.171-4.143-9.178.089-.238c.331-1.266.713-1.365 1.63-1.434l.794-.059-.12-1.604-.952.07zM148.929 36.195l1.396-.228 1.272 7.766 6.841-1.121-.349-3.007c-.403-3.446-.085-4.896.962-5.068l.506-.083-.629-3.839-1.885.309.363 2.216-6.858 1.124-.363-2.217-1.885.309.629 3.84zm3.473-.569l4.241-.694c-.634.838-.748 2.219-.479 4.737l.173 1.603-2.932.48-1.003-6.126zM140.001 40.66c-.408-1.576.288-2.56 1.794-2.95 1.027-.265 1.819.041 2.027.846.271 1.044-.8 1.778-3.64 2.805l-.181-.702zm1.845-4.588c-1.37.354-2.311 1.091-2.649 2.256-.216-.62-.325-.83-.495-1.205l-1.866.483c.388.721.788 1.915 1.089 3.079.217.839.466 1.943.582 2.388.71 2.958 2.701 3.521 4.909 2.95 2.226-.576 3.447-2.28 3.101-4.182l-2.003.518c.237 1.126-.392 1.873-1.419 2.14-1.027.265-2.042.016-2.449-1.559l-.044-.171c3.262-1.228 5.962-2.511 5.364-4.822-.434-1.678-2.117-2.394-4.12-1.875zM132.018 44.248c.733 2.067.071 3.428-1.228 3.889-1.4.497-2.637-.397-3.305-2.28-.681-1.916-.278-3.373 1.122-3.87 1.299-.461 2.677.195 3.411 2.261zm3.491 3.809l-4.218-11.883-1.984.704 1.456 4.1c-.847-.694-1.964-.88-3.164-.453-2.199.78-3.204 3.183-2.181 6.066 1.018 2.866 3.312 4.097 5.512 3.316 1.2-.426 1.95-1.274 2.17-2.346l.426 1.2 1.983-.704zM120.643 54.222c2.589-1.184 3.348-3.904 2.171-6.477-1.177-2.573-3.723-3.761-6.232-2.613-1.849.845-3.112 2.804-2.571 5.007l1.865-.854c-.272-1.275.453-2.113 1.402-2.547 1.126-.515 2.624-.13 3.565 1.928.935 2.042.278 3.412-.928 3.964-1.046.478-2.128.195-2.724-.64l-1.865.853c1.213 1.76 3.419 2.247 5.317 1.38zM105.818 59.973l.817 1.448 7.484-4.226-.817-1.447-2.833 1.6-3.861-6.838-1.832 1.035 3.86 6.837-2.818 1.591zM103.548 63.457l-5.364-7.858L94.3 58.25c-1.767 1.206-2.623 2.775-1.477 4.455.708 1.037 1.661 1.179 2.595.884-.477.775-.449 1.57.1 2.373 1.106 1.621 2.7 1.133 4.336.016l3.695-2.522zm-3.931-2.027l1.266 1.855-1.811 1.236c-.862.588-1.523.718-1.992.032-.478-.701-.151-1.289.71-1.877l1.826-1.246zm-.858-1.256l-1.928 1.316c-1.052.718-1.722.833-2.23.088-.48-.701-.207-1.4.83-2.109l1.942-1.325 1.386 2.03zM83.745 71.755c1.868 2.585 4.804 3.264 7.06 1.414 2.092-1.716 2.32-4.533.504-6.748-1.739-2.12-4.561-2.8-6.927-.86-1.887 1.547-2.021 3.67-1.385 5.115l1.6-1.312c-.285-.933.102-1.8.964-2.506.93-.763 2.436-.878 3.667.4l-5.483 4.497zm6.017.142c-.957.785-2.404.805-3.387-.31l3.829-3.14c.982 1.505.324 2.822-.442 3.45zM71.853 77.5L78.51 84.3l1.504-1.472-2.66-2.717 3.033-2.97 2.66 2.718 1.503-1.473-6.656-6.798-1.503 1.472 2.833 2.894-3.033 2.969-2.833-2.894-1.504 1.472zM63.38 87.28l7.227 6.187 1.368-1.598-2.888-2.473 2.76-3.224 2.889 2.473 1.369-1.599-7.227-6.188-1.369 1.599 3.076 2.634-2.76 3.224-3.076-2.634-1.37 1.598zM63.725 94.818c1.784 1.275 1.984 2.851 1.203 3.945-.781 1.094-2.338 1.416-4.122.142-1.784-1.275-1.97-2.841-1.188-3.935.78-1.093 2.322-1.427 4.107-.152zm2.599 4.942c1.346-1.885 1.457-4.718-1.335-6.712-2.806-2.004-5.42-.96-6.767.925-1.347 1.886-1.486 4.698 1.32 6.702 2.791 1.994 5.435.97 6.782-.915zM56.003 116.143l1.591-2.757-4.67-5.493 7.128 1.236 1.591-2.757-8.24-4.757-1.016 1.762 6.493 3.748-7.89-1.328-.814 1.409 5.128 6.186-6.525-3.767-1.016 1.762 8.24 4.756zM42.99 114.435c-.891 1.946-.555 2.781 1.304 4.625l7.24 6.995.9-1.961-5.307-4.806 7.104.883.958-2.09-10.037-.807-.165-.192c-.949-.902-.85-1.285-.468-2.121l.332-.723-1.463-.671-.398.868zM36.268 141.714l9.112 2.739.606-2.015-3.642-1.095 1.222-4.064 3.642 1.094.605-2.015-9.11-2.739-.607 2.015 3.878 1.166-1.221 4.065-3.879-1.166-.606 2.015zM37.63 155.261c3.077.836 5.787-.481 6.379-3.339.548-2.649-1.045-4.984-3.85-5.564-2.684-.556-5.308.689-5.928 3.685-.495 2.389.735 4.125 2.138 4.849l.42-2.026c-.808-.547-1.052-1.464-.826-2.555.244-1.178 1.343-2.214 3.104-1.994l-1.438 6.944zm4.768-3.672c-.25 1.212-1.363 2.138-2.828 1.889l1.003-4.849c1.71.552 2.026 1.99 1.825 2.96zM44.996 166.548l.232-2.092-3.287-.364c.298-2.689-.964-5.106-4.233-5.469-3.375-.374-5.03 1.72-5.328 4.41l-2.97-.33-.233 2.092 2.97.329c-.295 2.672.86 5.095 4.234 5.469 3.27.362 5.03-1.72 5.329-4.409l3.286.364zm-10.947-3.33c.182-1.635 1.158-2.737 3.355-2.493 2.232.247 3.03 1.563 2.85 3.18l-6.204-.687zm5.973 2.779c-.18 1.634-1.243 2.709-3.475 2.461-2.197-.243-2.91-1.514-2.73-3.149l6.205.688zM39.428 181.129l1.662.033.167-8.593-1.662-.032-.063 3.253-7.85-.154-.041 2.104 7.85.154-.063 3.235zM41.758 192.284l-.265-4.041c-.156-2.383-1.332-3.564-3.256-3.438-1.358.089-2.192.888-2.532 1.921l-3.985-2.132.156 2.383 3.41 1.726.123 1.888-3.282.215.137 2.1 9.494-.622zm-1.796-1.991l-2.894.189-.114-1.729c-.07-1.059.259-1.736 1.264-1.802.989-.065 1.563.589 1.636 1.7l.108 1.642zM34.23 206.706l9.403-1.453-.322-2.079-3.757.58-.648-4.194 3.757-.581-.321-2.08-9.403 1.454.322 2.079 4.002-.618.648 4.194-4.002.619.321 2.079zM40.175 211.354c2.13-.523 3.456.352 3.777 1.657.32 1.305-.448 2.696-2.577 3.22-2.13.524-3.439-.356-3.76-1.661-.32-1.305.43-2.692 2.56-3.216zm5.443 1.247c-.554-2.249-2.631-4.178-5.963-3.359-3.348.824-4.259 3.489-3.705 5.738.553 2.25 2.596 4.187 5.945 3.364 3.33-.82 4.276-3.493 3.722-5.743zM51.327 231.104l-1.055-3.003-7.21-.034 5.58-4.604-1.055-3.003-8.976 3.154.674 1.919 7.074-2.486-6.148 5.122.54 1.535 8.034.138-7.108 2.498.674 1.919 8.976-3.155zM41.556 239.866c.895 1.943 1.748 2.232 4.358 2.022l10.024-.937-.903-1.96-7.102.897 5.297-4.816-.962-2.088-7.15 7.091h-.253c-1.302.132-1.53-.192-1.914-1.027l-.333-.723-1.462.674.4.867zM64.013 257.784l1.402-.892-4.612-7.252-1.403.892 1.747 2.746-6.626 4.214 1.13 1.775 6.625-4.214 1.737 2.731zM68.506 269.881c2.649-1.776 3.432-4.686 1.663-7.006-1.64-2.151-4.448-2.479-6.726-.742-2.18 1.662-2.96 4.459-1.106 6.892 1.48 1.94 3.597 2.15 5.064 1.565l-1.255-1.645c-.942.251-1.794-.166-2.47-1.052-.73-.957-.79-2.466.53-3.651l4.3 5.639zm.355-6.009c.75.985.72 2.432-.43 3.374l-3.002-3.937c1.538-.928 2.831-.224 3.432.563zM80.58 275.277l-1.544-1.704-3.589.413.81-3.478-1.664-1.835-1.274 5.572-5.905.674 1.556 1.717 3.904-.46-.863 3.814 1.663 1.834 1.34-5.894 5.566-.653zM82.644 290.221l6.48-6.966-1.54-1.433-2.59 2.783-3.107-2.891 2.59-2.783-1.54-1.434-6.482 6.966 1.54 1.433 2.76-2.965 3.107 2.891-2.759 2.965 1.54 1.434zM98.874 290.875l-1.664-1.288-7.639 2.474 4.059-5.245-1.665-1.287-5.822 7.524 1.664 1.288 7.617-2.446-4.036 5.216 1.664 1.288 5.822-7.524zM103.493 305.19l5.115-8.022-1.774-1.131-2.273 3.563c-.715-.226-1.231-.47-1.693-.765-1.088-.694-1.318-1.386-.672-2.4l1.522-2.386-1.774-1.131-1.722 2.699c-1.112 1.744-.662 3.143 1.023 4.217.731.466 1.459.805 2.451 1.123l-1.978 3.101 1.775 1.132zM117.778 308.13c1.641-2.734 1.112-5.701-1.476-7.048-2.401-1.249-5.081-.351-6.403 2.19-1.265 2.432-.782 5.295 1.932 6.707 2.165 1.127 4.17.416 5.248-.737l-1.835-.956c-.746.629-1.695.614-2.683.099-1.067-.555-1.765-1.895-1.074-3.529l6.291 3.274zm-2.236-5.589c1.099.571 1.686 1.894 1.048 3.236l-4.393-2.286c.997-1.494 2.467-1.407 3.345-.95zM127.27 306.085c-2.632-1.087-5.139.211-6.22 2.826-1.08 2.615-.214 5.288 2.335 6.342 1.88.777 4.173.366 5.417-1.531l-1.896-.784c-.748 1.069-1.855 1.109-2.819.71-1.144-.472-1.884-1.831-1.02-3.923.858-2.075 2.308-2.528 3.534-2.022 1.062.439 1.593 1.424 1.388 2.43l1.896.783c.46-2.086-.687-4.034-2.615-4.831zM137.949 320.089l2.312.725-2.195-5.823 4.807-3.329-2.295-.72-3.722 2.706-1.097-.344 1.107-3.527-2.025-.635-2.848 9.078 2.025.635 1.244-3.965.945.296 1.742 4.903zM146.854 317.468c.47-2.142 1.842-2.946 3.154-2.657 1.313.288 2.222 1.592 1.752 3.734-.471 2.141-1.838 2.927-3.151 2.639-1.313-.288-2.225-1.575-1.755-3.716zm3.522-4.333c-2.263-.497-4.911.515-5.646 3.866-.74 3.368 1.249 5.362 3.511 5.859 2.263.496 4.904-.481 5.643-3.849.736-3.351-1.245-5.379-3.508-5.876zM169.498 316.185l-3.16-.379-3.215 6.453-1.666-7.039-3.161-.379-1.133 9.446 2.019.242.893-7.444 1.881 7.777 1.615.194 3.672-7.147-.897 7.48 2.019.242 1.133-9.446zM173.045 328.82c2.139.055 2.775-.583 3.739-3.017l3.585-9.408-2.157-.055-2.332 6.768-1.981-6.879-2.299-.059 3.205 9.547-.112.227c-.456 1.226-.847 1.287-1.766 1.263l-.795-.02-.042 1.609.955.024zM193.268 328.227c2.127-.233 2.671-.951 3.299-3.493l2.288-9.804-2.144.235-1.401 7.021-2.888-6.55-2.286.25 4.459 9.029-.081.24c-.287 1.277-.666 1.39-1.58 1.49l-.791.086.175 1.6.95-.104zM212.624 321.98l-1.835-9.336-2.065.406.733 3.731-4.164.819-.733-3.731-2.065.406 1.835 9.335 2.065-.406-.781-3.973 4.164-.819.781 3.974 2.065-.406zM222.681 309.223l-2.02.592-2.48 7.636-1.864-6.364-2.02.592 2.675 9.13 2.019-.591 2.49-7.603 1.855 6.33 2.019-.592-2.674-9.13zM226.596 307.756l3.492 8.85 4.376-1.727c1.99-.785 3.172-2.126 2.426-4.017-.461-1.168-1.359-1.518-2.335-1.437.637-.65.785-1.431.428-2.336-.72-1.826-2.382-1.702-4.225-.975l-4.162 1.642zm3.386 2.846l-.825-2.089 2.04-.805c.971-.383 1.644-.363 1.949.41.312.79-.137 1.29-1.108 1.673l-2.056.811zm.558 1.415l2.171-.857c1.185-.467 1.864-.431 2.195.408.312.79-.108 1.412-1.276 1.872l-2.188.864-.902-2.287zM247.745 304.047c-1.25-2.934-3.963-4.246-6.573-2.941-2.42 1.21-3.266 3.907-1.984 6.469 1.226 2.452 3.828 3.741 6.564 2.372 2.183-1.091 2.784-3.132 2.483-4.682l-1.851.926c.072.972-.498 1.732-1.494 2.23-1.076.538-2.571.316-3.488-1.202l6.343-3.172zm-5.837-1.47c1.107-.554 2.523-.254 3.235 1.051l-4.429 2.215c-.625-1.685.308-2.823 1.194-3.266zM252.564 300.442c-1.149-1.868-.787-3.337.388-4.06 1.265-.778 2.661-.163 3.709 1.539 1.065 1.732.976 3.24-.289 4.019-1.175.723-2.659.369-3.808-1.498zm-4.21-2.995l6.608 10.738 1.792-1.102-2.28-3.706c.973.502 2.104.45 3.188-.217 1.989-1.224 2.469-3.783.866-6.388-1.594-2.591-4.095-3.315-6.083-2.092-1.085.667-1.641 1.653-1.631 2.748l-.668-1.084-1.792 1.103zM261.604 288.312c-2.285 1.699-2.459 4.517-.77 6.787 1.688 2.271 4.427 2.901 6.641 1.254 1.631-1.213 2.457-3.392 1.468-5.434l-1.646 1.225c.533 1.19-.002 2.161-.839 2.783-.993.739-2.538.676-3.889-1.14-1.341-1.802-.985-3.279.08-4.071.922-.686 2.039-.635 2.797.058l1.646-1.225c-1.554-1.467-3.814-1.483-5.488-.237zM274.621 277.57l-1.568 1.404 1.052 7.96-4.424-4.94-1.568 1.404 6.347 7.087 1.568-1.403-1.028-7.935 4.4 4.914 1.568-1.404-6.347-7.087zM283.922 270.145l-1.213-1.137-5.874 6.274 1.213 1.136 2.224-2.375 5.731 5.367 1.439-1.536-5.732-5.367 2.212-2.362zM294.519 262.781c-2.38-2.123-5.393-2.157-7.2.135-1.675 2.125-1.293 4.925.957 6.699 2.153 1.697 5.056 1.756 6.95-.647 1.511-1.916 1.186-4.018.255-5.293L294.2 265.3c.478.85.286 1.779-.404 2.654-.744.944-2.191 1.38-3.668.396l4.391-5.569zm-5.908 1.153c.766-.972 2.175-1.303 3.375-.425l-3.066 3.889c-1.282-1.259-.922-2.686-.309-3.464zM297.872 251.04l-1.388-.914-4.729 7.176 1.388.915 1.79-2.717 6.557 4.32 1.158-1.757-6.557-4.32 1.781-2.703zM309.641 252.434c1.027-1.877.75-2.734-.974-4.705l-6.727-7.49-1.036 1.893 4.954 5.169-7.024-1.384-1.104 2.017 9.956 1.516.15.203c.883.966.758 1.342.317 2.148l-.382.699 1.412.772.458-.838z"/></g></svg><svg fill="none" viewBox="0 0 1844 405" id="label1" xmlns="http://www.w3.org/2000/svg"><path d="M336.726 28.888h40.958v-4.935h-92.771v4.935h45.398L218.788 257.856h-2.467L97.889 28.888h45.892v-4.935H.676v4.935h40.958l149.52 285.223 17.765-36.023-33.556 69.085c-69.085-4.441-87.837 12.337-87.837 32.075 0 14.804 13.817 25.167 32.076 25.167 22.699 0 37.996-7.895 54.774-42.438l162.35-333.09zM376.678 398h161.857v-4.935h-61.684V28.888h109.55c10.856 0 14.31 1.48 19.245 8.882l64.15 101.654h2.961l-20.232-115.47H376.678v4.934h48.853v364.177h-48.853V398zm468.376-4.935h-48.853V218.379h194.425v174.686h-48.853V398H1090.8v-4.935h-48.85V28.888h48.85v-4.935H941.773v4.935h48.853v163.337H796.201V28.888h48.853v-4.935H696.027v4.935h48.853v364.177h-48.853V398h149.027v-4.935zM1216.04 398h158.89v-4.935h-53.79V28.888h92.28c10.36 0 10.86 0 14.81 9.376l44.9 110.042h2.96L1461.29.76h-2.96l-37.01 23.193h-251.67L1132.64.76h-2.96l-14.8 147.546h2.96l44.9-110.042c3.95-9.376 4.44-9.376 14.81-9.376h92.27v364.177h-53.78V398zm586.41-369.112h40.96v-4.935h-92.77v4.935h45.4l-111.52 228.968h-2.47L1563.62 28.888h45.89v-4.935H1466.4v4.935h40.96l149.52 285.223 17.77-36.023-33.56 69.085c-69.08-4.441-87.84 12.337-87.84 32.075 0 14.804 13.82 25.167 32.08 25.167 22.7 0 38-7.895 54.77-42.438l162.35-333.09z" fill="#404040"/></svg><svg fill="none" viewBox="0 0 173 149" id="logo" xmlns="http://www.w3.org/2000/svg"><path d="M121.213 36.281c-10.708 0-20.665 3.32-29.017 8.887l5.996-30.409h46.041L162.757.947H86.842l-14.24 71.632H87.056c5.782-12.956 18.845-22.057 34.05-22.057 20.558 0 37.261 16.703 37.261 37.261 0 20.558-16.596 37.261-37.154 37.261v14.241c28.374-.107 51.395-23.128 51.395-51.502.107-28.481-23.021-51.502-51.395-51.502z" fill="#fff"/><path d="M121.533 75.684v6.425l3.427-3.641-.75-2.784h-2.677zM125.817 81.466l-2.891 2.89h3.747l-.856-2.89zM121.533 97.099l6.425-6.853h-6.425v6.853z" fill="#fff"/><path d="M121.32 64.013c-13.277 0-24.092 10.815-24.092 24.092s10.815 24.091 24.092 24.091 24.091-10.814 24.091-24.091c0-13.277-10.814-24.092-24.091-24.092zm11.242 41.652l-.428-1.606-3.105-11.029-7.602 7.817v8.03h-.214c-11.564 0-20.88-9.422-20.88-20.88 0-8.35 4.926-15.525 11.993-18.951v3.64c-5.247 3.105-8.78 8.78-8.78 15.312 0 8.887 6.638 16.275 15.204 17.453V90.246h-2.463v-5.889h2.463v-8.78h-1.927V67.44c1.392-.321 2.891-.428 4.39-.428 11.563 0 20.879 9.422 20.879 20.879.107 7.495-3.748 14.026-9.53 17.774z" fill="#fff"/><path d="M121.322 70.33c-.535 0-1.071 0-1.606.107v2.356h6.96l3.212 11.564h2.891v5.889h-1.285l2.677 9.743c2.998-3.105 4.711-7.388 4.711-11.992.107-9.743-7.816-17.667-17.56-17.667zM79.132.84H18.957L.433 14.76h61.888L41.442 119.904h14.134L79.132.84zM31.485 135.217l.642 2.891h.214l.536-2.998 3.426-9.851h4.604l-6.21 15.633c-.428 1.177-.964 2.248-1.392 3.212-.428.856-.964 1.606-1.392 2.248-.535.643-1.07 1.071-1.713 1.285-.643.321-1.392.428-2.249.428-.75 0-1.285 0-1.713-.107a4.06 4.06 0 01-1.392-.642l1.178-3.533c.321.214.75.321.964.321.32 0 .642.107.963.107.964 0 1.713-.75 2.142-2.356l-8.459-16.489h5.247l4.604 9.851zM106.593 135.217l.643 2.891h.214l.535-2.998 3.426-9.851h4.605l-6.211 15.633c-.428 1.177-.963 2.248-1.392 3.212-.428.856-.963 1.606-1.392 2.248-.535.643-1.07 1.071-1.713 1.285-.642.321-1.392.428-2.248.428-.75 0-1.285 0-1.713-.107a4.056 4.056 0 01-1.392-.642l1.177-3.533c.322.214.75.321.964.321.321 0 .643.107.964.107.963 0 1.713-.75 2.141-2.356l-8.459-16.489h5.247l4.604 9.851zM55.36 129.113h-8.673v18.631H42.19v-22.593h13.17v3.962zM70.136 138.321H61.89v9.423h-4.39v-22.593h4.39v9.209h8.245v-9.209h4.39v22.593h-4.39v-9.423zM94.551 129.113h-6.638v18.631h-4.39v-18.631h-6.639v-3.962h17.667v3.962z" fill="#fff"/></svg><svg fill="none" viewBox="0 0 43 43" id="logo-side" xmlns="http://www.w3.org/2000/svg"><path d="M43 21.5C43 33.374 33.374 43 21.5 43S0 33.374 0 21.5 9.626 0 21.5 0 43 9.626 43 21.5z" fill="#404040"/><path fill-rule="evenodd" clip-rule="evenodd" d="M18.13 3.546c-.59.113-.603.195-.603 3.703v3.588h1.605v7.48H17.26V23.659h1.872v12.889l-.742-.148c-.409-.082-1.43-.405-2.27-.72-.84-.313-2.26-1.058-3.155-1.656-.896-.597-2.241-1.82-2.991-2.72-.75-.899-1.706-2.366-2.125-3.26-.42-.895-.939-2.458-1.154-3.473-.215-1.016-.392-2.388-.392-3.049s.174-2.024.388-3.028c.212-1.004.675-2.447 1.027-3.205.352-.76 1.183-2.11 1.846-3.003.664-.892 1.938-2.154 2.831-2.805L14.02 8.3l.015-1.67c.009-.918-.095-1.669-.23-1.669-.134 0-1.135.595-2.224 1.322-1.088.727-2.54 1.921-3.227 2.654-.686.733-1.711 2.05-2.278 2.925-.567.876-1.366 2.596-1.777 3.824a17.352 17.352 0 00-.881 4.662c-.076 1.361.006 3.243.186 4.274.176 1.014.63 2.624 1.006 3.58.377.954 1.217 2.543 1.867 3.53.65.986 1.887 2.428 2.75 3.205.86.776 2.228 1.81 3.038 2.299.81.488 2.351 1.192 3.425 1.565 1.114.387 2.847.74 4.035.82l2.082.143.005-3.444.005-3.444 3.18-3.339c2.273-2.387 3.225-3.225 3.34-2.938.088.22.795 2.666 1.572 5.435l1.412 5.035 1.327-1.049c.73-.577 1.958-1.738 2.727-2.58.779-.852 1.875-2.501 2.472-3.719.59-1.203 1.263-2.909 1.496-3.79.26-.983.422-2.689.42-4.408-.003-1.677-.173-3.45-.424-4.408-.231-.881-.92-2.624-1.533-3.873-.894-1.824-1.564-2.72-3.407-4.549-1.592-1.58-2.885-2.585-4.22-3.28-1.06-.55-2.854-1.238-3.988-1.528-1.461-.373-2.85-.516-4.761-.49-1.485.02-2.97.088-3.3.152zm6.818 3.15c.919.217 2.483.787 3.477 1.266 1.21.583 2.432 1.49 3.7 2.741 1.04 1.029 2.275 2.549 2.745 3.379.469.83 1.092 2.441 1.384 3.582.292 1.14.529 2.866.527 3.834-.002.968-.187 2.535-.41 3.483-.224.947-.769 2.45-1.21 3.339-.443.889-1.138 2.02-1.546 2.514l-.742.897-1.021-3.702c-.562-2.036-1.079-3.852-1.149-4.036-.077-.202.096-.334.436-.334.536 0 .564-.133.564-2.671v-2.671H29.12l-1.122-4.074c-.618-2.24-1.246-4.525-1.396-5.076l-.274-1.001H20.47v-1.87l1.405.004c.772.002 2.155.18 3.074.397zm-.625 5.43c.242 1.15.236 1.165-1.136 2.535l-1.38 1.379v-5.234l1.137.082c1.105.08 1.143.114 1.38 1.239zm1.743 5.99c.011.11-.606.2-1.371.2h-1.392l1.053-1.077 1.053-1.077.318.877c.175.482.328.967.339 1.077zm-1.284 7.911c-1.19 1.303-2.347 2.52-2.57 2.704-.357.297-.405.017-.405-2.368v-2.704h5.14l-2.165 2.368z" fill="#fff"/></svg><svg fill="none" viewBox="0 0 1920 441" id="p-bottom" xmlns="http://www.w3.org/2000/svg"><g filter="url(#efilter0_d_582_1709)"><path d="M1892.5 248l27.5-4V10H-37v215.5L48 252l-3 3.5 66.5 12.5 51.5 15 16 9h12.5l22.5 4 15.5 3h10l3-3H273l20-2 4 5 4.5 5.5 11 16.5 14.5 5.5h7.5l9.5-3h9.5l10 3h8.5c-2.833 2-1.7 9.6 25.5 24 10.4-20.4 28-33.833 35.5-38h35l66.5-4 16 2h19l8-4.5 23.5-4.5 29.5-2.5v-3c3-1 11.4-3.5 21-5.5 73.2-4.8 125.167-34.667 142-49l22-3.5c4.167 0 14.1.3 20.5 1.5 7 12 13 11 16.5 10 27.6-10 45.833-8.167 51.5-6l-2.5 2.5 34.5 1.5 3 3-5 13.5h37.5v3.5c8.5-2.5 27.2-8.2 34-11 6.8-2.8 1.5-5.833-2-7h4.5l8-2h11.5l8-2.5c9.5.833 32.9 2 50.5 0s24.67 5.833 26 10c2.5 3.5 10.8 14 24 28 16 15.6 32 1.833 38-7 5.17-4.667 18.3-13 29.5-9 16 27.6 27.67 22.167 31.5 16l2.5 3.5 3.5 3.5 4.5-5 7-9 5-6h8.5l7.5-4.5 5.5-8 7-6.5 16-8 12-5.5 5-2 6.5-1h5.5l6 3v-3l1.5-5 3-2 6-1h7.5l32.5-9.5 16.5-4.5h5l4.5 4.5h33.5l4.5 3c2.83.667 8.7 2 9.5 2 .8 0 11.33 1.333 16.5 2l10.5 2.5 3.5 3c3.33 2 10.2 6 11 6 .8 0 7.67 1.333 11 2l32.5 3 58 1.5 5.5 4.5 8 6 14.5 8 24.5 8.5 28 11.5 3.5 4.5h9.5l3-4.5 8-13c5.33-6.5 19.6-21.6 34-30-7.6 9.2 1.5 6.833 7 4.5l18-11c5-1.833 19.2-2.2 36 11s33 14.833 39 14l34.5-5v1.5l15.5-4.5z" fill="#11151A"/></g><defs><filter id="efilter0_d_582_1709" x="-87" y="0" width="2057" height="440.5" filterUnits="userSpaceOnUse" color-interpolation-filters="sRGB"><feFlood flood-opacity="0" result="BackgroundImageFix"/><feColorMatrix in="SourceAlpha" values="0 0 0 0 0 0 0 0 0 0 0 0 0 0 0 0 0 0 127 0" result="hardAlpha"/><feOffset dy="40"/><feGaussianBlur stdDeviation="25"/><feComposite in2="hardAlpha" operator="out"/><feColorMatrix values="0 0 0 0 0 0 0 0 0 0 0 0 0 0 0 0 0 0 0.11 0"/><feBlend in2="BackgroundImageFix" result="effect1_dropShadow_582_1709"/><feBlend in="SourceGraphic" in2="effect1_dropShadow_582_1709" result="shape"/></filter></defs></svg></svg>