<?xml version="1.0" encoding="utf-8"?><svg viewBox="0 0 2000 1712" xmlns="http://www.w3.org/2000/svg" xmlns:xlink="http://www.w3.org/1999/xlink"><style>:root>svg{display:none}:root>svg:target{display:block}</style><svg viewBox="0 0 10 17" id="chevron-right" xmlns="http://www.w3.org/2000/svg"><path fill-rule="evenodd" clip-rule="evenodd" d="M9.776 8.388L1.918.53a.75.75 0 00-1.06 1.061l6.797 6.797-6.797 6.797a.75.75 0 001.06 1.061l7.858-7.858z"/></svg><svg fill="none" viewBox="0 0 21 12" id="close" xmlns="http://www.w3.org/2000/svg"><path d="M15.81 1l-5.188 5.19 5.189 5.188M5.19 1l5.188 5.19-5.189 5.188" fill="transparent"/></svg><svg fill="none" viewBox="0 0 21 12" id="close2" xmlns="http://www.w3.org/2000/svg"><path d="M15.81 1l-5.188 5.19 5.189 5.188M5.19 1l5.188 5.19-5.189 5.188" stroke="#F9F9F9" stroke-width="1.5"/></svg><svg fill="none" viewBox="0 0 10 17" id="i-arrow" xmlns="http://www.w3.org/2000/svg"><path fill-rule="evenodd" clip-rule="evenodd" d="M9.777 8.388L1.92.53A.75.75 0 10.86 1.591l6.797 6.797-6.797 6.797a.75.75 0 001.06 1.061l7.858-7.858z" fill="#111"/></svg><svg fill="none" viewBox="0 0 10 17" id="i-arrow-white" xmlns="http://www.w3.org/2000/svg"><path fill-rule="evenodd" clip-rule="evenodd" d="M9.777 8.388L1.92.53A.75.75 0 10.86 1.591l6.797 6.797-6.797 6.797a.75.75 0 001.06 1.061l7.858-7.858z" fill="#fff"/></svg><svg fill="none" viewBox="0 0 21 12" id="i-close" xmlns="http://www.w3.org/2000/svg"><path d="M15.81 1l-5.189 5.19 5.19 5.188M5.19 1l5.189 5.19-5.19 5.188" stroke="#1C1C1C" stroke-width="1.5"/></svg><svg fill="none" viewBox="0 0 17 21" id="i-download" xmlns="http://www.w3.org/2000/svg"><path fill-rule="evenodd" clip-rule="evenodd" d="M3.5 1A.5.5 0 014 .5h8.5a.5.5 0 01.5.5v10.5h2.5a.5.5 0 01.376.83l-7.5 8.5a.5.5 0 01-.75 0l-7.5-8.5A.5.5 0 01.5 11.5h3V1zm1 .5v11H1.61L8 19.744l6.392-7.244H12v-11H4.5z" fill="#000"/></svg><svg fill="none" viewBox="0 0 15 16" id="i-link" xmlns="http://www.w3.org/2000/svg"><path d="M3.696 7.003a.703.703 0 10-.994-.994l-1.27 1.27c-1.857 1.882-1.856 4.926.003 6.785l.004.003a4.827 4.827 0 003.399 1.392c1.23 0 2.456-.465 3.386-1.395l1.266-1.266a.703.703 0 10-.994-.994L7.23 13.07c-1.314 1.314-3.468 1.313-4.802-.002-1.313-1.314-1.311-3.466.003-4.8l1.265-1.265zM11.303 8.997a.703.703 0 00.994.994l1.27-1.27c1.857-1.882 1.856-4.926-.004-6.785l-.003-.003C11.678.076 8.634.077 6.775 1.936L5.509 3.203a.703.703 0 10.994.994L7.77 2.93c1.314-1.314 3.468-1.313 4.802.001 1.312 1.314 1.31 3.467-.003 4.8l-1.265 1.265z" fill="#000"/><path d="M5.143 10.356a.7.7 0 00.995 0l3.717-3.717a.703.703 0 00-.994-.995L5.143 9.362a.703.703 0 000 .994z" fill="#000"/></svg><svg fill="none" viewBox="0 0 23 19" id="i-share" xmlns="http://www.w3.org/2000/svg"><path d="M.6 19c-.014 0-.028 0-.042-.002a.443.443 0 01-.403-.379c-.602-4.542.57-8.766 3.215-11.593A11.518 11.518 0 017.761 4.12a15.983 15.983 0 015.822-.944V.437c0-.173.105-.33.267-.4a.46.46 0 01.484.076l8.518 7.498a.432.432 0 010 .647l-8.518 7.498a.46.46 0 01-.484.076.436.436 0 01-.267-.399v-3.13c-4.915-.16-10.353-.15-12.555 6.396-.06.18-.233.3-.427.3V19zM13.386 4.05c-3.94 0-7.163 1.225-9.351 3.563C1.923 9.87.82 13.103.902 16.676c2.839-5.576 8.509-5.387 13.145-5.232a.443.443 0 01.434.437v2.568l7.4-6.514-7.4-6.514v2.202a.43.43 0 01-.137.314.457.457 0 01-.328.122c-.212-.007-.422-.01-.63-.01z" fill="#000"/></svg><svg fill="none" viewBox="0 0 268 83" id="label-3-mobile" xmlns="http://www.w3.org/2000/svg"><path d="M1.008 2.808v.24h2.376V20.76H1.008V21H9.36c4.632 0 7.608-1.656 7.488-5.304-.096-3-3.216-4.152-6.312-4.296v-.024c2.568-.48 4.992-1.752 4.992-4.44 0-2.712-2.448-4.128-6.696-4.128H1.008zM12.96 7.176c0 2.52-1.392 4.152-4.008 4.152H5.88v-8.28h3.072c2.616 0 4.008 1.608 4.008 4.128zm1.128 8.976c0 2.832-1.512 4.608-4.728 4.608H5.88v-9.192h3.48c3.216 0 4.728 1.752 4.728 4.584zM38.982 3.048h1.992v-.24h-4.512v.24h2.208l-5.424 11.136h-.12l-5.76-11.136h2.232v-.24h-6.96v.24h1.992l7.272 13.872.864-1.752-1.632 3.36c-3.36-.216-4.272.6-4.272 1.56 0 .72.672 1.224 1.56 1.224 1.104 0 1.848-.384 2.664-2.064l7.896-16.2zM48.34 20.76h-2.376v-8.496h9.456v8.496h-2.376V21h7.248v-.24h-2.376V3.048h2.376v-.24h-7.248v.24h2.376v7.944h-9.456V3.048h2.376v-.24h-7.248v.24h2.376V20.76h-2.376V21h7.248v-.24zm20.97 0h-2.375v-1.368l9.096-14.76V20.76h-2.376V21h7.248v-.24h-2.376V3.048h2.376v-.24h-7.248v.24h2.376v.984l-9.096 14.76V3.048h2.376v-.24h-7.248v.24h2.376V20.76h-2.376V21h7.248v-.24zM10.968 48.312c5.184 0 9.768-3.816 9.768-9.504 0-5.664-4.584-9.504-9.768-9.504-5.184 0-9.768 3.816-9.768 9.504 0 5.664 4.584 9.504 9.768 9.504zm.768-.312c-4.92 0-7.896-5.712-7.896-10.896 0-4.968 3.072-7.488 6.36-7.488 4.92 0 7.896 5.712 7.896 10.896 0 4.968-3.072 7.488-6.36 7.488zm15.292 0h7.728v-.24H32.14V30.048h4.488c.504 0 .528 0 .72.456l2.184 5.352h.144l-.72-7.176h-.144l-1.8 1.128h-12.24l-1.8-1.128h-.144l-.72 7.176h.144l2.184-5.352c.192-.456.216-.456.72-.456h4.488V47.76h-2.616V48zm21.201-.24h-2.376v-8.952L56.005 48h3.768l-10.56-9.552h-3.36l10.296-8.4h2.784v-.24h-5.88v.24h2.64l-9.84 8.04v-8.04h2.376v-.24h-7.248v.24h2.376V47.76h-2.376V48h7.248v-.24zm12.059.24h7.728v-.24H65.16V30.048h3.936c2.376 0 4.104 1.872 4.104 4.584 0 2.712-1.728 4.56-4.104 4.56h-3.144v.24h3.192c3.648 0 6.768-1.848 6.768-4.992 0-3.912-3.84-4.632-7.08-4.632h-8.544v.24h2.376V47.76h-2.376V48zm21.625-17.952h2.376v-.24h-7.248v.24h2.376V47.76h-2.376V48h8.112c4.632 0 7.488-1.8 7.488-5.544 0-3.096-2.88-4.608-7.488-4.608h-3.24v-7.8zM100.25 47.76h-2.376V30.048h2.376v-.24h-7.248v.24h2.376V47.76h-2.376V48h7.248v-.24zm-10.368-4.848c0 2.904-1.512 4.848-4.728 4.848h-3.24v-9.672h3.24c3.216 0 4.728 1.92 4.728 4.824zM106.46 48h7.728v-.24h-2.616V30.048h4.488c.504 0 .528 0 .72.456l2.184 5.352h.144l-.72-7.176h-.144l-1.8 1.128h-12.24l-1.8-1.128h-.144l-.72 7.176h.144l2.184-5.352c.192-.456.216-.456.72-.456h4.488V47.76h-2.616V48zm22.39 0h6.816v-.24h-1.992l-6.864-17.952h-2.568l.984 2.592-6.024 15.36h-1.992V48h4.512v-.24h-2.208l2.592-6.6h6.456l2.52 6.6h-2.232V48zm-6.24-8.112l2.76-7.08 2.712 7.08h-5.472zM1.008 58.808v.24h2.376V76.76H1.008V77H9.36c4.632 0 7.608-1.656 7.488-5.304-.096-3-3.216-4.152-6.312-4.296v-.024c2.568-.48 4.992-1.752 4.992-4.44 0-2.712-2.448-4.128-6.696-4.128H1.008zm11.952 4.368c0 2.52-1.392 4.152-4.008 4.152H5.88v-8.28h3.072c2.616 0 4.008 1.608 4.008 4.128zm1.128 8.976c0 2.832-1.512 4.608-4.728 4.608H5.88v-9.192h3.48c3.216 0 4.728 1.752 4.728 4.584zm14.617 5.16c5.184 0 9.768-3.816 9.768-9.504 0-5.664-4.584-9.504-9.768-9.504-5.184 0-9.768 3.816-9.768 9.504 0 5.664 4.584 9.504 9.768 9.504zm.768-.312c-4.92 0-7.896-5.712-7.896-10.896 0-4.968 3.072-7.488 6.36-7.488 4.92 0 7.896 5.712 7.896 10.896 0 4.968-3.072 7.488-6.36 7.488zm10.805 0h14.664l1.704-5.856h-.168l-3.768 5.184c-.24.312-.456.432-.96.432h-6.6v-8.952h3.528c.24 0 .336.024.48.36l1.368 2.952h.144v-6.864h-.144l-1.368 2.952c-.144.336-.24.36-.48.36H45.15v-8.52h5.328c.528 0 .696.072.936.432l3.12 4.944h.144l-.984-5.616H40.278v.24h2.376V76.76h-2.376V77zm25.008-.24H62.91v-8.496h9.456v8.496H69.99V77h7.248v-.24h-2.376V59.048h2.376v-.24H69.99v.24h2.376v7.944H62.91v-7.944h2.376v-.24h-7.248v.24h2.376V76.76h-2.376V77h7.248v-.24zm20.97 0h-2.375v-8.496h9.456v8.496H90.96V77h7.248v-.24h-2.376V59.048h2.376v-.24H90.96v.24h2.376v7.944H83.88v-7.944h2.376v-.24h-7.248v.24h2.376V76.76h-2.376V77h7.248v-.24zm23.732.24h6.816v-.24h-1.992l-6.864-17.952h-2.568l.984 2.592-6.024 15.36h-1.992V77h4.512v-.24h-2.208l2.592-6.6h6.456l2.52 6.6h-2.232V77zm-6.24-8.112l2.76-7.08 2.712 7.08h-5.472zM133.285 77v-.24h-2.376V59.048h2.376v-.24h-6.984c-4.464 0-7.248 1.32-7.248 4.8 0 2.496 1.896 4.128 5.496 4.488v.072c-.792.312-1.968 1.488-3.192 2.832l-5.472 6h3.36l7.968-8.736h1.2v8.496h-2.856V77h7.728zm-4.872-8.976h-2.112c-3.12 0-4.536-1.92-4.536-4.488 0-2.568 1.416-4.488 4.536-4.488h2.112v8.976zm20.236 8.736h-2.376v-8.952L156.425 77h3.768l-10.56-9.552h-3.36l10.296-8.4h2.784v-.24h-5.88v.24h2.64l-9.84 8.04v-8.04h2.376v-.24h-7.248v.24h2.376V76.76h-2.376V77h7.248v-.24zm22.066.24h6.816v-.24h-1.992l-6.864-17.952h-2.568l.984 2.592-6.024 15.36h-1.992V77h4.512v-.24h-2.208l2.592-6.6h6.456l2.52 6.6h-2.232V77zm-6.24-8.112l2.76-7.08 2.712 7.08h-5.472zm26.945 8.352h-2.376v-2.328c5.496-.144 9.84-2.976 9.84-7.104s-4.344-6.96-9.84-7.104v-2.136h2.376v-.24h-7.248v.24h2.376v2.136c-5.496.144-9.816 2.976-9.816 7.104s4.32 6.96 9.816 7.104v2.328h-2.376v.24h7.248v-.24zm-4.872-16.272v13.656c-4.056-.312-7.08-3.048-7.08-7.68 0-3.816 2.952-5.976 7.08-5.976zm9.576 7.68c0 3.816-2.928 5.976-7.08 6V60.992c4.032.336 7.08 3.048 7.08 7.656zM200.282 77h14.664l1.704-5.856h-.168l-3.768 5.184c-.24.312-.456.432-.96.432h-6.6v-8.952h3.528c.24 0 .336.024.48.36l1.368 2.952h.144v-6.864h-.144l-1.368 2.952c-.144.336-.24.36-.48.36h-3.528v-8.52h5.328c.528 0 .696.072.936.432l3.12 4.944h.144l-.984-5.616h-13.416v.24h2.376V76.76h-2.376V77zm16.205 5.376h.144l2.4-4.944c.192-.408.408-.432.936-.432h10.92c.528 0 .744.024.936.432l2.4 4.944h.144l-.264-5.616h-2.352V59.048h2.376v-.24h-14.616v.24h2.376c-.072 7.032-.552 13.656-2.76 17.712h-2.376l-.264 5.616zm5.712-23.328h7.056V76.76h-9.816c2.16-4.008 2.616-10.632 2.76-17.712zM235.919 77h7.728v-.24h-2.856V59.048h3.936c2.376 0 4.104 1.872 4.104 4.584 0 2.712-1.728 4.56-4.104 4.56h-3.144v.24h3.192c3.648 0 6.768-1.848 6.768-4.992 0-3.912-3.84-4.632-7.08-4.632h-8.544v.24h2.376V76.76h-2.376V77zm25.26 0h6.816v-.24h-1.992l-6.864-17.952h-2.568l.984 2.592-6.024 15.36h-1.992V77h4.512v-.24h-2.208l2.592-6.6h6.456l2.52 6.6h-2.232V77zm-6.24-8.112l2.76-7.08 2.712 7.08h-5.472z" fill="#404040"/></svg><svg fill="none" viewBox="0 0 1451 676" id="label-4-mobile" xmlns="http://www.w3.org/2000/svg"><path d="M73.04 410.877H52.02v-12.103l80.471-130.58v142.683h-21.02V413h64.122v-2.123h-21.02V254.181h21.02v-2.123h-64.122v2.123h21.02v8.705L52.02 393.466V254.181h21.02v-2.123H8.918v2.123h21.02v156.696H8.918V413H73.04v-2.123zm94.514 49.684h1.274l21.233-43.739c1.698-3.61 3.609-3.822 8.28-3.822h96.608c4.671 0 6.582.212 8.281 3.822l21.232 43.739h1.274l-2.335-49.684h-20.808V254.181h21.02v-2.123H194.307v2.123h21.02c-.637 62.211-4.883 120.813-24.417 156.696h-21.02l-2.336 49.684zm50.534-206.38h62.423v156.696H193.67c19.109-35.459 23.144-94.06 24.418-156.696zM327.795 413h68.368v-2.123h-25.266V254.181h34.821c21.02 0 36.308 16.561 36.308 40.554 0 23.993-15.288 40.342-36.308 40.342h-27.815v2.123h28.24c32.273 0 59.875-16.349 59.875-44.164 0-34.609-33.972-40.978-62.636-40.978h-75.587v2.123h21.02v156.696h-21.02V413zm200.234-2.123h-21.02v-12.103l80.471-130.58v142.683h-21.02V413h64.122v-2.123h-21.02V254.181h21.02v-2.123H566.46v2.123h21.02v8.705l-80.471 130.58V254.181h21.02v-2.123h-64.122v2.123h21.02v156.696h-21.02V413h64.122v-2.123zm197.314 2.972c-37.581 0-64.546-39.28-64.546-88.327 0-53.293 35.458-76.012 63.485-76.012 27.602 0 50.745 15.924 65.608 64.122h1.274l-11.678-65.396h-1.274l-9.979 11.465c-11.041-8.068-27.178-12.102-43.951-12.102-53.506 0-89.389 38.006-89.389 84.081 0 51.807 40.979 84.08 90.45 84.08 16.774 0 32.911-4.034 43.952-12.102l9.979 11.465h1.274l11.678-65.396h-1.274c-14.863 48.198-38.006 64.122-65.609 64.122zm161.729 1.911c45.862 0 86.416-33.759 86.416-84.08 0-50.109-40.554-84.081-86.416-84.081-45.862 0-86.416 33.76-86.416 84.081 0 50.108 40.554 84.08 86.416 84.08zm6.794-2.76c-43.526 0-69.855-50.533-69.855-96.396 0-43.951 27.178-66.245 56.267-66.245 43.526 0 69.854 50.533 69.854 96.396 0 43.951-27.177 66.245-56.266 66.245zm83.917-160.942v2.123h21.02v156.696h-21.02V413h73.887c40.98 0 67.31-14.65 66.25-46.924-.85-26.54-28.45-36.732-55.84-38.006v-.212c22.71-4.247 44.16-15.5 44.16-39.28 0-23.993-21.66-36.52-59.24-36.52h-69.217zm105.737 38.643c0 22.294-12.31 36.732-35.46 36.732h-27.18v-73.252h27.18c23.15 0 35.46 14.226 35.46 36.52zm9.98 79.409c0 25.055-13.38 40.767-41.83 40.767h-30.79v-81.321h30.79c28.45 0 41.83 15.5 41.83 40.554zm93.64 40.767h-21.02v-12.103l80.47-130.58v142.683h-21.02V413h64.12v-2.123h-21.02V254.181h21.02v-2.123h-64.12v2.123h21.02v8.705l-80.47 130.58V254.181h21.02v-2.123h-64.12v2.123h21.02v156.696h-21.02V413h64.12v-2.123zm122.97-115.505c0 34.609 20.8 47.985 58.17 47.985 12.74 0 25.69-1.698 39.07-7.643v75.163h-21.02V413h64.12v-2.123h-21.02V254.181h21.02v-2.123h-64.12v2.123h21.02v79.409c-13.8 6.37-26.33 7.644-32.91 7.644-24.63 0-42.25-7.856-42.25-45.862v-41.191h21.02v-2.123h-64.12v2.123h21.02v41.191zM5.52 192h43.527v-2.123H28.664l7.644-126.121 62.21 103.402h1.062l53.719-122.3 8.705 145.019h-21.02V192h64.122v-2.123h-21.02l-9.343-156.696h21.021v-2.123h-39.068L108.71 140.405 42.253 31.058H16.56l17.411 28.876-7.856 129.943H5.52V192zm287.973 0h60.3v-2.123H336.17l-60.725-158.82h-22.719l8.706 22.932-53.294 135.888h-17.623V192h39.917v-2.123h-19.534l22.931-58.39h57.116l22.294 58.39h-19.746V192zm-55.205-71.766l24.418-62.636 23.992 62.636h-48.41zm164.919 74.526c38.643 0 62.211-14.65 62.211-47.561 0-27.602-25.479-38.855-49.897-39.917v-.212c20.384-3.822 39.493-16.349 39.493-41.616 0-25.479-19.109-38.855-51.17-38.855-11.891 0-23.993 3.61-30.575 9.13l-7.644-8.493h-1.274L353.31 84.564h1.274c15.075-38.007 26.329-56.054 49.26-56.054 18.684 0 28.451 15.287 28.451 39.068 0 23.568-10.616 38.855-30.362 38.855h-18.685v2.123h18.685c27.814 0 39.067 16.562 39.067 41.616 0 26.753-12.102 42.465-37.793 42.465-24.418 0-39.917-18.472-55.205-58.602h-1.274l11.041 60.088h1.274l7.644-8.493c7.643 4.034 22.506 9.13 36.52 9.13zm129.383-4.883h-21.02v-12.103l80.471-130.58v142.683h-21.02V192h64.122v-2.123h-21.02V33.181h21.02v-2.123h-64.122v2.123h21.02v8.705l-80.471 130.58V33.181h21.02v-2.123h-64.122v2.123h21.021v156.696h-21.021V192h64.122v-2.123zM678.488 192h68.368v-2.123h-23.143V33.181h39.705c4.458 0 4.671 0 6.369 4.034l19.322 47.349h1.274l-6.37-63.486h-1.274l-15.924 9.98H658.529l-15.924-9.98h-1.274l-6.37 63.486h1.274l19.321-47.349c1.699-4.034 1.911-4.034 6.37-4.034h39.705v156.696h-23.143V192zM101.067 635.849c-37.582 0-64.547-39.28-64.547-88.327 0-53.293 35.458-76.012 63.485-76.012 27.602 0 50.746 15.924 65.608 64.122h1.274l-11.677-65.396h-1.274l-9.98 11.465c-11.041-8.068-27.177-12.102-43.951-12.102-53.506 0-89.389 38.006-89.389 84.081 0 51.807 40.979 84.08 90.451 84.08 16.773 0 32.91-4.034 43.951-12.102l9.979 11.465h1.274l11.678-65.396h-1.274c-14.863 48.198-38.006 64.122-65.608 64.122zM261.976 635h60.3v-2.123h-17.623l-60.725-158.819h-22.719l8.706 22.931-53.294 135.888h-17.623V635h39.917v-2.123h-19.534l22.931-58.39h57.116l22.294 58.39h-19.746V635zm-55.205-71.766l24.418-62.636 23.992 62.636h-48.41zM397.806 458.77c21.444 0 35.458-13.164 35.458-33.972h-18.26c0 20.171-2.123 31.849-17.198 31.849-14.651 0-18.473-11.678-18.473-31.849h-18.26c0 18.473 11.678 33.972 36.733 33.972zm-20.808 174.107h-21.02v-12.103l80.471-130.58v142.683h-21.02V635h64.122v-2.123h-21.02V476.181h21.02v-2.123h-64.122v2.123h21.02v8.705l-80.471 130.58V476.181h21.02v-2.123h-64.122v2.123h21.02v156.696h-21.02V635h64.122v-2.123zm233.222 4.246H589.2v-20.595c48.622-1.274 87.053-26.329 87.053-62.848 0-36.52-38.431-61.575-87.053-62.849v-18.897h21.02v-2.123h-64.122v2.123h21.02v18.897c-48.622 1.274-86.841 26.329-86.841 62.849 0 36.519 38.219 61.574 86.841 62.848v20.595h-21.02v2.123h64.122v-2.123zm-43.102-143.956V613.98c-35.883-2.76-62.636-26.965-62.636-67.944 0-33.76 26.116-52.869 62.636-52.869zm84.718 67.944c0 33.76-25.904 52.869-62.636 53.081V493.379c35.671 2.973 62.636 26.966 62.636 67.732zm149.246-84.93h17.623v-2.123h-39.917v2.123h19.534L750.336 574.7h-1.061l-50.958-98.519h19.746v-2.123h-61.574v2.123h17.623l64.334 122.724 7.644-15.5-14.438 29.726c-29.726-1.911-37.794 5.308-37.794 13.801 0 6.369 5.945 10.828 13.801 10.828 9.767 0 16.349-3.397 23.568-18.26l69.855-143.319zm23.694 148.415c11.466-24.842 15.712-80.471 16.986-148.415h62.211v156.696h-21.02V635h64.122v-2.123h-21.02V476.181h21.02v-2.123H817.769v2.123h21.021c-.425 50.958-2.973 104.039-12.74 136.737-4.246-1.061-8.281-1.486-13.164-1.486-15.287 0-20.383 7.219-20.383 14.013 0 7.856 6.369 12.315 13.801 12.315 7.644 0 13.801-2.76 18.472-13.164zm148.553 0c11.465-24.842 15.712-80.471 16.986-148.415h62.215v156.696h-21.02V635h64.12v-2.123h-21.02V476.181h21.02v-2.123H966.322v2.123h21.02c-.424 50.958-2.972 104.039-12.739 136.737-4.247-1.061-8.281-1.486-13.164-1.486-15.288 0-20.383 7.219-20.383 14.013 0 7.856 6.369 12.315 13.801 12.315 7.643 0 13.801-2.76 18.472-13.164zm190.381 8.281h-21.02v-12.103l80.47-130.58v142.683h-21.02V635h64.12v-2.123h-21.02V476.181h21.02v-2.123h-64.12v2.123h21.02v8.705l-80.47 130.58V476.181h21.02v-2.123h-64.12v2.123h21.02v156.696h-21.02V635h64.12v-2.123zm170.74 0h-21.02v-75.163h83.65v75.163h-21.02V635h64.13v-2.123h-21.02V476.181h21.02v-2.123h-64.13v2.123h21.02v70.28h-83.65v-70.28h21.02v-2.123h-64.12v2.123h21.02v156.696h-21.02V635h64.12v-2.123z" fill="#404040"/></svg><svg fill="none" viewBox="0 0 318 315" id="label-circle" xmlns="http://www.w3.org/2000/svg"><g opacity=".2" fill="#fff"><path d="M126.465 308.101l-7.155-1.735c3.742-2.065 6.96-5.293 8.319-9.873l-2.445-.592c-1.462 4.765-4.028 7.519-8.156 9.912l-.461 1.902 9.436 2.288.462-1.902zM113.023 293.87c1.699.563 2.131 1.865 1.834 3.415l2.034.674c.591-2.258-.321-4.72-3.293-5.704-2.548-.844-5.246-.05-6.195 2.817-.955 2.883.581 5.061 2.775 5.788 1.15.381 2.134.373 2.917.083l-1.473 3.085-5.945-1.969-.615 1.857 7.678 2.544 3.211-6.849-1.946-.762c-.517.673-1.56.975-2.763.577-1.274-.422-2.284-1.758-1.651-3.669.568-1.716 2.017-2.355 3.432-1.887zM91.423 282.888l-4.456 8.983 6.478 3.213 1.765-3.139c1.874-3.315 2.947-3.76 3.682-3.396l.2.1.779-1.57-.367-.182c-2.07-1.027-3.926.196-6.04 3.828l-1.094 1.871-2.638-1.309 3.678-7.413-1.987-.986zM78.097 279.954c-1.923 2.756-1.581 5.914 1.043 7.517 2.433 1.486 5.316.736 6.89-1.84 1.506-2.466 1.205-5.511-1.547-7.192-2.195-1.341-4.354-.738-5.571.397l1.86 1.136c.83-.607 1.827-.522 2.829.09 1.081.661 1.719 2.12.874 3.789l-6.377-3.897zm1.947 6.038c-1.114-.68-1.636-2.113-.867-3.478l4.453 2.72c-1.156 1.5-2.696 1.302-3.586.758zM66.254 276.11l-1.037 1.412 7.301 5.362 1.037-1.412-2.764-2.03 4.898-6.67-1.788-1.313-4.898 6.67-2.749-2.019zM64.687 259.418c-1.622-1.567-2.57-1.524-5.054-.321l-9.487 4.75 1.635 1.58 6.634-3.594-3.364 6.754 1.743 1.683 4.314-9.696.249-.097c1.228-.627 1.575-.396 2.272.278l.603.582 1.178-1.219-.723-.7zM40.159 257.802l1.448 1.679 2.64-2.276c1.862 2.159 4.634 2.919 7.259.654 2.71-2.337 2.28-5.117.417-7.276l2.385-2.058-1.448-1.679-2.385 2.057c-1.85-2.145-4.55-2.991-7.26-.654-2.624 2.264-2.28 5.117-.417 7.277l-2.64 2.276zm10.424-6.063c1.132 1.312 1.282 2.856-.482 4.378-1.792 1.546-3.38 1.218-4.5-.081l4.982-4.297zm-6.43 2.618c-1.133-1.312-1.2-2.903.592-4.449 1.764-1.522 3.257-1.161 4.39.152l-4.982 4.297zM32.313 241.435l1.28 1.811 8.46-.136-5.707 4.033 1.28 1.811 8.189-5.786-1.28-1.811-8.43.114 5.677-4.011-1.28-1.811-8.19 5.786zM23.848 226.844l1.654 2.919 7.485-1.306-4.93 5.814 1.653 2.919 8.724-4.943-1.057-1.865-6.875 3.895 5.424-6.457-.846-1.492-8.359 1.352 6.908-3.914-1.056-1.865-8.725 4.943zM20.354 219.47c1.22 2.742 4.078 3.571 6.803 2.358 2.724-1.212 4.004-3.883 2.822-6.539-.872-1.958-2.922-3.31-5.25-2.764l.88 1.975c1.347-.273 2.221.5 2.669 1.505.53 1.192.109 2.766-2.07 3.737-2.163.962-3.6.255-4.168-1.022-.492-1.107-.183-2.244.704-2.863l-.879-1.976c-1.867 1.26-2.405 3.58-1.51 5.589zM24.485 201.427l-.83-2.415-3.568 5.502-5.83-1.998.824 2.398 4.622 1.466.394 1.146-3.684 1.265.726 2.116 9.483-3.258-.726-2.115-4.142 1.423-.34-.987 3.071-4.543zM17.65 195.56c-2.243.556-3.643-.365-3.983-1.74-.341-1.375.466-2.842 2.71-3.398 2.243-.556 3.624.369 3.965 1.744.34 1.375-.45 2.838-2.692 3.394zm-5.738-1.305c.587 2.37 2.78 4.399 6.29 3.53 3.527-.875 4.482-3.684 3.894-6.054-.587-2.37-2.744-4.408-6.271-3.534-3.51.87-4.5 3.688-3.913 6.058zM8.484 173.508l.489 3.319 7.452 1.483-6.697 3.643.489 3.319 9.92-1.461-.313-2.121-7.818 1.152 7.39-4.065-.25-1.696-8.285-1.756 7.855-1.157-.312-2.121-9.92 1.461zM21.561 168.19c-.118-2.252-.841-2.867-3.478-3.68l-10.18-2.993.12 2.271 7.303 1.893-7.065 2.648.128 2.42 9.766-4.153.248.099c1.326.378 1.422.784 1.473 1.752l.044.837 1.694-.089-.053-1.005zM10.574 142.529l-1.746-.138-.54 6.781 9.996.795.176-2.211-8.249-.656.363-4.571zM14.678 137.009c-2.282-.372-3.206-1.769-2.978-3.167.227-1.398 1.547-2.429 3.828-2.058 2.281.372 3.187 1.766 2.96 3.164-.228 1.398-1.53 2.432-3.81 2.061zm-4.763-3.457c-.392 2.41.826 5.138 4.394 5.719 3.587.584 5.57-1.623 5.963-4.033.392-2.41-.788-5.132-4.375-5.716-3.57-.581-5.59 1.62-5.982 4.03zM12.719 120.6c-.74 2.907.989 5.329 3.879 6.064 2.89.736 5.549-.568 6.266-3.385.529-2.077-.243-4.409-2.409-5.421l-.533 2.095c1.227.62 1.434 1.769 1.163 2.834-.322 1.265-1.628 2.24-3.94 1.651-2.293-.584-2.983-2.029-2.638-3.383.298-1.174 1.246-1.875 2.326-1.812l.534-2.095c-2.246-.168-4.106 1.32-4.649 3.452zM28.259 115.677c.74-2.13.302-2.973-1.833-4.721l-8.299-6.611-.746 2.148 6.05 4.508-7.542-.212-.795 2.289 10.612-.162.192.185c1.086.851 1.021 1.262.704 2.178l-.276.792 1.602.557.33-.951zM31.585 94.37l-.611 1.36-7.566-3.398-2.993 6.665 2.846 1.442c3.263 1.65 4.353 2.772 3.895 3.792l-.222.493 3.74 1.68.825-1.836-2.159-.97 3.001-6.68 2.16.969.824-1.836-3.74-1.68zm-1.52 3.384l-1.856 4.131c-.368-1.044-1.515-1.947-3.885-3.175l-1.51-.78 1.284-2.857 5.967 2.68zM34.252 85.171c1.494.842 1.733 2.089.928 3.518-.549.974-1.36 1.351-2.124.921-.99-.558-.765-1.907.53-4.814l.666.375zm2.135 4.754c.732-1.299.86-2.553.223-3.66.628.29.867.36 1.277.505l.997-1.77c-.832-.233-2.03-.802-3.135-1.424-.795-.448-1.816-1.066-2.238-1.303-2.766-1.623-4.648-.522-5.828 1.573-1.189 2.11-.787 4.283.91 5.41l1.07-1.9c-1.028-.643-1.136-1.666-.587-2.64.549-.975 1.479-1.563 2.973-.721l.162.091c-1.452 3.375-2.45 6.363-.258 7.598 1.59.896 3.364.141 4.434-1.759zM38.034 77.272c-1.906-1.306-2.186-2.877-1.364-4.076.886-1.29 2.493-1.296 4.23-.105 1.768 1.212 2.328 2.703 1.443 3.994-.822 1.199-2.403 1.494-4.309.187zm-5.336-1.082l10.96 7.513 1.254-1.829-3.782-2.592c1.152.066 2.22-.468 2.978-1.575 1.39-2.029.758-4.7-1.901-6.522-2.644-1.813-5.363-1.44-6.754.59-.759 1.106-.872 2.294-.395 3.344l-1.106-.758-1.254 1.829zM42.975 62.015c-1.908 2.317-1.373 5.244.93 7.14 2.302 1.895 5.263 1.846 7.11-.398 1.363-1.655 1.657-4.093.128-5.931l-1.374 1.669c.846 1.083.545 2.211-.154 3.06-.83 1.007-2.426 1.334-4.268-.182-1.827-1.505-1.836-3.106-.948-4.185.77-.935 1.926-1.166 2.877-.65l1.374-1.668c-1.961-1.108-4.277-.553-5.675 1.145zM56.038 50.83l-1.253-1.224-6.33 6.479 1.253 1.224 2.397-2.453 5.919 5.783 1.55-1.586-5.919-5.783 2.383-2.44zM58.069 46.664l6.551 7.59 3.753-3.238c1.707-1.474 2.417-3.219 1.017-4.841-.865-1.002-1.88-1.037-2.823-.617.408-.869.284-1.697-.386-2.473-1.352-1.566-2.962-.866-4.543.498l-3.57 3.081zm4.358 1.655l-1.547-1.792 1.75-1.51c.832-.718 1.509-.933 2.081-.27.585.678.312 1.331-.52 2.05l-1.764 1.522zm1.047 1.213l1.862-1.607c1.016-.877 1.705-1.077 2.326-.357.584.677.383 1.442-.619 2.306l-1.877 1.62-1.692-1.962zM78.898 37.582c-1.794-2.842-4.837-3.75-7.333-1.954-2.314 1.667-2.74 4.615-.975 7.065 1.688 2.344 4.612 3.247 7.228 1.363 2.087-1.503 2.369-3.727 1.795-5.29l-1.77 1.275c.239 1-.226 1.886-1.179 2.572-1.028.74-2.62.762-3.83-.663l6.064-4.368zm-6.32-.547c1.059-.763 2.582-.688 3.543.55l-4.235 3.049c-.934-1.647-.155-2.99.692-3.6zM92.06 34.814l-5.123-8.62-1.907 1.133 2.047 3.445-3.845 2.285-2.047-3.444-1.907 1.133 5.123 8.62 1.907-1.134-2.18-3.669 3.844-2.285 2.18 3.669 1.907-1.133zM103.223 29.418l-4.346-9.036-1.999.961 1.737 3.611-4.031 1.939-1.737-3.611-1.998.961 4.346 9.036 1.998-.961-1.85-3.846 4.031-1.939 1.85 3.846 1.999-.961zM106.15 22.951c-.815-2.162-.065-3.66 1.26-4.16 1.326-.499 2.878.131 3.693 2.294.815 2.162.058 3.643-1.267 4.142-1.326.5-2.871-.113-3.686-2.276zm.623-5.851c-2.285.861-4.043 3.276-2.768 6.66 1.281 3.4 4.184 4.02 6.468 3.159 2.285-.861 4.057-3.242 2.775-6.643-1.275-3.383-4.191-4.037-6.475-3.176zM126.975 11.265l-3.239.875-.599 7.575-4.403-6.225-3.238.875 2.613 9.68 2.07-.559-2.06-7.629 4.902 6.862 1.656-.447.773-8.433 2.07 7.665 2.069-.559-2.614-9.68zM133.789 23.63c2.223-.382 2.749-1.172 3.248-3.886l1.779-10.46-2.241.384-1.025 7.475-3.457-6.705-2.388.41 5.268 9.212-.069.258c-.22 1.361-.612 1.504-1.567 1.668l-.827.142.287 1.671.992-.17zM160.369 17.94l-.324-10.023-2.216.072.129 4.005-4.471.144-.129-4.005-2.217.072.323 10.021 2.217-.071-.137-4.266 4.47-.144.138 4.266 2.217-.072zM173.049 14.235c.392-3.338-1.403-5.958-4.474-6.13-2.847-.158-5.032 1.867-5.2 4.882-.161 2.884 1.546 5.424 4.765 5.604 2.568.143 4.185-1.41 4.721-2.985l-2.177-.121c-.444.927-1.362 1.324-2.534 1.258-1.266-.07-2.517-1.055-2.563-2.924l7.462.416zm-4.57-4.399c1.302.073 2.44 1.088 2.409 2.655l-5.21-.29c.309-1.869 1.759-2.423 2.801-2.365zM184.783 6.687l-2.193-.33-.519 3.446c-2.82-.424-5.417.806-5.934 4.233-.532 3.539 1.605 5.368 4.424 5.793l-.468 3.115 2.193.33.469-3.115c2.801.422 5.4-.694 5.933-4.233.516-3.428-1.604-5.368-4.424-5.793l.519-3.446zm-3.958 11.391c-1.714-.258-2.834-1.331-2.487-3.635.352-2.34 1.771-3.126 3.467-2.87l-.98 6.505zm3.173-6.175c1.714.258 2.801 1.42 2.449 3.761-.347 2.304-1.715 3.002-3.429 2.745l.98-6.506zM199.794 15.365l.417-1.701-8.797-2.156-.417 1.702 3.33.816-1.969 8.037 2.154.528 1.97-8.037 3.312.811zM211.849 17.502l-4.044-1.364c-2.384-.804-4.007-.132-4.656 1.793-.459 1.36-.015 2.493.855 3.239l-3.677 3.028 2.384.804 3.051-2.63 1.889.638-1.107 3.284 2.101.71 3.204-9.502zm-2.661.951l-.977 2.896-1.731-.583c-1.059-.357-1.588-.949-1.248-1.955.333-.99 1.201-1.287 2.313-.912l1.643.554zM221.018 32.299l4.025-9.183-2.031-.89-1.609 3.669-4.096-1.796 1.609-3.67-2.032-.89-4.025 9.183 2.031.89 1.713-3.908L220.7 27.5l-1.714 3.908 2.032.89zM227.83 30.308c1.11-2.027 2.735-2.433 3.978-1.753 1.242.68 1.775 2.268.665 4.295-1.11 2.027-2.726 2.417-3.969 1.737-1.242-.68-1.784-2.252-.674-4.28zm4.846-3.339c-2.141-1.172-5.119-.934-6.856 2.237-1.746 3.188-.325 5.793 1.816 6.966s5.102.967 6.847-2.22c1.737-3.172.335-5.81-1.807-6.983zM250.262 38.499l-2.773-1.888-6.138 4.478 1.856-7.394-2.773-1.888-5.643 8.288 1.771 1.206 4.448-6.532-2.014 8.19 1.418.964 6.902-4.905-4.468 6.563 1.772 1.206 5.642-8.288zM245.319 51.722c1.737 1.438 2.679 1.323 5.063-.066l9.096-5.463-1.751-1.45-6.339 4.091 2.836-6.991-1.867-1.545-3.559 9.998-.24.115c-1.177.72-1.54.516-2.287-.102l-.646-.535-1.081 1.306.775.642zM272.441 61.907l1.289-1.187-6.138-6.662-1.288 1.188 2.323 2.521-6.085 5.608 1.503 1.63 6.085-5.606 2.311 2.508zM277.526 74.698c2.777-1.894 3.578-4.967 1.693-7.398-1.747-2.253-4.708-2.575-7.094-.725-2.283 1.77-3.082 4.725-1.107 7.273 1.576 2.032 3.809 2.235 5.35 1.606l-1.336-1.723c-.991.273-1.893-.16-2.612-1.088-.777-1.001-.855-2.592.527-3.852l4.579 5.907zm.324-6.335c.799 1.03.779 2.556-.424 3.559l-3.198-4.124c1.613-.991 2.982-.26 3.622.564zM288.968 81.95l-1.316-2.034-3.803-.18 1.433-3.48-1.418-2.191-2.273 5.578-6.256-.301 1.327 2.05 4.138.184-1.545 3.82 1.418 2.19 2.395-5.901 5.9.265zM286.191 97.971l8.849-4.715-1.043-1.957-3.537 1.884-2.103-3.947 3.536-1.885-1.043-1.957-8.849 4.715 1.043 1.958 3.767-2.007 2.103 3.947-3.766 2.007 1.043 1.957zM300.394 105.746l-.862-2.044-8.293-1.683 6.441-2.714-.861-2.044-9.24 3.893.861 2.044 8.259 1.698-6.407 2.699.861 2.044 9.241-3.893zM294.796 120.911l9.556-3.039-.672-2.113-4.245 1.35c-.427-.666-.679-1.212-.854-1.763-.412-1.296-.131-2.011 1.076-2.396l2.842-.903-.672-2.114-3.215 1.023c-2.078.66-2.658 2.096-2.019 4.103.276.871.637 1.636 1.225 2.564l-3.694 1.175.672 2.113zM302.145 133.153c3.319-.532 5.351-2.973 4.68-5.974-.622-2.783-3.165-4.334-6.112-3.675-2.819.631-4.799 2.964-4.095 6.111.561 2.51 2.495 3.643 4.157 3.73l-.476-2.128c-1.013-.175-1.645-.95-1.901-2.096-.276-1.237.33-2.709 2.116-3.261l1.631 7.293zm2.989-5.595c.284 1.273-.383 2.644-1.899 3.04l-1.138-5.092c1.881-.211 2.809 1.033 3.037 2.052zM309.049 140.263c-.396-2.975-2.902-4.578-5.858-4.185-2.956.393-4.939 2.593-4.556 5.475.282 2.124 1.866 4.001 4.253 4.135l-.285-2.143c-1.369-.119-1.989-1.108-2.134-2.198-.172-1.294.677-2.685 3.042-2.999 2.346-.312 3.524.772 3.709 2.158.159 1.201-.46 2.204-1.486 2.547l.285 2.144c2.147-.681 3.319-2.754 3.03-4.934zM299.984 156.401l.113 2.551 4.979-4.268 5.027 3.564-.112-2.532-4.019-2.714-.054-1.21 3.891-.172-.098-2.234-10.017.443.098 2.234 4.376-.194.046 1.043-4.23 3.489zM304.882 163.962c2.309.101 3.391 1.38 3.329 2.795-.062 1.415-1.252 2.594-3.56 2.493-2.309-.101-3.373-1.379-3.311-2.794.062-1.415 1.233-2.595 3.542-2.494zm5.135 2.874c.107-2.439-1.423-5.006-5.035-5.164-3.631-.159-5.341 2.266-5.448 4.705-.107 2.44 1.386 5.005 5.016 5.163 3.613.158 5.36-2.265 5.467-4.704zM307.438 187.706l.47-3.322-6.729-3.53 7.454-1.6.469-3.322-9.928-1.403-.3 2.122 7.824 1.106-8.236 1.81-.24 1.698 7.449 4.026-7.861-1.111-.3 2.123 9.928 1.403zM293.391 189.109c-.523 2.194-.004 2.988 2.296 4.514l8.918 5.748.527-2.211-6.47-3.881 7.525-.543.562-2.356-10.542 1.221-.209-.165c-1.166-.738-1.143-1.154-.918-2.097l.195-.815-1.65-.394-.234.979zM288.131 206.897c-.814 2.104-.406 2.961 1.668 4.782l8.064 6.895.82-2.121-5.89-4.715 7.53.473.874-2.26-10.611-.206-.185-.191c-1.056-.888-.978-1.297-.628-2.201l.302-.783-1.582-.611-.362.938zM283.086 226.181l9.012 4.397.972-1.993-3.601-1.757 1.961-4.02 3.602 1.757.972-1.994-9.011-4.396-.973 1.993 3.836 1.871-1.961 4.02-3.836-1.871-.973 1.993zM285.129 242.243l1.149-1.897-3.505-7.702 5.978 3.621 1.149-1.896-8.576-5.196-1.149 1.896 3.473 7.683-5.945-3.602-1.15 1.897 8.576 5.196zM282.27 246.281l-8.069-5.952-2.943 3.989c-1.338 1.815-1.644 3.674.08 4.946 1.065.786 2.063.595 2.889-.023-.205.938.099 1.718.924 2.326 1.665 1.229 3.081.189 4.32-1.491l2.799-3.795zm-4.616-.649l1.905 1.405-1.372 1.86c-.653.885-1.265 1.244-1.97.724-.72-.531-.599-1.229.054-2.114l1.383-1.875zm-1.29-.952l-1.46 1.98c-.797 1.08-1.424 1.428-2.189.864-.72-.531-.693-1.322.093-2.387l1.472-1.994 2.084 1.537zM263.968 259.748c2.378 2.374 5.547 2.587 7.583.283 1.888-2.138 1.651-5.107-.612-7.106-2.165-1.912-5.217-2.146-7.351.271-1.703 1.928-1.485 4.159-.58 5.555l1.443-1.634c-.453-.923-.196-1.889.581-2.769.839-.95 2.388-1.324 3.883-.201l-4.947 5.601zm6.284-.865c-.864.978-2.366 1.243-3.576.248l3.454-3.911c1.275 1.4.813 2.881.122 3.663zM260.185 264.262c1.591 1.676 1.536 3.27.482 4.271-1.136 1.077-2.709.746-4.159-.781-1.475-1.554-1.711-3.129-.576-4.207 1.054-1.001 2.662-.959 4.253.717zm4.992 2.173l-9.149-9.637-1.608 1.527 3.157 3.325c-1.113-.306-2.268-.007-3.241.917-1.784 1.694-1.724 4.438.496 6.776 2.207 2.325 4.944 2.528 6.728.834.973-.924 1.332-2.061 1.085-3.188l.924.973 1.608-1.527zM252.166 278.15c2.349-1.867 2.437-4.841.582-7.176-1.855-2.334-4.761-2.905-7.037-1.096-1.678 1.333-2.475 3.656-1.364 5.773l1.693-1.345c-.602-1.236-.072-2.277.789-2.961 1.022-.811 2.652-.797 4.136 1.07 1.472 1.853 1.147 3.421.053 4.291-.949.753-2.127.738-2.949.034l-1.692 1.345c1.686 1.493 4.067 1.434 5.789.065zM236.977 288.468l1.854-1.217.155-8.46 3.834 5.843 1.854-1.217-5.5-8.383-1.854 1.217-.176 8.429-3.814-5.812-1.854 1.216 5.501 8.384zM224.789 293.108l.829 1.543 7.98-4.284-.829-1.544-3.021 1.622-3.914-7.29-1.954 1.049 3.914 7.291-3.005 1.613zM211.135 294.846c1.142 3.161 3.92 4.702 6.743 3.483 2.617-1.131 3.667-3.919 2.469-6.691-1.145-2.652-3.807-4.161-6.767-2.883-2.361 1.02-3.114 3.132-2.889 4.781l2.002-.865c-.018-1.028.626-1.793 1.704-2.259 1.163-.503 2.723-.182 3.599 1.47l-6.861 2.964zm6.055 1.891c-1.197.518-2.669.118-3.341-1.297l4.79-2.069c.558 1.809-.491 2.952-1.449 3.366zM201.165 302.306l.556 1.661 8.59-2.873-.556-1.662-3.252 1.088-2.625-7.847-2.103.703 2.625 7.848-3.235 1.082zM193.699 292.317c-2.19.538-2.659 1.363-2.965 4.106l-1.034 10.559 2.208-.542.493-7.529 3.923 6.445 2.353-.578-5.907-8.817.051-.262c.123-1.374.504-1.544 1.445-1.775l.814-.2-.404-1.647-.977.24z"/></g></svg><svg fill="none" viewBox="0 0 1844 405" id="label1" xmlns="http://www.w3.org/2000/svg"><path d="M336.726 28.888h40.958v-4.935h-92.771v4.935h45.398L218.788 257.856h-2.467L97.889 28.888h45.892v-4.935H.676v4.935h40.958l149.52 285.223 17.765-36.023-33.556 69.085c-69.085-4.441-87.837 12.337-87.837 32.075 0 14.804 13.817 25.167 32.076 25.167 22.699 0 37.996-7.895 54.774-42.438l162.35-333.09zM376.678 398h161.857v-4.935h-61.684V28.888h109.55c10.856 0 14.31 1.48 19.245 8.882l64.15 101.654h2.961l-20.232-115.47H376.678v4.934h48.853v364.177h-48.853V398zm468.376-4.935h-48.853V218.379h194.425v174.686h-48.853V398H1090.8v-4.935h-48.85V28.888h48.85v-4.935H941.773v4.935h48.853v163.337H796.201V28.888h48.853v-4.935H696.027v4.935h48.853v364.177h-48.853V398h149.027v-4.935zM1216.04 398h158.89v-4.935h-53.79V28.888h92.28c10.36 0 10.86 0 14.81 9.376l44.9 110.042h2.96L1461.29.76h-2.96l-37.01 23.193h-251.67L1132.64.76h-2.96l-14.8 147.546h2.96l44.9-110.042c3.95-9.376 4.44-9.376 14.81-9.376h92.27v364.177h-53.78V398zm586.41-369.112h40.96v-4.935h-92.77v4.935h45.4l-111.52 228.968h-2.47L1563.62 28.888h45.89v-4.935H1466.4v4.935h40.96l149.52 285.223 17.77-36.023-33.56 69.085c-69.08-4.441-87.84 12.337-87.84 32.075 0 14.804 13.82 25.167 32.08 25.167 22.7 0 38-7.895 54.77-42.438l162.35-333.09z" fill="#404040"/></svg><svg fill="none" viewBox="0 0 4224 408" id="label2" xmlns="http://www.w3.org/2000/svg"><path d="M232.763 315.045h-39.154V319h119.438v-3.955h-39.153V23.174h39.153v-3.955H.611v3.955h39.153v291.871H.611V319h119.437v-3.955H80.895V23.174h151.868v291.871zM320.571 319h241.644l28.079-96.499h-2.768l-62.092 85.425c-3.955 5.142-7.514 7.119-15.819 7.119h-108.76V167.528h58.137c3.955 0 5.537.395 7.91 5.932l22.543 48.645h2.373v-113.11h-2.373l-22.543 48.645c-2.373 5.537-3.955 5.933-7.91 5.933h-58.137V23.174h87.799c8.7 0 11.469 1.186 15.424 7.119l51.413 81.471h2.373l-16.215-92.545H320.571v3.955h39.153v291.871h-39.153V319zm270.91 0h127.347v-3.955h-47.063V23.174h64.86c39.154 0 67.629 30.848 67.629 75.538 0 44.691-28.475 75.143-67.629 75.143h-51.809v3.955h52.6c60.115 0 111.528-30.452 111.528-82.261 0-64.465-63.278-76.33-116.669-76.33H591.481v3.955h39.153v291.871h-39.153V319zm253.53-299.78v3.954h39.154v291.871h-39.154V319h137.63c76.329 0 125.369-27.289 123.389-87.403-1.58-49.436-52.99-68.42-104.01-70.793v-.395c42.32-7.91 82.26-28.871 82.26-73.166 0-44.69-40.34-68.024-110.339-68.024h-128.93zm196.949 71.978c0 41.527-22.93 68.42-66.042 68.42h-50.622V23.174h50.622c43.112 0 66.042 26.498 66.042 68.024zm18.59 147.913c0 46.668-24.91 75.934-77.909 75.934h-57.345V163.573h57.345c52.999 0 77.909 28.87 77.909 75.538zm136.06-215.937h39.15v-3.955h-119.43v3.955h39.15v291.871h-39.15V319H1250c76.33 0 123.39-29.662 123.39-91.358 0-51.018-47.45-75.934-123.39-75.934h-53.39V23.174zm302.15 291.871h-39.15V23.174h39.15v-3.955h-119.43v3.955h39.15v291.871h-39.15V319h119.43v-3.955zm-170.85-79.889c0 47.854-24.91 79.889-77.91 79.889h-53.39V155.663H1250c53 0 77.91 31.639 77.91 79.493zM1506.17 319h241.65l28.08-96.499h-2.77l-62.09 85.425c-3.96 5.142-7.52 7.119-15.82 7.119h-108.76V167.528h58.13c3.96 0 5.54.395 7.91 5.932l22.55 48.645h2.37v-113.11h-2.37l-22.55 48.645c-2.37 5.537-3.95 5.933-7.91 5.933h-58.13V23.174h87.8c8.7 0 11.47 1.186 15.42 7.119l51.41 81.471h2.38l-16.22-92.545h-221.08v3.955h39.16v291.871h-39.16V319zm525.38 1.582c-70 0-120.23-73.166-120.23-164.524 0-99.267 66.05-141.585 118.25-141.585 51.41 0 94.52 29.662 122.21 119.438h2.37l-21.75-121.81h-2.38l-18.58 21.356c-20.57-15.029-50.63-22.543-81.87-22.543-99.66 0-166.5 70.792-166.5 156.614 0 96.499 76.33 156.613 168.48 156.613 31.24 0 61.3-7.514 81.86-22.543l18.59 21.357h2.37l21.76-121.811h-2.38c-27.68 89.776-70.79 119.438-122.2 119.438zM2241.83 319h127.35v-3.955h-43.11V23.174h73.96c8.3 0 8.7 0 11.86 7.514l35.99 88.194h2.37L2438.39.632h-2.37l-29.67 18.587h-201.7L2174.99.631h-2.37l-11.87 118.251h2.38l35.99-88.194c3.16-7.514 3.56-7.514 11.86-7.514h73.96v291.871h-43.11V319zm450.21-295.826h32.83v-3.955h-74.35v3.955h36.38l-89.38 183.507h-1.98l-94.91-183.507h36.78v-3.955h-114.7v3.955h32.83l119.83 228.593 14.24-28.871-26.89 55.369c-55.37-3.56-70.4 9.887-70.4 25.706 0 11.865 11.07 20.17 25.71 20.17 18.19 0 30.45-6.327 43.9-34.012l130.11-266.955zm-26.5 384.416h2.37l39.55-81.471c3.17-6.724 6.73-7.119 15.43-7.119h179.94c8.71 0 12.27.395 15.43 7.119l39.55 81.471h2.37l-4.35-92.545h-38.76V23.174h39.16v-3.955h-240.86v3.955h39.16c-1.19 115.878-9.1 225.033-45.48 291.871h-39.16l-4.35 92.545zm94.13-384.416h116.27v291.871h-161.75c35.59-66.047 43.1-175.202 45.48-291.871zM2964.02 319h241.64l28.08-96.499h-2.77l-62.09 85.425c-3.96 5.142-7.52 7.119-15.82 7.119H3044.3V167.528h58.14c3.95 0 5.53.395 7.91 5.932l22.54 48.645h2.37v-113.11h-2.37l-22.54 48.645c-2.38 5.537-3.96 5.933-7.91 5.933h-58.14V23.174h87.8c8.7 0 11.47 1.186 15.42 7.119l51.42 81.471h2.37l-16.22-92.545h-221.07v3.955h39.15v291.871h-39.15V319zm390.34-3.955h-39.15V175.042h155.82v140.003h-39.15V319h119.44v-3.955h-39.16V23.174h39.16v-3.955h-119.44v3.955h39.15v130.907h-155.82V23.174h39.15v-3.955h-119.43v3.955h39.15v291.871h-39.15V319h119.43v-3.955zM3631.91 319h127.35v-3.955h-43.11V23.174h73.96c8.3 0 8.7 0 11.86 7.514l35.99 88.194h2.38L3828.47.632h-2.37l-29.66 18.587h-201.7L3565.08.631h-2.38l-11.86 118.251h2.37l35.99-88.194c3.16-7.514 3.56-7.514 11.87-7.514h73.95v291.871h-43.11V319zm289.25-295.826h39.15v-3.955h-119.43v3.955h39.15v291.871h-39.15V319h133.67c76.33 0 123.39-29.662 123.39-91.358 0-51.018-47.45-75.934-123.39-75.934h-53.39V23.174zm302.16 291.871h-39.16V23.174h39.16v-3.955h-119.44v3.955h39.15v291.871h-39.15V319h119.44v-3.955zm-170.86-79.889c0 47.854-24.91 79.889-77.91 79.889h-53.39V155.663h53.39c53 0 77.91 31.639 77.91 79.493z" fill="#fff"/></svg><svg fill="none" viewBox="0 0 662 164" id="label3-1" xmlns="http://www.w3.org/2000/svg"><path d="M.918.058V2.18h21.02v156.696H.918V161h73.889c40.978 0 67.307-14.65 66.245-46.924-.849-26.54-28.451-36.732-55.841-38.006v-.212c22.718-4.247 44.163-15.5 44.163-39.28 0-23.993-21.657-36.52-59.238-36.52H.918zM106.655 38.7c0 22.294-12.314 36.732-35.458 36.732H44.02V2.181h27.177c23.144 0 35.458 14.226 35.458 36.52zm9.98 79.409c0 25.055-13.377 40.767-41.828 40.767H44.02v-81.32h30.787c28.451 0 41.828 15.499 41.828 40.553zM313.51 2.181h17.623V.058h-39.917V2.18h19.533L262.764 100.7h-1.062L210.744 2.181h19.747V.058h-61.575V2.18h17.623l64.335 122.724 7.644-15.5-14.439 29.726c-29.725-1.911-37.793 5.308-37.793 13.801 0 6.369 5.945 10.828 13.801 10.828 9.767 0 16.349-3.397 23.568-18.26L313.51 2.181zm71.12 156.696h-21.02V83.714h83.656v75.163h-21.02V161h64.122v-2.123h-21.02V2.181h21.02V.058h-64.122V2.18h21.02v70.28H363.61V2.18h21.02V.058h-64.122V2.18h21.02v156.696h-21.02V161h64.122v-2.123zm173.85 0h-21.021v-12.103l80.472-130.58v142.683H596.91V161h64.122v-2.123h-21.02V2.181h21.02V.058H596.91V2.18h21.021v8.705l-80.472 130.58V2.181h21.021V.058h-64.123V2.18h21.021v156.696h-21.021V161h64.123v-2.123z" fill="#404040"/></svg><svg fill="none" viewBox="0 0 1121 174" id="label3-2" xmlns="http://www.w3.org/2000/svg"><path d="M87.032 173.76c45.863 0 86.417-33.759 86.417-84.08 0-50.11-40.554-84.081-86.417-84.081C41.17 5.599.617 39.359.617 89.679c0 50.109 40.554 84.081 86.416 84.081zm6.795-2.76c-43.527 0-69.855-50.533-69.855-96.395 0-43.952 27.178-66.246 56.266-66.246 43.527 0 69.855 50.533 69.855 96.396 0 43.951-27.178 66.245-56.266 66.245zm123.611 0h68.369v-2.123h-23.144V12.181h39.705c4.459 0 4.671 0 6.37 4.034l19.321 47.349h1.274L322.964.078h-1.274l-15.925 9.98H197.48L181.555.078h-1.274l-6.369 63.486h1.273l19.322-47.349c1.699-4.034 1.911-4.034 6.37-4.034h39.705v156.696h-23.144V171zm175.883-2.123h-21.02V89.68L462.114 171h33.335l-93.423-84.505h-29.725l91.087-74.314h24.63v-2.123h-52.02v2.123h23.356L372.301 83.31V12.18h21.02v-2.123h-64.122v2.123h21.02v156.696h-21.02V171h64.122v-2.123zM488.327 171h68.368v-2.123h-25.266V12.181h34.821c21.02 0 36.307 16.561 36.307 40.554 0 23.993-15.287 40.342-36.307 40.342h-27.815V95.2h28.239c32.274 0 59.876-16.349 59.876-44.164 0-34.609-33.972-40.978-62.636-40.978h-75.587v2.123h21.02v156.696h-21.02V171zM667.965 12.181h21.02v-2.123h-64.122v2.123h21.02v156.696h-21.02V171h71.766c40.979 0 66.245-15.924 66.245-49.047 0-27.39-25.479-40.766-66.245-40.766h-28.664V12.18zm162.216 156.696h-21.02V12.181h21.02v-2.123h-64.122v2.123h21.02v156.696h-21.02V171h64.122v-2.123zm-91.724-42.89c0 25.691-13.377 42.89-41.828 42.89h-28.664V83.31h28.664c28.451 0 41.828 16.986 41.828 42.677zM873.439 171h68.369v-2.123h-23.144V12.181h39.705c4.459 0 4.671 0 6.37 4.034l19.321 47.349h1.274L978.965.078h-1.274l-15.925 9.98H853.481L837.556.078h-1.274l-6.369 63.486h1.273l19.322-47.349c1.699-4.034 1.911-4.034 6.37-4.034h39.705v156.696h-23.144V171zm186.411 0h60.3v-2.123h-17.63l-60.72-158.82h-22.72l8.71 22.932-53.297 135.888H956.87V171h39.917v-2.123h-19.534l22.927-58.39h57.12l22.29 58.39h-19.74V171zm-55.21-71.766l24.42-62.636 23.99 62.636h-48.41z" fill="#404040"/></svg><svg fill="none" viewBox="0 0 1101 169" id="label3-3-1" xmlns="http://www.w3.org/2000/svg"><path d="M.381 5.058V7.18h21.02v156.696H.382V166h73.89c40.978 0 67.307-14.65 66.245-46.924-.849-26.54-28.452-36.732-55.841-38.006v-.212c22.718-4.247 44.163-15.5 44.163-39.28 0-23.993-21.657-36.52-59.239-36.52H.381zM106.12 43.7c0 22.294-12.315 36.732-35.458 36.732H43.483V7.181h27.178c23.143 0 35.458 14.226 35.458 36.52zm9.98 79.409c0 25.055-13.377 40.767-41.829 40.767H43.483v-81.32h30.788c28.451 0 41.828 15.499 41.828 40.553zm117.633 45.65c45.862 0 86.416-33.759 86.416-84.08 0-50.11-40.554-84.081-86.416-84.081-45.863 0-86.417 33.76-86.417 84.08 0 50.109 40.554 84.081 86.417 84.081zm6.794-2.76c-43.527 0-69.855-50.533-69.855-96.395 0-43.952 27.178-66.246 56.266-66.246 43.527 0 69.855 50.533 69.855 96.396 0 43.951-27.178 66.245-56.266 66.245zm83.916 0h129.731l15.075-51.807h-1.486l-33.335 45.862c-2.124 2.76-4.035 3.822-8.493 3.822h-58.39V84.68h31.212c2.123 0 2.973.212 4.247 3.184l12.102 26.116h1.274V53.255h-1.274l-12.102 26.116c-1.274 2.973-2.124 3.185-4.247 3.185h-31.212V7.181h47.136c4.672 0 6.158.637 8.281 3.822l27.602 43.739h1.274l-8.705-49.684h-118.69V7.18h21.021v156.696h-21.021V166zm209.565-2.123h-21.02V88.714h83.656v75.163h-21.02V166h64.122v-2.123h-21.02V7.181h21.02V5.058h-64.122V7.18h21.02v70.28h-83.656V7.18h21.02V5.058h-64.122V7.18h21.02v156.696h-21.02V166h64.122v-2.123zm173.849 0h-21.02V88.714h83.656v75.163h-21.02V166h64.122v-2.123h-21.02V7.181h21.02V5.058h-64.122V7.18h21.02v70.28h-83.656V7.18h21.02V5.058h-64.122V7.18h21.02v156.696h-21.02V166h64.122v-2.123zM906.123 166h60.3v-2.123H948.8L888.075 5.057h-22.718l8.705 22.932-53.294 135.888h-17.623V166h39.918v-2.123h-19.534l22.931-58.39h57.115l22.294 58.39h-19.746V166zm-55.204-71.766l24.417-62.636 23.993 62.636h-48.41zM1100.55 166v-2.123h-21.02V7.181h21.02V5.058h-61.78c-39.494 0-64.124 11.678-64.124 42.465 0 22.081 16.774 36.52 48.624 39.705v.636c-7.01 2.76-17.41 13.165-28.241 25.055L946.619 166h29.726l70.495-77.286h10.61v75.163h-25.26V166h68.36zm-43.1-79.41h-18.68c-27.6 0-40.131-16.986-40.131-39.704 0-22.719 12.531-39.705 40.131-39.705h18.68v79.41z" fill="#404040"/></svg><svg fill="none" viewBox="0 0 1051 214" id="label3-3-2" xmlns="http://www.w3.org/2000/svg"><path d="M65.04 163.877H44.02V84.68L133.833 166h33.335L73.745 81.495H44.02L135.107 7.18h24.63V5.058h-52.02V7.18h23.356L44.02 78.31V7.18h21.02V5.058H.918V7.18h21.02v156.696H.918V166H65.04v-2.123zM248.585 166h60.3v-2.123h-17.623L230.537 5.057h-22.719l8.706 22.932-53.294 135.888h-17.623V166h39.917v-2.123H165.99l22.931-58.39h57.116l22.294 58.39h-19.746V166zM193.38 94.234l24.418-62.636 23.992 62.636h-48.41zm226.697 73.889h-21.02v-20.595c48.622-1.274 87.053-26.329 87.053-62.848 0-36.52-38.431-61.575-87.053-62.849V2.934h21.02V.811h-64.122v2.123h21.02v18.897c-48.622 1.274-86.841 26.329-86.841 62.849 0 36.519 38.219 61.574 86.841 62.848v20.595h-21.02v2.123h64.122v-2.123zM376.975 24.167V144.98c-35.883-2.76-62.636-26.965-62.636-67.944 0-33.76 26.116-52.869 62.636-52.869zm84.718 67.944c0 33.76-25.904 52.869-62.636 53.081V24.379c35.67 2.973 62.636 26.965 62.636 67.732zM486.802 166h129.73l15.075-51.807h-1.486l-33.335 45.862c-2.123 2.76-4.034 3.822-8.493 3.822h-58.389V84.68h31.211c2.124 0 2.973.212 4.247 3.184l12.102 26.116h1.274V53.255h-1.274l-12.102 26.116c-1.274 2.973-2.123 3.185-4.247 3.185h-31.211V7.181h47.136c4.671 0 6.157.637 8.28 3.822l27.603 43.739h1.274l-8.706-49.684H486.802V7.18h21.02v156.696h-21.02V166zm131.681 47.561h1.274l21.232-43.739c1.699-3.61 3.61-3.822 8.281-3.822h96.608c4.671 0 6.582.212 8.28 3.822l21.233 43.739h1.274l-2.336-49.684h-20.807V7.181h21.02V5.058H645.236V7.18h21.02c-.637 62.211-4.884 120.813-24.417 156.696h-21.021l-2.335 49.684zm50.533-206.38h62.424v156.696h-86.841c19.109-35.459 23.143-94.06 24.417-156.696zM778.723 166h68.369v-2.123h-25.267V7.181h34.822c21.02 0 36.307 16.561 36.307 40.554 0 23.993-15.287 40.342-36.307 40.342h-27.815V90.2h28.239c32.274 0 59.876-16.349 59.876-44.164 0-34.608-33.972-40.978-62.636-40.978h-75.588V7.18h21.021v156.696h-21.021V166zm211.796 0h60.301v-2.123h-17.62L972.472 5.057h-22.719l8.705 22.932-53.293 135.888h-17.623V166h39.917v-2.123h-19.534l22.931-58.39h57.115l22.299 58.39h-19.751V166zm-55.204-71.766l24.417-62.636 23.993 62.636h-48.41z" fill="#404040"/></svg><svg fill="none" viewBox="0 0 786 174" id="label3-4" xmlns="http://www.w3.org/2000/svg"><path d="M.52 171h43.527v-2.123H23.664l7.644-126.121 62.21 103.402h1.062l53.719-122.3 8.705 145.019h-21.02V171h64.122v-2.123h-21.02l-9.343-156.696h21.021v-2.123h-39.068L103.71 119.405 37.253 10.058H11.56l17.411 28.876-7.856 129.943H.52V171zm287.973 0h60.3v-2.123H331.17l-60.725-158.82h-22.719l8.706 22.932-53.294 135.888h-17.623V171h39.917v-2.123h-19.534l22.931-58.39h57.116l22.294 58.39h-19.746V171zm-55.205-71.766l24.418-62.636 23.992 62.636h-48.41zm164.919 74.526c38.643 0 62.211-14.65 62.211-47.561 0-27.602-25.479-38.855-49.897-39.917v-.212c20.384-3.822 39.493-16.349 39.493-41.616 0-25.479-19.109-38.855-51.17-38.855-11.891 0-23.993 3.61-30.575 9.13l-7.644-8.493h-1.274L348.31 63.564h1.274c15.075-38.007 26.329-56.054 49.26-56.054 18.684 0 28.451 15.287 28.451 39.068 0 23.568-10.616 38.855-30.362 38.855h-18.685v2.123h18.685c27.814 0 39.067 16.562 39.067 41.616 0 26.753-12.102 42.465-37.793 42.465-24.418 0-39.917-18.472-55.205-58.602h-1.274l11.041 60.088h1.274l7.644-8.493c7.643 4.034 22.506 9.13 36.52 9.13zm129.383-4.883h-21.02v-12.103l80.471-130.58v142.683h-21.02V171h64.122v-2.123h-21.02V12.181h21.02v-2.123h-64.122v2.123h21.02v8.705l-80.471 130.58V12.181h21.02v-2.123h-64.122v2.123h21.021v156.696h-21.021V171h64.122v-2.123zM673.488 171h68.368v-2.123h-23.143V12.181h39.705c4.458 0 4.671 0 6.369 4.034l19.322 47.349h1.274L779.013.078h-1.274l-15.924 9.98H653.529L637.605.078h-1.274l-6.37 63.486h1.274l19.321-47.349c1.699-4.034 1.911-4.034 6.37-4.034h39.705v156.696h-23.143V171z" fill="#404040"/></svg><svg fill="none" viewBox="0 0 1443 214" id="label3-5" xmlns="http://www.w3.org/2000/svg"><path d="M65.04 163.877H44.02v-12.103l80.471-130.58v142.683h-21.02V166h64.122v-2.123h-21.02V7.181h21.02V5.058h-64.122V7.18h21.02v8.705L44.02 146.466V7.181h21.02V5.058H.918V7.18h21.02v156.696H.918V166H65.04v-2.123zm94.514 49.684h1.274l21.233-43.739c1.698-3.61 3.609-3.822 8.28-3.822h96.608c4.671 0 6.582.212 8.281 3.822l21.232 43.739h1.274l-2.335-49.684h-20.808V7.181h21.02V5.058H186.307V7.18h21.02c-.637 62.211-4.883 120.813-24.417 156.696h-21.02l-2.336 49.684zm50.534-206.38h62.423v156.696H185.67c19.109-35.459 23.144-94.06 24.418-156.696zM319.795 166h68.368v-2.123h-25.266V7.181h34.821c21.02 0 36.308 16.561 36.308 40.554 0 23.993-15.288 40.342-36.308 40.342h-27.815V90.2h28.24c32.273 0 59.875-16.349 59.875-44.164 0-34.608-33.972-40.978-62.636-40.978h-75.587V7.18h21.02v156.696h-21.02V166zm200.234-2.123h-21.02v-12.103l80.471-130.58v142.683h-21.02V166h64.122v-2.123h-21.02V7.181h21.02V5.058H558.46V7.18h21.02v8.705l-80.471 130.58V7.181h21.02V5.058h-64.122V7.18h21.02v156.696h-21.02V166h64.122v-2.123zm197.314 2.972c-37.581 0-64.546-39.28-64.546-88.327 0-53.293 35.458-76.012 63.485-76.012 27.602 0 50.745 15.924 65.608 64.122h1.274L771.486 1.236h-1.274L760.233 12.7C749.192 4.633 733.055.6 716.282.6c-53.506 0-89.389 38.006-89.389 84.08 0 51.808 40.979 84.081 90.45 84.081 16.774 0 32.911-4.034 43.952-12.102l9.979 11.465h1.274l11.678-65.396h-1.274c-14.863 48.198-38.006 64.122-65.609 64.122zm161.729 1.911c45.862 0 86.416-33.759 86.416-84.08 0-50.11-40.554-84.081-86.416-84.081-45.862 0-86.416 33.76-86.416 84.08 0 50.109 40.554 84.081 86.416 84.081zm6.794-2.76c-43.526 0-69.855-50.533-69.855-96.395 0-43.952 27.178-66.246 56.267-66.246 43.526 0 69.854 50.533 69.854 96.396 0 43.951-27.177 66.245-56.266 66.245zM969.783 5.058V7.18h21.02v156.696h-21.02V166h73.887c40.98 0 67.31-14.65 66.25-46.924-.85-26.54-28.45-36.732-55.84-38.006v-.212c22.71-4.247 44.16-15.5 44.16-39.28 0-23.993-21.66-36.52-59.24-36.52h-69.217zM1075.52 43.7c0 22.294-12.31 36.732-35.46 36.732h-27.18V7.181h27.18c23.15 0 35.46 14.226 35.46 36.52zm9.98 79.409c0 25.055-13.38 40.767-41.83 40.767h-30.79v-81.32h30.79c28.45 0 41.83 15.499 41.83 40.553zm93.64 40.767h-21.02v-12.103l80.47-130.58v142.683h-21.02V166h64.12v-2.123h-21.02V7.181h21.02V5.058h-64.12V7.18h21.02v8.705l-80.47 130.58V7.181h21.02V5.058h-64.12V7.18h21.02v156.696h-21.02V166h64.12v-2.123zm122.97-115.505c0 34.609 20.8 47.985 58.17 47.985 12.74 0 25.69-1.698 39.07-7.643v75.163h-21.02V166h64.12v-2.123h-21.02V7.181h21.02V5.058h-64.12V7.18h21.02v79.41c-13.8 6.37-26.33 7.643-32.91 7.643-24.63 0-42.25-7.856-42.25-45.862V7.181h21.02V5.058h-64.12V7.18h21.02v41.191z" fill="#404040"/></svg><svg fill="none" viewBox="0 0 1431 216" id="label3-6" xmlns="http://www.w3.org/2000/svg"><path d="M91.067 211.849c-37.582 0-64.547-39.28-64.547-88.327 0-53.293 35.458-76.012 63.485-76.012 27.602 0 50.746 15.924 65.608 64.122h1.274L145.21 46.236h-1.274l-9.98 11.465C122.915 49.633 106.779 45.6 90.005 45.6 36.499 45.599.616 83.605.616 129.68c0 51.807 40.979 84.08 90.45 84.08 16.774 0 32.911-4.034 43.952-12.102l9.979 11.465h1.274l11.678-65.396h-1.274c-14.863 48.198-38.006 64.122-65.608 64.122zM251.976 211h60.3v-2.123h-17.623l-60.725-158.82h-22.719l8.706 22.932-53.294 135.888h-17.623V211h39.917v-2.123h-19.534l22.931-58.39h57.116l22.294 58.39h-19.746V211zm-55.205-71.766l24.418-62.636 23.992 62.636h-48.41zM387.806 34.77c21.444 0 35.458-13.164 35.458-33.972h-18.26c0 20.171-2.123 31.85-17.198 31.85-14.651 0-18.473-11.679-18.473-31.85h-18.26c0 18.473 11.678 33.972 36.733 33.972zm-20.808 174.107h-21.02v-12.103l80.471-130.58v142.683h-21.02V211h64.122v-2.123h-21.02V52.181h21.02v-2.123h-64.122v2.123h21.02v8.705l-80.471 130.58V52.181h21.02v-2.123h-64.122v2.123h21.02v156.696h-21.02V211h64.122v-2.123zm233.222 4.246H579.2v-20.595c48.622-1.274 87.053-26.329 87.053-62.848 0-36.52-38.431-61.575-87.053-62.849V47.934h21.02v-2.123h-64.122v2.123h21.02v18.897c-48.622 1.274-86.841 26.329-86.841 62.849 0 36.519 38.219 61.574 86.841 62.848v20.595h-21.02v2.123h64.122v-2.123zM557.118 69.167V189.98c-35.883-2.76-62.636-26.965-62.636-67.944 0-33.76 26.116-52.869 62.636-52.869zm84.718 67.944c0 33.76-25.904 52.869-62.636 53.081V69.379c35.671 2.973 62.636 26.965 62.636 67.732zm149.246-84.93h17.623v-2.123h-39.917v2.123h19.534L740.336 150.7h-1.061l-50.958-98.519h19.746v-2.123h-61.574v2.123h17.623l64.334 122.724 7.644-15.5-14.438 29.726c-29.726-1.911-37.794 5.308-37.794 13.801 0 6.369 5.945 10.828 13.801 10.828 9.767 0 16.349-3.397 23.568-18.26l69.855-143.319zm23.694 148.415c11.466-24.842 15.712-80.471 16.986-148.415h62.211v156.696h-21.02V211h64.122v-2.123h-21.02V52.181h21.02v-2.123H807.769v2.123h21.021c-.425 50.958-2.973 104.039-12.74 136.737-4.246-1.061-8.281-1.486-13.164-1.486-15.287 0-20.383 7.219-20.383 14.013 0 7.856 6.369 12.315 13.801 12.315 7.644 0 13.801-2.76 18.472-13.164zm148.553 0c11.465-24.842 15.712-80.471 16.986-148.415h62.215v156.696h-21.02V211h64.12v-2.123h-21.02V52.181h21.02v-2.123H956.322v2.123h21.02c-.424 50.958-2.972 104.039-12.739 136.737-4.247-1.061-8.281-1.486-13.164-1.486-15.288 0-20.383 7.219-20.383 14.013 0 7.856 6.369 12.315 13.801 12.315 7.643 0 13.801-2.76 18.472-13.164zm190.381 8.281h-21.02v-12.103l80.47-130.58v142.683h-21.02V211h64.12v-2.123h-21.02V52.181h21.02v-2.123h-64.12v2.123h21.02v8.705l-80.47 130.58V52.181h21.02v-2.123h-64.12v2.123h21.02v156.696h-21.02V211h64.12v-2.123zm170.74 0h-21.02v-75.163h83.65v75.163h-21.02V211h64.13v-2.123h-21.02V52.181h21.02v-2.123h-64.13v2.123h21.02v70.28h-83.65v-70.28h21.02v-2.123h-64.12v2.123h21.02v156.696h-21.02V211h64.12v-2.123z" fill="#404040"/></svg><svg fill="none" viewBox="0 0 173 149" id="logo" xmlns="http://www.w3.org/2000/svg"><path d="M121.213 36.281c-10.708 0-20.665 3.32-29.017 8.887l5.996-30.409h46.041L162.757.947H86.842l-14.24 71.632H87.056c5.782-12.956 18.845-22.057 34.05-22.057 20.558 0 37.261 16.703 37.261 37.261 0 20.558-16.596 37.261-37.154 37.261v14.241c28.374-.107 51.395-23.128 51.395-51.502.107-28.481-23.021-51.502-51.395-51.502z" fill="#fff"/><path d="M121.533 75.684v6.425l3.427-3.641-.75-2.784h-2.677zM125.817 81.466l-2.891 2.89h3.747l-.856-2.89zM121.533 97.099l6.425-6.853h-6.425v6.853z" fill="#fff"/><path d="M121.32 64.013c-13.277 0-24.092 10.815-24.092 24.092s10.815 24.091 24.092 24.091 24.091-10.814 24.091-24.091c0-13.277-10.814-24.092-24.091-24.092zm11.242 41.652l-.428-1.606-3.105-11.029-7.602 7.817v8.03h-.214c-11.564 0-20.88-9.422-20.88-20.88 0-8.35 4.926-15.525 11.993-18.951v3.64c-5.247 3.105-8.78 8.78-8.78 15.312 0 8.887 6.638 16.275 15.204 17.453V90.246h-2.463v-5.889h2.463v-8.78h-1.927V67.44c1.392-.321 2.891-.428 4.39-.428 11.563 0 20.879 9.422 20.879 20.879.107 7.495-3.748 14.026-9.53 17.774z" fill="#fff"/><path d="M121.322 70.33c-.535 0-1.071 0-1.606.107v2.356h6.96l3.212 11.564h2.891v5.889h-1.285l2.677 9.743c2.998-3.105 4.711-7.388 4.711-11.992.107-9.743-7.816-17.667-17.56-17.667zM79.132.84H18.957L.433 14.76h61.888L41.442 119.904h14.134L79.132.84zM31.485 135.217l.642 2.891h.214l.536-2.998 3.426-9.851h4.604l-6.21 15.633c-.428 1.177-.964 2.248-1.392 3.212-.428.856-.964 1.606-1.392 2.248-.535.643-1.07 1.071-1.713 1.285-.643.321-1.392.428-2.249.428-.75 0-1.285 0-1.713-.107a4.06 4.06 0 01-1.392-.642l1.178-3.533c.321.214.75.321.964.321.32 0 .642.107.963.107.964 0 1.713-.75 2.142-2.356l-8.459-16.489h5.247l4.604 9.851zM106.593 135.217l.643 2.891h.214l.535-2.998 3.426-9.851h4.605l-6.211 15.633c-.428 1.177-.963 2.248-1.392 3.212-.428.856-.963 1.606-1.392 2.248-.535.643-1.07 1.071-1.713 1.285-.642.321-1.392.428-2.248.428-.75 0-1.285 0-1.713-.107a4.056 4.056 0 01-1.392-.642l1.177-3.533c.322.214.75.321.964.321.321 0 .643.107.964.107.963 0 1.713-.75 2.141-2.356l-8.459-16.489h5.247l4.604 9.851zM55.36 129.113h-8.673v18.631H42.19v-22.593h13.17v3.962zM70.136 138.321H61.89v9.423h-4.39v-22.593h4.39v9.209h8.245v-9.209h4.39v22.593h-4.39v-9.423zM94.551 129.113h-6.638v18.631h-4.39v-18.631h-6.639v-3.962h17.667v3.962z" fill="#fff"/></svg><svg fill="none" viewBox="0 0 43 43" id="logo-side" xmlns="http://www.w3.org/2000/svg"><path d="M43 21.5C43 33.374 33.374 43 21.5 43S0 33.374 0 21.5 9.626 0 21.5 0 43 9.626 43 21.5z" fill="#404040"/><path fill-rule="evenodd" clip-rule="evenodd" d="M18.13 3.546c-.59.113-.603.195-.603 3.703v3.588h1.605v7.48H17.26V23.659h1.872v12.889l-.742-.148c-.409-.082-1.43-.405-2.27-.72-.84-.313-2.26-1.058-3.155-1.656-.896-.597-2.241-1.82-2.991-2.72-.75-.899-1.706-2.366-2.125-3.26-.42-.895-.939-2.458-1.154-3.473-.215-1.016-.392-2.388-.392-3.049s.174-2.024.388-3.028c.212-1.004.675-2.447 1.027-3.205.352-.76 1.183-2.11 1.846-3.003.664-.892 1.938-2.154 2.831-2.805L14.02 8.3l.015-1.67c.009-.918-.095-1.669-.23-1.669-.134 0-1.135.595-2.224 1.322-1.088.727-2.54 1.921-3.227 2.654-.686.733-1.711 2.05-2.278 2.925-.567.876-1.366 2.596-1.777 3.824a17.352 17.352 0 00-.881 4.662c-.076 1.361.006 3.243.186 4.274.176 1.014.63 2.624 1.006 3.58.377.954 1.217 2.543 1.867 3.53.65.986 1.887 2.428 2.75 3.205.86.776 2.228 1.81 3.038 2.299.81.488 2.351 1.192 3.425 1.565 1.114.387 2.847.74 4.035.82l2.082.143.005-3.444.005-3.444 3.18-3.339c2.273-2.387 3.225-3.225 3.34-2.938.088.22.795 2.666 1.572 5.435l1.412 5.035 1.327-1.049c.73-.577 1.958-1.738 2.727-2.58.779-.852 1.875-2.501 2.472-3.719.59-1.203 1.263-2.909 1.496-3.79.26-.983.422-2.689.42-4.408-.003-1.677-.173-3.45-.424-4.408-.231-.881-.92-2.624-1.533-3.873-.894-1.824-1.564-2.72-3.407-4.549-1.592-1.58-2.885-2.585-4.22-3.28-1.06-.55-2.854-1.238-3.988-1.528-1.461-.373-2.85-.516-4.761-.49-1.485.02-2.97.088-3.3.152zm6.818 3.15c.919.217 2.483.787 3.477 1.266 1.21.583 2.432 1.49 3.7 2.741 1.04 1.029 2.275 2.549 2.745 3.379.469.83 1.092 2.441 1.384 3.582.292 1.14.529 2.866.527 3.834-.002.968-.187 2.535-.41 3.483-.224.947-.769 2.45-1.21 3.339-.443.889-1.138 2.02-1.546 2.514l-.742.897-1.021-3.702c-.562-2.036-1.079-3.852-1.149-4.036-.077-.202.096-.334.436-.334.536 0 .564-.133.564-2.671v-2.671H29.12l-1.122-4.074c-.618-2.24-1.246-4.525-1.396-5.076l-.274-1.001H20.47v-1.87l1.405.004c.772.002 2.155.18 3.074.397zm-.625 5.43c.242 1.15.236 1.165-1.136 2.535l-1.38 1.379v-5.234l1.137.082c1.105.08 1.143.114 1.38 1.239zm1.743 5.99c.011.11-.606.2-1.371.2h-1.392l1.053-1.077 1.053-1.077.318.877c.175.482.328.967.339 1.077zm-1.284 7.911c-1.19 1.303-2.347 2.52-2.57 2.704-.357.297-.405.017-.405-2.368v-2.704h5.14l-2.165 2.368z" fill="#fff"/></svg><svg fill="none" viewBox="0 0 1920 441" id="o-bottom" xmlns="http://www.w3.org/2000/svg"><path d="M1929.5 278l27.5-4V40H0v215.5L85 282l-3 3.5 66.5 12.5 51.5 15 16 9h12.5l22.5 4 15.5 3h10l3-3H310l20-2 4 5 4.5 5.5 11 16.5 14.5 5.5h7.5l9.5-3h9.5l10 3h8.5c-2.833 2-1.7 9.6 25.5 24 10.4-20.4 28-33.833 35.5-38h35l66.5-4 16 2h19l8-4.5 23.5-4.5 29.5-2.5v-3c3-1 11.4-3.5 21-5.5 73.2-4.8 125.167-34.667 142-49l22-3.5c4.167 0 14.1.3 20.5 1.5 7 12 13 11 16.5 10 27.6-10 45.834-8.167 51.5-6l-2.5 2.5 34.5 1.5 3 3-5 13.5h37.5v3.5c8.5-2.5 27.2-8.2 34-11 6.8-2.8 1.5-5.833-2-7h4.5l8-2h11.5l8-2.5c9.5.833 32.9 2 50.5 0s24.67 5.833 26 10c2.5 3.5 10.8 14 24 28 16 15.6 32 1.833 38-7 5.17-4.667 18.3-13 29.5-9 16 27.6 27.67 22.167 31.5 16l2.5 3.5 3.5 3.5 4.5-5 7-9 5-6h8.5l7.5-4.5 5.5-8 7-6.5 16-8 12-5.5 5-2 6.5-1h5.5l6 3v-3l1.5-5 3-2 6-1h7.5l32.5-9.5 16.5-4.5h5l4.5 4.5h33.5l4.5 3c2.83.667 8.7 2 9.5 2 .8 0 11.33 1.333 16.5 2l10.5 2.5 3.5 3c3.33 2 10.2 6 11 6 .8 0 7.67 1.333 11 2l32.5 3 58 1.5 5.5 4.5 8 6 14.5 8 24.5 8.5 28 11.5 3.5 4.5h9.5l3-4.5 8-13c5.33-6.5 19.6-21.6 34-30-7.6 9.2 1.5 6.833 7 4.5l18-11c5-1.833 19.2-2.2 36 11s33 14.833 39 14l34.5-5v1.5l15.5-4.5z" fill="#003F78"/><g filter="url(#axfilter0_d_804_1059)"><path d="M27.5 248L0 244V10h1957v215.5l-85 26.5 3 3.5-66.5 12.5-51.5 15-16 9h-12.5l-22.5 4-15.5 3h-10l-3-3H1647l-20-2-4 5-4.5 5.5-11 16.5-14.5 5.5h-7.5l-9.5-3h-9.5l-10 3h-8.5c2.83 2 1.7 9.6-25.5 24-10.4-20.4-28-33.833-35.5-38h-35l-66.5-4-16 2h-19l-8-4.5-23.5-4.5-29.5-2.5v-3c-3-1-11.4-3.5-21-5.5-73.2-4.8-125.17-34.667-142-49l-22-3.5c-4.17 0-14.1.3-20.5 1.5-7 12-13 11-16.5 10-27.6-10-45.83-8.167-51.5-6l2.5 2.5-34.5 1.5-3 3 5 13.5h-37.5v3.5c-8.5-2.5-27.2-8.2-34-11-6.8-2.8-1.5-5.833 2-7H912l-8-2h-11.5l-8-2.5c-9.5.833-32.9 2-50.5 0s-24.666 5.833-26 10c-2.5 3.5-10.8 14-24 28-16 15.6-32 1.833-38-7-5.166-4.667-18.3-13-29.5-9-16 27.6-27.666 22.167-31.5 16l-2.5 3.5-3.5 3.5-4.5-5-7-9-5-6H654l-7.5-4.5-5.5-8-7-6.5-16-8-12-5.5-5-2-6.5-1H589l-6 3v-3l-1.5-5-3-2-6-1H565l-32.5-9.5-16.5-4.5h-5l-4.5 4.5H473l-4.5 3c-2.833.667-8.7 2-9.5 2-.8 0-11.333 1.333-16.5 2l-10.5 2.5-3.5 3c-3.333 2-10.2 6-11 6-.8 0-7.666 1.333-11 2l-32.5 3-58 1.5-5.5 4.5-8 6-14.5 8-24.5 8.5-28 11.5-3.5 4.5h-9.5l-3-4.5-8-13c-5.333-6.5-19.6-21.6-34-30 7.6 9.2-1.5 6.833-7 4.5l-18-11c-5-1.833-19.2-2.2-36 11s-33 14.833-39 14L43 251v1.5L27.5 248z" fill="#003F78"/></g><defs><filter id="axfilter0_d_804_1059" x="-50" y="0" width="2057" height="440.5" filterUnits="userSpaceOnUse" color-interpolation-filters="sRGB"><feFlood flood-opacity="0" result="BackgroundImageFix"/><feColorMatrix in="SourceAlpha" values="0 0 0 0 0 0 0 0 0 0 0 0 0 0 0 0 0 0 127 0" result="hardAlpha"/><feOffset dy="40"/><feGaussianBlur stdDeviation="25"/><feComposite in2="hardAlpha" operator="out"/><feColorMatrix values="0 0 0 0 0 0 0 0 0 0 0 0 0 0 0 0 0 0 0.11 0"/><feBlend in2="BackgroundImageFix" result="effect1_dropShadow_804_1059"/><feBlend in="SourceGraphic" in2="effect1_dropShadow_804_1059" result="shape"/></filter></defs></svg><svg fill="none" viewBox="0 0 1920 441" id="p-bottom" xmlns="http://www.w3.org/2000/svg"><g filter="url(#ayfilter0_d_582_1709)"><path d="M1892.5 248l27.5-4V10H-37v215.5L48 252l-3 3.5 66.5 12.5 51.5 15 16 9h12.5l22.5 4 15.5 3h10l3-3H273l20-2 4 5 4.5 5.5 11 16.5 14.5 5.5h7.5l9.5-3h9.5l10 3h8.5c-2.833 2-1.7 9.6 25.5 24 10.4-20.4 28-33.833 35.5-38h35l66.5-4 16 2h19l8-4.5 23.5-4.5 29.5-2.5v-3c3-1 11.4-3.5 21-5.5 73.2-4.8 125.167-34.667 142-49l22-3.5c4.167 0 14.1.3 20.5 1.5 7 12 13 11 16.5 10 27.6-10 45.833-8.167 51.5-6l-2.5 2.5 34.5 1.5 3 3-5 13.5h37.5v3.5c8.5-2.5 27.2-8.2 34-11 6.8-2.8 1.5-5.833-2-7h4.5l8-2h11.5l8-2.5c9.5.833 32.9 2 50.5 0s24.67 5.833 26 10c2.5 3.5 10.8 14 24 28 16 15.6 32 1.833 38-7 5.17-4.667 18.3-13 29.5-9 16 27.6 27.67 22.167 31.5 16l2.5 3.5 3.5 3.5 4.5-5 7-9 5-6h8.5l7.5-4.5 5.5-8 7-6.5 16-8 12-5.5 5-2 6.5-1h5.5l6 3v-3l1.5-5 3-2 6-1h7.5l32.5-9.5 16.5-4.5h5l4.5 4.5h33.5l4.5 3c2.83.667 8.7 2 9.5 2 .8 0 11.33 1.333 16.5 2l10.5 2.5 3.5 3c3.33 2 10.2 6 11 6 .8 0 7.67 1.333 11 2l32.5 3 58 1.5 5.5 4.5 8 6 14.5 8 24.5 8.5 28 11.5 3.5 4.5h9.5l3-4.5 8-13c5.33-6.5 19.6-21.6 34-30-7.6 9.2 1.5 6.833 7 4.5l18-11c5-1.833 19.2-2.2 36 11s33 14.833 39 14l34.5-5v1.5l15.5-4.5z" fill="#11151A"/></g><defs><filter id="ayfilter0_d_582_1709" x="-87" y="0" width="2057" height="440.5" filterUnits="userSpaceOnUse" color-interpolation-filters="sRGB"><feFlood flood-opacity="0" result="BackgroundImageFix"/><feColorMatrix in="SourceAlpha" values="0 0 0 0 0 0 0 0 0 0 0 0 0 0 0 0 0 0 127 0" result="hardAlpha"/><feOffset dy="40"/><feGaussianBlur stdDeviation="25"/><feComposite in2="hardAlpha" operator="out"/><feColorMatrix values="0 0 0 0 0 0 0 0 0 0 0 0 0 0 0 0 0 0 0.11 0"/><feBlend in2="BackgroundImageFix" result="effect1_dropShadow_582_1709"/><feBlend in="SourceGraphic" in2="effect1_dropShadow_582_1709" result="shape"/></filter></defs></svg><svg viewBox="0 0 29 29" id="search" xmlns="http://www.w3.org/2000/svg"><path d="M25.822 12.926C25.822 5.8 20.029 0 12.91 0 5.793 0 0 5.8 0 12.926s5.793 12.926 12.91 12.926c3.08 0 5.927-1.094 8.145-2.917L27.113 29 29 27.11l-6.058-6.03a13 13 0 002.88-8.154zM12.91 23.2c-5.661 0-10.263-4.607-10.263-10.274C2.648 7.258 7.25 2.65 12.911 2.65c5.66 0 10.262 4.607 10.262 10.275 0 5.667-4.601 10.274-10.262 10.274z"/></svg><svg viewBox="0 0 23 19" id="share" xmlns="http://www.w3.org/2000/svg"><path d="M.6 19c-.014 0-.028 0-.042-.002a.443.443 0 01-.403-.379c-.602-4.542.57-8.766 3.215-11.593A11.518 11.518 0 017.761 4.12a15.983 15.983 0 015.822-.944V.437c0-.173.105-.33.267-.4a.46.46 0 01.484.076l8.518 7.498a.432.432 0 010 .647l-8.518 7.498a.46.46 0 01-.484.076.436.436 0 01-.267-.399v-3.13c-4.915-.16-10.353-.15-12.555 6.396-.06.18-.233.3-.427.3V19zM13.386 4.05c-3.94 0-7.163 1.225-9.351 3.563C1.923 9.87.82 13.103.902 16.676c2.839-5.576 8.509-5.387 13.145-5.232a.443.443 0 01.434.437v2.568l7.4-6.514-7.4-6.514v2.202a.43.43 0 01-.137.314.457.457 0 01-.328.122c-.212-.007-.422-.01-.63-.01z"/></svg><svg fill="none" viewBox="0 0 24 24" id="upload" xmlns="http://www.w3.org/2000/svg"><g clip-path="url(#bbclip0_445_1510)" fill="transparent" stroke="#404040" stroke-width="2" stroke-linecap="round" stroke-linejoin="round"><path d="M16 16l-4-4-4 4M12 12v9"/><path d="M20.39 18.39A5 5 0 0018 9h-1.26A8 8 0 103 16.3"/><path d="M16 16l-4-4-4 4"/></g><defs><clipPath id="bbclip0_445_1510"><path fill="#fff" d="M0 0h24v24H0z"/></clipPath></defs></svg><svg fill="none" viewBox="0 0 10 14" id="video" xmlns="http://www.w3.org/2000/svg"><circle opacity=".2" cx="2.5" cy="7.5" r="26" stroke="#1C1C1C"/><path d="M-12.4 16c-.014 0-.028 0-.042-.002-.21-.014-.377-.139-.403-.299-.602-3.585.57-6.92 3.215-9.152 1.21-1.017 2.714-1.803 4.391-2.294a19.89 19.89 0 015.822-.745V1.345c0-.137.105-.26.267-.315a.558.558 0 01.484.06l8.519 5.919a.316.316 0 01.147.255c0 .098-.054.19-.147.256l-8.52 5.92a.557.557 0 01-.483.059c-.162-.055-.267-.179-.267-.315v-2.471c-4.915-.126-10.353-.119-12.555 5.05-.06.141-.233.237-.427.237zM.386 4.197c-3.94 0-7.163.967-9.351 2.813-2.112 1.782-3.214 4.335-3.133 7.155 2.839-4.402 8.509-4.252 13.145-4.13.242.006.434.159.434.344v2.028l7.4-5.143-7.4-5.143v1.74c0 .093-.05.182-.137.247a.532.532 0 01-.328.097 24.696 24.696 0 00-.63-.008z" fill="#000"/><path d="M1 3v9" stroke="#000"/><path d="M-15-2H.616v22H-15V-2z" fill="#fff"/></svg><svg fill="none" viewBox="0 0 1920 1712" id="y4-2__bg" xmlns="http://www.w3.org/2000/svg"><g filter="url(#bdfilter0_d_9_1482)"><path d="M1913.54 1510.5l43.46-4V1279h-3093v209l134.34 26.5-4.74 3.5 105.101 12.5 81.395 15 25.288 9h19.756l35.56 4 24.498 3h15.805l4.741-3h48.205l31.609-2 6.322 5 7.112 5.5 17.386 16.5 22.917 5.5h11.853l15.015-3h15.014l15.805 3h13.435c-4.478 2-2.687 9.6 40.302 24 16.437-20.4 44.253-33.83 56.107-38h55.317l105.102-4 25.287 2h30.029l12.644-4.5 37.141-4.5 46.625-2.5v-3c4.741-1 18.017-3.5 33.19-5.5 115.69-4.8 197.823-34.67 224.428-49l34.77-3.5c6.586 0 22.285.3 32.4 1.5 11.064 12 20.546 11 26.078 10 43.621-10 72.439-8.17 81.395-6l-3.951 2.5 54.526 1.5 4.742 3-7.903 13.5h59.268v3.5c13.434-2.5 42.989-8.2 53.737-11 10.747-2.8 2.37-5.83-3.161-7h7.112l12.644-2h18.175l12.644-2.5c15.015.83 51.998 2 79.814 0 27.817-2 38.986 5.83 41.093 10 3.951 3.5 17.069 14 37.931 28 25.288 15.6 50.576 1.83 60.059-7 8.165-4.67 28.922-13 46.624-9 25.288 27.6 43.726 22.17 49.785 16l3.951 3.5 5.532 3.5 7.112-5 11.063-9 7.903-6h13.434l11.853-4.5 8.693-8 11.063-6.5 25.288-8 18.966-5.5 7.901-2 10.27-1h8.7l9.48 3v-3l2.37-5 4.74-2 9.48-1h11.86l51.36-9.5 26.08-4.5h7.9l7.12 4.5h52.94l7.11 3c4.48.67 13.75 2 15.02 2 1.26 0 17.91 1.33 26.08 2l16.59 2.5 5.53 3c5.27 2 16.12 6 17.39 6 1.26 0 12.12 1.33 17.38 2l51.37 3 91.67 1.5 8.69 4.5 12.64 6 22.92 8 38.72 8.5 44.26 11.5 5.53 4.5H1605.34l4.74-4.5 12.65-13c8.43-6.5 30.98-21.6 53.73-30-12.01 9.2 2.38 6.83 11.07 4.5l28.45-11c7.9-1.83 30.34-2.2 56.89 11 26.56 13.2 52.16 14.83 61.64 14l54.53-5v1.5l24.5-4.5z" fill="#3E171D"/></g><path fill="#3E171D" d="M0 0h1920v1279H0z"/><defs><filter id="bdfilter0_d_9_1482" x="-1195" y="1260" width="3211" height="452" filterUnits="userSpaceOnUse" color-interpolation-filters="sRGB"><feFlood flood-opacity="0" result="BackgroundImageFix"/><feColorMatrix in="SourceAlpha" values="0 0 0 0 0 0 0 0 0 0 0 0 0 0 0 0 0 0 127 0" result="hardAlpha"/><feOffset dy="40"/><feGaussianBlur stdDeviation="29.5"/><feComposite in2="hardAlpha" operator="out"/><feColorMatrix values="0 0 0 0 0 0 0 0 0 0 0 0 0 0 0 0 0 0 0.11 0"/><feBlend in2="BackgroundImageFix" result="effect1_dropShadow_9_1482"/><feBlend in="SourceGraphic" in2="effect1_dropShadow_9_1482" result="shape"/></filter></defs></svg><svg fill="none" viewBox="0 0 1920 1712" id="y4-2__bg-2" xmlns="http://www.w3.org/2000/svg"><g filter="url(#befilter0_d_15_1482)"><path d="M1913.54 1510.5l43.46-4V1279h-3093v209l134.34 26.5-4.74 3.5 105.101 12.5 81.395 15 25.288 9h19.756l35.56 4 24.498 3h15.805l4.741-3h48.205l31.609-2 6.322 5 7.112 5.5 17.386 16.5 22.917 5.5h11.853l15.015-3h15.014l15.805 3h13.435c-4.478 2-2.687 9.6 40.302 24 16.437-20.4 44.253-33.83 56.107-38h55.317l105.102-4 25.287 2h30.029l12.644-4.5 37.141-4.5 46.625-2.5v-3c4.741-1 18.017-3.5 33.19-5.5 115.69-4.8 197.823-34.67 224.428-49l34.77-3.5c6.586 0 22.285.3 32.4 1.5 11.064 12 20.546 11 26.078 10 43.621-10 72.439-8.17 81.395-6l-3.951 2.5 54.526 1.5 4.742 3-7.903 13.5h59.268v3.5c13.434-2.5 42.989-8.2 53.737-11 10.747-2.8 2.37-5.83-3.161-7h7.112l12.644-2h18.175l12.644-2.5c15.015.83 51.998 2 79.814 0 27.817-2 38.986 5.83 41.093 10 3.951 3.5 17.069 14 37.931 28 25.288 15.6 50.576 1.83 60.059-7 8.165-4.67 28.922-13 46.624-9 25.288 27.6 43.726 22.17 49.785 16l3.951 3.5 5.532 3.5 7.112-5 11.063-9 7.903-6h13.434l11.853-4.5 8.693-8 11.063-6.5 25.288-8 18.966-5.5 7.901-2 10.27-1h8.7l9.48 3v-3l2.37-5 4.74-2 9.48-1h11.86l51.36-9.5 26.08-4.5h7.9l7.12 4.5h52.94l7.11 3c4.48.67 13.75 2 15.02 2 1.26 0 17.91 1.33 26.08 2l16.59 2.5 5.53 3c5.27 2 16.12 6 17.39 6 1.26 0 12.12 1.33 17.38 2l51.37 3 91.67 1.5 8.69 4.5 12.64 6 22.92 8 38.72 8.5 44.26 11.5 5.53 4.5H1605.34l4.74-4.5 12.65-13c8.43-6.5 30.98-21.6 53.73-30-12.01 9.2 2.38 6.83 11.07 4.5l28.45-11c7.9-1.83 30.34-2.2 56.89 11 26.56 13.2 52.16 14.83 61.64 14l54.53-5v1.5l24.5-4.5z" fill="#3E171D"/></g><path fill="#3E171D" d="M0 0h1920v1279H0z"/><defs><filter id="befilter0_d_15_1482" x="-1195" y="1260" width="3211" height="452" filterUnits="userSpaceOnUse" color-interpolation-filters="sRGB"><feFlood flood-opacity="0" result="BackgroundImageFix"/><feColorMatrix in="SourceAlpha" values="0 0 0 0 0 0 0 0 0 0 0 0 0 0 0 0 0 0 127 0" result="hardAlpha"/><feOffset dy="40"/><feGaussianBlur stdDeviation="29.5"/><feComposite in2="hardAlpha" operator="out"/><feColorMatrix values="0 0 0 0 0 0 0 0 0 0 0 0 0 0 0 0 0 0 0.11 0"/><feBlend in2="BackgroundImageFix" result="effect1_dropShadow_15_1482"/><feBlend in="SourceGraphic" in2="effect1_dropShadow_15_1482" result="shape"/></filter></defs></svg></svg>