<?xml version="1.0" encoding="utf-8"?><svg viewBox="0 0 1844 405" xmlns="http://www.w3.org/2000/svg" xmlns:xlink="http://www.w3.org/1999/xlink"><style>:root>svg{display:none}:root>svg:target{display:block}</style><svg fill="none" viewBox="0 0 1844 405" id="label1" xmlns="http://www.w3.org/2000/svg"><path d="M336.726 28.888h40.958v-4.935h-92.771v4.935h45.398L218.788 257.856h-2.467L97.889 28.888h45.892v-4.935H.676v4.935h40.958l149.52 285.223 17.765-36.023-33.556 69.085c-69.085-4.441-87.837 12.337-87.837 32.075 0 14.804 13.817 25.167 32.076 25.167 22.699 0 37.996-7.895 54.774-42.438l162.35-333.09zM376.678 398h161.857v-4.935h-61.684V28.888h109.55c10.856 0 14.31 1.48 19.245 8.882l64.15 101.654h2.961l-20.232-115.47H376.678v4.934h48.853v364.177h-48.853V398zm468.376-4.935h-48.853V218.379h194.425v174.686h-48.853V398H1090.8v-4.935h-48.85V28.888h48.85v-4.935H941.773v4.935h48.853v163.337H796.201V28.888h48.853v-4.935H696.027v4.935h48.853v364.177h-48.853V398h149.027v-4.935zM1216.04 398h158.89v-4.935h-53.79V28.888h92.28c10.36 0 10.86 0 14.81 9.376l44.9 110.042h2.96L1461.29.76h-2.96l-37.01 23.193h-251.67L1132.64.76h-2.96l-14.8 147.546h2.96l44.9-110.042c3.95-9.376 4.44-9.376 14.81-9.376h92.27v364.177h-53.78V398zm586.41-369.112h40.96v-4.935h-92.77v4.935h45.4l-111.52 228.968h-2.47L1563.62 28.888h45.89v-4.935H1466.4v4.935h40.96l149.52 285.223 17.77-36.023-33.56 69.085c-69.08-4.441-87.84 12.337-87.84 32.075 0 14.804 13.82 25.167 32.08 25.167 22.7 0 38-7.895 54.77-42.438l162.35-333.09z" fill="#404040"/></svg><svg fill="none" viewBox="0 0 173 149" id="logo" xmlns="http://www.w3.org/2000/svg"><path d="M121.213 36.281c-10.708 0-20.665 3.32-29.017 8.887l5.996-30.409h46.041L162.757.947H86.842l-14.24 71.632H87.056c5.782-12.956 18.845-22.057 34.05-22.057 20.558 0 37.261 16.703 37.261 37.261 0 20.558-16.596 37.261-37.154 37.261v14.241c28.374-.107 51.395-23.128 51.395-51.502.107-28.481-23.021-51.502-51.395-51.502z" fill="#fff"/><path d="M121.533 75.684v6.425l3.427-3.641-.75-2.784h-2.677zM125.817 81.466l-2.891 2.89h3.747l-.856-2.89zM121.533 97.099l6.425-6.853h-6.425v6.853z" fill="#fff"/><path d="M121.32 64.013c-13.277 0-24.092 10.815-24.092 24.092s10.815 24.091 24.092 24.091 24.091-10.814 24.091-24.091c0-13.277-10.814-24.092-24.091-24.092zm11.242 41.652l-.428-1.606-3.105-11.029-7.602 7.817v8.03h-.214c-11.564 0-20.88-9.422-20.88-20.88 0-8.35 4.926-15.525 11.993-18.951v3.64c-5.247 3.105-8.78 8.78-8.78 15.312 0 8.887 6.638 16.275 15.204 17.453V90.246h-2.463v-5.889h2.463v-8.78h-1.927V67.44c1.392-.321 2.891-.428 4.39-.428 11.563 0 20.879 9.422 20.879 20.879.107 7.495-3.748 14.026-9.53 17.774z" fill="#fff"/><path d="M121.322 70.33c-.535 0-1.071 0-1.606.107v2.356h6.96l3.212 11.564h2.891v5.889h-1.285l2.677 9.743c2.998-3.105 4.711-7.388 4.711-11.992.107-9.743-7.816-17.667-17.56-17.667zM79.132.84H18.957L.433 14.76h61.888L41.442 119.904h14.134L79.132.84zM31.485 135.217l.642 2.891h.214l.536-2.998 3.426-9.851h4.604l-6.21 15.633c-.428 1.177-.964 2.248-1.392 3.212-.428.856-.964 1.606-1.392 2.248-.535.643-1.07 1.071-1.713 1.285-.643.321-1.392.428-2.249.428-.75 0-1.285 0-1.713-.107a4.06 4.06 0 01-1.392-.642l1.178-3.533c.321.214.75.321.964.321.32 0 .642.107.963.107.964 0 1.713-.75 2.142-2.356l-8.459-16.489h5.247l4.604 9.851zM106.593 135.217l.643 2.891h.214l.535-2.998 3.426-9.851h4.605l-6.211 15.633c-.428 1.177-.963 2.248-1.392 3.212-.428.856-.963 1.606-1.392 2.248-.535.643-1.07 1.071-1.713 1.285-.642.321-1.392.428-2.248.428-.75 0-1.285 0-1.713-.107a4.056 4.056 0 01-1.392-.642l1.177-3.533c.322.214.75.321.964.321.321 0 .643.107.964.107.963 0 1.713-.75 2.141-2.356l-8.459-16.489h5.247l4.604 9.851zM55.36 129.113h-8.673v18.631H42.19v-22.593h13.17v3.962zM70.136 138.321H61.89v9.423h-4.39v-22.593h4.39v9.209h8.245v-9.209h4.39v22.593h-4.39v-9.423zM94.551 129.113h-6.638v18.631h-4.39v-18.631h-6.639v-3.962h17.667v3.962z" fill="#fff"/></svg><svg fill="none" viewBox="0 0 43 43" id="logo-side" xmlns="http://www.w3.org/2000/svg"><path d="M43 21.5C43 33.374 33.374 43 21.5 43S0 33.374 0 21.5 9.626 0 21.5 0 43 9.626 43 21.5z" fill="#404040"/><path fill-rule="evenodd" clip-rule="evenodd" d="M18.13 3.546c-.59.113-.603.195-.603 3.703v3.588h1.605v7.48H17.26V23.659h1.872v12.889l-.742-.148c-.409-.082-1.43-.405-2.27-.72-.84-.313-2.26-1.058-3.155-1.656-.896-.597-2.241-1.82-2.991-2.72-.75-.899-1.706-2.366-2.125-3.26-.42-.895-.939-2.458-1.154-3.473-.215-1.016-.392-2.388-.392-3.049s.174-2.024.388-3.028c.212-1.004.675-2.447 1.027-3.205.352-.76 1.183-2.11 1.846-3.003.664-.892 1.938-2.154 2.831-2.805L14.02 8.3l.015-1.67c.009-.918-.095-1.669-.23-1.669-.134 0-1.135.595-2.224 1.322-1.088.727-2.54 1.921-3.227 2.654-.686.733-1.711 2.05-2.278 2.925-.567.876-1.366 2.596-1.777 3.824a17.352 17.352 0 00-.881 4.662c-.076 1.361.006 3.243.186 4.274.176 1.014.63 2.624 1.006 3.58.377.954 1.217 2.543 1.867 3.53.65.986 1.887 2.428 2.75 3.205.86.776 2.228 1.81 3.038 2.299.81.488 2.351 1.192 3.425 1.565 1.114.387 2.847.74 4.035.82l2.082.143.005-3.444.005-3.444 3.18-3.339c2.273-2.387 3.225-3.225 3.34-2.938.088.22.795 2.666 1.572 5.435l1.412 5.035 1.327-1.049c.73-.577 1.958-1.738 2.727-2.58.779-.852 1.875-2.501 2.472-3.719.59-1.203 1.263-2.909 1.496-3.79.26-.983.422-2.689.42-4.408-.003-1.677-.173-3.45-.424-4.408-.231-.881-.92-2.624-1.533-3.873-.894-1.824-1.564-2.72-3.407-4.549-1.592-1.58-2.885-2.585-4.22-3.28-1.06-.55-2.854-1.238-3.988-1.528-1.461-.373-2.85-.516-4.761-.49-1.485.02-2.97.088-3.3.152zm6.818 3.15c.919.217 2.483.787 3.477 1.266 1.21.583 2.432 1.49 3.7 2.741 1.04 1.029 2.275 2.549 2.745 3.379.469.83 1.092 2.441 1.384 3.582.292 1.14.529 2.866.527 3.834-.002.968-.187 2.535-.41 3.483-.224.947-.769 2.45-1.21 3.339-.443.889-1.138 2.02-1.546 2.514l-.742.897-1.021-3.702c-.562-2.036-1.079-3.852-1.149-4.036-.077-.202.096-.334.436-.334.536 0 .564-.133.564-2.671v-2.671H29.12l-1.122-4.074c-.618-2.24-1.246-4.525-1.396-5.076l-.274-1.001H20.47v-1.87l1.405.004c.772.002 2.155.18 3.074.397zm-.625 5.43c.242 1.15.236 1.165-1.136 2.535l-1.38 1.379v-5.234l1.137.082c1.105.08 1.143.114 1.38 1.239zm1.743 5.99c.011.11-.606.2-1.371.2h-1.392l1.053-1.077 1.053-1.077.318.877c.175.482.328.967.339 1.077zm-1.284 7.911c-1.19 1.303-2.347 2.52-2.57 2.704-.357.297-.405.017-.405-2.368v-2.704h5.14l-2.165 2.368z" fill="#fff"/></svg></svg>