<?xml version="1.0" encoding="utf-8"?><svg viewBox="0 0 2000 676" xmlns="http://www.w3.org/2000/svg" xmlns:xlink="http://www.w3.org/1999/xlink"><style>:root>svg{display:none}:root>svg:target{display:block}</style><svg fill="none" viewBox="0 0 268 83" id="label-3-mobile" xmlns="http://www.w3.org/2000/svg"><path d="M1.008 2.808v.24h2.376V20.76H1.008V21H9.36c4.632 0 7.608-1.656 7.488-5.304-.096-3-3.216-4.152-6.312-4.296v-.024c2.568-.48 4.992-1.752 4.992-4.44 0-2.712-2.448-4.128-6.696-4.128H1.008zM12.96 7.176c0 2.52-1.392 4.152-4.008 4.152H5.88v-8.28h3.072c2.616 0 4.008 1.608 4.008 4.128zm1.128 8.976c0 2.832-1.512 4.608-4.728 4.608H5.88v-9.192h3.48c3.216 0 4.728 1.752 4.728 4.584zM38.982 3.048h1.992v-.24h-4.512v.24h2.208l-5.424 11.136h-.12l-5.76-11.136h2.232v-.24h-6.96v.24h1.992l7.272 13.872.864-1.752-1.632 3.36c-3.36-.216-4.272.6-4.272 1.56 0 .72.672 1.224 1.56 1.224 1.104 0 1.848-.384 2.664-2.064l7.896-16.2zM48.34 20.76h-2.376v-8.496h9.456v8.496h-2.376V21h7.248v-.24h-2.376V3.048h2.376v-.24h-7.248v.24h2.376v7.944h-9.456V3.048h2.376v-.24h-7.248v.24h2.376V20.76h-2.376V21h7.248v-.24zm20.97 0h-2.375v-1.368l9.096-14.76V20.76h-2.376V21h7.248v-.24h-2.376V3.048h2.376v-.24h-7.248v.24h2.376v.984l-9.096 14.76V3.048h2.376v-.24h-7.248v.24h2.376V20.76h-2.376V21h7.248v-.24zM10.968 48.312c5.184 0 9.768-3.816 9.768-9.504 0-5.664-4.584-9.504-9.768-9.504-5.184 0-9.768 3.816-9.768 9.504 0 5.664 4.584 9.504 9.768 9.504zm.768-.312c-4.92 0-7.896-5.712-7.896-10.896 0-4.968 3.072-7.488 6.36-7.488 4.92 0 7.896 5.712 7.896 10.896 0 4.968-3.072 7.488-6.36 7.488zm15.292 0h7.728v-.24H32.14V30.048h4.488c.504 0 .528 0 .72.456l2.184 5.352h.144l-.72-7.176h-.144l-1.8 1.128h-12.24l-1.8-1.128h-.144l-.72 7.176h.144l2.184-5.352c.192-.456.216-.456.72-.456h4.488V47.76h-2.616V48zm21.201-.24h-2.376v-8.952L56.005 48h3.768l-10.56-9.552h-3.36l10.296-8.4h2.784v-.24h-5.88v.24h2.64l-9.84 8.04v-8.04h2.376v-.24h-7.248v.24h2.376V47.76h-2.376V48h7.248v-.24zm12.059.24h7.728v-.24H65.16V30.048h3.936c2.376 0 4.104 1.872 4.104 4.584 0 2.712-1.728 4.56-4.104 4.56h-3.144v.24h3.192c3.648 0 6.768-1.848 6.768-4.992 0-3.912-3.84-4.632-7.08-4.632h-8.544v.24h2.376V47.76h-2.376V48zm21.625-17.952h2.376v-.24h-7.248v.24h2.376V47.76h-2.376V48h8.112c4.632 0 7.488-1.8 7.488-5.544 0-3.096-2.88-4.608-7.488-4.608h-3.24v-7.8zM100.25 47.76h-2.376V30.048h2.376v-.24h-7.248v.24h2.376V47.76h-2.376V48h7.248v-.24zm-10.368-4.848c0 2.904-1.512 4.848-4.728 4.848h-3.24v-9.672h3.24c3.216 0 4.728 1.92 4.728 4.824zM106.46 48h7.728v-.24h-2.616V30.048h4.488c.504 0 .528 0 .72.456l2.184 5.352h.144l-.72-7.176h-.144l-1.8 1.128h-12.24l-1.8-1.128h-.144l-.72 7.176h.144l2.184-5.352c.192-.456.216-.456.72-.456h4.488V47.76h-2.616V48zm22.39 0h6.816v-.24h-1.992l-6.864-17.952h-2.568l.984 2.592-6.024 15.36h-1.992V48h4.512v-.24h-2.208l2.592-6.6h6.456l2.52 6.6h-2.232V48zm-6.24-8.112l2.76-7.08 2.712 7.08h-5.472zM1.008 58.808v.24h2.376V76.76H1.008V77H9.36c4.632 0 7.608-1.656 7.488-5.304-.096-3-3.216-4.152-6.312-4.296v-.024c2.568-.48 4.992-1.752 4.992-4.44 0-2.712-2.448-4.128-6.696-4.128H1.008zm11.952 4.368c0 2.52-1.392 4.152-4.008 4.152H5.88v-8.28h3.072c2.616 0 4.008 1.608 4.008 4.128zm1.128 8.976c0 2.832-1.512 4.608-4.728 4.608H5.88v-9.192h3.48c3.216 0 4.728 1.752 4.728 4.584zm14.617 5.16c5.184 0 9.768-3.816 9.768-9.504 0-5.664-4.584-9.504-9.768-9.504-5.184 0-9.768 3.816-9.768 9.504 0 5.664 4.584 9.504 9.768 9.504zm.768-.312c-4.92 0-7.896-5.712-7.896-10.896 0-4.968 3.072-7.488 6.36-7.488 4.92 0 7.896 5.712 7.896 10.896 0 4.968-3.072 7.488-6.36 7.488zm10.805 0h14.664l1.704-5.856h-.168l-3.768 5.184c-.24.312-.456.432-.96.432h-6.6v-8.952h3.528c.24 0 .336.024.48.36l1.368 2.952h.144v-6.864h-.144l-1.368 2.952c-.144.336-.24.36-.48.36H45.15v-8.52h5.328c.528 0 .696.072.936.432l3.12 4.944h.144l-.984-5.616H40.278v.24h2.376V76.76h-2.376V77zm25.008-.24H62.91v-8.496h9.456v8.496H69.99V77h7.248v-.24h-2.376V59.048h2.376v-.24H69.99v.24h2.376v7.944H62.91v-7.944h2.376v-.24h-7.248v.24h2.376V76.76h-2.376V77h7.248v-.24zm20.97 0h-2.375v-8.496h9.456v8.496H90.96V77h7.248v-.24h-2.376V59.048h2.376v-.24H90.96v.24h2.376v7.944H83.88v-7.944h2.376v-.24h-7.248v.24h2.376V76.76h-2.376V77h7.248v-.24zm23.732.24h6.816v-.24h-1.992l-6.864-17.952h-2.568l.984 2.592-6.024 15.36h-1.992V77h4.512v-.24h-2.208l2.592-6.6h6.456l2.52 6.6h-2.232V77zm-6.24-8.112l2.76-7.08 2.712 7.08h-5.472zM133.285 77v-.24h-2.376V59.048h2.376v-.24h-6.984c-4.464 0-7.248 1.32-7.248 4.8 0 2.496 1.896 4.128 5.496 4.488v.072c-.792.312-1.968 1.488-3.192 2.832l-5.472 6h3.36l7.968-8.736h1.2v8.496h-2.856V77h7.728zm-4.872-8.976h-2.112c-3.12 0-4.536-1.92-4.536-4.488 0-2.568 1.416-4.488 4.536-4.488h2.112v8.976zm20.236 8.736h-2.376v-8.952L156.425 77h3.768l-10.56-9.552h-3.36l10.296-8.4h2.784v-.24h-5.88v.24h2.64l-9.84 8.04v-8.04h2.376v-.24h-7.248v.24h2.376V76.76h-2.376V77h7.248v-.24zm22.066.24h6.816v-.24h-1.992l-6.864-17.952h-2.568l.984 2.592-6.024 15.36h-1.992V77h4.512v-.24h-2.208l2.592-6.6h6.456l2.52 6.6h-2.232V77zm-6.24-8.112l2.76-7.08 2.712 7.08h-5.472zm26.945 8.352h-2.376v-2.328c5.496-.144 9.84-2.976 9.84-7.104s-4.344-6.96-9.84-7.104v-2.136h2.376v-.24h-7.248v.24h2.376v2.136c-5.496.144-9.816 2.976-9.816 7.104s4.32 6.96 9.816 7.104v2.328h-2.376v.24h7.248v-.24zm-4.872-16.272v13.656c-4.056-.312-7.08-3.048-7.08-7.68 0-3.816 2.952-5.976 7.08-5.976zm9.576 7.68c0 3.816-2.928 5.976-7.08 6V60.992c4.032.336 7.08 3.048 7.08 7.656zM200.282 77h14.664l1.704-5.856h-.168l-3.768 5.184c-.24.312-.456.432-.96.432h-6.6v-8.952h3.528c.24 0 .336.024.48.36l1.368 2.952h.144v-6.864h-.144l-1.368 2.952c-.144.336-.24.36-.48.36h-3.528v-8.52h5.328c.528 0 .696.072.936.432l3.12 4.944h.144l-.984-5.616h-13.416v.24h2.376V76.76h-2.376V77zm16.205 5.376h.144l2.4-4.944c.192-.408.408-.432.936-.432h10.92c.528 0 .744.024.936.432l2.4 4.944h.144l-.264-5.616h-2.352V59.048h2.376v-.24h-14.616v.24h2.376c-.072 7.032-.552 13.656-2.76 17.712h-2.376l-.264 5.616zm5.712-23.328h7.056V76.76h-9.816c2.16-4.008 2.616-10.632 2.76-17.712zM235.919 77h7.728v-.24h-2.856V59.048h3.936c2.376 0 4.104 1.872 4.104 4.584 0 2.712-1.728 4.56-4.104 4.56h-3.144v.24h3.192c3.648 0 6.768-1.848 6.768-4.992 0-3.912-3.84-4.632-7.08-4.632h-8.544v.24h2.376V76.76h-2.376V77zm25.26 0h6.816v-.24h-1.992l-6.864-17.952h-2.568l.984 2.592-6.024 15.36h-1.992V77h4.512v-.24h-2.208l2.592-6.6h6.456l2.52 6.6h-2.232V77zm-6.24-8.112l2.76-7.08 2.712 7.08h-5.472z" fill="#404040"/></svg><svg fill="none" viewBox="0 0 1451 676" id="label-4-mobile" xmlns="http://www.w3.org/2000/svg"><path d="M73.04 410.877H52.02v-12.103l80.471-130.58v142.683h-21.02V413h64.122v-2.123h-21.02V254.181h21.02v-2.123h-64.122v2.123h21.02v8.705L52.02 393.466V254.181h21.02v-2.123H8.918v2.123h21.02v156.696H8.918V413H73.04v-2.123zm94.514 49.684h1.274l21.233-43.739c1.698-3.61 3.609-3.822 8.28-3.822h96.608c4.671 0 6.582.212 8.281 3.822l21.232 43.739h1.274l-2.335-49.684h-20.808V254.181h21.02v-2.123H194.307v2.123h21.02c-.637 62.211-4.883 120.813-24.417 156.696h-21.02l-2.336 49.684zm50.534-206.38h62.423v156.696H193.67c19.109-35.459 23.144-94.06 24.418-156.696zM327.795 413h68.368v-2.123h-25.266V254.181h34.821c21.02 0 36.308 16.561 36.308 40.554 0 23.993-15.288 40.342-36.308 40.342h-27.815v2.123h28.24c32.273 0 59.875-16.349 59.875-44.164 0-34.609-33.972-40.978-62.636-40.978h-75.587v2.123h21.02v156.696h-21.02V413zm200.234-2.123h-21.02v-12.103l80.471-130.58v142.683h-21.02V413h64.122v-2.123h-21.02V254.181h21.02v-2.123H566.46v2.123h21.02v8.705l-80.471 130.58V254.181h21.02v-2.123h-64.122v2.123h21.02v156.696h-21.02V413h64.122v-2.123zm197.314 2.972c-37.581 0-64.546-39.28-64.546-88.327 0-53.293 35.458-76.012 63.485-76.012 27.602 0 50.745 15.924 65.608 64.122h1.274l-11.678-65.396h-1.274l-9.979 11.465c-11.041-8.068-27.178-12.102-43.951-12.102-53.506 0-89.389 38.006-89.389 84.081 0 51.807 40.979 84.08 90.45 84.08 16.774 0 32.911-4.034 43.952-12.102l9.979 11.465h1.274l11.678-65.396h-1.274c-14.863 48.198-38.006 64.122-65.609 64.122zm161.729 1.911c45.862 0 86.416-33.759 86.416-84.08 0-50.109-40.554-84.081-86.416-84.081-45.862 0-86.416 33.76-86.416 84.081 0 50.108 40.554 84.08 86.416 84.08zm6.794-2.76c-43.526 0-69.855-50.533-69.855-96.396 0-43.951 27.178-66.245 56.267-66.245 43.526 0 69.854 50.533 69.854 96.396 0 43.951-27.177 66.245-56.266 66.245zm83.917-160.942v2.123h21.02v156.696h-21.02V413h73.887c40.98 0 67.31-14.65 66.25-46.924-.85-26.54-28.45-36.732-55.84-38.006v-.212c22.71-4.247 44.16-15.5 44.16-39.28 0-23.993-21.66-36.52-59.24-36.52h-69.217zm105.737 38.643c0 22.294-12.31 36.732-35.46 36.732h-27.18v-73.252h27.18c23.15 0 35.46 14.226 35.46 36.52zm9.98 79.409c0 25.055-13.38 40.767-41.83 40.767h-30.79v-81.321h30.79c28.45 0 41.83 15.5 41.83 40.554zm93.64 40.767h-21.02v-12.103l80.47-130.58v142.683h-21.02V413h64.12v-2.123h-21.02V254.181h21.02v-2.123h-64.12v2.123h21.02v8.705l-80.47 130.58V254.181h21.02v-2.123h-64.12v2.123h21.02v156.696h-21.02V413h64.12v-2.123zm122.97-115.505c0 34.609 20.8 47.985 58.17 47.985 12.74 0 25.69-1.698 39.07-7.643v75.163h-21.02V413h64.12v-2.123h-21.02V254.181h21.02v-2.123h-64.12v2.123h21.02v79.409c-13.8 6.37-26.33 7.644-32.91 7.644-24.63 0-42.25-7.856-42.25-45.862v-41.191h21.02v-2.123h-64.12v2.123h21.02v41.191zM5.52 192h43.527v-2.123H28.664l7.644-126.121 62.21 103.402h1.062l53.719-122.3 8.705 145.019h-21.02V192h64.122v-2.123h-21.02l-9.343-156.696h21.021v-2.123h-39.068L108.71 140.405 42.253 31.058H16.56l17.411 28.876-7.856 129.943H5.52V192zm287.973 0h60.3v-2.123H336.17l-60.725-158.82h-22.719l8.706 22.932-53.294 135.888h-17.623V192h39.917v-2.123h-19.534l22.931-58.39h57.116l22.294 58.39h-19.746V192zm-55.205-71.766l24.418-62.636 23.992 62.636h-48.41zm164.919 74.526c38.643 0 62.211-14.65 62.211-47.561 0-27.602-25.479-38.855-49.897-39.917v-.212c20.384-3.822 39.493-16.349 39.493-41.616 0-25.479-19.109-38.855-51.17-38.855-11.891 0-23.993 3.61-30.575 9.13l-7.644-8.493h-1.274L353.31 84.564h1.274c15.075-38.007 26.329-56.054 49.26-56.054 18.684 0 28.451 15.287 28.451 39.068 0 23.568-10.616 38.855-30.362 38.855h-18.685v2.123h18.685c27.814 0 39.067 16.562 39.067 41.616 0 26.753-12.102 42.465-37.793 42.465-24.418 0-39.917-18.472-55.205-58.602h-1.274l11.041 60.088h1.274l7.644-8.493c7.643 4.034 22.506 9.13 36.52 9.13zm129.383-4.883h-21.02v-12.103l80.471-130.58v142.683h-21.02V192h64.122v-2.123h-21.02V33.181h21.02v-2.123h-64.122v2.123h21.02v8.705l-80.471 130.58V33.181h21.02v-2.123h-64.122v2.123h21.021v156.696h-21.021V192h64.122v-2.123zM678.488 192h68.368v-2.123h-23.143V33.181h39.705c4.458 0 4.671 0 6.369 4.034l19.322 47.349h1.274l-6.37-63.486h-1.274l-15.924 9.98H658.529l-15.924-9.98h-1.274l-6.37 63.486h1.274l19.321-47.349c1.699-4.034 1.911-4.034 6.37-4.034h39.705v156.696h-23.143V192zM101.067 635.849c-37.582 0-64.547-39.28-64.547-88.327 0-53.293 35.458-76.012 63.485-76.012 27.602 0 50.746 15.924 65.608 64.122h1.274l-11.677-65.396h-1.274l-9.98 11.465c-11.041-8.068-27.177-12.102-43.951-12.102-53.506 0-89.389 38.006-89.389 84.081 0 51.807 40.979 84.08 90.451 84.08 16.773 0 32.91-4.034 43.951-12.102l9.979 11.465h1.274l11.678-65.396h-1.274c-14.863 48.198-38.006 64.122-65.608 64.122zM261.976 635h60.3v-2.123h-17.623l-60.725-158.819h-22.719l8.706 22.931-53.294 135.888h-17.623V635h39.917v-2.123h-19.534l22.931-58.39h57.116l22.294 58.39h-19.746V635zm-55.205-71.766l24.418-62.636 23.992 62.636h-48.41zM397.806 458.77c21.444 0 35.458-13.164 35.458-33.972h-18.26c0 20.171-2.123 31.849-17.198 31.849-14.651 0-18.473-11.678-18.473-31.849h-18.26c0 18.473 11.678 33.972 36.733 33.972zm-20.808 174.107h-21.02v-12.103l80.471-130.58v142.683h-21.02V635h64.122v-2.123h-21.02V476.181h21.02v-2.123h-64.122v2.123h21.02v8.705l-80.471 130.58V476.181h21.02v-2.123h-64.122v2.123h21.02v156.696h-21.02V635h64.122v-2.123zm233.222 4.246H589.2v-20.595c48.622-1.274 87.053-26.329 87.053-62.848 0-36.52-38.431-61.575-87.053-62.849v-18.897h21.02v-2.123h-64.122v2.123h21.02v18.897c-48.622 1.274-86.841 26.329-86.841 62.849 0 36.519 38.219 61.574 86.841 62.848v20.595h-21.02v2.123h64.122v-2.123zm-43.102-143.956V613.98c-35.883-2.76-62.636-26.965-62.636-67.944 0-33.76 26.116-52.869 62.636-52.869zm84.718 67.944c0 33.76-25.904 52.869-62.636 53.081V493.379c35.671 2.973 62.636 26.966 62.636 67.732zm149.246-84.93h17.623v-2.123h-39.917v2.123h19.534L750.336 574.7h-1.061l-50.958-98.519h19.746v-2.123h-61.574v2.123h17.623l64.334 122.724 7.644-15.5-14.438 29.726c-29.726-1.911-37.794 5.308-37.794 13.801 0 6.369 5.945 10.828 13.801 10.828 9.767 0 16.349-3.397 23.568-18.26l69.855-143.319zm23.694 148.415c11.466-24.842 15.712-80.471 16.986-148.415h62.211v156.696h-21.02V635h64.122v-2.123h-21.02V476.181h21.02v-2.123H817.769v2.123h21.021c-.425 50.958-2.973 104.039-12.74 136.737-4.246-1.061-8.281-1.486-13.164-1.486-15.287 0-20.383 7.219-20.383 14.013 0 7.856 6.369 12.315 13.801 12.315 7.644 0 13.801-2.76 18.472-13.164zm148.553 0c11.465-24.842 15.712-80.471 16.986-148.415h62.215v156.696h-21.02V635h64.12v-2.123h-21.02V476.181h21.02v-2.123H966.322v2.123h21.02c-.424 50.958-2.972 104.039-12.739 136.737-4.247-1.061-8.281-1.486-13.164-1.486-15.288 0-20.383 7.219-20.383 14.013 0 7.856 6.369 12.315 13.801 12.315 7.643 0 13.801-2.76 18.472-13.164zm190.381 8.281h-21.02v-12.103l80.47-130.58v142.683h-21.02V635h64.12v-2.123h-21.02V476.181h21.02v-2.123h-64.12v2.123h21.02v8.705l-80.47 130.58V476.181h21.02v-2.123h-64.12v2.123h21.02v156.696h-21.02V635h64.12v-2.123zm170.74 0h-21.02v-75.163h83.65v75.163h-21.02V635h64.13v-2.123h-21.02V476.181h21.02v-2.123h-64.13v2.123h21.02v70.28h-83.65v-70.28h21.02v-2.123h-64.12v2.123h21.02v156.696h-21.02V635h64.12v-2.123z" fill="#404040"/></svg><svg fill="none" viewBox="0 0 355 357" id="label-circle" xmlns="http://www.w3.org/2000/svg"><g opacity=".2" fill="#fff"><path d="M314.759 185.861l.194-6.982c2.657 3.064 6.289 5.411 10.808 5.767l.067-2.386c-4.712-.414-7.775-2.251-10.812-5.609l-1.857-.051-.256 9.21 1.856.051zM324.196 169.686c.092 1.695-.907 2.528-2.38 2.803l.11 2.031c2.2-.261 4.058-1.921 3.897-4.887-.138-2.543-1.776-4.65-4.636-4.495-2.878.156-4.269 2.268-4.15 4.458.062 1.148.41 2.014.938 2.605l-3.236-.231-.322-5.934-1.854.101.416 7.664 7.162.461-.001-1.983c-.774-.224-1.403-1.04-1.468-2.241-.069-1.271.761-2.627 2.668-2.73 1.713-.093 2.78.965 2.856 2.378zM322.085 145.159l-9.334 1.842 1.329 6.731 3.382-.487c3.577-.508 4.533.043 4.684.806l.041.208 1.631-.321-.075-.382c-.425-2.151-2.418-2.84-6.373-2.33l-2.039.259-.541-2.741 7.703-1.521-.408-2.064zM314.462 133.408c-3.111.701-4.891 3.133-4.076 5.935.754 2.598 3.255 3.916 6.006 3.117 2.632-.765 4.369-3.093 3.515-6.03-.681-2.344-2.58-3.302-4.159-3.286l.577 1.987c.97.105 1.615.802 1.925 1.872.336 1.155-.151 2.585-1.81 3.214l-1.978-6.809zm-2.497 5.476c-.345-1.188.205-2.527 1.617-2.992l1.381 4.755c-1.769.311-2.722-.812-2.998-1.763zM306.861 123.854l-1.552.597 3.09 8.02 1.551-.597-1.169-3.037 7.326-2.823-.756-1.963-7.327 2.822-1.163-3.019zM302.234 108.64l-5.14 6.563 1.165 2.104 6.469-8.835.603.03c.675.051 1.027.321 1.361.925l.616 1.114 1.625-.899-.694-1.254c-.916-1.655-2.255-2.066-3.95-1.916l-11.407 1.118 1.181 2.135 8.171-1.085zM288.162 100.793l1.187 1.738 2.731-1.865c1.526 2.234 4.059 3.245 6.775 1.39 2.804-1.915 2.695-4.582 1.169-6.816l2.468-1.686-1.187-1.737-2.468 1.685c-1.516-2.22-3.97-3.305-6.774-1.39-2.716 1.855-2.696 4.582-1.17 6.816l-2.731 1.865zm10.475-4.606c.928 1.359.905 2.83-.921 4.077-1.854 1.267-3.316.788-4.234-.556l5.155-3.52zm-6.342 1.783c-.927-1.358-.822-2.865 1.033-4.132 1.825-1.246 3.195-.746 4.122.612l-5.155 3.52zM280.86 86.311l1.349 1.615 7.992-.777-5.09 4.252 1.349 1.615 7.302-6.1-1.349-1.615-7.964.755 5.062-4.23-1.349-1.614-7.302 6.1zM269.935 75.41l2.274 2.228 6.483-3.154-2.972 6.595 2.274 2.228 6.659-6.795-1.453-1.424-5.248 5.356 3.252-7.311-1.162-1.139-7.268 3.425 5.273-5.38-1.453-1.424-6.659 6.795zM264.165 71.094c2.216 1.787 4.988 1.251 6.764-.951 1.776-2.203 1.701-5.012-.446-6.744-1.583-1.276-3.899-1.531-5.628-.063l1.596 1.288c1.02-.814 2.093-.539 2.905.116.964.777 1.29 2.289-.131 4.051-1.41 1.748-2.929 1.773-3.961.94-.895-.721-1.126-1.816-.645-2.722l-1.596-1.288c-1.032 1.871-.483 4.063 1.142 5.373zM257.879 54.645l-2.012-1.35.459 6.206-5.552 1.835 1.998 1.34 4.335-1.544.954.64-2.058 3.07 1.763 1.182 5.298-7.902-1.762-1.182-2.315 3.451-.822-.551-.286-5.195zM248.598 54.64c-1.057 1.921-2.599 2.304-3.777 1.656-1.178-.647-1.681-2.155-.624-4.077 1.057-1.921 2.591-2.288 3.768-1.64 1.178.647 1.689 2.139.633 4.06zm-4.604 3.16c2.03 1.116 4.857.894 6.51-2.112 1.661-3.022.318-5.497-1.712-6.613-2.03-1.116-4.839-.925-6.501 2.096-1.653 3.007-.326 5.512 1.703 6.628zM226.514 49.47l2.924 1.257 4.908-5.281-.392 7.223 2.925 1.257 3.758-8.74-1.869-.803-2.961 6.888.394-7.992-1.494-.643-5.543 5.817 2.976-6.92-1.868-.804-3.758 8.74zM226.685 36.346c-2.036-.658-2.826-.225-4.44 1.837l-6.098 8.01 2.053.663 4.15-5.833-.044 7.158 2.188.707-.375-10.063.172-.186c.784-1.048 1.176-.996 2.051-.713l.757.244.495-1.531-.909-.293zM199.404 40.923l-.298 1.635 6.349 1.159 1.708-9.36-2.07-.377-1.409 7.724-4.28-.781zM194.152 37.17c-.216 2.182-1.483 3.14-2.821 3.009-1.337-.132-2.393-1.32-2.177-3.503.215-2.182 1.481-3.123 2.818-2.991 1.338.132 2.395 1.302 2.18 3.485zm-2.989 4.716c2.305.227 4.816-1.089 5.153-4.503.339-3.431-1.87-5.178-4.175-5.405-2.306-.228-4.813 1.053-5.152 4.484-.337 3.415 1.868 5.196 4.174 5.424zM179.138 41.324c2.847.03 4.691-2.108 4.721-4.937.03-2.83-1.769-4.989-4.528-5.018-2.033-.02-4.009 1.214-4.457 3.438l2.051.021c.296-1.27 1.309-1.72 2.353-1.708 1.237.013 2.43.998 2.406 3.261-.024 2.246-1.201 3.206-2.527 3.193-1.15-.012-2.009-.729-2.193-1.739l-2.051-.022c.349 2.109 2.139 3.49 4.225 3.511zM169.443 28.785c-2.134.16-2.702.858-3.419 3.377l-2.626 9.718 2.151-.16 1.644-6.968 2.659 6.647 2.293-.171-4.143-9.178.089-.238c.331-1.266.713-1.365 1.63-1.434l.794-.059-.12-1.604-.952.07zM148.929 36.195l1.396-.228 1.272 7.766 6.841-1.121-.349-3.007c-.403-3.446-.085-4.896.962-5.068l.506-.083-.629-3.839-1.885.309.363 2.216-6.858 1.124-.363-2.217-1.885.309.629 3.84zm3.473-.569l4.241-.694c-.634.838-.748 2.219-.479 4.737l.173 1.603-2.932.48-1.003-6.126zM140.001 40.66c-.408-1.576.288-2.56 1.794-2.95 1.027-.265 1.819.041 2.027.846.271 1.044-.8 1.778-3.64 2.805l-.181-.702zm1.845-4.588c-1.37.354-2.311 1.091-2.649 2.256-.216-.62-.325-.83-.495-1.205l-1.866.483c.388.721.788 1.915 1.089 3.079.217.839.466 1.943.582 2.388.71 2.958 2.701 3.521 4.909 2.95 2.226-.576 3.447-2.28 3.101-4.182l-2.003.518c.237 1.126-.392 1.873-1.419 2.14-1.027.265-2.042.016-2.449-1.559l-.044-.171c3.262-1.228 5.962-2.511 5.364-4.822-.434-1.678-2.117-2.394-4.12-1.875zM132.018 44.248c.733 2.067.071 3.428-1.228 3.889-1.4.497-2.637-.397-3.305-2.28-.681-1.916-.278-3.373 1.122-3.87 1.299-.461 2.677.195 3.411 2.261zm3.491 3.809l-4.218-11.883-1.984.704 1.456 4.1c-.847-.694-1.964-.88-3.164-.453-2.199.78-3.204 3.183-2.181 6.066 1.018 2.866 3.312 4.097 5.512 3.316 1.2-.426 1.95-1.274 2.17-2.346l.426 1.2 1.983-.704zM120.643 54.222c2.589-1.184 3.348-3.904 2.171-6.477-1.177-2.573-3.723-3.761-6.232-2.613-1.849.845-3.112 2.804-2.571 5.007l1.865-.854c-.272-1.275.453-2.113 1.402-2.547 1.126-.515 2.624-.13 3.565 1.928.935 2.042.278 3.412-.928 3.964-1.046.478-2.128.195-2.724-.64l-1.865.853c1.213 1.76 3.419 2.247 5.317 1.38zM105.818 59.973l.817 1.448 7.484-4.226-.817-1.447-2.833 1.6-3.861-6.838-1.832 1.035 3.86 6.837-2.818 1.591zM103.548 63.457l-5.364-7.858L94.3 58.25c-1.767 1.206-2.623 2.775-1.477 4.455.708 1.037 1.661 1.179 2.595.884-.477.775-.449 1.57.1 2.373 1.106 1.621 2.7 1.133 4.336.016l3.695-2.522zm-3.931-2.027l1.266 1.855-1.811 1.236c-.862.588-1.523.718-1.992.032-.478-.701-.151-1.289.71-1.877l1.826-1.246zm-.858-1.256l-1.928 1.316c-1.052.718-1.722.833-2.23.088-.48-.701-.207-1.4.83-2.109l1.942-1.325 1.386 2.03zM83.745 71.755c1.868 2.585 4.804 3.264 7.06 1.414 2.092-1.716 2.32-4.533.504-6.748-1.739-2.12-4.561-2.8-6.927-.86-1.887 1.547-2.021 3.67-1.385 5.115l1.6-1.312c-.285-.933.102-1.8.964-2.506.93-.763 2.436-.878 3.667.4l-5.483 4.497zm6.017.142c-.957.785-2.404.805-3.387-.31l3.829-3.14c.982 1.505.324 2.822-.442 3.45zM71.853 77.5L78.51 84.3l1.504-1.472-2.66-2.717 3.033-2.97 2.66 2.718 1.503-1.473-6.656-6.798-1.503 1.472 2.833 2.894-3.033 2.969-2.833-2.894-1.504 1.472zM63.38 87.28l7.227 6.187 1.368-1.598-2.888-2.473 2.76-3.224 2.889 2.473 1.369-1.599-7.227-6.188-1.369 1.599 3.076 2.634-2.76 3.224-3.076-2.634-1.37 1.598zM63.725 94.818c1.784 1.275 1.984 2.851 1.203 3.945-.781 1.094-2.338 1.416-4.122.142-1.784-1.275-1.97-2.841-1.188-3.935.78-1.093 2.322-1.427 4.107-.152zm2.599 4.942c1.346-1.885 1.457-4.718-1.335-6.712-2.806-2.004-5.42-.96-6.767.925-1.347 1.886-1.486 4.698 1.32 6.702 2.791 1.994 5.435.97 6.782-.915zM56.003 116.143l1.591-2.757-4.67-5.493 7.128 1.236 1.591-2.757-8.24-4.757-1.016 1.762 6.493 3.748-7.89-1.328-.814 1.409 5.128 6.186-6.525-3.767-1.016 1.762 8.24 4.756zM42.99 114.435c-.891 1.946-.555 2.781 1.304 4.625l7.24 6.995.9-1.961-5.307-4.806 7.104.883.958-2.09-10.037-.807-.165-.192c-.949-.902-.85-1.285-.468-2.121l.332-.723-1.463-.671-.398.868zM36.268 141.714l9.112 2.739.606-2.015-3.642-1.095 1.222-4.064 3.642 1.094.605-2.015-9.11-2.739-.607 2.015 3.878 1.166-1.221 4.065-3.879-1.166-.606 2.015zM37.63 155.261c3.077.836 5.787-.481 6.379-3.339.548-2.649-1.045-4.984-3.85-5.564-2.684-.556-5.308.689-5.928 3.685-.495 2.389.735 4.125 2.138 4.849l.42-2.026c-.808-.547-1.052-1.464-.826-2.555.244-1.178 1.343-2.214 3.104-1.994l-1.438 6.944zm4.768-3.672c-.25 1.212-1.363 2.138-2.828 1.889l1.003-4.849c1.71.552 2.026 1.99 1.825 2.96zM44.996 166.548l.232-2.092-3.287-.364c.298-2.689-.964-5.106-4.233-5.469-3.375-.374-5.03 1.72-5.328 4.41l-2.97-.33-.233 2.092 2.97.329c-.295 2.672.86 5.095 4.234 5.469 3.27.362 5.03-1.72 5.329-4.409l3.286.364zm-10.947-3.33c.182-1.635 1.158-2.737 3.355-2.493 2.232.247 3.03 1.563 2.85 3.18l-6.204-.687zm5.973 2.779c-.18 1.634-1.243 2.709-3.475 2.461-2.197-.243-2.91-1.514-2.73-3.149l6.205.688zM39.428 181.129l1.662.033.167-8.593-1.662-.032-.063 3.253-7.85-.154-.041 2.104 7.85.154-.063 3.235zM41.758 192.284l-.265-4.041c-.156-2.383-1.332-3.564-3.256-3.438-1.358.089-2.192.888-2.532 1.921l-3.985-2.132.156 2.383 3.41 1.726.123 1.888-3.282.215.137 2.1 9.494-.622zm-1.796-1.991l-2.894.189-.114-1.729c-.07-1.059.259-1.736 1.264-1.802.989-.065 1.563.589 1.636 1.7l.108 1.642zM34.23 206.706l9.403-1.453-.322-2.079-3.757.58-.648-4.194 3.757-.581-.321-2.08-9.403 1.454.322 2.079 4.002-.618.648 4.194-4.002.619.321 2.079zM40.175 211.354c2.13-.523 3.456.352 3.777 1.657.32 1.305-.448 2.696-2.577 3.22-2.13.524-3.439-.356-3.76-1.661-.32-1.305.43-2.692 2.56-3.216zm5.443 1.247c-.554-2.249-2.631-4.178-5.963-3.359-3.348.824-4.259 3.489-3.705 5.738.553 2.25 2.596 4.187 5.945 3.364 3.33-.82 4.276-3.493 3.722-5.743zM51.327 231.104l-1.055-3.003-7.21-.034 5.58-4.604-1.055-3.003-8.976 3.154.674 1.919 7.074-2.486-6.148 5.122.54 1.535 8.034.138-7.108 2.498.674 1.919 8.976-3.155zM41.556 239.866c.895 1.943 1.748 2.232 4.358 2.022l10.024-.937-.903-1.96-7.102.897 5.297-4.816-.962-2.088-7.15 7.091h-.253c-1.302.132-1.53-.192-1.914-1.027l-.333-.723-1.462.674.4.867zM64.013 257.784l1.402-.892-4.612-7.252-1.403.892 1.747 2.746-6.626 4.214 1.13 1.775 6.625-4.214 1.737 2.731zM68.506 269.881c2.649-1.776 3.432-4.686 1.663-7.006-1.64-2.151-4.448-2.479-6.726-.742-2.18 1.662-2.96 4.459-1.106 6.892 1.48 1.94 3.597 2.15 5.064 1.565l-1.255-1.645c-.942.251-1.794-.166-2.47-1.052-.73-.957-.79-2.466.53-3.651l4.3 5.639zm.355-6.009c.75.985.72 2.432-.43 3.374l-3.002-3.937c1.538-.928 2.831-.224 3.432.563zM80.58 275.277l-1.544-1.704-3.589.413.81-3.478-1.664-1.835-1.274 5.572-5.905.674 1.556 1.717 3.904-.46-.863 3.814 1.663 1.834 1.34-5.894 5.566-.653zM82.644 290.221l6.48-6.966-1.54-1.433-2.59 2.783-3.107-2.891 2.59-2.783-1.54-1.434-6.482 6.966 1.54 1.433 2.76-2.965 3.107 2.891-2.759 2.965 1.54 1.434zM98.874 290.875l-1.664-1.288-7.639 2.474 4.059-5.245-1.665-1.287-5.822 7.524 1.664 1.288 7.617-2.446-4.036 5.216 1.664 1.288 5.822-7.524zM103.493 305.19l5.115-8.022-1.774-1.131-2.273 3.563c-.715-.226-1.231-.47-1.693-.765-1.088-.694-1.318-1.386-.672-2.4l1.522-2.386-1.774-1.131-1.722 2.699c-1.112 1.744-.662 3.143 1.023 4.217.731.466 1.459.805 2.451 1.123l-1.978 3.101 1.775 1.132zM117.778 308.13c1.641-2.734 1.112-5.701-1.476-7.048-2.401-1.249-5.081-.351-6.403 2.19-1.265 2.432-.782 5.295 1.932 6.707 2.165 1.127 4.17.416 5.248-.737l-1.835-.956c-.746.629-1.695.614-2.683.099-1.067-.555-1.765-1.895-1.074-3.529l6.291 3.274zm-2.236-5.589c1.099.571 1.686 1.894 1.048 3.236l-4.393-2.286c.997-1.494 2.467-1.407 3.345-.95zM127.27 306.085c-2.632-1.087-5.139.211-6.22 2.826-1.08 2.615-.214 5.288 2.335 6.342 1.88.777 4.173.366 5.417-1.531l-1.896-.784c-.748 1.069-1.855 1.109-2.819.71-1.144-.472-1.884-1.831-1.02-3.923.858-2.075 2.308-2.528 3.534-2.022 1.062.439 1.593 1.424 1.388 2.43l1.896.783c.46-2.086-.687-4.034-2.615-4.831zM137.949 320.089l2.312.725-2.195-5.823 4.807-3.329-2.295-.72-3.722 2.706-1.097-.344 1.107-3.527-2.025-.635-2.848 9.078 2.025.635 1.244-3.965.945.296 1.742 4.903zM146.854 317.468c.47-2.142 1.842-2.946 3.154-2.657 1.313.288 2.222 1.592 1.752 3.734-.471 2.141-1.838 2.927-3.151 2.639-1.313-.288-2.225-1.575-1.755-3.716zm3.522-4.333c-2.263-.497-4.911.515-5.646 3.866-.74 3.368 1.249 5.362 3.511 5.859 2.263.496 4.904-.481 5.643-3.849.736-3.351-1.245-5.379-3.508-5.876zM169.498 316.185l-3.16-.379-3.215 6.453-1.666-7.039-3.161-.379-1.133 9.446 2.019.242.893-7.444 1.881 7.777 1.615.194 3.672-7.147-.897 7.48 2.019.242 1.133-9.446zM173.045 328.82c2.139.055 2.775-.583 3.739-3.017l3.585-9.408-2.157-.055-2.332 6.768-1.981-6.879-2.299-.059 3.205 9.547-.112.227c-.456 1.226-.847 1.287-1.766 1.263l-.795-.02-.042 1.609.955.024zM193.268 328.227c2.127-.233 2.671-.951 3.299-3.493l2.288-9.804-2.144.235-1.401 7.021-2.888-6.55-2.286.25 4.459 9.029-.081.24c-.287 1.277-.666 1.39-1.58 1.49l-.791.086.175 1.6.95-.104zM212.624 321.98l-1.835-9.336-2.065.406.733 3.731-4.164.819-.733-3.731-2.065.406 1.835 9.335 2.065-.406-.781-3.973 4.164-.819.781 3.974 2.065-.406zM222.681 309.223l-2.02.592-2.48 7.636-1.864-6.364-2.02.592 2.675 9.13 2.019-.591 2.49-7.603 1.855 6.33 2.019-.592-2.674-9.13zM226.596 307.756l3.492 8.85 4.376-1.727c1.99-.785 3.172-2.126 2.426-4.017-.461-1.168-1.359-1.518-2.335-1.437.637-.65.785-1.431.428-2.336-.72-1.826-2.382-1.702-4.225-.975l-4.162 1.642zm3.386 2.846l-.825-2.089 2.04-.805c.971-.383 1.644-.363 1.949.41.312.79-.137 1.29-1.108 1.673l-2.056.811zm.558 1.415l2.171-.857c1.185-.467 1.864-.431 2.195.408.312.79-.108 1.412-1.276 1.872l-2.188.864-.902-2.287zM247.745 304.047c-1.25-2.934-3.963-4.246-6.573-2.941-2.42 1.21-3.266 3.907-1.984 6.469 1.226 2.452 3.828 3.741 6.564 2.372 2.183-1.091 2.784-3.132 2.483-4.682l-1.851.926c.072.972-.498 1.732-1.494 2.23-1.076.538-2.571.316-3.488-1.202l6.343-3.172zm-5.837-1.47c1.107-.554 2.523-.254 3.235 1.051l-4.429 2.215c-.625-1.685.308-2.823 1.194-3.266zM252.564 300.442c-1.149-1.868-.787-3.337.388-4.06 1.265-.778 2.661-.163 3.709 1.539 1.065 1.732.976 3.24-.289 4.019-1.175.723-2.659.369-3.808-1.498zm-4.21-2.995l6.608 10.738 1.792-1.102-2.28-3.706c.973.502 2.104.45 3.188-.217 1.989-1.224 2.469-3.783.866-6.388-1.594-2.591-4.095-3.315-6.083-2.092-1.085.667-1.641 1.653-1.631 2.748l-.668-1.084-1.792 1.103zM261.604 288.312c-2.285 1.699-2.459 4.517-.77 6.787 1.688 2.271 4.427 2.901 6.641 1.254 1.631-1.213 2.457-3.392 1.468-5.434l-1.646 1.225c.533 1.19-.002 2.161-.839 2.783-.993.739-2.538.676-3.889-1.14-1.341-1.802-.985-3.279.08-4.071.922-.686 2.039-.635 2.797.058l1.646-1.225c-1.554-1.467-3.814-1.483-5.488-.237zM274.621 277.57l-1.568 1.404 1.052 7.96-4.424-4.94-1.568 1.404 6.347 7.087 1.568-1.403-1.028-7.935 4.4 4.914 1.568-1.404-6.347-7.087zM283.922 270.145l-1.213-1.137-5.874 6.274 1.213 1.136 2.224-2.375 5.731 5.367 1.439-1.536-5.732-5.367 2.212-2.362zM294.519 262.781c-2.38-2.123-5.393-2.157-7.2.135-1.675 2.125-1.293 4.925.957 6.699 2.153 1.697 5.056 1.756 6.95-.647 1.511-1.916 1.186-4.018.255-5.293L294.2 265.3c.478.85.286 1.779-.404 2.654-.744.944-2.191 1.38-3.668.396l4.391-5.569zm-5.908 1.153c.766-.972 2.175-1.303 3.375-.425l-3.066 3.889c-1.282-1.259-.922-2.686-.309-3.464zM297.872 251.04l-1.388-.914-4.729 7.176 1.388.915 1.79-2.717 6.557 4.32 1.158-1.757-6.557-4.32 1.781-2.703zM309.641 252.434c1.027-1.877.75-2.734-.974-4.705l-6.727-7.49-1.036 1.893 4.954 5.169-7.024-1.384-1.104 2.017 9.956 1.516.15.203c.883.966.758 1.342.317 2.148l-.382.699 1.412.772.458-.838z"/></g></svg><svg fill="none" viewBox="0 0 1844 405" id="label1" xmlns="http://www.w3.org/2000/svg"><path d="M336.726 28.888h40.958v-4.935h-92.771v4.935h45.398L218.788 257.856h-2.467L97.889 28.888h45.892v-4.935H.676v4.935h40.958l149.52 285.223 17.765-36.023-33.556 69.085c-69.085-4.441-87.837 12.337-87.837 32.075 0 14.804 13.817 25.167 32.076 25.167 22.699 0 37.996-7.895 54.774-42.438l162.35-333.09zM376.678 398h161.857v-4.935h-61.684V28.888h109.55c10.856 0 14.31 1.48 19.245 8.882l64.15 101.654h2.961l-20.232-115.47H376.678v4.934h48.853v364.177h-48.853V398zm468.376-4.935h-48.853V218.379h194.425v174.686h-48.853V398H1090.8v-4.935h-48.85V28.888h48.85v-4.935H941.773v4.935h48.853v163.337H796.201V28.888h48.853v-4.935H696.027v4.935h48.853v364.177h-48.853V398h149.027v-4.935zM1216.04 398h158.89v-4.935h-53.79V28.888h92.28c10.36 0 10.86 0 14.81 9.376l44.9 110.042h2.96L1461.29.76h-2.96l-37.01 23.193h-251.67L1132.64.76h-2.96l-14.8 147.546h2.96l44.9-110.042c3.95-9.376 4.44-9.376 14.81-9.376h92.27v364.177h-53.78V398zm586.41-369.112h40.96v-4.935h-92.77v4.935h45.4l-111.52 228.968h-2.47L1563.62 28.888h45.89v-4.935H1466.4v4.935h40.96l149.52 285.223 17.77-36.023-33.56 69.085c-69.08-4.441-87.84 12.337-87.84 32.075 0 14.804 13.82 25.167 32.08 25.167 22.7 0 38-7.895 54.77-42.438l162.35-333.09z" fill="#404040"/></svg><svg fill="none" viewBox="0 0 4224 408" id="label2" xmlns="http://www.w3.org/2000/svg"><path d="M232.763 315.045h-39.154V319h119.438v-3.955h-39.153V23.174h39.153v-3.955H.611v3.955h39.153v291.871H.611V319h119.437v-3.955H80.895V23.174h151.868v291.871zM320.571 319h241.644l28.079-96.499h-2.768l-62.092 85.425c-3.955 5.142-7.514 7.119-15.819 7.119h-108.76V167.528h58.137c3.955 0 5.537.395 7.91 5.932l22.543 48.645h2.373v-113.11h-2.373l-22.543 48.645c-2.373 5.537-3.955 5.933-7.91 5.933h-58.137V23.174h87.799c8.7 0 11.469 1.186 15.424 7.119l51.413 81.471h2.373l-16.215-92.545H320.571v3.955h39.153v291.871h-39.153V319zm270.91 0h127.347v-3.955h-47.063V23.174h64.86c39.154 0 67.629 30.848 67.629 75.538 0 44.691-28.475 75.143-67.629 75.143h-51.809v3.955h52.6c60.115 0 111.528-30.452 111.528-82.261 0-64.465-63.278-76.33-116.669-76.33H591.481v3.955h39.153v291.871h-39.153V319zm253.53-299.78v3.954h39.154v291.871h-39.154V319h137.63c76.329 0 125.369-27.289 123.389-87.403-1.58-49.436-52.99-68.42-104.01-70.793v-.395c42.32-7.91 82.26-28.871 82.26-73.166 0-44.69-40.34-68.024-110.339-68.024h-128.93zm196.949 71.978c0 41.527-22.93 68.42-66.042 68.42h-50.622V23.174h50.622c43.112 0 66.042 26.498 66.042 68.024zm18.59 147.913c0 46.668-24.91 75.934-77.909 75.934h-57.345V163.573h57.345c52.999 0 77.909 28.87 77.909 75.538zm136.06-215.937h39.15v-3.955h-119.43v3.955h39.15v291.871h-39.15V319H1250c76.33 0 123.39-29.662 123.39-91.358 0-51.018-47.45-75.934-123.39-75.934h-53.39V23.174zm302.15 291.871h-39.15V23.174h39.15v-3.955h-119.43v3.955h39.15v291.871h-39.15V319h119.43v-3.955zm-170.85-79.889c0 47.854-24.91 79.889-77.91 79.889h-53.39V155.663H1250c53 0 77.91 31.639 77.91 79.493zM1506.17 319h241.65l28.08-96.499h-2.77l-62.09 85.425c-3.96 5.142-7.52 7.119-15.82 7.119h-108.76V167.528h58.13c3.96 0 5.54.395 7.91 5.932l22.55 48.645h2.37v-113.11h-2.37l-22.55 48.645c-2.37 5.537-3.95 5.933-7.91 5.933h-58.13V23.174h87.8c8.7 0 11.47 1.186 15.42 7.119l51.41 81.471h2.38l-16.22-92.545h-221.08v3.955h39.16v291.871h-39.16V319zm525.38 1.582c-70 0-120.23-73.166-120.23-164.524 0-99.267 66.05-141.585 118.25-141.585 51.41 0 94.52 29.662 122.21 119.438h2.37l-21.75-121.81h-2.38l-18.58 21.356c-20.57-15.029-50.63-22.543-81.87-22.543-99.66 0-166.5 70.792-166.5 156.614 0 96.499 76.33 156.613 168.48 156.613 31.24 0 61.3-7.514 81.86-22.543l18.59 21.357h2.37l21.76-121.811h-2.38c-27.68 89.776-70.79 119.438-122.2 119.438zM2241.83 319h127.35v-3.955h-43.11V23.174h73.96c8.3 0 8.7 0 11.86 7.514l35.99 88.194h2.37L2438.39.632h-2.37l-29.67 18.587h-201.7L2174.99.631h-2.37l-11.87 118.251h2.38l35.99-88.194c3.16-7.514 3.56-7.514 11.86-7.514h73.96v291.871h-43.11V319zm450.21-295.826h32.83v-3.955h-74.35v3.955h36.38l-89.38 183.507h-1.98l-94.91-183.507h36.78v-3.955h-114.7v3.955h32.83l119.83 228.593 14.24-28.871-26.89 55.369c-55.37-3.56-70.4 9.887-70.4 25.706 0 11.865 11.07 20.17 25.71 20.17 18.19 0 30.45-6.327 43.9-34.012l130.11-266.955zm-26.5 384.416h2.37l39.55-81.471c3.17-6.724 6.73-7.119 15.43-7.119h179.94c8.71 0 12.27.395 15.43 7.119l39.55 81.471h2.37l-4.35-92.545h-38.76V23.174h39.16v-3.955h-240.86v3.955h39.16c-1.19 115.878-9.1 225.033-45.48 291.871h-39.16l-4.35 92.545zm94.13-384.416h116.27v291.871h-161.75c35.59-66.047 43.1-175.202 45.48-291.871zM2964.02 319h241.64l28.08-96.499h-2.77l-62.09 85.425c-3.96 5.142-7.52 7.119-15.82 7.119H3044.3V167.528h58.14c3.95 0 5.53.395 7.91 5.932l22.54 48.645h2.37v-113.11h-2.37l-22.54 48.645c-2.38 5.537-3.96 5.933-7.91 5.933h-58.14V23.174h87.8c8.7 0 11.47 1.186 15.42 7.119l51.42 81.471h2.37l-16.22-92.545h-221.07v3.955h39.15v291.871h-39.15V319zm390.34-3.955h-39.15V175.042h155.82v140.003h-39.15V319h119.44v-3.955h-39.16V23.174h39.16v-3.955h-119.44v3.955h39.15v130.907h-155.82V23.174h39.15v-3.955h-119.43v3.955h39.15v291.871h-39.15V319h119.43v-3.955zM3631.91 319h127.35v-3.955h-43.11V23.174h73.96c8.3 0 8.7 0 11.86 7.514l35.99 88.194h2.38L3828.47.632h-2.37l-29.66 18.587h-201.7L3565.08.631h-2.38l-11.86 118.251h2.37l35.99-88.194c3.16-7.514 3.56-7.514 11.87-7.514h73.95v291.871h-43.11V319zm289.25-295.826h39.15v-3.955h-119.43v3.955h39.15v291.871h-39.15V319h133.67c76.33 0 123.39-29.662 123.39-91.358 0-51.018-47.45-75.934-123.39-75.934h-53.39V23.174zm302.16 291.871h-39.16V23.174h39.16v-3.955h-119.44v3.955h39.15v291.871h-39.15V319h119.44v-3.955zm-170.86-79.889c0 47.854-24.91 79.889-77.91 79.889h-53.39V155.663h53.39c53 0 77.91 31.639 77.91 79.493z" fill="#fff"/></svg><svg fill="none" viewBox="0 0 662 164" id="label3-1" xmlns="http://www.w3.org/2000/svg"><path d="M.918.058V2.18h21.02v156.696H.918V161h73.889c40.978 0 67.307-14.65 66.245-46.924-.849-26.54-28.451-36.732-55.841-38.006v-.212c22.718-4.247 44.163-15.5 44.163-39.28 0-23.993-21.657-36.52-59.238-36.52H.918zM106.655 38.7c0 22.294-12.314 36.732-35.458 36.732H44.02V2.181h27.177c23.144 0 35.458 14.226 35.458 36.52zm9.98 79.409c0 25.055-13.377 40.767-41.828 40.767H44.02v-81.32h30.787c28.451 0 41.828 15.499 41.828 40.553zM313.51 2.181h17.623V.058h-39.917V2.18h19.533L262.764 100.7h-1.062L210.744 2.181h19.747V.058h-61.575V2.18h17.623l64.335 122.724 7.644-15.5-14.439 29.726c-29.725-1.911-37.793 5.308-37.793 13.801 0 6.369 5.945 10.828 13.801 10.828 9.767 0 16.349-3.397 23.568-18.26L313.51 2.181zm71.12 156.696h-21.02V83.714h83.656v75.163h-21.02V161h64.122v-2.123h-21.02V2.181h21.02V.058h-64.122V2.18h21.02v70.28H363.61V2.18h21.02V.058h-64.122V2.18h21.02v156.696h-21.02V161h64.122v-2.123zm173.85 0h-21.021v-12.103l80.472-130.58v142.683H596.91V161h64.122v-2.123h-21.02V2.181h21.02V.058H596.91V2.18h21.021v8.705l-80.472 130.58V2.181h21.021V.058h-64.123V2.18h21.021v156.696h-21.021V161h64.123v-2.123z" fill="#404040"/></svg><svg fill="none" viewBox="0 0 1121 174" id="label3-2" xmlns="http://www.w3.org/2000/svg"><path d="M87.032 173.76c45.863 0 86.417-33.759 86.417-84.08 0-50.11-40.554-84.081-86.417-84.081C41.17 5.599.617 39.359.617 89.679c0 50.109 40.554 84.081 86.416 84.081zm6.795-2.76c-43.527 0-69.855-50.533-69.855-96.395 0-43.952 27.178-66.246 56.266-66.246 43.527 0 69.855 50.533 69.855 96.396 0 43.951-27.178 66.245-56.266 66.245zm123.611 0h68.369v-2.123h-23.144V12.181h39.705c4.459 0 4.671 0 6.37 4.034l19.321 47.349h1.274L322.964.078h-1.274l-15.925 9.98H197.48L181.555.078h-1.274l-6.369 63.486h1.273l19.322-47.349c1.699-4.034 1.911-4.034 6.37-4.034h39.705v156.696h-23.144V171zm175.883-2.123h-21.02V89.68L462.114 171h33.335l-93.423-84.505h-29.725l91.087-74.314h24.63v-2.123h-52.02v2.123h23.356L372.301 83.31V12.18h21.02v-2.123h-64.122v2.123h21.02v156.696h-21.02V171h64.122v-2.123zM488.327 171h68.368v-2.123h-25.266V12.181h34.821c21.02 0 36.307 16.561 36.307 40.554 0 23.993-15.287 40.342-36.307 40.342h-27.815V95.2h28.239c32.274 0 59.876-16.349 59.876-44.164 0-34.609-33.972-40.978-62.636-40.978h-75.587v2.123h21.02v156.696h-21.02V171zM667.965 12.181h21.02v-2.123h-64.122v2.123h21.02v156.696h-21.02V171h71.766c40.979 0 66.245-15.924 66.245-49.047 0-27.39-25.479-40.766-66.245-40.766h-28.664V12.18zm162.216 156.696h-21.02V12.181h21.02v-2.123h-64.122v2.123h21.02v156.696h-21.02V171h64.122v-2.123zm-91.724-42.89c0 25.691-13.377 42.89-41.828 42.89h-28.664V83.31h28.664c28.451 0 41.828 16.986 41.828 42.677zM873.439 171h68.369v-2.123h-23.144V12.181h39.705c4.459 0 4.671 0 6.37 4.034l19.321 47.349h1.274L978.965.078h-1.274l-15.925 9.98H853.481L837.556.078h-1.274l-6.369 63.486h1.273l19.322-47.349c1.699-4.034 1.911-4.034 6.37-4.034h39.705v156.696h-23.144V171zm186.411 0h60.3v-2.123h-17.63l-60.72-158.82h-22.72l8.71 22.932-53.297 135.888H956.87V171h39.917v-2.123h-19.534l22.927-58.39h57.12l22.29 58.39h-19.74V171zm-55.21-71.766l24.42-62.636 23.99 62.636h-48.41z" fill="#404040"/></svg><svg fill="none" viewBox="0 0 1101 169" id="label3-3-1" xmlns="http://www.w3.org/2000/svg"><path d="M.381 5.058V7.18h21.02v156.696H.382V166h73.89c40.978 0 67.307-14.65 66.245-46.924-.849-26.54-28.452-36.732-55.841-38.006v-.212c22.718-4.247 44.163-15.5 44.163-39.28 0-23.993-21.657-36.52-59.239-36.52H.381zM106.12 43.7c0 22.294-12.315 36.732-35.458 36.732H43.483V7.181h27.178c23.143 0 35.458 14.226 35.458 36.52zm9.98 79.409c0 25.055-13.377 40.767-41.829 40.767H43.483v-81.32h30.788c28.451 0 41.828 15.499 41.828 40.553zm117.633 45.65c45.862 0 86.416-33.759 86.416-84.08 0-50.11-40.554-84.081-86.416-84.081-45.863 0-86.417 33.76-86.417 84.08 0 50.109 40.554 84.081 86.417 84.081zm6.794-2.76c-43.527 0-69.855-50.533-69.855-96.395 0-43.952 27.178-66.246 56.266-66.246 43.527 0 69.855 50.533 69.855 96.396 0 43.951-27.178 66.245-56.266 66.245zm83.916 0h129.731l15.075-51.807h-1.486l-33.335 45.862c-2.124 2.76-4.035 3.822-8.493 3.822h-58.39V84.68h31.212c2.123 0 2.973.212 4.247 3.184l12.102 26.116h1.274V53.255h-1.274l-12.102 26.116c-1.274 2.973-2.124 3.185-4.247 3.185h-31.212V7.181h47.136c4.672 0 6.158.637 8.281 3.822l27.602 43.739h1.274l-8.705-49.684h-118.69V7.18h21.021v156.696h-21.021V166zm209.565-2.123h-21.02V88.714h83.656v75.163h-21.02V166h64.122v-2.123h-21.02V7.181h21.02V5.058h-64.122V7.18h21.02v70.28h-83.656V7.18h21.02V5.058h-64.122V7.18h21.02v156.696h-21.02V166h64.122v-2.123zm173.849 0h-21.02V88.714h83.656v75.163h-21.02V166h64.122v-2.123h-21.02V7.181h21.02V5.058h-64.122V7.18h21.02v70.28h-83.656V7.18h21.02V5.058h-64.122V7.18h21.02v156.696h-21.02V166h64.122v-2.123zM906.123 166h60.3v-2.123H948.8L888.075 5.057h-22.718l8.705 22.932-53.294 135.888h-17.623V166h39.918v-2.123h-19.534l22.931-58.39h57.115l22.294 58.39h-19.746V166zm-55.204-71.766l24.417-62.636 23.993 62.636h-48.41zM1100.55 166v-2.123h-21.02V7.181h21.02V5.058h-61.78c-39.494 0-64.124 11.678-64.124 42.465 0 22.081 16.774 36.52 48.624 39.705v.636c-7.01 2.76-17.41 13.165-28.241 25.055L946.619 166h29.726l70.495-77.286h10.61v75.163h-25.26V166h68.36zm-43.1-79.41h-18.68c-27.6 0-40.131-16.986-40.131-39.704 0-22.719 12.531-39.705 40.131-39.705h18.68v79.41z" fill="#404040"/></svg><svg fill="none" viewBox="0 0 1051 214" id="label3-3-2" xmlns="http://www.w3.org/2000/svg"><path d="M65.04 163.877H44.02V84.68L133.833 166h33.335L73.745 81.495H44.02L135.107 7.18h24.63V5.058h-52.02V7.18h23.356L44.02 78.31V7.18h21.02V5.058H.918V7.18h21.02v156.696H.918V166H65.04v-2.123zM248.585 166h60.3v-2.123h-17.623L230.537 5.057h-22.719l8.706 22.932-53.294 135.888h-17.623V166h39.917v-2.123H165.99l22.931-58.39h57.116l22.294 58.39h-19.746V166zM193.38 94.234l24.418-62.636 23.992 62.636h-48.41zm226.697 73.889h-21.02v-20.595c48.622-1.274 87.053-26.329 87.053-62.848 0-36.52-38.431-61.575-87.053-62.849V2.934h21.02V.811h-64.122v2.123h21.02v18.897c-48.622 1.274-86.841 26.329-86.841 62.849 0 36.519 38.219 61.574 86.841 62.848v20.595h-21.02v2.123h64.122v-2.123zM376.975 24.167V144.98c-35.883-2.76-62.636-26.965-62.636-67.944 0-33.76 26.116-52.869 62.636-52.869zm84.718 67.944c0 33.76-25.904 52.869-62.636 53.081V24.379c35.67 2.973 62.636 26.965 62.636 67.732zM486.802 166h129.73l15.075-51.807h-1.486l-33.335 45.862c-2.123 2.76-4.034 3.822-8.493 3.822h-58.389V84.68h31.211c2.124 0 2.973.212 4.247 3.184l12.102 26.116h1.274V53.255h-1.274l-12.102 26.116c-1.274 2.973-2.123 3.185-4.247 3.185h-31.211V7.181h47.136c4.671 0 6.157.637 8.28 3.822l27.603 43.739h1.274l-8.706-49.684H486.802V7.18h21.02v156.696h-21.02V166zm131.681 47.561h1.274l21.232-43.739c1.699-3.61 3.61-3.822 8.281-3.822h96.608c4.671 0 6.582.212 8.28 3.822l21.233 43.739h1.274l-2.336-49.684h-20.807V7.181h21.02V5.058H645.236V7.18h21.02c-.637 62.211-4.884 120.813-24.417 156.696h-21.021l-2.335 49.684zm50.533-206.38h62.424v156.696h-86.841c19.109-35.459 23.143-94.06 24.417-156.696zM778.723 166h68.369v-2.123h-25.267V7.181h34.822c21.02 0 36.307 16.561 36.307 40.554 0 23.993-15.287 40.342-36.307 40.342h-27.815V90.2h28.239c32.274 0 59.876-16.349 59.876-44.164 0-34.608-33.972-40.978-62.636-40.978h-75.588V7.18h21.021v156.696h-21.021V166zm211.796 0h60.301v-2.123h-17.62L972.472 5.057h-22.719l8.705 22.932-53.293 135.888h-17.623V166h39.917v-2.123h-19.534l22.931-58.39h57.115l22.299 58.39h-19.751V166zm-55.204-71.766l24.417-62.636 23.993 62.636h-48.41z" fill="#404040"/></svg><svg fill="none" viewBox="0 0 786 174" id="label3-4" xmlns="http://www.w3.org/2000/svg"><path d="M.52 171h43.527v-2.123H23.664l7.644-126.121 62.21 103.402h1.062l53.719-122.3 8.705 145.019h-21.02V171h64.122v-2.123h-21.02l-9.343-156.696h21.021v-2.123h-39.068L103.71 119.405 37.253 10.058H11.56l17.411 28.876-7.856 129.943H.52V171zm287.973 0h60.3v-2.123H331.17l-60.725-158.82h-22.719l8.706 22.932-53.294 135.888h-17.623V171h39.917v-2.123h-19.534l22.931-58.39h57.116l22.294 58.39h-19.746V171zm-55.205-71.766l24.418-62.636 23.992 62.636h-48.41zm164.919 74.526c38.643 0 62.211-14.65 62.211-47.561 0-27.602-25.479-38.855-49.897-39.917v-.212c20.384-3.822 39.493-16.349 39.493-41.616 0-25.479-19.109-38.855-51.17-38.855-11.891 0-23.993 3.61-30.575 9.13l-7.644-8.493h-1.274L348.31 63.564h1.274c15.075-38.007 26.329-56.054 49.26-56.054 18.684 0 28.451 15.287 28.451 39.068 0 23.568-10.616 38.855-30.362 38.855h-18.685v2.123h18.685c27.814 0 39.067 16.562 39.067 41.616 0 26.753-12.102 42.465-37.793 42.465-24.418 0-39.917-18.472-55.205-58.602h-1.274l11.041 60.088h1.274l7.644-8.493c7.643 4.034 22.506 9.13 36.52 9.13zm129.383-4.883h-21.02v-12.103l80.471-130.58v142.683h-21.02V171h64.122v-2.123h-21.02V12.181h21.02v-2.123h-64.122v2.123h21.02v8.705l-80.471 130.58V12.181h21.02v-2.123h-64.122v2.123h21.021v156.696h-21.021V171h64.122v-2.123zM673.488 171h68.368v-2.123h-23.143V12.181h39.705c4.458 0 4.671 0 6.369 4.034l19.322 47.349h1.274L779.013.078h-1.274l-15.924 9.98H653.529L637.605.078h-1.274l-6.37 63.486h1.274l19.321-47.349c1.699-4.034 1.911-4.034 6.37-4.034h39.705v156.696h-23.143V171z" fill="#404040"/></svg><svg fill="none" viewBox="0 0 1443 214" id="label3-5" xmlns="http://www.w3.org/2000/svg"><path d="M65.04 163.877H44.02v-12.103l80.471-130.58v142.683h-21.02V166h64.122v-2.123h-21.02V7.181h21.02V5.058h-64.122V7.18h21.02v8.705L44.02 146.466V7.181h21.02V5.058H.918V7.18h21.02v156.696H.918V166H65.04v-2.123zm94.514 49.684h1.274l21.233-43.739c1.698-3.61 3.609-3.822 8.28-3.822h96.608c4.671 0 6.582.212 8.281 3.822l21.232 43.739h1.274l-2.335-49.684h-20.808V7.181h21.02V5.058H186.307V7.18h21.02c-.637 62.211-4.883 120.813-24.417 156.696h-21.02l-2.336 49.684zm50.534-206.38h62.423v156.696H185.67c19.109-35.459 23.144-94.06 24.418-156.696zM319.795 166h68.368v-2.123h-25.266V7.181h34.821c21.02 0 36.308 16.561 36.308 40.554 0 23.993-15.288 40.342-36.308 40.342h-27.815V90.2h28.24c32.273 0 59.875-16.349 59.875-44.164 0-34.608-33.972-40.978-62.636-40.978h-75.587V7.18h21.02v156.696h-21.02V166zm200.234-2.123h-21.02v-12.103l80.471-130.58v142.683h-21.02V166h64.122v-2.123h-21.02V7.181h21.02V5.058H558.46V7.18h21.02v8.705l-80.471 130.58V7.181h21.02V5.058h-64.122V7.18h21.02v156.696h-21.02V166h64.122v-2.123zm197.314 2.972c-37.581 0-64.546-39.28-64.546-88.327 0-53.293 35.458-76.012 63.485-76.012 27.602 0 50.745 15.924 65.608 64.122h1.274L771.486 1.236h-1.274L760.233 12.7C749.192 4.633 733.055.6 716.282.6c-53.506 0-89.389 38.006-89.389 84.08 0 51.808 40.979 84.081 90.45 84.081 16.774 0 32.911-4.034 43.952-12.102l9.979 11.465h1.274l11.678-65.396h-1.274c-14.863 48.198-38.006 64.122-65.609 64.122zm161.729 1.911c45.862 0 86.416-33.759 86.416-84.08 0-50.11-40.554-84.081-86.416-84.081-45.862 0-86.416 33.76-86.416 84.08 0 50.109 40.554 84.081 86.416 84.081zm6.794-2.76c-43.526 0-69.855-50.533-69.855-96.395 0-43.952 27.178-66.246 56.267-66.246 43.526 0 69.854 50.533 69.854 96.396 0 43.951-27.177 66.245-56.266 66.245zM969.783 5.058V7.18h21.02v156.696h-21.02V166h73.887c40.98 0 67.31-14.65 66.25-46.924-.85-26.54-28.45-36.732-55.84-38.006v-.212c22.71-4.247 44.16-15.5 44.16-39.28 0-23.993-21.66-36.52-59.24-36.52h-69.217zM1075.52 43.7c0 22.294-12.31 36.732-35.46 36.732h-27.18V7.181h27.18c23.15 0 35.46 14.226 35.46 36.52zm9.98 79.409c0 25.055-13.38 40.767-41.83 40.767h-30.79v-81.32h30.79c28.45 0 41.83 15.499 41.83 40.553zm93.64 40.767h-21.02v-12.103l80.47-130.58v142.683h-21.02V166h64.12v-2.123h-21.02V7.181h21.02V5.058h-64.12V7.18h21.02v8.705l-80.47 130.58V7.181h21.02V5.058h-64.12V7.18h21.02v156.696h-21.02V166h64.12v-2.123zm122.97-115.505c0 34.609 20.8 47.985 58.17 47.985 12.74 0 25.69-1.698 39.07-7.643v75.163h-21.02V166h64.12v-2.123h-21.02V7.181h21.02V5.058h-64.12V7.18h21.02v79.41c-13.8 6.37-26.33 7.643-32.91 7.643-24.63 0-42.25-7.856-42.25-45.862V7.181h21.02V5.058h-64.12V7.18h21.02v41.191z" fill="#404040"/></svg><svg fill="none" viewBox="0 0 1431 216" id="label3-6" xmlns="http://www.w3.org/2000/svg"><path d="M91.067 211.849c-37.582 0-64.547-39.28-64.547-88.327 0-53.293 35.458-76.012 63.485-76.012 27.602 0 50.746 15.924 65.608 64.122h1.274L145.21 46.236h-1.274l-9.98 11.465C122.915 49.633 106.779 45.6 90.005 45.6 36.499 45.599.616 83.605.616 129.68c0 51.807 40.979 84.08 90.45 84.08 16.774 0 32.911-4.034 43.952-12.102l9.979 11.465h1.274l11.678-65.396h-1.274c-14.863 48.198-38.006 64.122-65.608 64.122zM251.976 211h60.3v-2.123h-17.623l-60.725-158.82h-22.719l8.706 22.932-53.294 135.888h-17.623V211h39.917v-2.123h-19.534l22.931-58.39h57.116l22.294 58.39h-19.746V211zm-55.205-71.766l24.418-62.636 23.992 62.636h-48.41zM387.806 34.77c21.444 0 35.458-13.164 35.458-33.972h-18.26c0 20.171-2.123 31.85-17.198 31.85-14.651 0-18.473-11.679-18.473-31.85h-18.26c0 18.473 11.678 33.972 36.733 33.972zm-20.808 174.107h-21.02v-12.103l80.471-130.58v142.683h-21.02V211h64.122v-2.123h-21.02V52.181h21.02v-2.123h-64.122v2.123h21.02v8.705l-80.471 130.58V52.181h21.02v-2.123h-64.122v2.123h21.02v156.696h-21.02V211h64.122v-2.123zm233.222 4.246H579.2v-20.595c48.622-1.274 87.053-26.329 87.053-62.848 0-36.52-38.431-61.575-87.053-62.849V47.934h21.02v-2.123h-64.122v2.123h21.02v18.897c-48.622 1.274-86.841 26.329-86.841 62.849 0 36.519 38.219 61.574 86.841 62.848v20.595h-21.02v2.123h64.122v-2.123zM557.118 69.167V189.98c-35.883-2.76-62.636-26.965-62.636-67.944 0-33.76 26.116-52.869 62.636-52.869zm84.718 67.944c0 33.76-25.904 52.869-62.636 53.081V69.379c35.671 2.973 62.636 26.965 62.636 67.732zm149.246-84.93h17.623v-2.123h-39.917v2.123h19.534L740.336 150.7h-1.061l-50.958-98.519h19.746v-2.123h-61.574v2.123h17.623l64.334 122.724 7.644-15.5-14.438 29.726c-29.726-1.911-37.794 5.308-37.794 13.801 0 6.369 5.945 10.828 13.801 10.828 9.767 0 16.349-3.397 23.568-18.26l69.855-143.319zm23.694 148.415c11.466-24.842 15.712-80.471 16.986-148.415h62.211v156.696h-21.02V211h64.122v-2.123h-21.02V52.181h21.02v-2.123H807.769v2.123h21.021c-.425 50.958-2.973 104.039-12.74 136.737-4.246-1.061-8.281-1.486-13.164-1.486-15.287 0-20.383 7.219-20.383 14.013 0 7.856 6.369 12.315 13.801 12.315 7.644 0 13.801-2.76 18.472-13.164zm148.553 0c11.465-24.842 15.712-80.471 16.986-148.415h62.215v156.696h-21.02V211h64.12v-2.123h-21.02V52.181h21.02v-2.123H956.322v2.123h21.02c-.424 50.958-2.972 104.039-12.739 136.737-4.247-1.061-8.281-1.486-13.164-1.486-15.288 0-20.383 7.219-20.383 14.013 0 7.856 6.369 12.315 13.801 12.315 7.643 0 13.801-2.76 18.472-13.164zm190.381 8.281h-21.02v-12.103l80.47-130.58v142.683h-21.02V211h64.12v-2.123h-21.02V52.181h21.02v-2.123h-64.12v2.123h21.02v8.705l-80.47 130.58V52.181h21.02v-2.123h-64.12v2.123h21.02v156.696h-21.02V211h64.12v-2.123zm170.74 0h-21.02v-75.163h83.65v75.163h-21.02V211h64.13v-2.123h-21.02V52.181h21.02v-2.123h-64.13v2.123h21.02v70.28h-83.65v-70.28h21.02v-2.123h-64.12v2.123h21.02v156.696h-21.02V211h64.12v-2.123z" fill="#404040"/></svg><svg fill="none" viewBox="0 0 173 149" id="logo" xmlns="http://www.w3.org/2000/svg"><path d="M121.213 36.281c-10.708 0-20.665 3.32-29.017 8.887l5.996-30.409h46.041L162.757.947H86.842l-14.24 71.632H87.056c5.782-12.956 18.845-22.057 34.05-22.057 20.558 0 37.261 16.703 37.261 37.261 0 20.558-16.596 37.261-37.154 37.261v14.241c28.374-.107 51.395-23.128 51.395-51.502.107-28.481-23.021-51.502-51.395-51.502z" fill="#fff"/><path d="M121.533 75.684v6.425l3.427-3.641-.75-2.784h-2.677zM125.817 81.466l-2.891 2.89h3.747l-.856-2.89zM121.533 97.099l6.425-6.853h-6.425v6.853z" fill="#fff"/><path d="M121.32 64.013c-13.277 0-24.092 10.815-24.092 24.092s10.815 24.091 24.092 24.091 24.091-10.814 24.091-24.091c0-13.277-10.814-24.092-24.091-24.092zm11.242 41.652l-.428-1.606-3.105-11.029-7.602 7.817v8.03h-.214c-11.564 0-20.88-9.422-20.88-20.88 0-8.35 4.926-15.525 11.993-18.951v3.64c-5.247 3.105-8.78 8.78-8.78 15.312 0 8.887 6.638 16.275 15.204 17.453V90.246h-2.463v-5.889h2.463v-8.78h-1.927V67.44c1.392-.321 2.891-.428 4.39-.428 11.563 0 20.879 9.422 20.879 20.879.107 7.495-3.748 14.026-9.53 17.774z" fill="#fff"/><path d="M121.322 70.33c-.535 0-1.071 0-1.606.107v2.356h6.96l3.212 11.564h2.891v5.889h-1.285l2.677 9.743c2.998-3.105 4.711-7.388 4.711-11.992.107-9.743-7.816-17.667-17.56-17.667zM79.132.84H18.957L.433 14.76h61.888L41.442 119.904h14.134L79.132.84zM31.485 135.217l.642 2.891h.214l.536-2.998 3.426-9.851h4.604l-6.21 15.633c-.428 1.177-.964 2.248-1.392 3.212-.428.856-.964 1.606-1.392 2.248-.535.643-1.07 1.071-1.713 1.285-.643.321-1.392.428-2.249.428-.75 0-1.285 0-1.713-.107a4.06 4.06 0 01-1.392-.642l1.178-3.533c.321.214.75.321.964.321.32 0 .642.107.963.107.964 0 1.713-.75 2.142-2.356l-8.459-16.489h5.247l4.604 9.851zM106.593 135.217l.643 2.891h.214l.535-2.998 3.426-9.851h4.605l-6.211 15.633c-.428 1.177-.963 2.248-1.392 3.212-.428.856-.963 1.606-1.392 2.248-.535.643-1.07 1.071-1.713 1.285-.642.321-1.392.428-2.248.428-.75 0-1.285 0-1.713-.107a4.056 4.056 0 01-1.392-.642l1.177-3.533c.322.214.75.321.964.321.321 0 .643.107.964.107.963 0 1.713-.75 2.141-2.356l-8.459-16.489h5.247l4.604 9.851zM55.36 129.113h-8.673v18.631H42.19v-22.593h13.17v3.962zM70.136 138.321H61.89v9.423h-4.39v-22.593h4.39v9.209h8.245v-9.209h4.39v22.593h-4.39v-9.423zM94.551 129.113h-6.638v18.631h-4.39v-18.631h-6.639v-3.962h17.667v3.962z" fill="#fff"/></svg><svg fill="none" viewBox="0 0 43 43" id="logo-side" xmlns="http://www.w3.org/2000/svg"><path d="M43 21.5C43 33.374 33.374 43 21.5 43S0 33.374 0 21.5 9.626 0 21.5 0 43 9.626 43 21.5z" fill="#404040"/><path fill-rule="evenodd" clip-rule="evenodd" d="M18.13 3.546c-.59.113-.603.195-.603 3.703v3.588h1.605v7.48H17.26V23.659h1.872v12.889l-.742-.148c-.409-.082-1.43-.405-2.27-.72-.84-.313-2.26-1.058-3.155-1.656-.896-.597-2.241-1.82-2.991-2.72-.75-.899-1.706-2.366-2.125-3.26-.42-.895-.939-2.458-1.154-3.473-.215-1.016-.392-2.388-.392-3.049s.174-2.024.388-3.028c.212-1.004.675-2.447 1.027-3.205.352-.76 1.183-2.11 1.846-3.003.664-.892 1.938-2.154 2.831-2.805L14.02 8.3l.015-1.67c.009-.918-.095-1.669-.23-1.669-.134 0-1.135.595-2.224 1.322-1.088.727-2.54 1.921-3.227 2.654-.686.733-1.711 2.05-2.278 2.925-.567.876-1.366 2.596-1.777 3.824a17.352 17.352 0 00-.881 4.662c-.076 1.361.006 3.243.186 4.274.176 1.014.63 2.624 1.006 3.58.377.954 1.217 2.543 1.867 3.53.65.986 1.887 2.428 2.75 3.205.86.776 2.228 1.81 3.038 2.299.81.488 2.351 1.192 3.425 1.565 1.114.387 2.847.74 4.035.82l2.082.143.005-3.444.005-3.444 3.18-3.339c2.273-2.387 3.225-3.225 3.34-2.938.088.22.795 2.666 1.572 5.435l1.412 5.035 1.327-1.049c.73-.577 1.958-1.738 2.727-2.58.779-.852 1.875-2.501 2.472-3.719.59-1.203 1.263-2.909 1.496-3.79.26-.983.422-2.689.42-4.408-.003-1.677-.173-3.45-.424-4.408-.231-.881-.92-2.624-1.533-3.873-.894-1.824-1.564-2.72-3.407-4.549-1.592-1.58-2.885-2.585-4.22-3.28-1.06-.55-2.854-1.238-3.988-1.528-1.461-.373-2.85-.516-4.761-.49-1.485.02-2.97.088-3.3.152zm6.818 3.15c.919.217 2.483.787 3.477 1.266 1.21.583 2.432 1.49 3.7 2.741 1.04 1.029 2.275 2.549 2.745 3.379.469.83 1.092 2.441 1.384 3.582.292 1.14.529 2.866.527 3.834-.002.968-.187 2.535-.41 3.483-.224.947-.769 2.45-1.21 3.339-.443.889-1.138 2.02-1.546 2.514l-.742.897-1.021-3.702c-.562-2.036-1.079-3.852-1.149-4.036-.077-.202.096-.334.436-.334.536 0 .564-.133.564-2.671v-2.671H29.12l-1.122-4.074c-.618-2.24-1.246-4.525-1.396-5.076l-.274-1.001H20.47v-1.87l1.405.004c.772.002 2.155.18 3.074.397zm-.625 5.43c.242 1.15.236 1.165-1.136 2.535l-1.38 1.379v-5.234l1.137.082c1.105.08 1.143.114 1.38 1.239zm1.743 5.99c.011.11-.606.2-1.371.2h-1.392l1.053-1.077 1.053-1.077.318.877c.175.482.328.967.339 1.077zm-1.284 7.911c-1.19 1.303-2.347 2.52-2.57 2.704-.357.297-.405.017-.405-2.368v-2.704h5.14l-2.165 2.368z" fill="#fff"/></svg><svg fill="none" viewBox="0 0 1920 441" id="o-bottom" xmlns="http://www.w3.org/2000/svg"><path d="M1929.5 278l27.5-4V40H0v215.5L85 282l-3 3.5 66.5 12.5 51.5 15 16 9h12.5l22.5 4 15.5 3h10l3-3H310l20-2 4 5 4.5 5.5 11 16.5 14.5 5.5h7.5l9.5-3h9.5l10 3h8.5c-2.833 2-1.7 9.6 25.5 24 10.4-20.4 28-33.833 35.5-38h35l66.5-4 16 2h19l8-4.5 23.5-4.5 29.5-2.5v-3c3-1 11.4-3.5 21-5.5 73.2-4.8 125.167-34.667 142-49l22-3.5c4.167 0 14.1.3 20.5 1.5 7 12 13 11 16.5 10 27.6-10 45.834-8.167 51.5-6l-2.5 2.5 34.5 1.5 3 3-5 13.5h37.5v3.5c8.5-2.5 27.2-8.2 34-11 6.8-2.8 1.5-5.833-2-7h4.5l8-2h11.5l8-2.5c9.5.833 32.9 2 50.5 0s24.67 5.833 26 10c2.5 3.5 10.8 14 24 28 16 15.6 32 1.833 38-7 5.17-4.667 18.3-13 29.5-9 16 27.6 27.67 22.167 31.5 16l2.5 3.5 3.5 3.5 4.5-5 7-9 5-6h8.5l7.5-4.5 5.5-8 7-6.5 16-8 12-5.5 5-2 6.5-1h5.5l6 3v-3l1.5-5 3-2 6-1h7.5l32.5-9.5 16.5-4.5h5l4.5 4.5h33.5l4.5 3c2.83.667 8.7 2 9.5 2 .8 0 11.33 1.333 16.5 2l10.5 2.5 3.5 3c3.33 2 10.2 6 11 6 .8 0 7.67 1.333 11 2l32.5 3 58 1.5 5.5 4.5 8 6 14.5 8 24.5 8.5 28 11.5 3.5 4.5h9.5l3-4.5 8-13c5.33-6.5 19.6-21.6 34-30-7.6 9.2 1.5 6.833 7 4.5l18-11c5-1.833 19.2-2.2 36 11s33 14.833 39 14l34.5-5v1.5l15.5-4.5z" fill="#003F78"/><g filter="url(#ofilter0_d_804_1059)"><path d="M27.5 248L0 244V10h1957v215.5l-85 26.5 3 3.5-66.5 12.5-51.5 15-16 9h-12.5l-22.5 4-15.5 3h-10l-3-3H1647l-20-2-4 5-4.5 5.5-11 16.5-14.5 5.5h-7.5l-9.5-3h-9.5l-10 3h-8.5c2.83 2 1.7 9.6-25.5 24-10.4-20.4-28-33.833-35.5-38h-35l-66.5-4-16 2h-19l-8-4.5-23.5-4.5-29.5-2.5v-3c-3-1-11.4-3.5-21-5.5-73.2-4.8-125.17-34.667-142-49l-22-3.5c-4.17 0-14.1.3-20.5 1.5-7 12-13 11-16.5 10-27.6-10-45.83-8.167-51.5-6l2.5 2.5-34.5 1.5-3 3 5 13.5h-37.5v3.5c-8.5-2.5-27.2-8.2-34-11-6.8-2.8-1.5-5.833 2-7H912l-8-2h-11.5l-8-2.5c-9.5.833-32.9 2-50.5 0s-24.666 5.833-26 10c-2.5 3.5-10.8 14-24 28-16 15.6-32 1.833-38-7-5.166-4.667-18.3-13-29.5-9-16 27.6-27.666 22.167-31.5 16l-2.5 3.5-3.5 3.5-4.5-5-7-9-5-6H654l-7.5-4.5-5.5-8-7-6.5-16-8-12-5.5-5-2-6.5-1H589l-6 3v-3l-1.5-5-3-2-6-1H565l-32.5-9.5-16.5-4.5h-5l-4.5 4.5H473l-4.5 3c-2.833.667-8.7 2-9.5 2-.8 0-11.333 1.333-16.5 2l-10.5 2.5-3.5 3c-3.333 2-10.2 6-11 6-.8 0-7.666 1.333-11 2l-32.5 3-58 1.5-5.5 4.5-8 6-14.5 8-24.5 8.5-28 11.5-3.5 4.5h-9.5l-3-4.5-8-13c-5.333-6.5-19.6-21.6-34-30 7.6 9.2-1.5 6.833-7 4.5l-18-11c-5-1.833-19.2-2.2-36 11s-33 14.833-39 14L43 251v1.5L27.5 248z" fill="#003F78"/></g><defs><filter id="ofilter0_d_804_1059" x="-50" y="0" width="2057" height="440.5" filterUnits="userSpaceOnUse" color-interpolation-filters="sRGB"><feFlood flood-opacity="0" result="BackgroundImageFix"/><feColorMatrix in="SourceAlpha" values="0 0 0 0 0 0 0 0 0 0 0 0 0 0 0 0 0 0 127 0" result="hardAlpha"/><feOffset dy="40"/><feGaussianBlur stdDeviation="25"/><feComposite in2="hardAlpha" operator="out"/><feColorMatrix values="0 0 0 0 0 0 0 0 0 0 0 0 0 0 0 0 0 0 0.11 0"/><feBlend in2="BackgroundImageFix" result="effect1_dropShadow_804_1059"/><feBlend in="SourceGraphic" in2="effect1_dropShadow_804_1059" result="shape"/></filter></defs></svg><svg fill="none" viewBox="0 0 1920 441" id="p-bottom" xmlns="http://www.w3.org/2000/svg"><g filter="url(#pfilter0_d_582_1709)"><path d="M1892.5 248l27.5-4V10H-37v215.5L48 252l-3 3.5 66.5 12.5 51.5 15 16 9h12.5l22.5 4 15.5 3h10l3-3H273l20-2 4 5 4.5 5.5 11 16.5 14.5 5.5h7.5l9.5-3h9.5l10 3h8.5c-2.833 2-1.7 9.6 25.5 24 10.4-20.4 28-33.833 35.5-38h35l66.5-4 16 2h19l8-4.5 23.5-4.5 29.5-2.5v-3c3-1 11.4-3.5 21-5.5 73.2-4.8 125.167-34.667 142-49l22-3.5c4.167 0 14.1.3 20.5 1.5 7 12 13 11 16.5 10 27.6-10 45.833-8.167 51.5-6l-2.5 2.5 34.5 1.5 3 3-5 13.5h37.5v3.5c8.5-2.5 27.2-8.2 34-11 6.8-2.8 1.5-5.833-2-7h4.5l8-2h11.5l8-2.5c9.5.833 32.9 2 50.5 0s24.67 5.833 26 10c2.5 3.5 10.8 14 24 28 16 15.6 32 1.833 38-7 5.17-4.667 18.3-13 29.5-9 16 27.6 27.67 22.167 31.5 16l2.5 3.5 3.5 3.5 4.5-5 7-9 5-6h8.5l7.5-4.5 5.5-8 7-6.5 16-8 12-5.5 5-2 6.5-1h5.5l6 3v-3l1.5-5 3-2 6-1h7.5l32.5-9.5 16.5-4.5h5l4.5 4.5h33.5l4.5 3c2.83.667 8.7 2 9.5 2 .8 0 11.33 1.333 16.5 2l10.5 2.5 3.5 3c3.33 2 10.2 6 11 6 .8 0 7.67 1.333 11 2l32.5 3 58 1.5 5.5 4.5 8 6 14.5 8 24.5 8.5 28 11.5 3.5 4.5h9.5l3-4.5 8-13c5.33-6.5 19.6-21.6 34-30-7.6 9.2 1.5 6.833 7 4.5l18-11c5-1.833 19.2-2.2 36 11s33 14.833 39 14l34.5-5v1.5l15.5-4.5z" fill="#11151A"/></g><defs><filter id="pfilter0_d_582_1709" x="-87" y="0" width="2057" height="440.5" filterUnits="userSpaceOnUse" color-interpolation-filters="sRGB"><feFlood flood-opacity="0" result="BackgroundImageFix"/><feColorMatrix in="SourceAlpha" values="0 0 0 0 0 0 0 0 0 0 0 0 0 0 0 0 0 0 127 0" result="hardAlpha"/><feOffset dy="40"/><feGaussianBlur stdDeviation="25"/><feComposite in2="hardAlpha" operator="out"/><feColorMatrix values="0 0 0 0 0 0 0 0 0 0 0 0 0 0 0 0 0 0 0.11 0"/><feBlend in2="BackgroundImageFix" result="effect1_dropShadow_582_1709"/><feBlend in="SourceGraphic" in2="effect1_dropShadow_582_1709" result="shape"/></filter></defs></svg></svg>